<?xml version="1.0" encoding="UTF-8"?>
<svg version="1.1" xmlns="http://www.w3.org/2000/svg" width="236" height="236">
<path d="M0 0 C0.66085602 0.00248749 1.32171204 0.00497498 2.00259399 0.00753784 C34.03261261 0.19382921 62.58061413 12.76238443 85.4375 35.0625 C98.29554291 48.07161652 107.27832771 63.75516091 113.125 81 C113.41141357 81.84248291 113.69782715 82.68496582 113.99291992 83.55297852 C117.6710776 94.97683846 118.61647777 106.10148313 118.5625 118.0625 C118.56001251 118.72335602 118.55752502 119.38421204 118.55496216 120.06509399 C118.36867079 152.09511261 105.80011557 180.64311413 83.5 203.5 C70.49088348 216.35804291 54.80733909 225.34082771 37.5625 231.1875 C36.29877563 231.61712036 36.29877563 231.61712036 35.00952148 232.05541992 C23.58566154 235.7335776 12.46101687 236.67897777 0.5 236.625 C-0.16085602 236.62251251 -0.82171204 236.62002502 -1.50259399 236.61746216 C-33.53261261 236.43117079 -62.08061413 223.86261557 -84.9375 201.5625 C-97.79554291 188.55338348 -106.77832771 172.86983909 -112.625 155.625 C-112.91141357 154.78251709 -113.19782715 153.94003418 -113.49291992 153.07202148 C-117.1710776 141.64816154 -118.11647777 130.52351687 -118.0625 118.5625 C-118.06001251 117.90164398 -118.05752502 117.24078796 -118.05496216 116.55990601 C-117.86867079 84.52988739 -105.30011557 55.98188587 -83 33.125 C-69.99088348 20.26695709 -54.30733909 11.28417229 -37.0625 5.4375 C-36.22001709 5.15108643 -35.37753418 4.86467285 -34.50952148 4.56958008 C-23.08566154 0.8914224 -11.96101687 -0.05397777 0 0 Z " fill="#F02A2A" transform="translate(117.75,-0.3125)"/>
<path d="M0 0 C0.66085602 0.00248749 1.32171204 0.00497498 2.00259399 0.00753784 C34.03261261 0.19382921 62.58061413 12.76238443 85.4375 35.0625 C98.29554291 48.07161652 107.27832771 63.75516091 113.125 81 C113.41141357 81.84248291 113.69782715 82.68496582 113.99291992 83.55297852 C117.6710776 94.97683846 118.61647777 106.10148313 118.5625 118.0625 C118.56001251 118.72335602 118.55752502 119.38421204 118.55496216 120.06509399 C118.36867079 152.09511261 105.80011557 180.64311413 83.5 203.5 C70.49088348 216.35804291 54.80733909 225.34082771 37.5625 231.1875 C36.29877563 231.61712036 36.29877563 231.61712036 35.00952148 232.05541992 C23.58566154 235.7335776 12.46101687 236.67897777 0.5 236.625 C-0.16085602 236.62251251 -0.82171204 236.62002502 -1.50259399 236.61746216 C-33.53261261 236.43117079 -62.08061413 223.86261557 -84.9375 201.5625 C-97.79554291 188.55338348 -106.77832771 172.86983909 -112.625 155.625 C-112.91141357 154.78251709 -113.19782715 153.94003418 -113.49291992 153.07202148 C-117.1710776 141.64816154 -118.11647777 130.52351687 -118.0625 118.5625 C-118.06001251 117.90164398 -118.05752502 117.24078796 -118.05496216 116.55990601 C-117.86867079 84.52988739 -105.30011557 55.98188587 -83 33.125 C-69.99088348 20.26695709 -54.30733909 11.28417229 -37.0625 5.4375 C-36.22001709 5.15108643 -35.37753418 4.86467285 -34.50952148 4.56958008 C-23.08566154 0.8914224 -11.96101687 -0.05397777 0 0 Z M-76.75 48.3125 C-95.73276739 70.37921856 -104.45376535 96.80568358 -102.96142578 125.74316406 C-101.22673143 146.82390699 -92.31919343 167.25042761 -78.75 183.3125 C-78.06035156 184.13621094 -77.37070313 184.95992187 -76.66015625 185.80859375 C-59.98292342 205.06508228 -36.02413605 217.3344214 -10.75 220.3125 C17.34652641 221.94425738 44.61943229 214.83047236 66.25 196.3125 C67.07113281 195.62414062 67.89226562 194.93578125 68.73828125 194.2265625 C87.16922504 178.284775 99.86822425 154.87531235 103.04296875 130.59375 C104.89231023 101.28343219 98.90198418 73.94851649 79.25 51.3125 C78.56292969 50.49394531 77.87585938 49.67539062 77.16796875 48.83203125 C72.04079217 42.89671826 66.55965531 37.95906725 60.25 33.3125 C59.56679687 32.79042969 58.88359375 32.26835938 58.1796875 31.73046875 C47.67807505 24.16371757 34.66934322 19.55587179 22.25 16.3125 C21.43273437 16.08691406 20.61546875 15.86132812 19.7734375 15.62890625 C-15.66154476 7.47323573 -52.37816018 22.78620461 -76.75 48.3125 Z " fill="#E2DDCD" transform="translate(117.75,-0.3125)"/>
<path d="M0 0 C2.88376522 2.14433824 4.65556602 3.65984757 6.4375 6.8125 C7.27260133 13.47773362 5.77789818 19.86262308 4.25 26.3125 C3.78718587 28.35113737 3.32631608 30.39021693 2.8671875 32.4296875 C2.62967773 33.47866211 2.39216797 34.52763672 2.14746094 35.60839844 C0.29660048 43.96145644 -1.31659758 52.3659351 -2.96289062 60.76123047 C-3.55830538 63.7911546 -4.16185201 66.81938826 -4.765625 69.84765625 C-5.13596493 71.73166314 -5.50578209 73.6157729 -5.875 75.5 C-6.04652588 76.35480957 -6.21805176 77.20961914 -6.39477539 78.09033203 C-7.22884229 82.40105404 -7.75513266 86.39621802 -7.5625 90.8125 C-4.55471479 91.81509507 -2.02429353 92.11564642 1.125 92.375 C2.61580078 92.50068359 2.61580078 92.50068359 4.13671875 92.62890625 C4.89597656 92.68949219 5.65523437 92.75007813 6.4375 92.8125 C6.4375 95.7825 6.4375 98.7525 6.4375 101.8125 C4.54296779 102.46214023 2.64681351 103.10705115 0.75 103.75 C-0.83361328 104.28947266 -0.83361328 104.28947266 -2.44921875 104.83984375 C-10.3074389 107.29492131 -19.46125528 108.6832432 -27.125 105.1875 C-33.30465806 99.16629471 -33.30465806 99.16629471 -33.79370117 94.7019043 C-33.79164235 88.01827068 -32.84303215 81.78632893 -31.5 75.25 C-31.28174561 74.14881836 -31.06349121 73.04763672 -30.83862305 71.91308594 C-29.52580821 65.3540069 -28.14238428 58.81038321 -26.7421875 52.26953125 C-26.58756546 51.54603989 -26.43294342 50.82254852 -26.27363586 50.07713318 C-25.51576457 46.53573732 -24.75153218 42.99595322 -23.97436523 39.45874023 C-22.11799602 30.93211763 -20.70295813 22.46425133 -19.5625 13.8125 C-26.4925 13.3175 -26.4925 13.3175 -33.5625 12.8125 C-33.5625 9.8425 -33.5625 6.8725 -33.5625 3.8125 C-11.12966418 -3.70988806 -11.12966418 -3.70988806 0 0 Z " fill="#FEFCFC" transform="translate(126.5625,84.1875)"/>
<path d="M0 0 C3.97202045 2.05956616 6.66865542 4.19235986 9 8 C9.85474541 13.52889373 9.71478339 18.49101285 7.3125 23.5625 C3.22796649 27.8678191 0.4932021 29.19462509 -5.4375 29.5 C-9.18276761 29.39904939 -11.60535952 29.1098855 -14.5625 26.75 C-18.9404266 21.81080076 -19.45114332 18.19421834 -19.3125 11.6953125 C-18.86619996 7.84597468 -17.65454107 5.79425376 -15 3 C-10.27896221 -0.2937473 -5.59818552 -0.91296574 0 0 Z " fill="#FEFCFC" transform="translate(134,43)"/>
</svg>
