<?xml version="1.0" encoding="UTF-8"?>
<svg id="Layer_2" data-name="Layer 2" xmlns="http://www.w3.org/2000/svg" viewBox="0 0 477.13 471.27">
  <defs>
    <style>
      .cls-1 {
        fill: #173120;
      }
    </style>
  </defs>
  <g id="Layer_1-2" data-name="Layer 1">
    <g>
      <path class="cls-1" d="M264.11,395.22c0-13.55,.1-26.52-.15-39.48-.03-1.36-1.87-3.08-3.28-3.97-19.81-12.49-39.69-24.87-59.54-37.29-1.31-.82-2.56-1.72-4.34-2.91,1.77-1.21,3.12-2.2,4.53-3.08,19.72-12.34,39.42-24.7,59.19-36.95,2.5-1.55,3.74-3.11,3.7-6.32-.22-14.73-.1-29.46-.1-44.72h-45.51v-22.9h-68.18v-15.28h67.98v-22.73h45.45v-53.16h-60.24V0h136.17V106.01h-60.11v53.33h44.99v60.75h-45.36c0,3.46,0,6.42,0,9.37,0,11.88,.13,23.77-.09,35.65-.06,3.14,1.05,4.78,3.6,6.36,19.91,12.32,39.74,24.77,59.59,37.18,1.31,.82,2.58,1.7,4.3,2.84-1.58,1.09-2.79,2.01-4.07,2.81-19.98,12.5-39.95,25.03-59.99,37.43-2.4,1.48-3.47,3.03-3.42,5.98,.19,12.32,.08,24.65,.08,37.28,1.9,.09,3.43,.22,4.97,.23,13.62,.02,27.25-.05,40.87,.03,12.66,.08,22.49,9.95,22.58,22.65,.08,10.3,.09,20.6,0,30.89-.11,12.4-9.97,22.39-22.33,22.42-35.8,.08-71.6,.08-107.4,0-12.34-.03-22.17-10.06-22.27-22.48-.08-10.3-.08-20.6,0-30.89,.1-12.67,9.96-22.53,22.64-22.59,15.03-.08,30.06-.02,45.77-.02ZM324.73,15.26h-105.89V90.76h105.89V15.26Zm-52.87,395.13c-16.95,0-33.9-.02-50.85,0-7.38,.01-10.12,2.7-10.15,9.95-.04,8.56-.04,17.11,0,25.67,.03,7.3,2.74,10.03,10.06,10.04,33.9,.02,67.8,.02,101.7,0,7.2,0,9.89-2.8,9.92-10.19,.03-8.4,.03-16.79,0-25.19-.02-7.62-2.67-10.26-10.31-10.27-16.79-.02-33.58,0-50.37,0Zm-45.94-99.12c.63,.67,.88,1.07,1.24,1.29,14.06,8.83,28.1,17.71,42.27,26.36,1.21,.74,3.69,.56,4.98-.21,8.02-4.76,15.88-9.81,23.79-14.77,6.39-4,12.77-8,19.34-12.11-.63-.69-.87-1.1-1.23-1.33-14.07-8.84-28.11-17.71-42.28-26.37-1.2-.73-3.69-.53-4.99,.24-7.76,4.59-15.34,9.47-22.98,14.26-6.65,4.17-13.3,8.35-20.13,12.64Zm7.95-106.53h75.64v-29.84h-75.64v29.84Z"/>
      <path class="cls-1" d="M355.48,60.56v-15.18c1.69,0,3.35,0,5,0,22.65,0,45.29-.04,67.94,.05,2.78,.01,4.45-.5,5.92-3.29,4.72-8.96,14.38-13.48,23.88-11.76,9.29,1.68,16.99,9.43,18.58,18.7,1.64,9.56-2.89,19.02-11.91,23.81-2.57,1.37-3.15,2.89-3.15,5.52,.06,69.22,.05,138.44,0,207.66,0,2.61,.53,4.16,3.12,5.53,9.04,4.79,13.58,14.23,11.94,23.8-1.58,9.25-9.27,17.02-18.56,18.73-9.45,1.74-18.91-2.96-24.08-11.63-.87-1.46-2.82-3.19-4.29-3.22-15.67-.23-31.34-.14-47.19-.14,5.67,5.52,11.21,10.91,16.93,16.47-4.66,4.44-8.17,7.78-11.44,10.9-11.5-11.56-23.2-23.32-34.49-34.67,11.27-11.24,23.08-23.02,35.06-34.97,2.46,2.78,5.66,6.39,8.84,9.98-4.84,4.68-10.36,10.02-15.89,15.37,.26,.43,.53,.86,.79,1.29,.95,.15,1.9,.44,2.85,.44,14.57,.03,29.14-.04,43.71,.08,2.53,.02,3.66-.96,5.17-2.96,2.7-3.57,5.98-6.87,9.57-9.54,2.05-1.52,2.88-2.73,2.88-5.21-.06-69.38-.06-138.75,0-208.13,0-2.49-.83-3.7-2.91-5.2-3.5-2.53-6.82-5.63-9.31-9.14-1.68-2.36-3.01-3.37-5.9-3.36-22.49,.12-44.97,.07-67.46,.07-1.71,0-3.42,0-5.59,0Zm98.89-15.15c-3.89-.12-7.62,3.44-7.74,7.38-.12,3.89,3.44,7.63,7.37,7.75,3.88,.12,7.62-3.45,7.74-7.38,.12-3.89-3.44-7.63-7.37-7.75Zm7.37,266.37c.14-3.88-3.4-7.65-7.33-7.79-3.88-.14-7.64,3.4-7.78,7.33-.14,3.89,3.39,7.64,7.33,7.79,3.87,.14,7.64-3.41,7.79-7.34Z"/>
      <path class="cls-1" d="M182.81,433.23c-11.67,11.65-23.4,23.37-35.3,35.25-3.08-3.28-6.41-6.8-9.92-10.53,5.25-5.03,10.82-10.36,17.35-16.62-2.74-.28-3.9-.5-5.05-.5-19.32-.02-38.64,.06-57.95-.09-2.96-.02-4.37,.96-5.76,3.53-4.67,8.65-14.16,13.14-23.56,11.59-9.23-1.52-17.04-9.22-18.78-18.51-1.74-9.25,2.65-19.22,11.24-23.69,3.37-1.76,3.8-3.82,3.79-7.05-.07-49.89-.05-99.78-.05-149.67,0-1.87,0-3.75,0-5.92h15.17c0,2.02,0,3.88,0,5.74,0,50.05,.01,100.09-.03,150.14,0,3.01,.49,4.89,3.56,6.75,3.61,2.19,6.12,6.15,9.22,9.23,1.08,1.08,2.47,2.63,3.73,2.64,20.87,.16,41.74,.12,63.29-.83-5.86-5.12-11.71-10.25-17.35-15.18,4.57-4.78,7.93-8.28,11.02-11.51,11.89,11.85,23.65,23.55,35.37,35.23Zm-116.25,7.56c3.92-.1,7.5-3.83,7.4-7.72-.1-3.93-3.82-7.51-7.72-7.4-3.93,.1-7.5,3.83-7.4,7.72,.1,3.93,3.82,7.5,7.71,7.4Z"/>
      <path class="cls-1" d="M66.42,142.39c22.09,15.79,43.94,31.4,66.43,47.47-22.34,15.97-44.17,31.58-66.41,47.48-21.91-15.65-43.86-31.33-66.45-47.46,22.34-15.97,44.16-31.57,66.42-47.48Zm.02,76.06c13.41-9.6,26.46-18.95,39.95-28.61-13.8-9.85-26.9-19.2-40-28.55-13.39,9.6-26.43,18.94-39.92,28.6,13.69,9.78,26.67,19.06,39.97,28.57Z"/>
      <path class="cls-1" d="M112.31,60.82h14.55v14.64h-14.55v-14.64Z"/>
      <path class="cls-1" d="M142.78,60.82h14.62v14.59h-14.62v-14.59Z"/>
      <path class="cls-1" d="M187.78,75.54h-14.55v-14.64h14.55v14.64Z"/>
      <path class="cls-1" d="M377.82,440.59h-14.62v-14.59h14.62v14.59Z"/>
      <path class="cls-1" d="M408.25,440.72h-14.48v-14.73h14.48v14.73Z"/>
      <path class="cls-1" d="M438.88,425.94v14.5h-14.75v-14.5h14.75Z"/>
      <path class="cls-1" d="M233.8,45.07v-14.53h75.56v14.53h-75.56Z"/>
      <path class="cls-1" d="M233.9,75.42v-14.57h45.15v14.57h-45.15Z"/>
      <path class="cls-1" d="M309.42,75.53h-14.53v-14.62h14.53v14.62Z"/>
    </g>
  </g>
</svg>