<?xml version="1.0" encoding="UTF-8"?>
<svg version="1.1" xmlns="http://www.w3.org/2000/svg" width="512" height="512">
<path d="M0 0 C16.83 0 33.66 0 51 0 C51 102.96 51 205.92 51 312 C-43.71 312 -138.42 312 -236 312 C-236 306.39 -236 300.78 -236 295 C-216.53 295 -197.06 295 -177 295 C-177 264.31 -177 233.62 -177 202 C-159.84 202 -142.68 202 -125 202 C-125 232.69 -125 263.38 -125 295 C-122.69 295 -120.38 295 -118 295 C-118 244.84 -118 194.68 -118 143 C-101.17 143 -84.34 143 -67 143 C-67 193.16 -67 243.32 -67 295 C-64.36 295 -61.72 295 -59 295 C-59 214.48 -59 133.96 -59 51 C-42.17 51 -25.34 51 -8 51 C-8 131.52 -8 212.04 -8 295 C-5.36 295 -2.72 295 0 295 C0 197.65 0 100.3 0 0 Z " fill="#34495E" transform="translate(451,193)"/>
<path d="M0 0 C1.902052 0.00241699 1.902052 0.00241699 3.8425293 0.00488281 C4.24088866 17.49459745 4.54001724 34.98288352 4.72333622 52.47610664 C4.8107461 60.60004047 4.92973765 68.72114518 5.125 76.84326172 C5.29525468 83.9285819 5.4043007 91.01185305 5.44203371 98.09916198 C5.46407423 101.84803024 5.51524323 105.5910413 5.63994026 109.33801651 C6.42546461 133.88654172 6.42546461 133.88654172 0.19308472 140.84539795 C-3.26384261 143.98251339 -6.96542098 146.4513102 -11.020998 148.74515915 C-14.34241414 150.70355838 -17.24659235 153.12638124 -20.2199707 155.56738281 C-21.35450111 156.45689977 -22.49097043 157.34395427 -23.63012695 158.22753906 C-27.51364777 161.26972166 -31.33594787 164.38541226 -35.1574707 167.50488281 C-40.68080727 172.01255495 -46.24931667 176.45331049 -51.8684082 180.84082031 C-56.34184045 184.34264737 -60.75604624 187.91310961 -65.1574707 191.50488281 C-71.83730318 196.95358706 -78.58429971 202.30824413 -85.37817383 207.61376953 C-88.60122836 210.13366041 -91.81625308 212.66377598 -95.0324707 215.19238281 C-96.21733415 216.12341361 -97.40222683 217.05440721 -98.5871582 217.98535156 C-99.43536133 218.65179688 -100.28356445 219.31824219 -101.1574707 220.00488281 C-120.61563311 201.07709621 -131.24649757 169.7795713 -132.1574707 143.00488281 C-132.19743164 141.96847656 -132.23739258 140.93207031 -132.27856445 139.86425781 C-132.91170395 107.23895197 -122.9919922 73.75348938 -101.1574707 49.00488281 C-100.46008789 48.18761719 -99.76270508 47.37035156 -99.04418945 46.52832031 C-75.44783981 19.45329035 -42.54006264 2.77120998 -6.67700195 0.08300781 C-4.44827866 0.01390011 -2.22951313 -0.00283311 0 0 Z " fill="#66CEDB" transform="translate(145.157470703125,32.9951171875)"/>
<path d="M0 0 C2.64710151 1.05469553 4.08389783 2.46147481 6.09539413 4.48112583 C6.88340912 5.26501682 7.6714241 6.04890781 8.48331833 6.85655308 C9.33855591 7.72257648 10.19379349 8.58859989 11.07494736 9.48086643 C11.98261353 10.38809452 12.89027969 11.29532261 13.8254509 12.23004246 C16.31330192 14.71703237 18.79179166 17.21316677 21.26871777 19.7110312 C23.85918181 22.3202426 26.45813781 24.92096695 29.05620956 27.52259922 C33.97430666 32.45002248 38.88470612 37.38504349 43.79239392 42.32283205 C49.38017005 47.94413438 54.97646199 53.55692566 60.57348967 59.1690141 C72.08641531 70.7133017 83.58858589 82.26824391 95.08373642 93.83023167 C87.75538282 109.5095475 63.66138489 120.64983946 48.07201767 126.45132542 C12.61156794 139.0111593 -25.00595182 137.90327316 -59.25708389 122.04336643 C-76.21070008 113.76178943 -90.73461564 102.0027826 -103.40845108 88.09585667 C-103.91489151 87.54188206 -104.42133194 86.98790745 -104.94311905 86.41714573 C-105.26425674 85.89346409 -105.58539444 85.36978245 -105.91626358 84.83023167 C-104.59933317 80.87944045 -102.06242792 79.36778727 -98.85376358 76.95523167 C-97.57017771 75.96959734 -96.28766702 74.98256159 -95.00610733 73.99429417 C-94.33434464 73.47770237 -93.66258194 72.96111057 -92.9704628 72.42886448 C-89.57348304 69.78524391 -86.24695184 67.05655627 -82.91626358 64.33023167 C-77.39360195 59.8217472 -71.82439998 55.38179023 -66.20532608 50.99429417 C-61.7318965 47.4924692 -57.31759156 43.92212002 -52.91626358 40.33023167 C-47.39367123 35.82328849 -41.82657586 31.38238711 -36.20752335 26.99649143 C-31.70959425 23.47645605 -27.27750682 19.88034984 -22.85376358 16.26773167 C-20.85688017 14.64580679 -18.85854648 13.02569866 -16.85913467 11.40689182 C-15.57285979 10.36306634 -14.28928354 9.31590583 -13.00854874 8.26529026 C-11.23748282 6.81606671 -9.45398813 5.38382085 -7.66626358 3.95523167 C-6.65048233 3.13280979 -5.63470108 2.31038792 -4.58813858 1.46304417 C-1.91626358 -0.16976833 -1.91626358 -0.16976833 0 0 Z " fill="#F6BF58" transform="translate(162.91626358032227,202.16976833343506)"/>
<path d="M0 0 C16.83 0 33.66 0 51 0 C51 97.35 51 194.7 51 295 C34.17 295 17.34 295 0 295 C0 197.65 0 100.3 0 0 Z " fill="#E74C3C" transform="translate(451,193)"/>
<path d="M0 0 C3.85027991 1.78200687 6.2799142 4.07675405 9.25 7.125 C10.14203125 8.03507812 11.0340625 8.94515625 11.953125 9.8828125 C12.96632813 10.93082031 12.96632813 10.93082031 14 12 C6.26821495 21.31747964 -2.39690869 29.80054726 -10.90537167 38.40200043 C-13.71337733 41.24070539 -16.5127984 44.08686538 -19.29370117 46.95214844 C-21.99978524 49.74007489 -24.72491331 52.50796452 -27.4647541 55.26271057 C-28.50148017 56.31167745 -29.53130193 57.36751595 -30.55387688 58.43028259 C-31.98253351 59.91231645 -33.4343425 61.36722899 -34.89428711 62.81835938 C-35.71336044 63.6521814 -36.53243378 64.48600342 -37.37632751 65.34509277 C-40 67 -40 67 -43.55029297 66.85231018 C-46.22242523 66.19211338 -48.74141886 65.53845572 -51.30102539 64.54467773 C-52.07124527 64.25007156 -52.84146515 63.95546539 -53.63502502 63.65193176 C-54.44769333 63.33238022 -55.26036163 63.01282867 -56.09765625 62.68359375 C-56.95983261 62.3503862 -57.82200897 62.01717865 -58.71031189 61.6738739 C-60.54636156 60.96420357 -62.38142762 60.25198398 -64.21557617 59.53741455 C-67.0913261 58.42636298 -69.97630773 57.34337209 -72.86523438 56.26708984 C-88.90353411 50.25801174 -88.90353411 50.25801174 -95.18359375 46.66796875 C-101.81066341 42.90369647 -108.72067959 41.12730639 -116.24707031 42.95068359 C-118.03252161 43.48940485 -119.80963841 44.05639685 -121.578125 44.6484375 C-122.5241156 44.94399536 -123.4701062 45.23955322 -124.44476318 45.54406738 C-132.84218853 48.22262125 -141.07558053 51.33912174 -149.26660156 54.58789062 C-153 56 -153 56 -155 56 C-155.26283783 56.85099274 -155.52567566 57.70198547 -155.79647827 58.57876587 C-157.04686448 62.133221 -158.56634559 65.37264273 -160.25634766 68.73974609 C-160.73958748 69.70666382 -160.73958748 69.70666382 -161.23258972 70.69311523 C-162.28929568 72.80514335 -163.35162589 74.91428716 -164.4140625 77.0234375 C-165.15142203 78.49442307 -165.88842652 79.96558667 -166.62509155 81.43692017 C-168.55814808 85.29542333 -170.49599879 89.15149897 -172.43487549 93.00708008 C-174.41522762 96.94726888 -176.39101174 100.88974665 -178.3671875 104.83203125 C-182.2403377 112.5569284 -186.11855831 120.27926568 -190 128 C-189.04498973 129.28125659 -188.08888676 130.56169876 -187.13232422 131.84179688 C-186.6000119 132.55493042 -186.06769958 133.26806396 -185.51925659 134.00280762 C-183.80805474 136.25232842 -182.00724459 138.39188606 -180.125 140.5 C-179.52945313 141.1703125 -178.93390625 141.840625 -178.3203125 142.53125 C-177.66675781 143.25828125 -177.66675781 143.25828125 -177 144 C-169.38607341 137.4964377 -161.87146222 130.89619761 -154.4375 124.1875 C-151.66851101 121.70250988 -148.86802697 119.25602349 -146.0625 116.8125 C-143.69035571 114.72788836 -141.34443935 112.61571356 -139 110.5 C-135.38323655 107.23609152 -131.73610392 104.01209051 -128.0625 100.8125 C-125.69035571 98.72788836 -123.34443935 96.61571356 -121 94.5 C-117.86544464 91.67455334 -114.72650936 88.85495597 -111.5625 86.0625 C-110.94503906 85.51722656 -110.32757813 84.97195313 -109.69140625 84.41015625 C-105.56076084 80.96636181 -105.56076084 80.96636181 -102.43188477 81.15405273 C-97.84739127 82.28411391 -93.50650583 83.87603736 -89.08984375 85.53515625 C-88.12712051 85.89210068 -87.16439728 86.2490451 -86.17250061 86.61680603 C-83.09227668 87.76035934 -80.01491055 88.91140013 -76.9375 90.0625 C-74.92660792 90.80971761 -72.91554165 91.5564666 -70.90429688 92.30273438 C-65.92675399 94.15176994 -60.95457974 96.01478167 -55.98406982 97.88262939 C-52.94432237 99.02084822 -49.90041905 100.14740907 -46.85595703 101.27294922 C-44.92599318 101.99285962 -42.99613824 102.71306207 -41.06640625 103.43359375 C-40.16566879 103.76384048 -39.26493134 104.09408722 -38.3368988 104.43434143 C-37.51617386 104.7427446 -36.69544891 105.05114777 -35.84985352 105.36889648 C-35.12766129 105.63669418 -34.40546906 105.90449188 -33.66139221 106.18040466 C-32 107 -32 107 -31 109 C-31.90760362 111.59732225 -32.87067892 114.09450975 -33.9375 116.625 C-34.22818359 117.33140625 -34.51886719 118.0378125 -34.81835938 118.765625 C-35.53867488 120.51327573 -36.26845694 122.25701915 -37 124 C-41.1736724 123.41438519 -44.83344913 122.45279858 -48.75830078 120.92700195 C-49.86609894 120.50018631 -50.97389709 120.07337067 -52.11526489 119.63362122 C-53.2966806 119.17315903 -54.47809631 118.71269684 -55.6953125 118.23828125 C-57.5666817 117.52113511 -59.43805791 116.80400666 -61.30984306 116.08794689 C-65.91186487 114.32597942 -70.50957518 112.55305705 -75.10205078 110.76635742 C-77.68622179 109.76156002 -80.27326567 108.76494073 -82.86398315 107.77714539 C-85.30171186 106.84721799 -87.734795 105.90500363 -90.16262817 104.94953918 C-91.26412201 104.53218002 -92.36561584 104.11482086 -93.50048828 103.68481445 C-94.46834259 103.31032669 -95.4361969 102.93583893 -96.43338013 102.55000305 C-98.95742303 101.77958696 -98.95742303 101.77958696 -101.15914917 102.73381042 C-104.11277964 104.7654015 -106.65982156 107.22358008 -109.25 109.6875 C-110.41725351 110.78201327 -111.58521929 111.87576745 -112.75390625 112.96875 C-113.31480957 113.4946875 -113.87571289 114.020625 -114.45361328 114.5625 C-116.9318284 116.86621497 -119.48461939 119.07932331 -122.04296875 121.29296875 C-124.3855915 123.33633431 -126.69273422 125.41680859 -129 127.5 C-132.61676345 130.76390848 -136.26389608 133.98790949 -139.9375 137.1875 C-142.30964429 139.27211164 -144.65556065 141.38428644 -147 143.5 C-150.61676345 146.76390848 -154.26389608 149.98790949 -157.9375 153.1875 C-161.16059394 156.01991589 -164.33808719 158.90263906 -167.5234375 161.77734375 C-170.9863781 164.88525101 -174.48734304 167.94850192 -178 171 C-183.10734212 167.20223278 -186.84195556 162.69825692 -190.80859375 157.73828125 C-193.4627236 154.4218017 -196.21832365 151.20962655 -199 148 C-201.75472878 151.3779539 -203.66068379 155.0628716 -205.57421875 158.953125 C-205.90291458 159.61334656 -206.23161041 160.27356812 -206.57026672 160.95379639 C-207.6131344 163.05067379 -208.65038627 165.15027172 -209.6875 167.25 C-210.39611471 168.67726692 -211.10509516 170.10435233 -211.81445312 171.53125 C-213.54721049 175.01874583 -215.27493871 178.50869139 -217 182 C-217.99 182 -218.98 182 -220 182 C-221.75667781 180.04133484 -223.31301163 178.10655534 -224.875 176 C-225.86053613 174.70723196 -226.8475758 173.41560908 -227.8359375 172.125 C-228.3525293 171.44695312 -228.86912109 170.76890625 -229.40136719 170.0703125 C-232.03491484 166.65973155 -234.76887907 163.33256939 -237.5 160 C-242.238583 154.20095091 -246.90402837 148.35119503 -251.48632812 142.42773438 C-253.53559389 139.79296411 -255.61114906 137.32837913 -258 135 C-258.94842773 135.42933838 -259.89685547 135.85867676 -260.87402344 136.30102539 C-264.39488203 137.8911844 -267.92240795 139.46604441 -271.45214844 141.03637695 C-272.97875092 141.71809287 -274.5035149 142.40394149 -276.02636719 143.09399414 C-278.21599352 144.08532106 -280.41180721 145.06158466 -282.609375 146.03515625 C-283.2886908 146.34655045 -283.96800659 146.65794464 -284.66790771 146.97877502 C-287.30967577 148.13540544 -289.44386733 149.02444032 -292.35546875 148.89648438 C-295.42315454 147.22419485 -296.13008671 143.57154305 -297.25 140.4375 C-297.518125 139.72658203 -297.78625 139.01566406 -298.0625 138.28320312 C-298.7224131 136.52736291 -299.36306641 134.76430603 -300 133 C-299.23333008 132.64695801 -298.46666016 132.29391602 -297.67675781 131.93017578 C-294.82137679 130.6149359 -291.96626348 129.2991171 -289.11132812 127.98291016 C-287.87771056 127.4143199 -286.64398782 126.84595777 -285.41015625 126.27783203 C-283.63253314 125.45926526 -281.85532436 124.63979887 -280.078125 123.8203125 C-278.47565918 123.08192139 -278.47565918 123.08192139 -276.84082031 122.32861328 C-274.54087162 121.25295835 -272.26306449 120.15062983 -270 119 C-270.3717334 118.55309814 -270.7434668 118.10619629 -271.12646484 117.64575195 C-277.44992624 110.0332398 -283.76993411 102.41457404 -289.875 94.625 C-291.07769531 93.09746094 -291.07769531 93.09746094 -292.3046875 91.5390625 C-294 89 -294 89 -294 86 C-292.03123367 84.30369687 -290.11326838 82.80463882 -288 81.3125 C-287.14148438 80.68891602 -287.14148438 80.68891602 -286.265625 80.05273438 C-284.85003468 79.02643139 -283.42580369 78.01206601 -282 77 C-278.87784572 78.35727511 -277.06836881 79.78281963 -274.93359375 82.421875 C-274.08909668 83.45634766 -274.08909668 83.45634766 -273.22753906 84.51171875 C-272.34146973 85.61966797 -272.34146973 85.61966797 -271.4375 86.75 C-270.82487305 87.50410156 -270.21224609 88.25820313 -269.58105469 89.03515625 C-265.10546117 94.56287424 -260.69713982 100.14592702 -256.37670898 105.79589844 C-254.09528081 108.86147346 -254.09528081 108.86147346 -251 111 C-248.65641698 110.07519164 -246.43097396 109.08821227 -244.1640625 108 C-242.77612492 107.35398777 -241.38810138 106.7081602 -240 106.0625 C-237.81031125 105.03252073 -235.62248426 103.99880556 -233.43652344 102.9609375 C-231.32938699 101.96397181 -229.21599343 100.981378 -227.1015625 100 C-226.45039459 99.68546875 -225.79922668 99.3709375 -225.12832642 99.046875 C-222.54572745 97.85380469 -220.57151799 96.95571084 -217.69702148 97.1784668 C-214.98668959 98.49054661 -213.39296169 100.5526348 -211.4375 102.8125 C-210.67308594 103.68519531 -209.90867187 104.55789063 -209.12109375 105.45703125 C-207.33825822 107.5944639 -205.65868461 109.76680224 -204 112 C-198.79171147 102.79136311 -194.09728091 93.65301156 -190.51177979 83.68193054 C-176.29029146 44.31064262 -176.29029146 44.31064262 -157.99995422 34.80252075 C-151.8757192 31.95264182 -145.57114443 29.8053855 -139.125 27.8125 C-137.89224335 27.41861084 -136.65948669 27.02472168 -135.38937378 26.61889648 C-119.83179395 21.87868932 -108.22448212 20.73612867 -93.46057129 27.84970093 C-89.08767566 29.89399764 -84.54909771 31.51568576 -80.03515625 33.21875 C-78.2079359 33.92698841 -76.38175773 34.63792155 -74.55664062 35.3515625 C-73.65405518 35.70379883 -72.75146973 36.05603516 -71.8215332 36.41894531 C-69.95402849 37.15067798 -68.08785043 37.88580403 -66.22290039 38.62402344 C-63.47715867 39.7087726 -60.72562603 40.77750349 -57.97265625 41.84375 C-57.14250504 42.17693237 -56.31235382 42.51011475 -55.45704651 42.85339355 C-54.29313637 43.30011414 -54.29313637 43.30011414 -53.10571289 43.75585938 C-52.43101456 44.02120483 -51.75631622 44.28655029 -51.06117249 44.55993652 C-48.31931097 45.14532815 -46.6654695 44.88167186 -44 44 C-41.63252448 42.20950108 -41.63252448 42.20950108 -39.39331055 39.84741211 C-38.0725074 38.52615578 -38.0725074 38.52615578 -36.72502136 37.1782074 C-35.77870357 36.21146514 -34.83260784 35.24450546 -33.88671875 34.27734375 C-32.90825078 33.29141125 -31.92889278 32.30636131 -30.94868469 31.32215881 C-28.37681776 28.73505235 -25.81719163 26.13615875 -23.25994873 23.53460693 C-20.64609532 20.87976463 -18.02081762 18.23627299 -15.39648438 15.59179688 C-10.25308824 10.40555957 -5.12257357 5.20681401 0 0 Z M-232.6875 122.5 C-233.38939453 122.83386719 -234.09128906 123.16773438 -234.81445312 123.51171875 C-236.54543137 124.33599411 -238.2730471 125.16732406 -240 126 C-238.64538768 128.93296306 -237.08837746 131.29861297 -235.03125 133.78515625 C-234.46019531 134.48060547 -233.88914062 135.17605469 -233.30078125 135.89257812 C-232.70652344 136.60865234 -232.11226563 137.32472656 -231.5 138.0625 C-230.32176121 139.48993246 -229.14463252 140.91828213 -227.96875 142.34765625 C-227.44732422 142.97679932 -226.92589844 143.60594238 -226.38867188 144.25415039 C-225.17863199 145.77542241 -224.07824146 147.38263782 -223 149 C-222.34 149 -221.68 149 -221 149 C-219.62825139 146.44560598 -218.27774592 143.88335569 -216.9375 141.3125 C-216.54755859 140.59126953 -216.15761719 139.87003906 -215.75585938 139.12695312 C-213.57694153 134.91672594 -213.57694153 134.91672594 -213.01171875 130.28125 C-214.24356469 127.43777953 -215.79581848 125.48373893 -217.875 123.1875 C-218.57367188 122.39730469 -219.27234375 121.60710937 -219.9921875 120.79296875 C-224.18354764 117.05010045 -228.32801433 120.39149059 -232.6875 122.5 Z " fill="#66CDDA" transform="translate(301,330)"/>
<path d="M0 0 C16.83 0 33.66 0 51 0 C51 80.52 51 161.04 51 244 C34.17 244 17.34 244 0 244 C0 163.48 0 82.96 0 0 Z " fill="#66CEDB" transform="translate(392,244)"/>
<path d="M0 0 C12.00364897 18.00547346 9.48654293 50.37920011 5.51123047 70.47021484 C-0.39399907 96.92500991 -12.61367355 119.16080306 -31 139 C-34.30027875 137.55802042 -36.47555514 135.77180823 -39.01165771 133.22885132 C-39.7996727 132.44358566 -40.58768768 131.65832001 -41.39958191 130.84925842 C-42.25481949 129.98683029 -43.11005707 129.12440216 -43.99121094 128.23583984 C-44.89887711 127.32846573 -45.80654327 126.42109161 -46.74171448 125.48622131 C-49.22730138 123.00120797 -51.70667578 120.51007876 -54.18498135 118.01780653 C-56.77723116 115.41304986 -59.37515004 112.81396002 -61.97247314 110.21426392 C-66.88855432 105.29196785 -71.79951523 100.36459597 -76.7086575 95.43538058 C-82.2984054 89.82327399 -87.89383688 84.21684885 -93.48975325 78.61089396 C-104.99950528 67.08023972 -116.50209796 55.54247086 -128 44 C-125.67887212 41.67887212 -124.07740345 41.19468465 -120.9760437 40.16500854 C-119.91311096 39.80886475 -118.85017822 39.45272095 -117.7550354 39.08578491 C-116.5840329 38.70024445 -115.4130304 38.31470398 -114.20654297 37.91748047 C-112.97730103 37.50753845 -111.74805908 37.09759644 -110.48156738 36.67523193 C-107.10753096 35.55016991 -103.73107549 34.43253496 -100.35414648 33.31619024 C-96.82664298 32.14867958 -93.30139744 30.97439133 -89.77590942 29.80081177 C-83.09811568 27.57902792 -76.4183058 25.36337087 -69.73775494 23.14989293 C-62.13289562 20.62983274 -54.53030144 18.10297342 -46.92789245 15.57553267 C-31.28777441 10.37610419 -15.64482565 5.18524676 0 0 Z " fill="#00BFC8" transform="translate(343,159)"/>
<path d="M0 0 C16.83 0 33.66 0 51 0 C51 50.16 51 100.32 51 152 C34.17 152 17.34 152 0 152 C0 101.84 0 51.68 0 0 Z " fill="#F6BF58" transform="translate(333,336)"/>
<path d="M0 0 C15.27617695 0 15.27617695 0 22.3125 1.1875 C23.51869995 1.38714355 23.51869995 1.38714355 24.74926758 1.59082031 C43.02981153 4.81202979 69.34953469 12.56842225 82 27 C80.66558629 29.82749964 79.16230649 32.29610568 77.3046875 34.80859375 C76.49064453 35.91267578 76.49064453 35.91267578 75.66015625 37.0390625 C75.07105469 37.83054688 74.48195313 38.62203125 73.875 39.4375 C73.25753906 40.27152344 72.64007813 41.10554688 72.00390625 41.96484375 C66.72136103 49.07881246 61.34941831 56.12342138 55.96435547 63.15991211 C51.58134751 68.89604575 47.26562959 74.67614956 43 80.5 C37.42203846 88.11557306 31.7256732 95.63366703 25.98730469 103.12890625 C20.74850999 109.98454982 15.60675383 116.90714425 10.515625 123.87304688 C4.20515132 132.49685526 4.20515132 132.49685526 2 135 C1.34 135 0.68 135 0 135 C0 90.45 0 45.9 0 0 Z " fill="#E74C3C" transform="translate(181,8)"/>
<path d="M0 0 C17.87558101 10.81943061 30.67665028 28.58296722 40.375 46.6875 C40.79201172 47.45900391 41.20902344 48.23050781 41.63867188 49.02539062 C44.50121265 54.52165569 46.37725343 60.02985003 48 66 C40.80777842 68.97503177 33.53822168 71.58784125 26.15625 74.05004883 C24.44712685 74.6239183 24.44712685 74.6239183 22.70347595 75.2093811 C19.61184145 76.24653069 16.51932908 77.28099985 13.42621994 78.31374192 C11.49188181 78.95974244 9.55780455 79.60651798 7.62380981 80.25354576 C0.87283334 82.51200091 -5.87926121 84.76707903 -12.63232422 87.01928711 C-18.92510442 89.11809836 -25.21520141 91.22481464 -31.50416374 93.33503515 C-36.91490052 95.15015327 -42.3275321 96.95953865 -47.74167061 98.76448458 C-50.97107574 99.84121764 -54.19963543 100.92033835 -57.42626953 102.00535011 C-61.01234046 103.20959711 -64.60140642 104.40444962 -68.19140625 105.59692383 C-69.79810936 106.13990868 -69.79810936 106.13990868 -71.43727112 106.69386292 C-72.89640175 107.17535797 -72.89640175 107.17535797 -74.38500977 107.6665802 C-75.23297623 107.94990613 -76.08094269 108.23323206 -76.9546051 108.52514362 C-79 109 -79 109 -81 108 C-73.7599094 98.09458249 -66.45775655 88.24287566 -59 78.5 C-53.93345594 71.88055046 -48.92564706 65.22497019 -44 58.5 C-38.41987275 50.8814701 -32.72106195 43.36063999 -26.98071289 35.86230469 C-21.83321626 29.12581183 -16.77804821 22.32603954 -11.77929688 15.47851562 C-7.94908103 10.24185578 -4.00788493 5.1018988 0 0 Z " fill="#34495E" transform="translate(286,60)"/>
<path d="M0 0 C17.16 0 34.32 0 52 0 C52 30.69 52 61.38 52 93 C34.84 93 17.68 93 0 93 C0 62.31 0 31.62 0 0 Z " fill="#CE9232" transform="translate(274,395)"/>
<path d="M0 0 C4.5844935 1.13006118 8.92537893 2.72198463 13.34204102 4.38110352 C14.30476425 4.73804794 15.26748749 5.09499237 16.25938416 5.4627533 C19.33960808 6.6063066 22.41697422 7.75734739 25.49438477 8.90844727 C27.50527684 9.65566488 29.51634312 10.40241387 31.52758789 11.14868164 C36.50513077 12.9977172 41.47730502 14.86072893 46.44781494 16.72857666 C49.48756239 17.86679548 52.53146571 18.99335633 55.57592773 20.11889648 C57.50589159 20.83880688 59.43574653 21.55900934 61.36547852 22.27954102 C62.26621597 22.60978775 63.16695343 22.94003448 64.09498596 23.2802887 C64.91571091 23.58869186 65.73643585 23.89709503 66.58203125 24.21484375 C67.30422348 24.48264145 68.02641571 24.75043915 68.77049255 25.02635193 C70.43188477 25.84594727 70.43188477 25.84594727 71.43188477 27.84594727 C70.52428115 30.44326951 69.56120584 32.94045701 68.49438477 35.47094727 C68.05835938 36.53055664 68.05835938 36.53055664 67.61352539 37.61157227 C66.89320989 39.35922299 66.16342782 41.10296641 65.43188477 42.84594727 C61.25821237 42.26033246 57.59843564 41.29874585 53.67358398 39.77294922 C52.56578583 39.34613358 51.45798767 38.91931793 50.31661987 38.47956848 C48.54449631 37.7888752 48.54449631 37.7888752 46.73657227 37.08422852 C44.86520307 36.36708238 42.99382686 35.64995392 41.1220417 34.93389416 C36.5200199 33.17192669 31.92230958 31.39900431 27.32983398 29.61230469 C24.74566297 28.60750729 22.1586191 27.61088799 19.56790161 26.62309265 C17.1301729 25.69316526 14.69708977 24.75095089 12.26925659 23.79548645 C10.61701584 23.16944771 10.61701584 23.16944771 8.93139648 22.53076172 C7.96354218 22.15627396 6.99568787 21.78178619 5.99850464 21.39595032 C3.47446174 20.62553423 3.47446174 20.62553423 1.2727356 21.57975769 C-1.68089488 23.61134876 -4.22793679 26.06952734 -6.81811523 28.53344727 C-7.98536875 29.62796054 -9.15333452 30.72171472 -10.32202148 31.81469727 C-10.8829248 32.34063477 -11.44382812 32.86657227 -12.02172852 33.40844727 C-14.49994363 35.71216224 -17.05273463 37.92527057 -19.61108398 40.13891602 C-21.95370674 42.18228157 -24.26084946 44.26275586 -26.56811523 46.34594727 C-30.18487869 49.60985575 -33.83201132 52.83385676 -37.50561523 56.03344727 C-39.87775952 58.11805891 -42.22367589 60.23023371 -44.56811523 62.34594727 C-48.18487869 65.60985575 -51.83201132 68.83385676 -55.50561523 72.03344727 C-58.72870918 74.86586316 -61.90620242 77.74858632 -65.09155273 80.62329102 C-68.55449334 83.73119827 -72.05545828 86.79444918 -75.56811523 89.84594727 C-80.63563888 86.07778866 -84.39022649 81.63716128 -88.30249023 76.69360352 C-89.74941106 74.87497372 -91.23606115 73.08681016 -92.77124023 71.34204102 C-97.62360975 65.6968631 -97.62360975 65.6968631 -97.38061523 61.97094727 C-96.78249023 60.93969727 -96.18436523 59.90844727 -95.56811523 58.84594727 C-94.52640346 56.88763793 -93.48474047 54.92930263 -92.44311523 52.97094727 C-91.48952577 51.25996138 -90.53274498 49.55073318 -89.56811523 47.84594727 C-85.10284431 49.44068688 -82.71303681 52.91498061 -79.81811523 56.47094727 C-79.31151367 57.08196289 -78.80491211 57.69297852 -78.28295898 58.32250977 C-77.03851234 59.82523779 -75.80247395 61.33492194 -74.56811523 62.84594727 C-66.95418864 56.34238497 -59.43957745 49.74214488 -52.00561523 43.03344727 C-49.23662624 40.54845715 -46.4361422 38.10197076 -43.63061523 35.65844727 C-41.25847095 33.57383562 -38.91255458 31.46166082 -36.56811523 29.34594727 C-32.95135178 26.08203878 -29.30421915 22.85803777 -25.63061523 19.65844727 C-23.25847095 17.57383562 -20.91255458 15.46166082 -18.56811523 13.34594727 C-15.43355988 10.5205006 -12.2946246 7.70090324 -9.13061523 4.90844727 C-8.20442383 4.09053711 -8.20442383 4.09053711 -7.25952148 3.25610352 C-3.12887608 -0.18769092 -3.12887608 -0.18769092 0 0 Z " fill="#E64C3C" transform="translate(198.568115234375,411.154052734375)"/>
<path d="M0 0 C39.27 0 78.54 0 119 0 C119 5.94 119 11.88 119 18 C79.73 18 40.46 18 0 18 C0 12.06 0 6.12 0 0 Z " fill="#65CEDA" transform="translate(392,134)"/>
<path d="M0 0 C39.27 0 78.54 0 119 0 C119 5.94 119 11.88 119 18 C79.73 18 40.46 18 0 18 C0 12.06 0 6.12 0 0 Z " fill="#65CDDB" transform="translate(392,100)"/>
<path d="M0 0 C39.27 0 78.54 0 119 0 C119 5.94 119 11.88 119 18 C79.73 18 40.46 18 0 18 C0 12.06 0 6.12 0 0 Z " fill="#65CDDA" transform="translate(392,67)"/>
<path d="M0 0 C39.27 0 78.54 0 119 0 C119 5.94 119 11.88 119 18 C79.73 18 40.46 18 0 18 C0 12.06 0 6.12 0 0 Z " fill="#E74B3C" transform="translate(392,33)"/>
<path d="M0 0 C39.27 0 78.54 0 119 0 C119 5.61 119 11.22 119 17 C79.73 17 40.46 17 0 17 C0 11.39 0 5.78 0 0 Z " fill="#65CDDB" transform="translate(392,0)"/>
<path d="M0 0 C2.21875 2.109375 2.21875 2.109375 4.5 4.75 C5.2528125 5.61109375 6.005625 6.4721875 6.78125 7.359375 C7.5134375 8.23078125 8.245625 9.1021875 9 10 C9.7940625 10.80953125 10.588125 11.6190625 11.40625 12.453125 C13 15 13 15 12.4453125 17.9140625 C10.95775082 21.09020771 9.47132563 24.2517542 7.875 27.375 C7.33617187 28.43460937 6.79734375 29.49421875 6.2421875 30.5859375 C5.83226562 31.38257813 5.42234375 32.17921875 5 33 C1.21919607 31.73973202 0.22704575 30.06453466 -2.1875 26.9375 C-3.26064453 25.55884766 -3.26064453 25.55884766 -4.35546875 24.15234375 C-4.89816406 23.44207031 -5.44085938 22.73179687 -6 22 C-10.94605157 22.7705805 -14.85438286 24.78832387 -19.28125 27.0390625 C-22.51005275 28.18027726 -23.82382413 28.27047035 -27 27 C-29.4921875 24.6015625 -29.4921875 24.6015625 -31.875 21.625 C-33.07769531 20.15933594 -33.07769531 20.15933594 -34.3046875 18.6640625 C-34.86414062 17.78492188 -35.42359375 16.90578125 -36 16 C-35 13 -35 13 -32.10424805 11.35839844 C-30.82876169 10.76376266 -29.54743572 10.1815542 -28.26171875 9.609375 C-27.584543 9.30050354 -26.90736725 8.99163208 -26.20967102 8.67340088 C-24.77536984 8.02278578 -23.33861596 7.377555 -21.8996582 6.73730469 C-19.69936826 5.7552969 -17.51078293 4.75011241 -15.32226562 3.7421875 C-13.92772773 3.11315278 -12.53256456 2.48550207 -11.13671875 1.859375 C-10.48241379 1.55739197 -9.82810883 1.25540894 -9.15397644 0.9442749 C-3.34705432 -1.60280115 -3.34705432 -1.60280115 0 0 Z " fill="#E64D3D" transform="translate(85,428)"/>
<path d="M0 0 C1.88040083 1.98581724 3.56781186 3.92308921 5.25 6.0625 C5.93835937 6.91424805 5.93835937 6.91424805 6.640625 7.78320312 C7.76900148 9.1819198 8.8856663 10.59007014 10 12 C8.41145693 15.17708613 5.16778558 15.92328555 2.04296875 17.29296875 C1.34359695 17.60325516 0.64422516 17.91354156 -0.07633972 18.23323059 C-1.55858554 18.88798679 -3.04238531 19.53923455 -4.52758789 20.18725586 C-6.79853725 21.18138766 -9.06036341 22.19446739 -11.32226562 23.20898438 C-12.76250287 23.84232501 -14.20324258 24.47452451 -15.64453125 25.10546875 C-16.32070999 25.41058884 -16.99688873 25.71570892 -17.69355774 26.03007507 C-20.32745122 27.16241342 -22.46022113 28.02475176 -25.35327148 27.89208984 C-28.42538918 26.22781733 -29.13041583 22.57062204 -30.25 19.4375 C-30.518125 18.72658203 -30.78625 18.01566406 -31.0625 17.28320312 C-31.7224131 15.52736291 -32.36306641 13.76430603 -33 12 C-29.35307438 10.30728752 -25.70518566 8.61667035 -22.05639648 6.92797852 C-20.81557069 6.35335703 -19.57500833 5.77816634 -18.3347168 5.20239258 C-16.55066379 4.37431191 -14.76557906 3.5484552 -12.98046875 2.72265625 C-11.90692139 2.22515869 -10.83337402 1.72766113 -9.72729492 1.21508789 C-3.52272259 -1.54922654 -3.52272259 -1.54922654 0 0 Z " fill="#E64C3C" transform="translate(34,451)"/>
<path d="M0 0 C5.94 0 11.88 0 18 0 C18 5.94 18 11.88 18 18 C12.06 18 6.12 18 0 18 C0 12.06 0 6.12 0 0 Z " fill="#65CEDB" transform="translate(358,134)"/>
<path d="M0 0 C5.94 0 11.88 0 18 0 C18 5.94 18 11.88 18 18 C12.06 18 6.12 18 0 18 C0 12.06 0 6.12 0 0 Z " fill="#65CDDB" transform="translate(358,100)"/>
<path d="M0 0 C5.94 0 11.88 0 18 0 C18 5.94 18 11.88 18 18 C12.06 18 6.12 18 0 18 C0 12.06 0 6.12 0 0 Z " fill="#65CDDA" transform="translate(358,67)"/>
<path d="M0 0 C5.94 0 11.88 0 18 0 C18 5.94 18 11.88 18 18 C12.06 18 6.12 18 0 18 C0 12.06 0 6.12 0 0 Z " fill="#E64C3C" transform="translate(358,33)"/>
<path d="M0 0 C5.94 0 11.88 0 18 0 C18 5.61 18 11.22 18 17 C12.06 17 6.12 17 0 17 C0 11.39 0 5.78 0 0 Z " fill="#65CEDB" transform="translate(358,0)"/>
</svg>
