<?xml version="1.0" encoding="UTF-8"?>
<svg version="1.1" xmlns="http://www.w3.org/2000/svg" width="512" height="512">
<path d="M0 0 C21.12 0 42.24 0 64 0 C64 100.32 64 200.64 64 304 C-36.32 304 -136.64 304 -240 304 C-240 290.47 -240 276.94 -240 263 C-242.31 262.67 -244.62 262.34 -247 262 C-292.09240943 249.81640829 -335.76523876 217.69397079 -363 180 C-363.45713379 179.37125977 -363.91426758 178.74251953 -364.38525391 178.09472656 C-370.91546518 169.04388527 -376.74865514 159.7163824 -382.00195312 149.87011719 C-382.92067311 148.1486409 -383.85792321 146.43708772 -384.796875 144.7265625 C-400.69920204 114.59967687 -407.22490322 81.72683887 -409 48 C-387.55 48 -366.1 48 -344 48 C-342.68 56.58 -341.36 65.16 -340 74 C-330.42171559 116.69178194 -306.0663666 155.08348036 -269 179 C-266.12720444 180.8106304 -263.23011086 182.57508291 -260.3125 184.3125 C-259.64831055 184.70904785 -258.98412109 185.1055957 -258.29980469 185.51416016 C-252.64735407 188.7987669 -247.03670736 191.25604211 -241 194 C-240.67 166.94 -240.34 139.88 -240 112 C-218.88 112 -197.76 112 -176 112 C-176 170.08 -176 228.16 -176 288 C-170.72 288 -165.44 288 -160 288 C-160 208.8 -160 129.6 -160 48 C-138.88 48 -117.76 48 -96 48 C-96 127.2 -96 206.4 -96 288 C-90.72 288 -85.44 288 -80 288 C-80 219.36 -80 150.72 -80 80 C-58.88 80 -37.76 80 -16 80 C-16 148.64 -16 217.28 -16 288 C-10.72 288 -5.44 288 0 288 C0 192.96 0 97.92 0 0 Z M16 16 C16 105.76 16 195.52 16 288 C26.56 288 37.12 288 48 288 C48 198.24 48 108.48 48 16 C37.44 16 26.88 16 16 16 Z M-391 64 C-386.07125677 101.51321239 -373.60701486 136.43673036 -351 167 C-350.56606934 167.59087402 -350.13213867 168.18174805 -349.68505859 168.79052734 C-344.30443402 176.0530552 -338.47352888 182.82611247 -332.3125 189.4375 C-331.40419434 190.41299805 -331.40419434 190.41299805 -330.47753906 191.40820312 C-317.03797788 205.58348012 -300.85812454 217.23570185 -284 227 C-283.01942627 227.57161865 -283.01942627 227.57161865 -282.01904297 228.15478516 C-268.97428411 235.6605584 -254.63217486 242.34195629 -240 246 C-240 235.11 -240 224.22 -240 213 C-242.92875 211.72125 -245.8575 210.4425 -248.875 209.125 C-263.62652007 202.54205828 -277.40818249 195.17868822 -290 185 C-290.87398438 184.32839844 -291.74796875 183.65679687 -292.6484375 182.96484375 C-327.41528687 155.69172877 -348.90687566 116.39995691 -357.44091797 73.46508789 C-358.16381225 70.27772388 -359.10212555 67.14256058 -360 64 C-370.23 64 -380.46 64 -391 64 Z M-144 64 C-144 137.92 -144 211.84 -144 288 C-133.44 288 -122.88 288 -112 288 C-112 214.08 -112 140.16 -112 64 C-122.56 64 -133.12 64 -144 64 Z M-64 96 C-64 159.36 -64 222.72 -64 288 C-53.44 288 -42.88 288 -32 288 C-32 224.64 -32 161.28 -32 96 C-42.56 96 -53.12 96 -64 96 Z M-224 128 C-224 180.8 -224 233.6 -224 288 C-213.44 288 -202.88 288 -192 288 C-192 235.2 -192 182.4 -192 128 C-202.56 128 -213.12 128 -224 128 Z " fill="#000000" transform="translate(416,200)"/>
<path d="M0 0 C0 21.45 0 42.9 0 65 C-11.88 66.485 -11.88 66.485 -24 68 C-32.70264205 68.95028603 -32.70264205 68.95028603 -35.5625 73.1875 C-37.23682487 76.79373819 -37.32323935 80.04031793 -37 84 C-36.32195312 84.10957031 -35.64390625 84.21914062 -34.9453125 84.33203125 C-34.01460937 84.49058594 -33.08390625 84.64914063 -32.125 84.8125 C-30.76761719 85.03873047 -30.76761719 85.03873047 -29.3828125 85.26953125 C-24.85613778 86.24700027 -20.43570063 87.66928981 -16 89 C-16 104.18 -16 119.36 -16 135 C-34 140 -34 140 -37 140 C-37.70413941 147.27927904 -34.84567358 151.32082444 -31.0234375 157.30273438 C-30.4046875 158.31883789 -30.4046875 158.31883789 -29.7734375 159.35546875 C-29.38591309 159.96028076 -28.99838867 160.56509277 -28.59912109 161.18823242 C-28 163 -28 163 -28.78198242 164.91847229 C-29.98812991 166.97971464 -31.19829467 168.44004863 -32.88916016 170.11621094 C-33.75983627 170.98666046 -33.75983627 170.98666046 -34.64810181 171.87469482 C-35.27211884 172.48838928 -35.89613586 173.10208374 -36.5390625 173.734375 C-37.17991791 174.37240051 -37.82077332 175.01042603 -38.48104858 175.66778564 C-40.52437821 177.69994069 -42.57455982 179.72502218 -44.625 181.75 C-46.0134786 183.1284453 -47.4015049 184.50734636 -48.7890625 185.88671875 C-52.18748697 189.26311894 -55.59207254 192.63319288 -59 196 C-63.45309407 194.58863685 -66.99585792 192.8922642 -70.9375 190.375 C-75.66581755 187.53094349 -78.54013174 186.13138459 -84 187 C-84.10957031 187.67804688 -84.21914062 188.35609375 -84.33203125 189.0546875 C-84.49058594 189.98539063 -84.64914063 190.91609375 -84.8125 191.875 C-84.96332031 192.77992188 -85.11414063 193.68484375 -85.26953125 194.6171875 C-86.24700027 199.14386222 -87.66928981 203.56429937 -89 208 C-104.18 208 -119.36 208 -135 208 C-140 190 -140 190 -140 187 C-144.8464791 186.60436905 -148.22505907 187.05834244 -152.43286133 189.60400391 C-155.37385064 192.22381647 -155.70284547 195.56200748 -156.3125 199.3125 C-156.45494141 200.02728516 -156.59738281 200.74207031 -156.74414062 201.47851562 C-158.16748612 208.93014793 -158.99826792 216.48700938 -160 224 C-181.45 224 -202.9 224 -225 224 C-225 193.14534996 -216.35793145 163.44508496 -205 135 C-205.99 135 -206.98 135 -208 135 C-208 119.82 -208 104.64 -208 89 C-190 84 -190 84 -187 84 C-186.29586059 76.72072096 -189.15432642 72.67917556 -192.9765625 66.69726562 C-193.5953125 65.68116211 -193.5953125 65.68116211 -194.2265625 64.64453125 C-194.61408691 64.03971924 -195.00161133 63.43490723 -195.40087891 62.81176758 C-196 61 -196 61 -195.21801758 59.08152771 C-194.01187009 57.02028536 -192.80170533 55.55995137 -191.11083984 53.88378906 C-190.5303891 53.30348938 -189.94993835 52.7231897 -189.35189819 52.12530518 C-188.72788116 51.51161072 -188.10386414 50.89791626 -187.4609375 50.265625 C-186.82008209 49.62759949 -186.17922668 48.98957397 -185.51895142 48.33221436 C-183.47562179 46.30005931 -181.42544018 44.27497782 -179.375 42.25 C-177.9865214 40.8715547 -176.5984951 39.49265364 -175.2109375 38.11328125 C-171.81251303 34.73688106 -168.40792746 31.36680712 -165 28 C-160.54690593 29.41136315 -157.00414208 31.1077358 -153.0625 33.625 C-148.33418245 36.46905651 -145.45986826 37.86861541 -140 37 C-139.89042969 36.32195313 -139.78085938 35.64390625 -139.66796875 34.9453125 C-139.43013672 33.54925781 -139.43013672 33.54925781 -139.1875 32.125 C-138.96126953 30.76761719 -138.96126953 30.76761719 -138.73046875 29.3828125 C-138.09737838 26.45096086 -137.32508416 23.65556501 -136.4543457 20.78857422 C-136.04657646 19.44217361 -136.04657646 19.44217361 -135.63056946 18.068573 C-135.42248154 17.38594391 -135.21439362 16.70331482 -135 16 C-128.48558999 15.92410964 -121.9712934 15.87146798 -115.45654297 15.83520508 C-113.23905172 15.82009247 -111.02159047 15.79960174 -108.80419922 15.77368164 C-105.62199511 15.73740707 -102.44018518 15.72029861 -99.2578125 15.70703125 C-98.26194122 15.69154739 -97.26606995 15.67606354 -96.24002075 15.66011047 C-94.85881546 15.65977058 -94.85881546 15.65977058 -93.44970703 15.65942383 C-92.6369632 15.65276199 -91.82421936 15.64610016 -90.98684692 15.63923645 C-90.33118744 15.75828842 -89.67552795 15.87734039 -89 16 C-88.01 17.485 -88.01 17.485 -87 19 C-86.4738208 18.78907715 -85.9476416 18.5781543 -85.40551758 18.36083984 C-57.63935089 7.30953972 -30.04482116 0 0 0 Z M-32.875 20.25 C-33.99511475 20.47453857 -35.11522949 20.69907715 -36.26928711 20.93041992 C-44.31217798 22.57623101 -52.17643291 24.49477905 -60 27 C-55.23402443 32.646315 -50.33568748 38.13941049 -45.25 43.5 C-44.50234375 44.3353125 -43.7546875 45.170625 -42.984375 46.03125 C-38.92972766 50.39781056 -38.92972766 50.39781056 -33.50976562 52.375 C-30.88016543 52.14722334 -28.55627237 51.66479474 -26 51 C-23.03 50.34 -20.06 49.68 -17 49 C-17 38.77 -17 28.54 -17 18 C-22.45852777 18 -27.53704199 19.17242434 -32.875 20.25 Z M-75.1875 32.9375 C-75.84169922 33.22818359 -76.49589844 33.51886719 -77.16992188 33.81835938 C-78.78381344 34.53695343 -80.39243655 35.2673588 -82 36 C-81.67 36.66 -81.34 37.32 -81 38 C-74.69785303 37.66830805 -70.14783064 34.32676012 -65 31 C-69.09260018 29.63579994 -71.47012659 31.2335485 -75.1875 32.9375 Z M-121 32 C-123.566446 38.73620905 -123.566446 38.73620905 -125.1875 45.5 C-125.42533203 46.78390625 -125.42533203 46.78390625 -125.66796875 48.09375 C-125.77753906 48.7228125 -125.88710937 49.351875 -126 50 C-126.6290625 50.17015625 -127.258125 50.3403125 -127.90625 50.515625 C-133.02612671 51.96522865 -137.53927129 53.58967218 -142.11328125 56.328125 C-144.80754821 57.2875741 -146.2763807 56.85063183 -149 56 C-151.14080772 54.87990361 -153.24470821 53.68726427 -155.3125 52.4375 C-156.91544922 51.47650391 -156.91544922 51.47650391 -158.55078125 50.49609375 C-159.35902344 50.00238281 -160.16726562 49.50867188 -161 49 C-165.91935902 53.11619836 -170.52647956 57.40410362 -175 62 C-174.04416032 63.93873142 -173.08523808 65.8759433 -172.125 67.8125 C-171.59132813 68.89144531 -171.05765625 69.97039062 -170.5078125 71.08203125 C-169.02778861 74.07838265 -169.02778861 74.07838265 -167 77 C-167.50576579 81.71330676 -170.10857232 86.31985668 -171.91601562 90.6875 C-173.46347696 94.22722221 -173.46347696 94.22722221 -174 98 C-174.94359375 98.16435547 -174.94359375 98.16435547 -175.90625 98.33203125 C-176.7621875 98.49058594 -177.618125 98.64914063 -178.5 98.8125 C-179.75296875 99.03873047 -179.75296875 99.03873047 -181.03125 99.26953125 C-184.7813204 100.19224594 -188.3839711 101.64398916 -192 103 C-192 108.94 -192 114.88 -192 121 C-185.26379095 123.566446 -185.26379095 123.566446 -178.5 125.1875 C-177.6440625 125.34605469 -176.788125 125.50460938 -175.90625 125.66796875 C-175.2771875 125.77753906 -174.648125 125.88710937 -174 126 C-173.82984375 126.6290625 -173.6596875 127.258125 -173.484375 127.90625 C-172.03477135 133.02612671 -170.41032782 137.53927129 -167.671875 142.11328125 C-166.7124259 144.80754821 -167.14936817 146.2763807 -168 149 C-169.12009639 151.14080772 -170.31273573 153.24470821 -171.5625 155.3125 C-172.52349609 156.91544922 -172.52349609 156.91544922 -173.50390625 158.55078125 C-173.99761719 159.35902344 -174.49132812 160.16726562 -175 161 C-170.88380164 165.91935902 -166.59589638 170.52647956 -162 175 C-160.06126858 174.04416032 -158.1240567 173.08523808 -156.1875 172.125 C-155.10855469 171.59132812 -154.02960938 171.05765625 -152.91796875 170.5078125 C-149.92161735 169.02778861 -149.92161735 169.02778861 -147 167 C-142.28669324 167.50576579 -137.68014332 170.10857232 -133.3125 171.91601562 C-129.77277779 173.46347696 -129.77277779 173.46347696 -126 174 C-125.83564453 174.94359375 -125.83564453 174.94359375 -125.66796875 175.90625 C-125.50941406 176.7621875 -125.35085937 177.618125 -125.1875 178.5 C-125.03667969 179.3353125 -124.88585937 180.170625 -124.73046875 181.03125 C-123.80775406 184.7813204 -122.35601084 188.3839711 -121 192 C-115.06 192 -109.12 192 -103 192 C-100.433554 185.26379095 -100.433554 185.26379095 -98.8125 178.5 C-98.65394531 177.6440625 -98.49539062 176.788125 -98.33203125 175.90625 C-98.22246094 175.2771875 -98.11289063 174.648125 -98 174 C-97.3709375 173.82984375 -96.741875 173.6596875 -96.09375 173.484375 C-90.97387329 172.03477135 -86.46072871 170.41032782 -81.88671875 167.671875 C-79.19245179 166.7124259 -77.7236193 167.14936817 -75 168 C-72.85919228 169.12009639 -70.75529179 170.31273573 -68.6875 171.5625 C-67.61886719 172.20316406 -66.55023438 172.84382812 -65.44921875 173.50390625 C-64.64097656 173.99761719 -63.83273438 174.49132812 -63 175 C-58.08064098 170.88380164 -53.47352044 166.59589638 -49 162 C-49.95583968 160.06126858 -50.91476192 158.1240567 -51.875 156.1875 C-52.40867188 155.10855469 -52.94234375 154.02960938 -53.4921875 152.91796875 C-54.97221139 149.92161735 -54.97221139 149.92161735 -57 147 C-56.49423421 142.28669324 -53.89142768 137.68014332 -52.08398438 133.3125 C-50.53652304 129.77277779 -50.53652304 129.77277779 -50 126 C-49.05640625 125.83564453 -49.05640625 125.83564453 -48.09375 125.66796875 C-47.2378125 125.50941406 -46.381875 125.35085937 -45.5 125.1875 C-44.6646875 125.03667969 -43.829375 124.88585937 -42.96875 124.73046875 C-39.2186796 123.80775406 -35.6160289 122.35601084 -32 121 C-32 115.06 -32 109.12 -32 103 C-38.73620905 100.433554 -38.73620905 100.433554 -45.5 98.8125 C-46.3559375 98.65394531 -47.211875 98.49539062 -48.09375 98.33203125 C-48.7228125 98.22246094 -49.351875 98.11289063 -50 98 C-50.17015625 97.3709375 -50.3403125 96.741875 -50.515625 96.09375 C-51.96522865 90.97387329 -53.58967218 86.46072871 -56.328125 81.88671875 C-57.2875741 79.19245179 -56.85063183 77.7236193 -56 75 C-54.87990361 72.85919228 -53.68726427 70.75529179 -52.4375 68.6875 C-51.79683594 67.61886719 -51.15617188 66.55023438 -50.49609375 65.44921875 C-50.00238281 64.64097656 -49.50867188 63.83273438 -49 63 C-53.11619836 58.08064098 -57.40410362 53.47352044 -62 49 C-63.93873142 49.95583968 -65.8759433 50.91476192 -67.8125 51.875 C-68.89144531 52.40867187 -69.97039062 52.94234375 -71.08203125 53.4921875 C-74.07838265 54.97221139 -74.07838265 54.97221139 -77 57 C-81.71330676 56.49423421 -86.31985668 53.89142768 -90.6875 52.08398438 C-94.22722221 50.53652304 -94.22722221 50.53652304 -98 50 C-98.16435547 49.05640625 -98.16435547 49.05640625 -98.33203125 48.09375 C-98.49058594 47.2378125 -98.64914063 46.381875 -98.8125 45.5 C-98.96332031 44.6646875 -99.11414063 43.829375 -99.26953125 42.96875 C-100.19224594 39.2186796 -101.64398916 35.6160289 -103 32 C-108.94 32 -114.88 32 -121 32 Z M-188 141 C-189.36978501 144.09750602 -190.71806572 147.20391657 -192.0625 150.3125 C-192.64741211 151.63411133 -192.64741211 151.63411133 -193.24414062 152.98242188 C-193.79038086 154.25375977 -193.79038086 154.25375977 -194.34765625 155.55078125 C-194.68804932 156.33106689 -195.02844238 157.11135254 -195.37915039 157.9152832 C-196.26507362 160.16119278 -196.26507362 160.16119278 -195 163 C-193.45806272 160.46917897 -191.94199516 157.92794722 -190.4375 155.375 C-189.99986328 154.66214844 -189.56222656 153.94929687 -189.11132812 153.21484375 C-187.00762934 149.60377024 -185.9527643 147.74748425 -186.22265625 143.4765625 C-186.47917969 142.65929687 -186.73570312 141.84203125 -187 141 C-187.33 141 -187.66 141 -188 141 Z M-197 163 C-204.17368403 185.09658758 -204.17368403 185.09658758 -207 208 C-196.77 208 -186.54 208 -176 208 C-175.34 205.69 -174.68 203.38 -174 201 C-173.6606543 199.97737061 -173.32130859 198.95474121 -172.97167969 197.90112305 C-172.05143622 194.36088239 -171.65095039 191.65509283 -172 188 C-175.02439234 183.12628335 -178.98152585 179.5890291 -183.25 175.8125 C-184.35364219 174.78421664 -185.45394385 173.75233561 -186.55078125 172.71679688 C-189.33201322 170.10470248 -192.16331091 167.55179293 -195 165 C-195.66 164.34 -196.32 163.68 -197 163 Z " fill="#000000" transform="translate(232,8)"/>
<path d="M0 0 C2.44225447 1.66159248 4.74768159 3.38773224 7.0390625 5.25 C7.87179687 5.87648438 8.70453125 6.50296875 9.5625 7.1484375 C18.76036546 14.95356624 26.15845232 28.59050337 27.26025391 40.67626953 C27.73579386 51.65011278 27.93683722 62.18235196 23.0390625 72.25 C22.58015625 73.21164063 22.12125 74.17328125 21.6484375 75.1640625 C13.91897924 90.25684678 1.74462952 98.78970206 -14.12109375 104.359375 C-19.01714452 105.49497986 -23.63767173 105.63142296 -28.6484375 105.625 C-29.62216309 105.62701416 -30.59588867 105.62902832 -31.59912109 105.63110352 C-38.27315047 105.53706392 -43.57654052 104.73392567 -49.71875 102.02734375 C-52.3901343 101.10120181 -53.34721074 101.24939844 -55.9609375 102.25 C-57.50026856 103.85792309 -57.50026856 103.85792309 -58.7734375 105.94140625 C-59.28575928 106.71371582 -59.79808105 107.48602539 -60.32592773 108.28173828 C-60.86548096 109.11688965 -61.40503418 109.95204102 -61.9609375 110.8125 C-63.11540612 112.55283064 -64.27302036 114.29107824 -65.43359375 116.02734375 C-66.31168701 117.3419458 -66.31168701 117.3419458 -67.20751953 118.68310547 C-69.81869793 122.50570776 -72.59292551 126.1938484 -75.3984375 129.875 C-80.14119555 136.11557755 -80.14119555 136.11557755 -84.7734375 142.4375 C-85.23363281 143.07042969 -85.69382812 143.70335937 -86.16796875 144.35546875 C-87.61244037 147.80654626 -86.09384054 150.85129088 -84.9609375 154.25 C-84.34853678 162.15097319 -83.78746036 169.80837248 -88.9609375 176.25 C-93.76542389 181.29521222 -98.12270805 184.85562995 -105.23046875 185.5859375 C-113.74670323 185.67983204 -119.63689244 185.3677288 -125.92578125 179.37890625 C-131.728006 173.10206188 -133.24710716 168.69200506 -132.9609375 160.25 C-133.64414062 160.14187988 -134.32734375 160.03375977 -135.03125 159.92236328 C-138.49578265 159.12725304 -141.55844901 157.86970182 -144.8359375 156.4921875 C-146.16385643 155.94351141 -147.49198801 155.39534975 -148.8203125 154.84765625 C-150.89632655 153.986258 -152.97044309 153.12098578 -155.04101562 152.24658203 C-157.05134152 151.40005381 -159.06786862 150.57005439 -161.0859375 149.7421875 C-162.28476562 149.24058105 -163.48359375 148.73897461 -164.71875 148.22216797 C-168.10729413 147.20611505 -169.65902287 147.11212037 -172.9609375 148.25 C-174.98550598 149.54572383 -176.98772697 150.8773318 -178.9609375 152.25 C-182.37415818 153.38774023 -185.11468224 153.45369628 -188.7109375 153.5 C-189.90203125 153.52578125 -191.093125 153.5515625 -192.3203125 153.578125 C-195.9609375 153.25 -195.9609375 153.25 -199.234375 151.29296875 C-202.7954649 149.8731039 -202.7954649 149.8731039 -205.39257812 151.31005859 C-208.31683961 153.18849783 -211.07244083 155.20462004 -213.8359375 157.3125 C-214.84229248 158.04662109 -215.84864746 158.78074219 -216.88549805 159.53710938 C-218.93789367 161.03544117 -220.98278934 162.54410082 -223.02001953 164.06298828 C-227.22560418 167.19046855 -231.49528867 170.22304328 -235.7734375 173.25 C-236.47774902 173.75926025 -237.18206055 174.26852051 -237.90771484 174.79321289 C-242.73668482 178.25 -242.73668482 178.25 -244.9609375 178.25 C-244.91453125 179.1678125 -244.868125 180.085625 -244.8203125 181.03125 C-244.42130263 194.59758555 -244.42130263 194.59758555 -248.9609375 200.25 C-253.76542389 205.29521222 -258.12270805 208.85562995 -265.23046875 209.5859375 C-273.74670323 209.67983204 -279.63689244 209.3677288 -285.92578125 203.37890625 C-292.3076043 196.47505269 -293.44136002 191.04832071 -293.265625 181.6953125 C-292.57033547 173.83319245 -288.91339731 169.70041296 -283.05859375 164.6953125 C-278.48207649 161.54203245 -274.60304112 160.95560866 -269.0859375 160.9375 C-267.91289062 160.92074219 -266.73984375 160.90398437 -265.53125 160.88671875 C-261.9609375 161.25 -261.9609375 161.25 -258.6953125 163.2109375 C-255.12712916 164.62671354 -255.12712916 164.62671354 -252.52880859 163.18969727 C-249.60474647 161.31131038 -246.84927864 159.29526133 -244.0859375 157.1875 C-243.07958252 156.45337891 -242.07322754 155.71925781 -241.03637695 154.96289062 C-238.98398133 153.46455883 -236.93908566 151.95589918 -234.90185547 150.43701172 C-230.69627082 147.30953145 -226.42658633 144.27695672 -222.1484375 141.25 C-221.44412598 140.74073975 -220.73981445 140.23147949 -220.01416016 139.70678711 C-215.18519018 136.25 -215.18519018 136.25 -212.9609375 136.25 C-213.00734375 135.3321875 -213.05375 134.414375 -213.1015625 133.46875 C-213.50057237 119.90241445 -213.50057237 119.90241445 -208.9609375 114.25 C-204.15645111 109.20478778 -199.79916695 105.64437005 -192.69140625 104.9140625 C-184.17517177 104.82016796 -178.28498256 105.1322712 -171.99609375 111.12109375 C-166.193869 117.39793812 -164.67476784 121.80799494 -164.9609375 130.25 C-164.27773438 130.35812012 -163.59453125 130.46624023 -162.890625 130.57763672 C-159.42609235 131.37274696 -156.36342599 132.63029818 -153.0859375 134.0078125 C-151.75801857 134.55648859 -150.42988699 135.10465025 -149.1015625 135.65234375 C-147.02554845 136.513742 -144.95143191 137.37901422 -142.88085938 138.25341797 C-140.87053348 139.09994619 -138.85400638 139.92994561 -136.8359375 140.7578125 C-135.63710938 141.25941895 -134.43828125 141.76102539 -133.203125 142.27783203 C-129.81458087 143.29388495 -128.26285213 143.38787963 -124.9609375 142.25 C-122.93636902 140.95427617 -120.93414803 139.6226682 -118.9609375 138.25 C-115.9609375 137.25 -115.9609375 137.25 -113.0625 137.6015625 C-109.04409617 137.91761673 -105.61800435 138.01518713 -101.9609375 136.25 C-97.1252861 131.64468261 -93.94128451 125.50145275 -90.54882812 119.8125 C-88.13469408 115.91662808 -85.38374309 112.31272018 -82.5859375 108.6875 C-81.60439966 107.39013106 -80.62389032 106.09198319 -79.64453125 104.79296875 C-77.97337072 102.58467061 -76.29835559 100.3794625 -74.62109375 98.17578125 C-73.64462891 96.85126953 -73.64462891 96.85126953 -72.6484375 95.5 C-72.09542969 94.76265625 -71.54242188 94.0253125 -70.97265625 93.265625 C-69.77526125 91.3136281 -69.77526125 91.3136281 -70.125 89.16796875 C-70.99068277 86.89897469 -70.99068277 86.89897469 -73.6484375 84.3125 C-84.52248077 72.18073606 -85.92968589 56.43835879 -85.19921875 40.96289062 C-84.26837721 30.3650308 -79.61187038 21.43347447 -72.9609375 13.25 C-72.33445312 12.41726562 -71.70796875 11.58453125 -71.0625 10.7265625 C-54.23488249 -9.10375256 -21.90682862 -12.94757154 0 0 Z M-60.7734375 25.5 C-67.86771815 35.31650462 -69.11450278 45.46460626 -67.9609375 57.25 C-65.70335841 68.03027414 -59.21637602 76.36109065 -50.38671875 82.7421875 C-40.41077851 88.94301348 -29.1889132 89.97308289 -17.80859375 87.58984375 C-6.62384645 83.96617387 1.84161302 76.06122995 7.359375 65.79296875 C11.41050101 56.34506299 11.6392523 45.07439536 8.4765625 35.3125 C3.89997856 24.63913815 -4.35007565 16.38908394 -15.0234375 11.8125 C-32.44033139 6.16971951 -49.16703539 11.72509814 -60.7734375 25.5 Z M-194.3359375 123.875 C-196.44800256 126.96186432 -196.57288895 128.5782913 -195.9609375 132.25 C-194.4609375 134.75 -194.4609375 134.75 -191.9609375 136.25 C-188.2892288 136.86195145 -186.67280182 136.73706506 -183.5859375 134.625 C-181.47387244 131.53813568 -181.34898605 129.9217087 -181.9609375 126.25 C-183.4609375 123.75 -183.4609375 123.75 -185.9609375 122.25 C-189.6326462 121.63804855 -191.24907318 121.76293494 -194.3359375 123.875 Z M-114.3359375 155.875 C-116.44800256 158.96186432 -116.57288895 160.5782913 -115.9609375 164.25 C-114.4609375 166.75 -114.4609375 166.75 -111.9609375 168.25 C-108.2892288 168.86195145 -106.67280182 168.73706506 -103.5859375 166.625 C-101.47387244 163.53813568 -101.34898605 161.9217087 -101.9609375 158.25 C-103.4609375 155.75 -103.4609375 155.75 -105.9609375 154.25 C-109.6326462 153.63804855 -111.24907318 153.76293494 -114.3359375 155.875 Z M-274.3359375 179.875 C-276.44800256 182.96186432 -276.57288895 184.5782913 -275.9609375 188.25 C-274.4609375 190.75 -274.4609375 190.75 -271.9609375 192.25 C-268.2892288 192.86195145 -266.67280182 192.73706506 -263.5859375 190.625 C-261.47387244 187.53813568 -261.34898605 185.9217087 -261.9609375 182.25 C-263.4609375 179.75 -263.4609375 179.75 -265.9609375 178.25 C-269.6326462 177.63804855 -271.24907318 177.76293494 -274.3359375 179.875 Z " fill="#000000" transform="translate(476.9609375,78.75)"/>
<path d="M0 0 C10.23906578 7.73254248 18.72711365 17.59665562 20.6875 30.6875 C22.11678455 48.13329299 19.50517553 61.04058775 8.03125 74.65234375 C0.02533375 83.28136197 -10.26078398 88.35475631 -21.96875 89.00390625 C-38.65548452 89.56319388 -50.64291019 85.89777041 -63.0625 74.375 C-73.05541038 63.81645319 -75.82689781 52.26922077 -75.73217773 38.15722656 C-75.32139743 24.03483761 -69.475381 12.95884274 -59.25 3.28125 C-42.59283172 -10.42061423 -18.05009418 -11.9794347 0 0 Z M-52.3125 20.6875 C-58.26934175 29.45976447 -59.12110965 37.15279681 -58.3125 47.6875 C-56.12872185 56.93424063 -51.15351899 63.11888233 -43.1875 68.0625 C-35.32708088 72.64162267 -26.26387226 73.09301976 -17.41796875 71.00390625 C-7.53444214 67.34502774 -1.9168373 61.05068257 2.6875 51.6875 C5.46216577 43.5484804 4.55686703 33.54186893 0.9375 25.86328125 C-3.398493 18.31594344 -9.86752726 12.8846498 -18.203125 10.04296875 C-31.49468706 7.8030944 -43.27510706 10.40495515 -52.3125 20.6875 Z " fill="#000000" transform="translate(147.3125,79.3125)"/>
<path d="M0 0 C36.96 0 73.92 0 112 0 C112 5.28 112 10.56 112 16 C75.04 16 38.08 16 0 16 C0 10.72 0 5.44 0 0 Z " fill="#000000" transform="translate(248,104)"/>
<path d="M0 0 C36.96 0 73.92 0 112 0 C112 5.28 112 10.56 112 16 C75.04 16 38.08 16 0 16 C0 10.72 0 5.44 0 0 Z " fill="#000000" transform="translate(248,72)"/>
<path d="M0 0 C5.82485779 3.51996782 10.54466582 8.98962934 12.5625 15.5 C13.36764105 23.33608208 13.68710392 31.11922577 8.5625 37.5 C3.75801361 42.54521222 -0.59927055 46.10562995 -7.70703125 46.8359375 C-16.22326573 46.92983204 -22.11345494 46.6177288 -28.40234375 40.62890625 C-34.7841668 33.72505269 -35.91792252 28.29832071 -35.7421875 18.9453125 C-35.04689797 11.08319245 -31.38995981 6.95041296 -25.53515625 1.9453125 C-18.47077988 -2.92213491 -7.84396301 -3.47595223 0 0 Z M-16.8125 17.125 C-18.92456506 20.21186432 -19.04945145 21.8282913 -18.4375 25.5 C-16.9375 28 -16.9375 28 -14.4375 29.5 C-10.7657913 30.11195145 -9.14936432 29.98706506 -6.0625 27.875 C-3.95043494 24.78813568 -3.82554855 23.1717087 -4.4375 19.5 C-5.9375 17 -5.9375 17 -8.4375 15.5 C-12.1092087 14.88804855 -13.72563568 15.01293494 -16.8125 17.125 Z " fill="#000000" transform="translate(459.4375,105.5)"/>
<path d="M0 0 C5.28 0 10.56 0 16 0 C16 5.28 16 10.56 16 16 C10.72 16 5.44 16 0 16 C0 10.72 0 5.44 0 0 Z " fill="#000000" transform="translate(344,136)"/>
<path d="M0 0 C5.28 0 10.56 0 16 0 C16 5.28 16 10.56 16 16 C10.72 16 5.44 16 0 16 C0 10.72 0 5.44 0 0 Z " fill="#000000" transform="translate(312,136)"/>
<path d="M0 0 C5.28 0 10.56 0 16 0 C16 5.28 16 10.56 16 16 C10.72 16 5.44 16 0 16 C0 10.72 0 5.44 0 0 Z " fill="#000000" transform="translate(280,136)"/>
<path d="M0 0 C5.28 0 10.56 0 16 0 C16 5.28 16 10.56 16 16 C10.72 16 5.44 16 0 16 C0 10.72 0 5.44 0 0 Z " fill="#000000" transform="translate(248,136)"/>
</svg>
