<?xml version="1.0" encoding="UTF-8"?>
<svg version="1.1" xmlns="http://www.w3.org/2000/svg" width="29" height="41">
<path d="M0 0 C3.04825429 1.52412715 5.62301675 3.02116789 8.40625 4.93359375 C9.23253906 5.50013672 10.05882812 6.06667969 10.91015625 6.65039062 C11.76480469 7.24013672 12.61945312 7.82988281 13.5 8.4375 C14.78197266 9.31631836 14.78197266 9.31631836 16.08984375 10.21289062 C18.39952976 11.80012415 20.70807827 13.38721473 23 15 C23.75087891 15.47574463 24.50175781 15.95148926 25.27539062 16.44165039 C25.84451172 16.95590576 26.41363281 17.47016113 27 18 C27 22 27 22 25.55053711 23.47631836 C24.8828833 23.92628174 24.21522949 24.37624512 23.52734375 24.83984375 C22.79193359 25.34580078 22.05652344 25.85175781 21.29882812 26.37304688 C20.51958984 26.88931641 19.74035156 27.40558594 18.9375 27.9375 C17.42572829 28.96737019 15.91400899 29.9973173 14.40234375 31.02734375 C13.66226074 31.52218262 12.92217773 32.01702148 12.15966797 32.52685547 C10.10687131 33.92710135 8.11944478 35.39215569 6.12890625 36.87890625 C3 39 3 39 0 39 C0 26.13 0 13.26 0 0 Z " fill="#D8D8D8" transform="translate(2,2)"/>
</svg>
