<svg width="18" height="18" viewBox="0 0 18 18" fill="none" xmlns="http://www.w3.org/2000/svg">
<path d="M15 10.3125C15 10.1633 14.9407 10.0202 14.8352 9.91475C14.7298 9.80926 14.5867 9.75 14.4375 9.75H12.1875C12.0383 9.75 11.8952 9.80926 11.7898 9.91475C11.6843 10.0202 11.625 10.1633 11.625 10.3125V15.375H10.5V3.1875C10.5 2.6415 10.4985 2.2875 10.464 2.028C10.431 1.78425 10.3777 1.70775 10.335 1.665C10.2922 1.62225 10.2157 1.569 9.972 1.536C9.71175 1.5015 9.3585 1.5 8.8125 1.5C8.2665 1.5 7.9125 1.5015 7.653 1.536C7.40925 1.569 7.33275 1.62225 7.29 1.665C7.24725 1.70775 7.194 1.78425 7.161 2.028C7.1265 2.28825 7.125 2.6415 7.125 3.1875V15.375H6V6.5625C6 6.41332 5.94074 6.27024 5.83525 6.16475C5.72976 6.05926 5.58668 6 5.4375 6H3.1875C3.03832 6 2.89524 6.05926 2.78975 6.16475C2.68426 6.27024 2.625 6.41332 2.625 6.5625V15.375H1.3125C1.16332 15.375 1.02024 15.4343 0.914752 15.5398C0.809263 15.6452 0.75 15.7883 0.75 15.9375C0.75 16.0867 0.809263 16.2298 0.914752 16.3352C1.02024 16.4407 1.16332 16.5 1.3125 16.5H16.3125C16.4617 16.5 16.6048 16.4407 16.7102 16.3352C16.8157 16.2298 16.875 16.0867 16.875 15.9375C16.875 15.7883 16.8157 15.6452 16.7102 15.5398C16.6048 15.4343 16.4617 15.375 16.3125 15.375H15V10.3125Z" fill="#776F86"/>
</svg>
