<svg width="14" height="14" viewBox="0 0 14 14" fill="none" xmlns="http://www.w3.org/2000/svg">
<path d="M10.5 4.66663C10.5 3.73837 10.1313 2.84813 9.47487 2.19175C8.8185 1.53537 7.92826 1.16663 7 1.16663C6.07174 1.16663 5.1815 1.53537 4.52513 2.19175C3.86875 2.84813 3.5 3.73837 3.5 4.66663C3.5 8.74996 1.75 9.91663 1.75 9.91663H12.25C12.25 9.91663 10.5 8.74996 10.5 4.66663Z" stroke="#DD2323" stroke-width="1.2" stroke-linecap="round" stroke-linejoin="round"/>
<path d="M8.00906 12.25C7.9065 12.4268 7.7593 12.5735 7.58219 12.6756C7.40508 12.7776 7.20428 12.8313 6.99989 12.8313C6.7955 12.8313 6.5947 12.7776 6.41759 12.6756C6.24048 12.5735 6.09328 12.4268 5.99072 12.25" stroke="#DD2323" stroke-width="1.2" stroke-linecap="round" stroke-linejoin="round"/>
</svg>
