<svg width="40" height="40" viewBox="0 0 40 40" fill="none" xmlns="http://www.w3.org/2000/svg">
<circle cx="20" cy="20" r="20" fill="#3CB64A" fill-opacity="0.1"/>
<path d="M19.2164 9.27246L17.8282 12.0488L17.2464 10.3037L15.1719 11.3409V12.2842L16.7535 11.4934L17.6718 14.2481L19.2837 11.0246L21.5336 14.7746L23.1887 11.4646L24.8281 12.2843V11.3409L22.8113 10.3326L21.4663 13.0225L19.2164 9.27246ZM12.1719 11.3204V13.4767H14.3281V11.3204H12.1719ZM25.6719 11.3204V13.4767H27.8281V11.3204H25.6719ZM11.4219 14.3204V28.4767H15.8281V23.2267H24.1719V28.4767H28.5781V14.3204H24.8294L23.3294 20.3204H16.6706L15.1706 14.3204H11.4219ZM16.1575 14.7892L16.3685 15.6329H23.6315L23.8425 14.7892H16.1575ZM16.556 16.3829L16.7669 17.2267H23.2331L23.444 16.3829H16.556ZM26.3281 17.6486C26.9703 17.6486 27.5 18.1782 27.5 18.8204C27.5 19.4626 26.9703 19.9923 26.3281 19.9923C25.6859 19.9923 25.1562 19.4626 25.1562 18.8204C25.1562 18.1782 25.6859 17.6486 26.3281 17.6486ZM10.5781 17.6868L9.17188 18.6243V25.4767H10.5781V17.6868ZM16.9544 17.9767L17.1653 18.8204H22.8347L23.0456 17.9767H16.9544ZM26.3281 20.6486C26.9703 20.6486 27.5 21.1782 27.5 21.8204C27.5 22.4626 26.9703 22.9923 26.3281 22.9923C25.6859 22.9923 25.1562 22.4626 25.1562 21.8204C25.1562 21.1782 25.6859 20.6486 26.3281 20.6486ZM29.4219 23.3204V25.4767H30.8281V23.3204H29.4219ZM26.3281 23.6486C26.9703 23.6486 27.5 24.1782 27.5 24.8204C27.5 25.4626 26.9703 25.9923 26.3281 25.9923C25.6859 25.9923 25.1562 25.4626 25.1562 24.8204C25.1562 24.1782 25.6859 23.6486 26.3281 23.6486ZM16.6719 24.0704V26.2267H17.4893L18.5 24.2052L20.1156 27.4363L20.5752 26.9767H23.3281V24.0704H16.6719ZM18.5 26.092L18.0107 27.0704H16.6719V29.2267H23.3281V27.8204H20.9248L19.8845 28.8607L18.5 26.092ZM29.4219 26.3204V28.4767H30.8281V26.3204H29.4219ZM11.1406 29.3204L9.26562 30.7267H14.3281V29.3204H11.1406ZM25.6719 29.3204V30.7267H30.7344L28.8594 29.3204H25.6719Z" fill="#3CB64A"/>
</svg>
