<?xml version="1.0" encoding="UTF-8"?>
<svg version="1.1" xmlns="http://www.w3.org/2000/svg" width="512" height="512">
<path d="M0 0 C2.05831997 -0.00464004 4.1166391 -0.00966624 6.17495728 -0.01504517 C11.71569226 -0.02804291 17.2564152 -0.03458721 22.79716301 -0.03905582 C26.26409437 -0.04200251 29.73102254 -0.04610983 33.19795227 -0.05056 C44.06244308 -0.06419137 54.92692647 -0.07388357 65.79142523 -0.07776189 C78.30518434 -0.08225511 90.81883491 -0.09987966 103.33256102 -0.12876248 C113.03314292 -0.15037237 122.73369423 -0.16046553 132.43429995 -0.16180301 C138.21799702 -0.16285 144.00159144 -0.1687375 149.78526306 -0.18662262 C155.21580758 -0.20309488 160.64617204 -0.20526289 166.07673264 -0.19648361 C168.06651161 -0.19571324 170.05630027 -0.200056 172.04605484 -0.20994186 C174.76639085 -0.22266407 177.48608897 -0.21678351 180.2064209 -0.20635986 C180.98930339 -0.21441627 181.77218589 -0.22247267 182.5787921 -0.23077321 C189.05950991 -0.17287135 194.15331409 1.4593802 199.78320312 4.78613281 C204.56176334 9.83016859 206.27828128 15.2694526 206.53320312 22.16113281 C206.29650771 27.79878732 205.45382841 32.57005484 202.03320312 37.16113281 C195.07649212 43.21155669 189.34747587 44.31008204 180.32557678 44.30589294 C179.43703347 44.30941979 178.54849016 44.31294664 177.6330213 44.31658036 C174.64930387 44.32727267 171.66561837 44.33094935 168.68188477 44.3347168 C166.54477809 44.34102193 164.40767272 44.34778769 162.27056885 44.35498047 C157.66362341 44.36965711 153.05668308 44.38137944 148.4497242 44.39092827 C141.15773774 44.40638234 133.86579466 44.4303337 126.57383728 44.45582581 C105.83628077 44.52701685 85.09869907 44.58671428 64.36108398 44.63793945 C52.91132318 44.6662975 41.46160522 44.70171171 30.0118894 44.7445932 C22.77156433 44.77128559 15.53128773 44.78924042 8.29092324 44.80063045 C3.77136637 44.80979704 -0.74813203 44.82717851 -5.26765442 44.84680939 C-7.35367469 44.85424378 -9.43971001 44.85836345 -11.52574348 44.8588047 C-37.03235857 44.55180651 -37.03235857 44.55180651 -58.90429688 56.47363281 C-69.14583183 67.78927997 -70.12376521 81.40229814 -70.10050964 95.95062256 C-70.10390798 97.52873352 -70.10390798 97.52873352 -70.10737497 99.13872552 C-70.11367894 102.64588042 -70.11288792 106.15299633 -70.11206055 109.66015625 C-70.11505428 112.18223114 -70.11845731 114.70430557 -70.12223816 117.22637939 C-70.13014499 123.35566925 -70.13329187 129.48494495 -70.13385054 135.61423942 C-70.13432689 140.60008932 -70.13638755 145.58593607 -70.13955116 150.57178497 C-70.14835091 164.72984195 -70.1529716 178.88789137 -70.15222069 193.0459511 C-70.15216075 194.18916234 -70.15216075 194.18916234 -70.15209961 195.35546875 C-70.15203829 196.50008734 -70.15203829 196.50008734 -70.15197573 197.66782954 C-70.15156945 210.02895323 -70.16113619 222.39004643 -70.17523798 234.75116131 C-70.1896272 247.46528069 -70.19650676 260.17938523 -70.1956442 272.89351296 C-70.19531311 280.02274887 -70.1980215 287.1519528 -70.20882225 294.28118134 C-70.21891965 300.98874495 -70.21856596 307.69623009 -70.21130562 314.40380096 C-70.21026276 316.85911152 -70.21260484 319.31442632 -70.21866608 321.76972961 C-70.81455109 349.48060539 -70.81455109 349.48060539 -57.57617188 372.86035156 C-43.10401309 385.62098259 -23.00763468 383.45246227 -5.01367188 383.41992188 C-2.49100646 383.42263523 0.03165816 383.42619809 2.55432129 383.43054199 C8.6697123 383.43868595 14.78503889 383.4375341 20.90043068 383.43171671 C25.87474596 383.42718247 30.8490475 383.4265949 35.82336426 383.42876434 C36.53389269 383.42907081 37.24442112 383.42937728 37.97648072 383.42969303 C39.42033228 383.43033254 40.86418383 383.43098097 42.30803537 383.43163821 C55.81696852 383.43732838 69.32587443 383.43080429 82.8348031 383.42003748 C94.40225215 383.41110316 105.96966105 383.41265558 117.53710938 383.421875 C131.0008345 383.4326009 144.46453582 383.43677918 157.92826462 383.43065047 C159.36652374 383.43001344 160.80478286 383.4293847 162.24304199 383.42876434 C163.30425652 383.42830152 163.30425652 383.42830152 164.38690972 383.42782934 C169.34978324 383.42610935 174.31264154 383.42900242 179.2755127 383.43372345 C185.96672021 383.43994926 192.65784068 383.43545686 199.3490448 383.42393494 C201.79790624 383.42130097 204.24677408 383.42203174 206.69563293 383.42646027 C234.44472189 383.95676025 234.44472189 383.95676025 257.79882812 370.59472656 C268.21174633 359.25338384 268.17824678 344.62656238 268.19091797 330.07324219 C268.19871683 328.10218535 268.20651976 326.13112853 268.21447587 324.16007233 C268.22214841 322.05791353 268.22755412 319.95575894 268.23243332 317.85359192 C268.2431928 313.4565135 268.26345603 309.05950983 268.28555298 304.66247559 C268.34721859 292.16482965 268.4014892 279.66719047 268.43457031 267.16943359 C268.4529545 260.25397486 268.48192997 253.33864396 268.52257502 246.42327929 C268.54356588 242.77171178 268.55909114 239.1203047 268.56138229 235.46867371 C268.5639417 231.3952782 268.58946516 227.32232879 268.61669922 223.24902344 C268.61369308 222.0518721 268.61068695 220.85472076 268.60758972 219.62129211 C268.68198688 212.12021428 269.11958334 204.95517248 273.83007812 198.82128906 C279.79470023 193.94222818 285.00598293 191.63172337 292.92773438 191.92285156 C300.32732533 192.76028208 304.77291949 195.19172489 309.62304688 200.83300781 C313.68671823 207.5420054 313.31406286 214.64816065 313.27612305 222.25244141 C313.27802139 223.45510651 313.27991974 224.65777161 313.28187561 225.8968811 C313.28493726 229.18268923 313.27909038 232.46833012 313.26892257 235.7541194 C313.26008554 239.21348869 313.26190075 242.67285439 313.26228333 246.13223267 C313.26134782 251.95097106 313.25268674 257.76965722 313.23901367 263.58837891 C313.22336337 270.27229429 313.21801316 276.95615223 313.21874923 283.64008462 C313.21943088 290.80168939 313.2124476 297.9632726 313.20330262 305.12487078 C313.2011929 307.16424552 313.20046438 309.20361667 313.20006371 311.2429924 C313.16985825 364.08807801 313.16985825 364.08807801 304.03320312 382.16113281 C303.55238281 383.13308594 303.0715625 384.10503906 302.57617188 385.10644531 C291.80399533 405.18305658 273.79831478 416.75369206 252.79492188 424.32910156 C233.94610644 429.35375196 212.91113032 428.45874558 193.56054688 428.41992188 C191.23291923 428.42264196 188.90529244 428.42620852 186.57766724 428.43054199 C180.33797663 428.43954741 174.09835322 428.43617143 167.85866165 428.42978382 C161.947989 428.42518353 156.03732408 428.42872376 150.12665117 428.43163821 C137.70747781 428.43730521 125.28833425 428.43084121 112.86916578 428.42003748 C102.27441594 428.4111053 91.67970998 428.41265838 81.08496094 428.421875 C68.70215544 428.43264246 56.31937588 428.43675623 43.93656635 428.43065047 C37.41081505 428.42755885 30.88509377 428.427043 24.35934448 428.43372345 C18.21950197 428.43957169 12.07974094 428.4353658 5.93990707 428.42393494 C3.70893361 428.4213278 1.47795308 428.4219842 -0.75301743 428.42646027 C-12.36321617 428.44757675 -23.87913565 428.15636733 -35.45727539 427.246521 C-36.48311957 427.16590746 -37.50896376 427.08529393 -38.56589413 427.00223756 C-58.29880618 425.30325918 -74.43677123 418.70723546 -88.96679688 405.16113281 C-89.73378906 404.45988281 -90.50078125 403.75863281 -91.29101562 403.03613281 C-115.71327688 378.48600631 -115.12033258 342.5367976 -115.11206055 310.41308594 C-115.11505924 308.06693468 -115.11846338 305.72078392 -115.12223816 303.37463379 C-115.13101094 297.04771473 -115.13341344 290.72080922 -115.13405395 284.39388466 C-115.13488883 279.75833008 -115.13779624 275.12277844 -115.14089042 270.48722491 C-115.14917387 257.9914257 -115.15293539 245.49563358 -115.15222069 232.99983174 C-115.15218073 232.29315875 -115.15214078 231.58648576 -115.15209961 230.85839844 C-115.15205873 230.15084095 -115.15201785 229.44328346 -115.15197573 228.71428484 C-115.15156993 217.26708916 -115.16112781 205.81992648 -115.17523798 194.37274033 C-115.189684 182.55779944 -115.19650366 170.74287456 -115.1956442 158.92792463 C-115.19531502 152.31933328 -115.19813897 145.7107723 -115.20882225 139.10218811 C-115.21861226 132.8770978 -115.21850897 126.65207978 -115.21130562 120.42698669 C-115.21027311 118.1637664 -115.21254147 115.90054134 -115.21866608 113.6373291 C-115.24827311 101.92245106 -114.9700659 90.30277761 -114.05317688 78.61999512 C-113.97250353 77.59112954 -113.89183018 76.56226396 -113.80871218 75.50222063 C-112.15201216 56.27992501 -105.14120281 40.2924635 -91.96679688 26.16113281 C-91.26554687 25.39414063 -90.56429687 24.62714844 -89.84179688 23.83691406 C-66.05266097 0.1716799 -31.26620703 0.0166339 0 0 Z " fill="#000000" transform="translate(156.966796875,41.8388671875)"/>
<path d="M0 0 C6.0307615 3.5293661 10.31985203 8.42294056 12.5625 15.08203125 C12.8984375 17.6953125 12.8984375 17.6953125 12.9375 20.39453125 C12.96585937 21.27753906 12.99421875 22.16054687 13.0234375 23.0703125 C11.68259796 31.83122169 5.88396022 37.33144424 -0.15426636 43.30000305 C-1.48836444 44.64240273 -1.48836444 44.64240273 -2.84941399 46.01192158 C-5.30541913 48.48262553 -7.77365901 50.94077328 -10.24417996 53.39695084 C-12.91131619 56.05294964 -15.56687202 58.72048476 -18.22393799 61.3865509 C-23.425425 66.60195265 -28.63757117 71.8065738 -33.85354529 77.00748263 C-39.92885587 83.06591414 -45.9940961 89.13438591 -52.0591004 95.20313182 C-62.88075585 106.03066241 -73.71239759 116.84814851 -84.54931641 127.66040039 C-95.06308219 138.15023752 -105.56838062 148.64846427 -116.06494141 159.15551758 C-127.49956782 170.60155375 -138.93891641 182.04283181 -150.38646615 193.47594422 C-151.60708455 194.69503681 -152.82770023 195.91413212 -154.04831314 197.13323021 C-154.64886496 197.73302421 -155.24941677 198.33281821 -155.86816712 198.95078779 C-160.09893511 203.1768141 -164.32639954 207.40612792 -168.55266953 211.63665199 C-173.70236854 216.79127797 -178.85748747 221.94041055 -184.01955901 227.08264718 C-186.65289407 229.70611249 -189.28379363 232.33190141 -191.90826035 234.96424103 C-194.7530077 237.81734728 -197.60922825 240.65868219 -200.46676636 243.49897766 C-201.70879816 244.75002453 -201.70879816 244.75002453 -202.97592151 246.02634507 C-208.97956694 251.96408718 -213.57238644 255.50416832 -222.3125 255.58203125 C-224.04113281 255.6284375 -224.04113281 255.6284375 -225.8046875 255.67578125 C-233.52394791 254.41413869 -239.0780468 248.88793779 -244.43261719 243.50683594 C-245.08084946 242.86707321 -245.72908173 242.22731049 -246.3969574 241.56816101 C-248.51722983 239.47110627 -250.62629855 237.36321578 -252.734375 235.25390625 C-254.21522534 233.78016529 -255.69637037 232.30672039 -257.17779541 230.83355713 C-260.27265418 227.75210726 -263.36155469 224.66482689 -266.44677734 221.57373047 C-270.38961273 217.62499461 -274.35040577 213.69483065 -278.31632614 209.76929855 C-281.37744274 206.73409893 -284.42694415 203.6874314 -287.47330475 200.63742828 C-288.92852199 199.18389769 -290.38769859 197.73431933 -291.85097504 196.28890228 C-293.89949859 194.26265193 -295.93135267 192.22096812 -297.95996094 190.17480469 C-298.55951096 189.58851791 -299.15906097 189.00223114 -299.77677917 188.3981781 C-304.74603889 183.32904233 -308.54926336 177.28681474 -308.875 170.01953125 C-308.15016521 163.49601812 -306.29621239 157.6915789 -301.4375 153.08203125 C-294.98285303 148.79472446 -289.14414913 146.80321835 -281.4375 148.08203125 C-272.48493029 151.10972614 -266.39121053 157.47036099 -259.9609375 164.0703125 C-258.90016262 165.14043425 -257.83826247 166.20944162 -256.77529907 167.27738953 C-254.00554406 170.06606688 -251.25114953 172.86943216 -248.49987793 175.67633057 C-245.67976445 178.54795809 -242.84511275 181.40515802 -240.01171875 184.26367188 C-234.47279943 189.85591762 -228.95005314 195.46379376 -223.4375 201.08203125 C-220.37041645 199.71337597 -218.27053542 198.16172831 -215.90665054 195.7861042 C-215.22087441 195.10184337 -214.53509827 194.41758253 -213.82854104 193.71258652 C-213.0830235 192.95851482 -212.33750596 192.20444311 -211.56939697 191.42752075 C-210.77124754 190.6282579 -209.9730981 189.82899505 -209.15076232 189.00551212 C-206.46846915 186.31713067 -203.79339407 183.62167831 -201.11816406 180.92626953 C-199.20057181 179.00042969 -197.28143173 177.07613521 -195.36230469 175.15182495 C-191.22542744 171.00234838 -187.09201172 166.84944966 -182.96070099 162.6944313 C-176.9808192 156.68059656 -170.99351911 150.6741899 -165.0039911 144.66996394 C-155.27787592 134.91995095 -145.55476869 125.1669454 -135.83496094 115.41064453 C-135.25316093 114.82666428 -134.67136093 114.24268403 -134.07193062 113.64100741 C-125.81917829 105.35704755 -117.56942424 97.07010818 -109.32087871 88.78195976 C-108.74029147 88.19858589 -108.15970423 87.61521202 -107.56152344 87.01416016 C-106.98164642 86.43149608 -106.40176941 85.84883201 -105.80432037 85.24851145 C-96.1294842 75.52757827 -86.44691279 65.81439247 -76.75798583 56.10750377 C-70.78371316 50.12153412 -64.81603536 44.12913634 -58.85671136 38.12828372 C-54.77058854 34.01470744 -50.67724334 29.90841169 -46.57817915 25.80773129 C-44.21455255 23.44269908 -41.85551705 21.07352221 -39.50289154 18.6975174 C-36.94893955 16.11917305 -34.38291077 13.55347285 -31.8135376 10.99050903 C-31.07694294 10.24089877 -30.34034829 9.49128851 -29.58143258 8.71896279 C-21.42193046 0.63834516 -11.59012363 -4.36487028 0 0 Z " fill="#000000" transform="translate(478.4375,64.91796875)"/>
</svg>
