<?xml version="1.0" encoding="UTF-8"?>
<svg version="1.1" xmlns="http://www.w3.org/2000/svg" width="80" height="80">
<path d="M0 0 C11.60055067 -0.55022375 19.45148832 -0.06836715 28.5 7.6875 C30.02660137 9.10202944 31.52862596 10.52862596 33 12 C33.33 8.37 33.66 4.74 34 1 C37 1 37 1 39.4375 3.1875 C40.7059375 4.5796875 40.7059375 4.5796875 42 6 C42.70125 6.7425 43.4025 7.485 44.125 8.25 C48.08533445 14.05849053 49.44360579 20.05017592 49 27 C49.66 27 50.32 27 51 27 C51.99 23.7 52.98 20.4 54 17 C54.99 17 55.98 17 57 17 C63.48073787 31.78614952 68.97362092 47.18013402 63.8125 63.3125 C60.97803453 69.8672014 56.64487614 74.16238296 50.22265625 77.17578125 C37.6498015 81.83812282 22.30551723 81.93354195 9.66796875 77.2578125 C2.43743891 73.84898291 -2.73450785 69.40002657 -6 62 C-9.13278831 52.44499566 -8.03397742 44.41369066 -4.4375 35.1875 C-1.80302398 28.29092629 -1.45345255 22.31159031 -2 15 C-1.01 14.67 -0.02 14.34 1 14 C3.04296875 15.43359375 3.04296875 15.43359375 5.1875 17.4375 C5.90292969 18.09621094 6.61835938 18.75492188 7.35546875 19.43359375 C8.16951172 20.20896484 8.16951172 20.20896484 9 21 C7.96669694 14.49019073 6.23765324 10.26310637 2.33984375 4.9453125 C1 3 1 3 0 0 Z M5 2 C5.33773438 2.556875 5.67546875 3.11375 6.0234375 3.6875 C11.11118991 12.39255614 12.30209989 20.00900898 13 30 C12.01 30 11.02 30 10 30 C9.79375 29.113125 9.5875 28.22625 9.375 27.3125 C7.61695642 23.07721318 5.64626667 21.69506667 2 19 C1.90203125 19.75023438 1.8040625 20.50046875 1.703125 21.2734375 C0.79167765 27.51213747 -0.51535318 32.98707069 -3.09765625 38.74609375 C-6.05190918 46.12533159 -5.68068166 53.48420338 -2.98046875 60.82421875 C-0.56070546 66.19397234 2.4451917 70.59792073 8 73 C8.99 72.505 8.99 72.505 10 72 C9.360625 70.948125 8.72125 69.89625 8.0625 68.8125 C4.90074946 63.61091041 4.8814871 58.68088052 4.9375 52.6875 C4.94652344 51.43324219 4.95554687 50.17898437 4.96484375 48.88671875 C4.97644531 47.93410156 4.98804688 46.98148438 5 46 C5.94875 46.515625 6.8975 47.03125 7.875 47.5625 C8.90625 48.036875 9.9375 48.51125 11 49 C11.99 48.505 11.99 48.505 13 48 C12.87625 46.46472656 12.87625 46.46472656 12.75 44.8984375 C13.04705065 40.26630395 14.33557071 38.37185368 17 34.625 C20.67626401 29.18706145 21.88956067 25.56050996 21 19 C30.13128865 23.02599031 30.13128865 23.02599031 33.0625 26.3125 C33.91328127 28.75140632 34.14126877 30.46482646 34.3125 33 C34.52149263 35.47540154 34.64094302 36.61610911 36.35546875 38.44921875 C36.89816406 38.85785156 37.44085938 39.26648437 38 39.6875 C41 42 41 42 41.875 44.8125 C41.91625 45.534375 41.9575 46.25625 42 47 C44.99324263 45.9024777 45.84610901 45.32317108 47.25 42.375 C47.4975 41.59125 47.745 40.8075 48 40 C48.99 40 49.98 40 51 40 C54.01531335 50.55359673 55.01726969 62.96546063 50 73 C54.9482678 70.98403904 58.08777978 67.56380609 60.75 63 C65.26083868 52.17398718 62.92807386 39.78720719 58.91015625 29.1015625 C57.99361827 27.03364408 57.04518597 25.00548374 56 23 C55.38125 23.8353125 55.38125 23.8353125 54.75 24.6875 C49.34782609 31.82608696 49.34782609 31.82608696 47 33 C47.04640625 32.40574219 47.0928125 31.81148437 47.140625 31.19921875 C47.58101646 21.08594341 44.39528412 12.77804825 38 5 C37.67 5 37.34 5 37 5 C36.86722656 5.60328125 36.73445313 6.2065625 36.59765625 6.828125 C36.42105469 7.62734375 36.24445312 8.4265625 36.0625 9.25 C35.88847656 10.03890625 35.71445312 10.8278125 35.53515625 11.640625 C35.052444 13.76878703 34.53836822 15.88532842 34 18 C32.11557782 16.18805559 30.30317008 14.39716202 28.71484375 12.31640625 C24.26697719 6.55524204 19.41342681 3.72633803 12.19921875 2.5390625 C9.79676599 2.28760351 7.41302892 2.10075277 5 2 Z M24 23 C23.76925781 23.71285156 23.53851563 24.42570312 23.30078125 25.16015625 C20.31183436 33.9379726 20.31183436 33.9379726 17.25 37.75 C14.58688518 41.59672141 14.40580407 43.41620281 15 48 C15.8974827 50.83378132 15.8974827 50.83378132 17 53 C13.7 52.01 10.4 51.02 7 50 C6.48085365 61.13983179 6.48085365 61.13983179 11.4765625 70.71875 C16.66652455 75.5532352 22.34321758 78.07889082 29.4375 78.375 C35.81246128 78.12219981 41.00275484 76.25752473 46.375 72.875 C50.58019976 68.26930502 52.10508016 63.13569272 52.3125 56.9375 C51.9765826 52.70494073 51.16390412 49.07366441 50 45 C49.34 45 48.68 45 48 45 C47.21625 45.804375 46.4325 46.60875 45.625 47.4375 C43.18633325 49.81810326 42.2727674 50.63635918 39 51 C39.268125 50.113125 39.53625 49.22625 39.8125 48.3125 C40.38132897 44.81692579 40.38132897 44.81692579 37.6875 42.125 C35.30954772 39.79325481 35.30954772 39.79325481 33 40 C32.98582031 39.26394531 32.97164062 38.52789062 32.95703125 37.76953125 C32.69081007 31.36548924 32.69081007 31.36548924 29.625 25.875 C27.08117995 23.86367896 27.08117995 23.86367896 24 23 Z " fill="#787087" transform="translate(11,0)"/>
<path d="M0 0 C0.886875 0.37125 1.77375 0.7425 2.6875 1.125 C3.8321875 1.558125 3.8321875 1.558125 5 2 C5.99 1.34 6.98 0.68 8 0 C11.5772533 -0.45667063 13.33458305 -0.43777431 16.375 1.5625 C18.64330739 4.96496109 18.55487068 6.97718758 18 11 C15.565249 15.77585774 12.79765866 18.60117067 8 21 C3.17372204 21.68946828 0.315249 21.56741603 -3.8125 18.9375 C-7.26135721 16.1436889 -8.79126734 13.3061101 -10 9 C-9.87597396 5.77532296 -9.53423444 3.84352806 -7.8125 1.125 C-5.10794969 -0.5536864 -3.12810048 -0.31281005 0 0 Z M-3 2 C-4.32 2.99 -5.64 3.98 -7 5 C-6.75489645 9.16676032 -6.40672124 11.47707269 -3.8125 14.8125 C-0.77627971 17.17400467 1.19957905 18.37952311 5 19 C9.65309752 17.41794684 12.45745964 15.2049706 15 11 C15.5838196 7.9149255 15.5838196 7.9149255 15 5 C13.62493901 3.12109566 13.62493901 3.12109566 12 2 C11.0925 2.495 10.185 2.99 9.25 3.5 C6 5 6 5 2 5 C-0.75 3.5 -0.75 3.5 -3 2 Z " fill="#776F85" transform="translate(37,55)"/>
</svg>
