<?xml version="1.0" encoding="UTF-8"?>
<svg version="1.1" xmlns="http://www.w3.org/2000/svg" width="80" height="80">
<path d="M0 0 C1.67542976 0.28604898 3.34385343 0.61781233 5 1 C5 2.98 5 4.96 5 7 C6.32 7.66 7.64 8.32 9 9 C9.08074203 11.62561109 9.1403623 14.24875676 9.1875 16.875 C9.21263672 17.62136719 9.23777344 18.36773438 9.26367188 19.13671875 C9.29296875 21.3046875 9.29296875 21.3046875 9 25 C8.01 25.66 7.02 26.32 6 27 C5.53805595 29.82596634 5.53805595 29.82596634 5.59375 33.14453125 C5.56087891 34.99594727 5.56087891 34.99594727 5.52734375 36.88476562 C5.51832031 38.18091797 5.50929688 39.47707031 5.5 40.8125 C5.48209921 43.36080582 5.45134681 45.90906161 5.40625 48.45703125 C5.39916016 49.59116455 5.39207031 50.72529785 5.38476562 51.89379883 C4.95457443 55.36671923 4.08821099 57.21582093 2 60 C-1.7373856 62.4915904 -3.57331583 62.45793285 -8 62 C-11.38939556 59.86320715 -12.72582557 58.8225233 -14 55 C-14.30486441 51.87513984 -14.50841216 48.74971889 -14.71875 45.6171875 C-14.71496985 43.07586139 -14.71496985 43.07586139 -16 42 C-18.31 41.67 -20.62 41.34 -23 41 C-23 50.57 -23 60.14 -23 70 C-21.68 70.33 -20.36 70.66 -19 71 C-19.33 72.65 -19.66 74.3 -20 76 C-36.83 76 -53.66 76 -71 76 C-71 74.35 -71 72.7 -71 71 C-69.02 70.505 -69.02 70.505 -67 70 C-67.00999275 69.17767128 -67.00999275 69.17767128 -67.02018738 68.33872986 C-67.08676615 62.61202889 -67.13189378 56.88543863 -67.16479492 51.15844727 C-67.17984362 49.02363618 -67.20028736 46.88885581 -67.22631836 44.75415039 C-67.26287386 41.67847086 -67.2797659 38.60320156 -67.29296875 35.52734375 C-67.30845261 34.57915268 -67.32393646 33.63096161 -67.33988953 32.65403748 C-67.34164281 25.68705354 -65.99907656 21.30616508 -62.375 15.3125 C-57.3829568 10.45182635 -51.9004206 8.75524515 -45 8.5 C-39.35824981 8.73686737 -34.59747991 9.58369082 -30 13 C-23.8623081 19.94051236 -22.84793013 26.02787781 -23 35 C-21.1746875 34.9071875 -21.1746875 34.9071875 -19.3125 34.8125 C-15.4014614 34.81942219 -13.09327165 35.45259982 -10 38 C-7.76196893 41.45296222 -7.61808581 44.69856985 -7.375 48.75 C-7.30023438 49.92046875 -7.22546875 51.0909375 -7.1484375 52.296875 C-7.09945312 53.18890625 -7.05046875 54.0809375 -7 55 C-5.35 55 -3.7 55 -2 55 C-1.88394902 50.41687916 -1.81279638 45.83413551 -1.75 41.25 C-1.71648437 39.94804688 -1.68296875 38.64609375 -1.6484375 37.3046875 C-1.63554688 36.05429687 -1.62265625 34.80390625 -1.609375 33.515625 C-1.58842773 32.36352539 -1.56748047 31.21142578 -1.54589844 30.02441406 C-2.09726399 26.35220089 -3.29063314 25.41466264 -6 23 C-6.49609375 19.87109375 -6.49609375 19.87109375 -6.4375 16.4375 C-6.43621094 15.30183594 -6.43492188 14.16617187 -6.43359375 12.99609375 C-6 10 -6 10 -4.59765625 8.09765625 C-3 7 -3 7 -1 7 C-1.020625 6.030625 -1.04125 5.06125 -1.0625 4.0625 C-1 1 -1 1 0 0 Z M0 13 C0 15.64 0 18.28 0 21 C1.32 21 2.64 21 4 21 C4 18.36 4 15.72 4 13 C2.68 13 1.36 13 0 13 Z M-60 22 C-61.52704628 26.05409255 -61.52704628 26.05409255 -61 35 C-50.44 35 -39.88 35 -29 35 C-28.65357436 26.55743989 -28.65357436 26.55743989 -32 20 C-36.40845588 16.02163738 -38.92501466 14.83711446 -44.8125 14.75 C-45.85019531 14.72421875 -46.88789062 14.6984375 -47.95703125 14.671875 C-53.20707214 15.23798981 -56.59590963 18.10961101 -60 22 Z M-61 41 C-61 50.57 -61 60.14 -61 70 C-50.44 70 -39.88 70 -29 70 C-29 60.43 -29 50.86 -29 41 C-39.56 41 -50.12 41 -61 41 Z " fill="#766E85" transform="translate(71,2)"/>
<path d="M0 0 C1.65 0.33 3.3 0.66 5 1 C4.67 2.65 4.34 4.3 4 6 C5.32 6 6.64 6 8 6 C7.56179109 10.55737263 7.14958831 13.57653445 4 17 C2.35 16.67 0.7 16.34 -1 16 C-0.67 14.35 -0.34 12.7 0 11 C-1.32 11 -2.64 11 -4 11 C-3.56179109 6.44262737 -3.14958831 3.42346555 0 0 Z " fill="#787086" transform="translate(24,49)"/>
</svg>
