<?xml version="1.0" encoding="UTF-8"?>
<svg version="1.1" xmlns="http://www.w3.org/2000/svg" width="80" height="80">
<path d="M0 0 C2.9838283 1.98921886 4.60276841 3.38502568 5.4765625 6.9375 C5.77594245 11.09730564 5.28518381 12.63976782 2.625 16 C0 18 0 18 -2 18 C-1.97705353 21.8554563 -1.89954429 25.70800008 -1.8125 29.5625 C-1.80669922 30.64853516 -1.80089844 31.73457031 -1.79492188 32.85351562 C-1.59993634 39.98132034 -0.66550289 43.59440179 4 49 C5.97784396 54.93353187 6.00831235 61.63853119 3.375 67.375 C0.51096752 72.33119806 -3.69210931 75.82338295 -9 78 C-15.33584857 78.77840425 -21.63418028 78.75701011 -27.24609375 75.46484375 C-32.72307954 70.89052377 -34.84529967 65.928202 -36 59 C-48.21 59 -60.42 59 -73 59 C-73 42.5 -73 26 -73 9 C-53.2 9 -33.4 9 -13 9 C-12.67 7.02 -12.34 5.04 -12 3 C-8.88510089 -0.73787893 -4.55646254 -0.9383606 0 0 Z M-6 3 C-9.14908708 6.03306335 -9.14908708 6.03306335 -10 10.125 C-8.66179464 12.63413506 -7.5522148 13.7238926 -5 15 C-2.29164947 14.65022176 -2.29164947 14.65022176 0 13 C1.36078035 10.47627099 1.36078035 10.47627099 2 8 C-0.31232422 5.43750025 -0.31232422 5.43750025 -3 3 C-3.99 3 -4.98 3 -6 3 Z M-70 12 C-70 26.52 -70 41.04 -70 56 C-58.78 56 -47.56 56 -36 56 C-36 55.34 -36 54.68 -36 54 C-36.66 54 -37.32 54 -38 54 C-38 49.05 -38 44.1 -38 39 C-35.36 39 -32.72 39 -30 39 C-29.505 40.98 -29.505 40.98 -29 43 C-28.46375 42.54625 -27.9275 42.0925 -27.375 41.625 C-20.50290247 36.92303853 -13.90498594 37.68250234 -6 39 C-6 32.07 -6 25.14 -6 18 C-7.32 17.67 -8.64 17.34 -10 17 C-13.75971292 19.26287171 -15.78887508 22.18566102 -16.875 26.375 C-16.91625 27.24125 -16.9575 28.1075 -17 29 C-19.875 28.8125 -19.875 28.8125 -23 28 C-23.70211894 26.34795544 -24.36971413 24.68076231 -25 23 C-27.28757567 21.65892639 -27.28757567 21.65892639 -30 22 C-33.09157823 24.38894682 -34.72033851 26.03194101 -35.8125 29.8125 C-35.9053125 30.8953125 -35.9053125 30.8953125 -36 32 C-37.98 32 -39.96 32 -42 32 C-42 30.02 -42 28.04 -42 26 C-41.0925 25.7525 -40.185 25.505 -39.25 25.25 C-35.80983232 23.92685858 -34.23470138 22.89683512 -32 20 C-31.20318682 17.35815459 -31.20318682 17.35815459 -31 15 C-29.02 15 -27.04 15 -25 15 C-24.6596875 16.2065625 -24.6596875 16.2065625 -24.3125 17.4375 C-23.23106595 20.15342735 -23.23106595 20.15342735 -20.75 21.1875 C-16.92558585 20.92674449 -15.63159669 19.10647594 -13.13671875 16.34765625 C-12.76160156 15.90292969 -12.38648438 15.45820313 -12 15 C-12.495 13.515 -12.495 13.515 -13 12 C-31.81 12 -50.62 12 -70 12 Z M-28 46 C-32.16248708 50.54299144 -32.38987795 55.08542487 -32.140625 61.05859375 C-32.09421875 61.69925781 -32.0478125 62.33992188 -32 63 C-31.01 63.33 -30.02 63.66 -29 64 C-26.78221114 62.23224117 -26.78221114 62.23224117 -26.91015625 59.9765625 C-26.98556641 58.81253906 -26.98556641 58.81253906 -27.0625 57.625 C-27.18069164 53.29362392 -27.18069164 53.29362392 -25.5 50.5625 C-25.005 50.046875 -24.51 49.53125 -24 49 C-24 48.34 -24 47.68 -24 47 C-21.69 46.34 -19.38 45.68 -17 45 C-17 43.68 -17 42.36 -17 41 C-21.55976015 41 -24.48893108 43.21657716 -28 46 Z M-14 41 C-14 42.32 -14 43.64 -14 45 C-12.906875 45.4125 -11.81375 45.825 -10.6875 46.25 C-7.43159289 47.68391465 -5.57456753 48.67591298 -4 52 C-3.6168013 54.29502699 -3.37531485 56.5580546 -3.2109375 58.87890625 C-3.06018673 61.18743057 -3.06018673 61.18743057 -2 64 C-1.01 64 -0.02 64 1 64 C2.1978572 57.90181789 2.28330566 53.43482337 -1 48 C-4.09772162 44.40289757 -6.80977047 42.30296752 -11.4375 41.125 C-12.283125 41.08375 -13.12875 41.0425 -14 41 Z M-35 42 C-35 44.97 -35 47.94 -35 51 C-32.70986347 47.5647952 -32.82157027 46.014669 -33 42 C-33.66 42 -34.32 42 -35 42 Z M-22 51 C-24.31141604 53.85074644 -25 55.3139451 -25 59 C-23.70758271 62.87725186 -22.2856634 64.57146618 -19 67 C-14.69725091 67.69151325 -12.79054688 67.51557405 -9.125 65.125 C-6.4126761 62.4126761 -6.06085907 61.53758847 -5.625 57.6875 C-5.69309685 53.90399182 -5.69309685 53.90399182 -8.125 51.125 C-13.21031994 47.36628526 -17.00230195 46.94781239 -22 51 Z M-27 66 C-27.36483291 69.76560827 -27.36483291 69.76560827 -25.9375 71.625 C-21.33390083 74.89207038 -16.35329886 75.43322394 -10.9296875 74.546875 C-7.7700003 73.65141709 -5.50401253 72.0764982 -3 70 C-2.67 69.01 -2.34 68.02 -2 67 C-3.83700789 66.22757731 -3.83700789 66.22757731 -6 66 C-6.45117188 66.47050781 -6.90234375 66.94101563 -7.3671875 67.42578125 C-9.88658955 69.85477413 -12.33344341 69.79221798 -15.71484375 70.078125 C-19.01064242 69.96544812 -21.23223769 68.71337667 -24 67 C-24.99 66.67 -25.98 66.34 -27 66 Z " fill="#776F86" transform="translate(74,1)"/>
<path d="M0 0 C3 2.0625 3 2.0625 5 5 C5.1506132 9.29247606 4.66257079 11.22050496 1.875 14.5 C-1.93532871 16.48799759 -3.91964404 16.20899436 -8 15 C-10.81972931 12.63506574 -10.97850831 11.1719335 -11.4375 7.5 C-11 4 -11 4 -9.4375 1.5625 C-6.01685857 -0.63021887 -3.99048721 -0.63007693 0 0 Z M-6.75 4.1875 C-8.29839423 6.00671447 -8.29839423 6.00671447 -7.6875 8.6875 C-7.460625 9.450625 -7.23375 10.21375 -7 11 C-4.09926819 11.67801034 -4.09926819 11.67801034 -1 12 C1.23845015 10.17084359 1.23845015 10.17084359 1.3125 7.5 C1.209375 6.675 1.10625 5.85 1 5 C-2.0999373 2.93337513 -3.52940482 2.00209613 -6.75 4.1875 Z " fill="#776F86" transform="translate(62,51)"/>
<path d="M0 0 C2.64 0 5.28 0 8 0 C8 6.6 8 13.2 8 20 C5.36 20 2.72 20 0 20 C0 13.4 0 6.8 0 0 Z M3 3 C3 7.62 3 12.24 3 17 C3.66 17 4.32 17 5 17 C5 12.38 5 7.76 5 3 C4.34 3 3.68 3 3 3 Z " fill="#766E85" transform="translate(26,35)"/>
<path d="M0 0 C2.64 0 5.28 0 8 0 C8 4.29 8 8.58 8 13 C5.36 13 2.72 13 0 13 C0 8.71 0 4.42 0 0 Z M3 3 C3 5.31 3 7.62 3 10 C3.66 10 4.32 10 5 10 C5 7.69 5 5.38 5 3 C4.34 3 3.68 3 3 3 Z " fill="#766E85" transform="translate(6,42)"/>
<path d="M0 0 C2.64 0 5.28 0 8 0 C8 3.3 8 6.6 8 10 C5.36 10 2.72 10 0 10 C0 6.7 0 3.4 0 0 Z M3 3 C3 4.32 3 5.64 3 7 C3.66 7 4.32 7 5 7 C5 5.68 5 4.36 5 3 C4.34 3 3.68 3 3 3 Z " fill="#766E85" transform="translate(16,45)"/>
<path d="M0 0 C5.94 0 11.88 0 18 0 C18 0.99 18 1.98 18 3 C12.06 3 6.12 3 0 3 C0 2.01 0 1.02 0 0 Z " fill="#766E85" transform="translate(11,30)"/>
<path d="M0 0 C5.94 0 11.88 0 18 0 C18 0.99 18 1.98 18 3 C12.06 3 6.12 3 0 3 C0 2.01 0 1.02 0 0 Z " fill="#766E85" transform="translate(11,25)"/>
<path d="M0 0 C5.94 0 11.88 0 18 0 C18 0.99 18 1.98 18 3 C12.06 3 6.12 3 0 3 C0 2.01 0 1.02 0 0 Z " fill="#766E85" transform="translate(11,20)"/>
<path d="M0 0 C5.94 0 11.88 0 18 0 C18 0.99 18 1.98 18 3 C12.06 3 6.12 3 0 3 C0 2.01 0 1.02 0 0 Z " fill="#766E85" transform="translate(11,15)"/>
<path d="M0 0 C0.99 0 1.98 0 3 0 C3 0.99 3 1.98 3 3 C2.01 3 1.02 3 0 3 C0 2.01 0 1.02 0 0 Z " fill="#766E85" transform="translate(6,30)"/>
<path d="M0 0 C0.99 0 1.98 0 3 0 C3 0.99 3 1.98 3 3 C2.01 3 1.02 3 0 3 C0 2.01 0 1.02 0 0 Z " fill="#766E85" transform="translate(6,25)"/>
<path d="M0 0 C0.99 0 1.98 0 3 0 C3 0.99 3 1.98 3 3 C2.01 3 1.02 3 0 3 C0 2.01 0 1.02 0 0 Z " fill="#766E85" transform="translate(6,20)"/>
<path d="M0 0 C0.99 0 1.98 0 3 0 C3 0.99 3 1.98 3 3 C2.01 3 1.02 3 0 3 C0 2.01 0 1.02 0 0 Z " fill="#766E85" transform="translate(6,15)"/>
</svg>
