<svg width="14" height="14" viewBox="0 0 14 14" fill="none" xmlns="http://www.w3.org/2000/svg">
<path d="M8.16683 1.16663H3.50016C3.19074 1.16663 2.894 1.28954 2.6752 1.50833C2.45641 1.72713 2.3335 2.02387 2.3335 2.33329V11.6666C2.3335 11.976 2.45641 12.2728 2.6752 12.4916C2.894 12.7104 3.19074 12.8333 3.50016 12.8333H10.5002C10.8096 12.8333 11.1063 12.7104 11.3251 12.4916C11.5439 12.2728 11.6668 11.976 11.6668 11.6666V4.66663L8.16683 1.16663Z" stroke="#0BC2AE" stroke-width="1.2" stroke-linecap="round" stroke-linejoin="round"/>
<path d="M8.1665 1.16663V4.66663H11.6665" stroke="#0BC2AE" stroke-width="1.2" stroke-linecap="round" stroke-linejoin="round"/>
<path d="M9.33317 7.58337H4.6665" stroke="#0BC2AE" stroke-width="1.2" stroke-linecap="round" stroke-linejoin="round"/>
<path d="M9.33317 9.91663H4.6665" stroke="#0BC2AE" stroke-width="1.2" stroke-linecap="round" stroke-linejoin="round"/>
<path d="M5.83317 5.25H5.24984H4.6665" stroke="#0BC2AE" stroke-width="1.2" stroke-linecap="round" stroke-linejoin="round"/>
</svg>
