<?xml version="1.0" encoding="UTF-8"?>
<svg version="1.1" xmlns="http://www.w3.org/2000/svg" width="40" height="28">
<path d="M0 0 C13.2 0 26.4 0 40 0 C38.48451504 3.03096993 36.99801325 5.60030532 35.1015625 8.37109375 C34.53953125 9.19287109 33.9775 10.01464844 33.3984375 10.86132812 C32.81320313 11.71146484 32.22796875 12.56160156 31.625 13.4375 C30.75875 14.7069043 30.75875 14.7069043 29.875 16.00195312 C27.04898207 20.12161625 24.20228609 24.15883417 21 28 C17.63093868 26.87697956 17.22242403 26.28508327 15.29296875 23.46484375 C14.78830078 22.73716797 14.28363281 22.00949219 13.76367188 21.25976562 C13.24353516 20.49341797 12.72339844 19.72707031 12.1875 18.9375 C11.16137189 17.44577764 10.13403034 15.95488924 9.10546875 14.46484375 C8.59935059 13.72733887 8.09323242 12.98983398 7.57177734 12.22998047 C5.50205324 9.29353127 3.31220902 6.4572891 1.0949707 3.63110352 C0 2 0 2 0 0 Z " fill="#D8D8D8" transform="translate(0,0)"/>
</svg>
