<?xml version="1.0" encoding="UTF-8"?>
<svg version="1.1" xmlns="http://www.w3.org/2000/svg" width="41" height="28">
<path d="M0 0 C12.87 0 25.74 0 39 0 C38.07975186 3.68099256 37.28858583 5.34955255 35.19921875 8.37109375 C34.63396484 9.19287109 34.06871094 10.01464844 33.48632812 10.86132812 C32.89271484 11.71146484 32.29910156 12.56160156 31.6875 13.4375 C31.10548828 14.28376953 30.52347656 15.13003906 29.92382812 16.00195312 C27.0787219 20.11656315 24.2013225 24.1505085 21 28 C17.63093868 26.87697956 17.22242403 26.28508327 15.29296875 23.46484375 C14.78830078 22.73716797 14.28363281 22.00949219 13.76367188 21.25976562 C13.24353516 20.49341797 12.72339844 19.72707031 12.1875 18.9375 C11.16137189 17.44577764 10.13403034 15.95488924 9.10546875 14.46484375 C8.59935059 13.72733887 8.09323242 12.98983398 7.57177734 12.22998047 C5.50205324 9.29353127 3.31220902 6.4572891 1.0949707 3.63110352 C0 2 0 2 0 0 Z " fill="#3BB549" transform="translate(2,0)"/>
</svg>
