<svg width="44" height="44" viewBox="0 0 44 44" fill="none" xmlns="http://www.w3.org/2000/svg">
<path fill-rule="evenodd" clip-rule="evenodd" d="M10.6945 5.76147C12.6465 4.45741 14.8361 3.55058 17.1385 3.09276C19.4409 2.63494 21.811 2.6351 24.1133 3.09321C26.4156 3.55133 28.6052 4.45844 30.557 5.76275C32.5087 7.06707 34.1845 8.74303 35.4885 10.695C36.7926 12.6469 37.6994 14.8366 38.1572 17.139C38.6151 19.4414 38.6149 21.8114 38.1568 24.1137C37.6987 26.4161 36.7916 28.6056 35.4873 30.5574C34.1829 32.5092 32.507 34.1849 30.555 35.489C26.6126 38.1223 21.7855 39.0816 17.1357 38.1558C12.4859 37.2301 8.39434 34.4952 5.76103 30.5527C3.12773 26.6102 2.16843 21.7832 3.09415 17.1334C4.01988 12.4836 6.75481 8.39202 10.6973 5.75872L10.6945 5.76147ZM12.2208 33.201C14.7083 34.8632 17.633 35.7504 20.6248 35.7502C24.6348 35.7459 28.4794 34.1509 31.315 31.3154C34.1505 28.4798 35.7454 24.6353 35.7498 20.6252C35.7497 18.0122 35.0727 15.4439 33.7847 13.1704C32.4968 10.8969 30.6418 8.99583 28.4006 7.6525C26.1593 6.30917 23.6083 5.56938 20.9961 5.50522C18.384 5.44106 15.7997 6.05473 13.4952 7.28642C11.1908 8.51811 9.24471 10.3258 7.84669 12.5333C6.44867 14.7409 5.64639 17.2729 5.51804 19.8827C5.38969 22.4925 5.93965 25.0911 7.11432 27.4251C8.28899 29.7592 10.0483 31.7491 12.2208 33.201ZM28.3083 11.0002L30.2498 12.9445L24.3373 18.857C24.764 19.7429 24.8634 20.7513 24.6178 21.7034C24.3723 22.6556 23.7976 23.4902 22.9957 24.0592C22.1937 24.6283 21.2163 24.8952 20.2364 24.8125C19.2565 24.7299 18.3375 24.3031 17.6422 23.6078C16.9469 22.9125 16.5201 21.9935 16.4375 21.0136C16.3548 20.0338 16.6217 19.0563 17.1908 18.2543C17.7598 17.4524 18.5944 16.8777 19.5466 16.6322C20.4987 16.3866 21.5071 16.486 22.393 16.9127L28.3083 11.0002ZM19.8575 21.7692C20.1609 21.972 20.5325 22.0459 20.8904 21.9747C21.2483 21.9036 21.5633 21.6931 21.766 21.3897C21.9688 21.0863 22.0427 20.7148 21.9715 20.3569C21.9004 19.999 21.6899 19.684 21.3865 19.4812C21.2363 19.3808 21.0678 19.311 20.8906 19.2757C20.7133 19.2405 20.5309 19.2405 20.3537 19.2757C19.9958 19.3469 19.6808 19.5573 19.478 19.8607C19.2753 20.1641 19.2014 20.5357 19.2725 20.8936C19.3437 21.2515 19.5541 21.5665 19.8575 21.7692ZM31.644 15.0345L29.5458 17.1327C30.0023 18.241 30.2415 19.4262 30.247 20.6252C30.2393 22.3485 29.7641 24.0375 28.872 25.512L30.8933 27.5332C32.1253 25.7077 32.8451 23.5851 32.9776 21.3868C33.1102 19.1884 32.6506 16.9948 31.6468 15.0345H31.644ZM24.0155 11.6657C22.9369 11.2335 21.7867 11.0077 20.6248 11.0002C18.0721 11.0002 15.6239 12.0143 13.8189 13.8193C12.0138 15.6244 10.9998 18.0725 10.9998 20.6252C11.0071 22.3486 11.4824 24.0376 12.3748 25.512L10.3563 27.5332C8.83732 25.2679 8.10932 22.5641 8.28544 19.8423C8.46157 17.1206 9.53196 14.5332 11.3302 12.4825C13.1285 10.4318 15.5538 9.03259 18.2293 8.50246C20.9048 7.97232 23.6804 8.34092 26.1248 9.55097L24.0155 11.6657Z" fill="#00059F"/>
</svg>
