<?xml version="1.0" encoding="UTF-8"?>
<svg version="1.1" xmlns="http://www.w3.org/2000/svg" width="512" height="512">
<path d="M0 0 C1.28390625 -0.00832352 2.5678125 -0.01664703 3.890625 -0.02522278 C7.39937911 -0.04708079 10.90804609 -0.05595579 14.41686058 -0.06104922 C16.61626067 -0.06470547 18.8156384 -0.07095226 21.01502991 -0.07805061 C28.70924875 -0.1025224 36.40340049 -0.11559048 44.09765625 -0.11914062 C51.23394377 -0.12276621 58.36979868 -0.15259676 65.50595427 -0.19454521 C71.65915985 -0.22942814 77.81222344 -0.24469221 83.96552706 -0.24538666 C87.62864285 -0.24617389 91.29131813 -0.25465177 94.95433044 -0.28338432 C114.41505418 -0.42653812 130.40548564 -0.48356777 146.14257812 12.30639648 C146.9753125 12.93288086 147.80804688 13.55936523 148.66601562 14.20483398 C157.65751323 21.834843 165.28539261 35.43896285 166.31741333 47.31900024 C166.37208108 49.50376114 166.3679137 51.67976466 166.33789062 53.86499023 C166.33506073 54.65414322 166.33223083 55.4432962 166.32931519 56.25636292 C166.3182087 58.75236821 166.29312267 61.24800147 166.26757812 63.74389648 C166.25753597 65.44636522 166.24841229 67.14883964 166.24023438 68.85131836 C166.21830072 73.00315225 166.18383789 77.15471151 166.14257812 81.30639648 C167.32194946 81.76344971 167.32194946 81.76344971 168.52514648 82.22973633 C174.22508565 84.57436199 178.91726211 88.98728871 181.42407227 94.65063477 C182.36911572 98.14373118 182.30956324 101.50543736 182.24023438 105.09155273 C182.23318481 105.78639771 182.22613525 106.48124268 182.21887207 107.19714355 C182.20057409 108.90031944 182.17255367 110.6033861 182.14257812 112.30639648 C183.41520508 112.29751404 184.68783203 112.28863159 185.99902344 112.27947998 C198.00485608 112.19831793 210.0106329 112.1383943 222.01667786 112.0991478 C228.1888067 112.07829231 234.36071368 112.05001127 240.53271484 112.00463867 C246.49143651 111.96110917 252.44994505 111.93724404 258.40881348 111.92688751 C260.67976231 111.91950897 262.95069976 111.90510041 265.22155762 111.88347626 C268.40772514 111.85434863 271.59301717 111.8504445 274.77929688 111.85229492 C276.18084267 111.83072327 276.18084267 111.83072327 277.61070251 111.80871582 C284.72054476 111.85326018 289.99562533 113.54870092 295.38476562 118.27124023 C296.19300781 119.24770508 296.19300781 119.24770508 297.01757812 120.24389648 C297.571875 120.89229492 298.12617188 121.54069336 298.69726562 122.20874023 C302.04301092 127.06459219 302.41142636 131.3373041 302.26757812 137.11889648 C302.25855469 137.81176758 302.24953125 138.50463867 302.24023438 139.21850586 C302.21683969 140.91462044 302.18097453 142.61055519 302.14257812 144.30639648 C302.80644531 144.42756836 303.4703125 144.54874023 304.15429688 144.67358398 C305.47880859 144.92495117 305.47880859 144.92495117 306.83007812 145.18139648 C308.13525391 145.4250293 308.13525391 145.4250293 309.46679688 145.67358398 C312.16925678 146.31270589 314.57901021 147.25092017 317.14257812 148.30639648 C317.14622375 147.51348206 317.14986938 146.72056763 317.15362549 145.90362549 C317.19150221 138.42879505 317.24835037 130.95446319 317.32648087 123.47995377 C317.36597991 119.63725331 317.39815614 115.79478282 317.41357422 111.9519043 C317.42872534 108.24281633 317.46314192 104.53436049 317.51088715 100.82555389 C317.52571717 99.41104377 317.53362008 97.99644339 317.53446198 96.58185577 C317.53682811 94.59962945 317.56617119 92.61749099 317.59667969 90.63549805 C317.60556213 89.50742737 317.61444458 88.37935669 317.62359619 87.21710205 C318.14257812 84.30639648 318.14257812 84.30639648 319.6473999 81.94317627 C323.1981749 79.61394917 326.5032114 79.74735349 330.61132812 79.78881836 C331.46380127 79.78180908 332.31627441 79.7747998 333.19458008 79.76757812 C336.01091132 79.7499808 338.82623676 79.76162688 341.64257812 79.77514648 C343.60026238 79.77245207 345.55794533 79.76857007 347.515625 79.7635498 C351.61796819 79.75765241 355.71996294 79.76622555 359.82226562 79.78491211 C365.08178441 79.80770173 370.34048676 79.79457995 375.59997559 79.77062225 C379.64231523 79.75617085 383.68446118 79.76076726 387.72680664 79.77113342 C389.66609799 79.77380253 391.6054069 79.77052451 393.54467773 79.76121521 C396.25486863 79.75106047 398.96373587 79.76653521 401.67382812 79.78881836 C402.87712769 79.77667297 402.87712769 79.77667297 404.10473633 79.76428223 C407.25244358 79.8122499 409.62382096 79.99430727 412.34969711 81.63422012 C415.26398934 85.97778936 414.67806346 90.45787995 414.62359619 95.56915283 C414.62701389 96.7322994 414.63043159 97.89544597 414.63395286 99.09383941 C414.63940747 102.32308765 414.626888 105.55169557 414.60684061 108.78086805 C414.58958193 112.26276608 414.59541118 115.74463374 414.59844971 119.2265625 C414.60054808 125.2594334 414.58798808 131.29213139 414.56549835 137.3249588 C414.53300316 146.04740624 414.52257389 154.76976998 414.51754639 163.49227139 C414.50878983 177.64357665 414.48216449 191.79478972 414.44433594 205.94604492 C414.40762517 219.69343606 414.37930884 233.44080217 414.36230469 247.18823242 C414.36125379 248.03548827 414.3602029 248.88274412 414.35912016 249.75567439 C414.35390005 254.00606793 414.34884521 258.25646165 414.34387255 262.50685549 C414.30239928 297.77343487 414.23194105 333.03990718 414.14257812 368.30639648 C414.96242188 368.25999023 415.78226562 368.21358398 416.62695312 368.16577148 C417.70460938 368.12967773 418.78226562 368.09358398 419.89257812 368.05639648 C420.95992188 368.00999023 422.02726562 367.96358398 423.12695312 367.91577148 C426.81032286 368.39289192 427.89520235 369.42012679 430.14257812 372.30639648 C430.6505127 374.27905273 430.6505127 374.27905273 430.66015625 376.36889648 C430.67906921 377.55032227 430.67906921 377.55032227 430.69836426 378.75561523 C430.68621887 380.01825195 430.68621887 380.01825195 430.67382812 381.30639648 C430.67765503 382.1790918 430.68148193 383.05178711 430.6854248 383.95092773 C430.68814303 385.79338741 430.68078807 387.63588573 430.6640625 389.47827148 C430.6426506 392.29685582 430.66386614 395.11289133 430.68945312 397.93139648 C430.68680983 399.72306877 430.68168482 401.51473947 430.67382812 403.30639648 C430.68192505 404.1481543 430.69002197 404.98991211 430.69836426 405.85717773 C430.67945129 407.03860352 430.67945129 407.03860352 430.66015625 408.24389648 C430.65697388 408.93354492 430.6537915 409.62319336 430.6505127 410.33374023 C429.87592159 413.34200563 428.59922148 414.41211 426.14257812 416.30639648 C423.31158891 416.69837273 420.87023097 416.84412196 418.0402832 416.80976105 C417.21293985 416.81557481 416.3855965 416.82138857 415.53318214 416.82737851 C412.74253297 416.84205312 409.9527531 416.82805869 407.16210938 416.81433105 C405.14860075 416.81893702 403.13509548 416.82528788 401.12159729 416.83324003 C395.57429825 416.84999825 390.0272731 416.84165752 384.47997284 416.82929516 C378.50306811 416.82027349 372.52621166 416.83420003 366.54931641 416.84521484 C355.51257744 416.86200465 344.47591416 416.86050583 333.43917465 416.84956897 C323.24410833 416.8395155 313.04907417 416.83687584 302.85400391 416.84165955 C302.17832214 416.84196509 301.50264036 416.84227063 300.80648339 416.84258543 C298.06382331 416.84383073 295.32116324 416.84510433 292.57850319 416.84642448 C266.83861788 416.85866658 241.09878845 416.84755699 215.35891175 416.82603689 C192.47947894 416.80705378 169.60013516 416.80875226 146.72070312 416.82788086 C121.02856581 416.84928913 95.33647788 416.85779845 69.64433289 416.8454318 C66.90660605 416.84414889 64.1688792 416.84289753 61.43115234 416.84165955 C60.7570306 416.84134324 60.08290886 416.84102693 59.38835919 416.84070103 C49.19850848 416.83614689 39.00869343 416.84148013 28.81884766 416.85157776 C17.23509129 416.86299929 5.65141969 416.85980246 -5.93232727 416.83845478 C-11.84668958 416.82791577 -17.76087081 416.82387102 -23.67523193 416.83705139 C-29.08357825 416.84892213 -34.49157467 416.8425009 -39.89988899 416.82114118 C-41.86213902 416.81665247 -43.82441828 416.81899179 -45.7866497 416.82864434 C-48.44323584 416.84071565 -51.09860559 416.82842849 -53.75512695 416.80976105 C-54.91203065 416.82380804 -54.91203065 416.82380804 -56.09230614 416.83813882 C-59.6132176 416.78830126 -61.50445061 416.57856814 -64.3320694 414.39822721 C-66.01012081 412.09698893 -66.36203137 411.05431436 -66.375 408.24389648 C-66.39391296 407.0624707 -66.39391296 407.0624707 -66.41320801 405.85717773 C-66.40511108 405.01541992 -66.39701416 404.17366211 -66.38867188 403.30639648 C-66.39249878 402.43370117 -66.39632568 401.56100586 -66.40026855 400.66186523 C-66.40298678 398.81940556 -66.39563182 396.97690724 -66.37890625 395.13452148 C-66.35749435 392.31593715 -66.37870989 389.49990164 -66.40429688 386.68139648 C-66.40165358 384.8897242 -66.39652857 383.09805349 -66.38867188 381.30639648 C-66.40081726 380.04375977 -66.40081726 380.04375977 -66.41320801 378.75561523 C-66.35236649 374.95506126 -66.28707619 372.92381867 -64.07421875 369.74389648 C-61.85742188 368.30639648 -61.85742188 368.30639648 -57.85742188 368.30639648 C-57.85894076 367.62749493 -57.86045964 366.94859337 -57.86202455 366.24911904 C-57.95158262 325.99087061 -58.02019123 285.73263505 -58.06168319 245.47430713 C-58.06668588 240.63790055 -58.07186318 235.80149417 -58.07714844 230.96508789 C-58.07819768 230.00226704 -58.07924692 229.0394462 -58.08032796 228.04744896 C-58.09772202 212.46796231 -58.1292542 196.88853483 -58.16603306 181.30908325 C-58.20347028 165.31709351 -58.22566361 149.32513471 -58.23377585 133.33310294 C-58.23925785 123.46918459 -58.2565576 113.60543353 -58.28908774 103.74156669 C-58.31026997 96.97288278 -58.31661354 90.20428507 -58.31142738 83.43557045 C-58.30887136 79.53330569 -58.3127243 75.6313328 -58.33424377 71.72912025 C-58.35383847 68.14962026 -58.35460933 64.5706059 -58.34101745 60.99108264 C-58.33855108 59.09712136 -58.35568699 57.20316504 -58.37374711 55.30928826 C-58.27733831 41.3999663 -53.20987764 27.34978595 -43.66992188 16.98999023 C-30.84205883 5.07445366 -17.19957472 0.00949299 0 0 Z M-7.85742188 51.30639648 C-9.6554022 54.89286717 -10.10671672 57.8096663 -10.10351753 61.79425526 C-10.10749963 62.89102992 -10.11148173 63.98780458 -10.11558449 65.11781484 C-10.10975881 66.3172265 -10.10393313 67.51663816 -10.09793091 68.75239563 C-10.09963976 70.03073609 -10.10134861 71.30907655 -10.10310924 72.6261546 C-10.10758127 76.17219427 -10.0995811 79.71811311 -10.08955312 83.26413739 C-10.08091884 87.08889773 -10.08383876 90.91365123 -10.08535767 94.73841858 C-10.08640653 101.36435371 -10.08012977 107.99024947 -10.06888199 114.6161747 C-10.05263017 124.196153 -10.04741931 133.77611225 -10.04490601 143.35610285 C-10.04052841 158.89887103 -10.02721753 174.44161822 -10.00830078 189.984375 C-9.98994367 205.08300674 -9.97578634 220.18163279 -9.96728516 235.28027344 C-9.96675971 236.21090244 -9.96623426 237.14153144 -9.96569289 238.10036132 C-9.96308282 242.76903835 -9.96055541 247.43771541 -9.95806909 252.1063925 C-9.93733456 290.83974258 -9.90155695 329.57306653 -9.85742188 368.30639648 C8.62257813 368.30639648 27.10257813 368.30639648 46.14257812 368.30639648 C46.14257812 363.02639648 46.14257812 357.74639648 46.14257812 352.30639648 C43.89445312 351.60514648 41.64632812 350.90389648 39.33007812 350.18139648 C31.71015184 347.70097337 23.72029655 344.89696129 17.96679688 339.12280273 C16.33542337 337.07120056 16.33542337 337.07120056 14.14257812 337.30639648 C13.73652344 336.43241211 13.73652344 336.43241211 13.32226562 335.54077148 C12.1482961 333.31722655 10.83277952 331.51898061 9.26757812 329.55639648 C1.44969315 319.24667955 -1.31334974 308.40233309 -1.27734375 295.57714844 C-1.28581329 294.44886124 -1.29428284 293.32057404 -1.30300903 292.15809631 C-1.32627567 288.45350656 -1.32740341 284.74933483 -1.32617188 281.04467773 C-1.33328095 278.44931373 -1.34098104 275.85395129 -1.34924316 273.2585907 C-1.36266531 267.82598867 -1.36445039 262.39354778 -1.35839844 256.9609375 C-1.35177174 250.71919647 -1.37458125 244.47804849 -1.41171217 238.23642761 C-1.44635044 232.19010177 -1.45272665 226.14408603 -1.44862366 220.09764671 C-1.45030642 217.54501775 -1.45986665 214.99238036 -1.47776794 212.43981361 C-1.60287122 192.39264473 -0.39567601 176.99847603 13.64257812 161.55639648 C14.46757813 160.81389648 15.29257813 160.07139648 16.14257812 159.30639648 C16.60664062 158.8384668 17.07070312 158.37053711 17.54882812 157.88842773 C25.28877427 150.50892025 35.95385797 146.92832447 46.14257812 144.30639648 C46.16835937 143.31639648 46.19414063 142.32639648 46.22070312 141.30639648 C46.53412214 133.00079267 46.82913924 125.86573212 52.78710938 119.56811523 C58.84947034 114.03406459 64.15342853 113.00415943 72.16210938 112.89233398 C73.4499659 112.86328476 73.4499659 112.86328476 74.76383972 112.83364868 C77.49415287 112.77408092 80.2245087 112.72755914 82.95507812 112.68139648 C84.81121585 112.64319569 86.66733625 112.60414274 88.5234375 112.56420898 C93.06300956 112.46839822 97.60266459 112.38428328 102.14257812 112.30639648 C102.19591309 111.27651611 102.24924805 110.24663574 102.30419922 109.18554688 C102.38278444 107.82086175 102.46174293 106.45619809 102.54101562 105.09155273 C102.57509521 104.41435181 102.6091748 103.73715088 102.64428711 103.03942871 C103.09868748 95.49592362 105.0614233 90.94964514 110.64257812 85.93139648 C113.01710352 83.99939628 115.39832602 82.64801508 118.14257812 81.30639648 C118.2300474 77.26486733 118.28312794 73.22358344 118.33007812 69.18139648 C118.35521484 68.03928711 118.38035156 66.89717773 118.40625 65.72045898 C118.63138758 57.51541564 118.63138758 57.51541564 115.14257812 50.30639648 C110.27511513 47.47725945 104.84150557 48.01849326 99.38891602 48.03173828 C98.30542374 48.02662735 97.22193146 48.02151642 96.10560608 48.01625061 C92.52542593 48.00235505 88.94543828 48.00331133 85.36523438 48.00561523 C82.87568592 48.00172842 80.38613812 47.99739378 77.89659119 47.99263 C72.67884166 47.98516796 67.46115979 47.9854591 62.2434082 47.99072266 C56.88623859 47.9960949 51.52925792 47.98904855 46.17211914 47.97021484 C39.70188366 47.9477591 33.23180603 47.93996178 26.76153374 47.94388771 C24.29637542 47.94337426 21.83121338 47.93813213 19.36607552 47.92807579 C15.91907883 47.91573944 12.4726228 47.92248667 9.02563477 47.93408203 C7.49885101 47.92261642 7.49885101 47.92261642 5.94122314 47.91091919 C0.67178499 47.9500979 -3.4461708 48.07802797 -7.85742188 51.30639648 Z M309.58007812 349.80639648 C307.12570312 350.63139648 304.67132813 351.45639648 302.14257812 352.30639648 C302.14257812 357.58639648 302.14257812 362.86639648 302.14257812 368.30639648 C307.42257812 368.30639648 312.70257813 368.30639648 318.14257812 368.30639648 C318.14257812 361.37639648 318.14257812 354.44639648 318.14257812 347.30639648 C315.36434864 347.30639648 312.2334084 348.91155001 309.58007812 349.80639648 Z " fill="#000000" transform="translate(73.857421875,87.693603515625)"/>
<path d="M0 0 C1.03726005 -0.00523668 2.07452009 -0.01047336 3.14321226 -0.01586872 C6.61825456 -0.03086796 10.0931496 -0.03157388 13.56822205 -0.03224182 C16.06030018 -0.03986349 18.55237595 -0.048291 21.04444885 -0.0574646 C27.8154224 -0.07941919 34.58633677 -0.08823219 41.35733724 -0.09329104 C45.58977615 -0.0965525 49.82220602 -0.10307779 54.05463982 -0.11029243 C65.78576012 -0.12985626 77.51687202 -0.14626108 89.24800968 -0.14916897 C89.99826952 -0.14935654 90.74852935 -0.14954411 91.52152434 -0.14973736 C93.04233007 -0.1501036 94.5631358 -0.1504673 96.08394153 -0.15082847 C97.2162556 -0.15110269 97.2162556 -0.15110269 98.3714447 -0.15138245 C99.12724842 -0.151563 99.88305215 -0.15174354 100.66175901 -0.15192956 C112.89704221 -0.15546805 125.13214906 -0.18247092 137.36737115 -0.21988034 C149.94580132 -0.25802945 162.52414415 -0.27732694 175.10263342 -0.27762848 C182.15821245 -0.27821166 189.21358124 -0.28661273 196.26910591 -0.31562614 C202.91021732 -0.34281072 209.55098642 -0.34398882 216.19215775 -0.3279705 C218.62328562 -0.32615911 221.05443759 -0.33281852 223.48551369 -0.34878922 C239.38734049 -0.44684499 253.38783342 -0.20710723 265.68516541 11.27415466 C275.00196587 20.48236771 277.8534285 31.16333481 277.97843933 44.03738403 C277.97753296 44.96283524 277.97662659 45.88828644 277.97569275 46.84178162 C277.98240997 47.84648499 277.9891272 48.85118835 277.99604797 49.88633728 C278.01490757 53.1784217 278.01894594 56.47030098 278.02110291 59.76243591 C278.0275387 62.07112712 278.03426763 64.37981753 278.04127502 66.68850708 C278.05321737 71.51744985 278.05695893 76.34632123 278.05577087 81.17527771 C278.05556775 87.3349316 278.08287721 93.49412381 278.11731529 99.6536684 C278.13965125 104.41947495 278.14360637 109.1851715 278.14255142 113.95102501 C278.14489701 116.22061441 278.15366112 118.49020733 278.16921616 120.75974464 C278.27259885 137.39958168 278.00203281 152.50779719 265.80235291 165.23899841 C255.9597471 174.36753282 245.34437884 176.58788911 232.23062134 176.53485107 C231.21459377 176.53867662 230.19856619 176.54250217 229.15174991 176.54644364 C225.76659467 176.55671534 222.3816109 176.55279256 218.9964447 176.54881287 C216.56141504 176.55316258 214.12638674 176.5583466 211.69136047 176.56430054 C205.77495847 176.57628676 199.85859859 176.57884521 193.94218906 176.57650027 C189.12985851 176.57471319 184.31754169 176.57647511 179.50521278 176.58072472 C178.47564149 176.5816175 178.47564149 176.5816175 177.42527077 176.58252832 C176.03062035 176.58374014 174.63596993 176.58495428 173.24131951 176.5861707 C160.17737795 176.59703408 147.11346223 176.59488957 134.04951922 176.58878585 C122.11772446 176.58361897 110.18601139 176.59486822 98.25423279 176.61388407 C85.98194753 176.63329156 73.70970086 176.6415133 61.43740016 176.63776082 C54.55578059 176.63585303 47.67423052 176.6382949 40.79262352 176.65247536 C34.31896753 176.66568092 27.84543383 176.66308967 21.37177658 176.65006447 C19.00151196 176.64770363 16.63123578 176.65041563 14.26098442 176.65868759 C-17.60354228 176.76183714 -17.60354228 176.76183714 -30.53749084 165.30540466 C-38.02895408 157.57589493 -42.39193676 147.41534193 -42.46873474 136.61557007 C-42.48163544 135.25555878 -42.48163544 135.25555878 -42.49479675 133.86807251 C-42.50118668 132.39447014 -42.50118668 132.39447014 -42.50770569 130.89109802 C-42.51588318 129.84650421 -42.52406067 128.8019104 -42.53248596 127.72566223 C-42.55727789 124.27178002 -42.57384214 120.81793882 -42.58827209 117.36399841 C-42.59625761 115.58951922 -42.59625761 115.58951922 -42.60440445 113.77919197 C-42.63111186 107.51490554 -42.65049263 101.25063884 -42.66493225 94.98631287 C-42.67825726 89.81555944 -42.70608784 84.64520196 -42.7469635 79.47459412 C-42.79641558 73.21828154 -42.82106901 66.96232737 -42.82815933 60.70582771 C-42.83485035 58.32932687 -42.85001586 55.95283335 -42.87405014 53.57644463 C-43.02706201 37.529163 -42.68392032 24.70212582 -31.31483459 12.27415466 C-26.89814907 7.79496887 -22.12904096 4.66504326 -16.31483459 2.27415466 C-15.08429525 1.76104941 -15.08429525 1.76104941 -13.82889652 1.23757839 C-9.16246093 -0.04178289 -4.81703271 -0.01204491 0 0 Z " fill="#C06A3E" transform="translate(130.31483459472656,247.72584533691406)"/>
<path d="M0 0 C2.20439947 1.46366427 4.32809213 2.98325683 6.41796875 4.60546875 C6.83046875 4.20714844 7.24296875 3.80882812 7.66796875 3.3984375 C15.5890912 -3.8684851 23.02229497 -5.09180314 33.484375 -4.76171875 C38.71463612 -4.27349179 42.77933479 -2.74691385 47.41796875 -0.39453125 C50.24983574 0.9046525 50.24983574 0.9046525 52.3203125 -0.13671875 C53.32771484 -0.69746094 53.32771484 -0.69746094 54.35546875 -1.26953125 C61.88647823 -5.4195673 71.8902127 -5.96375158 80.15625 -3.6171875 C82.41796875 -2.70703125 82.41796875 -2.70703125 84.29296875 -1.7578125 C87.17304767 -1.26544607 88.92125806 -2.43136737 91.49072266 -3.64086914 C98.19249424 -6.26164047 107.21879923 -5.36172203 113.9453125 -3.328125 C123.67617569 1.17531357 129.23700169 7.90562516 133.41796875 17.60546875 C133.41796875 18.26546875 133.41796875 18.92546875 133.41796875 19.60546875 C134.5059375 19.53585938 135.59390625 19.46625 136.71484375 19.39453125 C147.65484697 18.90509034 155.94677952 19.99318282 164.56640625 27.46875 C170.34998656 33.55737146 173.18446805 40.16340531 174.29296875 48.41796875 C175.11402647 54.30096032 177.23199519 58.83440683 180.078125 64.01171875 C183.08696341 69.83640885 183.53721538 76.74066686 181.7109375 83.046875 C181.42863281 83.80871094 181.14632812 84.57054688 180.85546875 85.35546875 C179.424607 89.22761122 179.21011879 91.55054388 180.41796875 95.60546875 C180.57136719 96.23195313 180.72476563 96.8584375 180.8828125 97.50390625 C182.14554577 101.81205507 183.69277916 104.08067787 187.23046875 106.85546875 C195.30266431 113.37875593 197.3074774 121.61104664 198.41796875 131.60546875 C166.40796875 131.60546875 134.39796875 131.60546875 101.41796875 131.60546875 C101.41796875 120.43557738 104.88582583 114.54881243 112.39453125 106.44140625 C114.41796875 104.60546875 114.41796875 104.60546875 116.41796875 104.60546875 C116.41796875 103.94546875 116.41796875 103.28546875 116.41796875 102.60546875 C111.3280748 99.97276498 107.38986818 99.56845811 101.73046875 99.73046875 C97.16838563 99.82144612 93.12600293 99.89970829 88.91796875 97.91796875 C85.3859784 96.16715496 85.3859784 96.16715496 81.66796875 97.91796875 C81.0234375 98.21960938 80.37890625 98.52125 79.71484375 98.83203125 C75.13358055 100.37470151 70.19343529 99.82036474 65.41796875 99.60546875 C65.03125 100.73275391 65.03125 100.73275391 64.63671875 101.8828125 C62.04995911 107.66156721 56.52284651 111.37307766 50.91796875 114.04296875 C43.92794418 116.59073471 34.39841498 116.90737487 27.19140625 115.0234375 C24.93845686 114.49245604 23.65861717 115.02078116 21.41796875 115.60546875 C9.94853953 116.37009736 1.35679441 115.791611 -7.83203125 108.35546875 C-13.32176925 103.24848141 -18.31529144 96.36577841 -18.67431641 88.61254883 C-18.62249928 85.66873058 -18.4966717 82.73427418 -18.328125 79.79492188 C-18.21026629 75.90211803 -18.21561501 74.14597071 -20.46484375 70.828125 C-21.16351563 70.09464844 -21.8621875 69.36117187 -22.58203125 68.60546875 C-23.29089019 67.29407971 -23.97659577 65.96769858 -24.58203125 64.60546875 C-25.11828125 64.82203125 -25.65453125 65.03859375 -26.20703125 65.26171875 C-35.15515144 68.44065618 -46.55465773 69.67269259 -55.58203125 66.04296875 C-64.0808604 61.42051397 -70.16061859 54.76983972 -73.69140625 45.78125 C-75.994503 37.56889184 -75.51999839 28.59238596 -71.91015625 20.8515625 C-67.59094292 13.54701054 -61.55865287 7.86756949 -53.83203125 4.35546875 C-50.83767944 3.66446449 -48.20083805 3.45558262 -45.14453125 3.29296875 C-40.44468664 2.94907768 -37.80804854 1.99880867 -34.3125 -1.140625 C-24.71173315 -8.09738834 -9.47760889 -5.41386686 0 0 Z " fill="#E5E2DB" transform="translate(289.58203125,12.39453125)"/>
<path d="M0 0 C1.2871994 -0.00274933 2.5743988 -0.00549866 3.90060425 -0.0083313 C5.31448459 -0.00125436 6.72836397 0.00601523 8.14224243 0.01345825 C9.64064527 0.01402279 11.13904866 0.01370498 12.63745117 0.01257324 C16.69486645 0.01200038 20.75216302 0.02374393 24.80955076 0.03772116 C29.05363072 0.05023958 33.29771351 0.05139989 37.54180908 0.05377197 C45.57397684 0.05998347 53.60609003 0.07638983 61.63823378 0.09647095 C70.7845032 0.11884022 79.93077525 0.12982597 89.07706523 0.13986182 C107.8873961 0.16075634 126.6976762 0.19592591 145.50796509 0.24050903 C145.53501817 2.65725127 145.55482946 5.07368844 145.57046509 7.49050903 C145.57884399 8.1724231 145.5872229 8.85433716 145.59585571 9.55691528 C145.61224901 12.93393458 145.56425277 16.01342542 144.50796509 19.24050903 C137.02409412 18.33728323 137.02409412 18.33728323 133.75796509 17.72488403 C114.42286082 14.84320984 96.12558475 19.16209593 79.91812134 29.96707153 C77.68546525 31.63870122 75.58967517 33.38515966 73.50796509 35.24050903 C72.49669556 36.11255981 72.49669556 36.11255981 71.46499634 37.00222778 C57.99974679 49.42567852 51.2698543 67.26186044 50.25405884 85.24441528 C49.53720908 104.2018329 55.83992356 122.02691124 68.50796509 136.24050903 C69.08933228 136.91468872 69.67069946 137.58886841 70.26968384 138.28347778 C77.48681183 146.10581567 86.74208853 151.23810061 96.50796509 155.24050903 C95.91408007 158.18186396 95.06470774 160.17372474 93.29312134 162.58816528 C92.85419556 163.19338013 92.41526978 163.79859497 91.96304321 164.42214966 C91.50349243 165.04283325 91.04394165 165.66351685 90.57046509 166.30300903 C89.66524004 167.5436923 88.76028252 168.78457081 87.85562134 170.02566528 C87.08089478 171.08656372 86.30616821 172.14746216 85.50796509 173.24050903 C84.84796509 174.23050903 84.18796509 175.22050903 83.50796509 176.24050903 C80.78967459 176.54288582 78.29805934 176.64993008 75.57681274 176.62869263 C74.34707733 176.63657806 74.34707733 176.63657806 73.09249878 176.6446228 C70.36881703 176.65787557 67.64571584 176.64905818 64.92202759 176.63894653 C63.02549121 176.6409677 61.12895559 176.64387949 59.23242188 176.64764404 C55.24590702 176.65207612 51.25959332 176.64561519 47.27310181 176.63162231 C42.19154875 176.61464608 37.11047511 176.62429198 32.0289402 176.64233971 C28.10468023 176.65325345 24.18053112 176.64969465 20.25626755 176.64195633 C18.38499265 176.63996915 16.51370735 176.64236091 14.64244461 176.64939499 C-0.74550236 176.69448821 -14.62912576 175.97672382 -26.71469116 165.27175903 C-34.2061544 157.5422493 -38.56913707 147.3816963 -38.64593506 136.58192444 C-38.65883575 135.22191315 -38.65883575 135.22191315 -38.67199707 133.83442688 C-38.67838699 132.36082451 -38.67838699 132.36082451 -38.68490601 130.85745239 C-38.6930835 129.81285858 -38.70126099 128.76826477 -38.70968628 127.6920166 C-38.7344782 124.23813439 -38.75104245 120.78429319 -38.76547241 117.33035278 C-38.77345793 115.55587359 -38.77345793 115.55587359 -38.78160477 113.74554634 C-38.80831218 107.48125991 -38.82769295 101.21699321 -38.84213257 94.95266724 C-38.85545758 89.78191381 -38.88328816 84.61155633 -38.92416382 79.44094849 C-38.9736159 73.18463591 -38.99826932 66.92868174 -39.00535965 60.67218208 C-39.01205067 58.29568124 -39.02721618 55.91918772 -39.05125046 53.542799 C-39.20426233 37.49551737 -38.86112064 24.66848019 -27.49203491 12.24050903 C-20.07012088 4.71356792 -10.67814836 -0.01764983 0 0 Z " fill="#E29753" transform="translate(126.49203491210938,247.75949096679688)"/>
<path d="M0 0 C3.65090501 2.9999358 6.96000535 6.26627504 10.23144531 9.671875 C11.11703125 10.54585938 11.11703125 10.54585938 12.02050781 11.4375 C19.43399538 19.28707507 24.96777799 30.1875211 27.23144531 40.671875 C27.43382812 41.5071875 27.63621094 42.3425 27.84472656 43.203125 C32.05012947 62.65668945 28.30768055 80.87177324 18.23144531 97.671875 C16.111281 100.91088434 13.83279729 103.80871672 11.23144531 106.671875 C10.25111328 107.78949219 10.25111328 107.78949219 9.25097656 108.9296875 C-0.15124457 119.03407815 -11.66265064 124.78105974 -24.76855469 128.671875 C-25.97511719 129.04119141 -25.97511719 129.04119141 -27.20605469 129.41796875 C-46.32509974 134.2309228 -65.0982594 129.33492607 -81.76855469 119.671875 C-84.98839457 117.54658434 -87.89503595 115.24291808 -90.76855469 112.671875 C-91.89003906 111.68960938 -91.89003906 111.68960938 -93.03417969 110.6875 C-105.25293656 99.29995108 -114.39799825 81.55386082 -115.03417969 64.59375 C-115.04291631 63.20314269 -115.03735836 61.81238262 -115.01855469 60.421875 C-115.00731567 59.31054199 -115.00731567 59.31054199 -114.99584961 58.17675781 C-114.60163907 37.83637471 -106.95350422 21.10097169 -92.76855469 6.671875 C-92.15367187 6.04410156 -91.53878906 5.41632813 -90.90527344 4.76953125 C-82.98266529 -2.71198951 -72.35712985 -8.7153597 -61.76855469 -11.328125 C-61.0634375 -11.53050781 -60.35832031 -11.73289062 -59.63183594 -11.94140625 C-39.67084528 -16.92318151 -16.47709307 -12.37374189 0 0 Z " fill="#76B459" transform="translate(290.7685546875,277.328125)"/>
<path d="M0 0 C2.20439947 1.46366427 4.32809213 2.98325683 6.41796875 4.60546875 C6.83046875 4.20714844 7.24296875 3.80882812 7.66796875 3.3984375 C15.5890912 -3.8684851 23.02229497 -5.09180314 33.484375 -4.76171875 C38.71463612 -4.27349179 42.77933479 -2.74691385 47.41796875 -0.39453125 C50.24983574 0.9046525 50.24983574 0.9046525 52.3203125 -0.13671875 C53.32771484 -0.69746094 53.32771484 -0.69746094 54.35546875 -1.26953125 C61.88647823 -5.4195673 71.8902127 -5.96375158 80.15625 -3.6171875 C82.41796875 -2.70703125 82.41796875 -2.70703125 84.29296875 -1.7578125 C87.17304767 -1.26544607 88.92125806 -2.43136737 91.49072266 -3.64086914 C98.19249424 -6.26164047 107.21879923 -5.36172203 113.9453125 -3.328125 C123.67617569 1.17531357 129.23700169 7.90562516 133.41796875 17.60546875 C133.41796875 18.26546875 133.41796875 18.92546875 133.41796875 19.60546875 C134.5059375 19.53585938 135.59390625 19.46625 136.71484375 19.39453125 C147.65484697 18.90509034 155.94677952 19.99318282 164.56640625 27.46875 C170.34998656 33.55737146 173.18446805 40.16340531 174.29296875 48.41796875 C175.11402647 54.30096032 177.23199519 58.83440683 180.078125 64.01171875 C183.08696341 69.83640885 183.53721538 76.74066686 181.7109375 83.046875 C181.42863281 83.80871094 181.14632812 84.57054688 180.85546875 85.35546875 C179.424607 89.22761122 179.21011879 91.55054388 180.41796875 95.60546875 C180.57136719 96.23195313 180.72476563 96.8584375 180.8828125 97.50390625 C182.14554577 101.81205507 183.69277916 104.08067787 187.23046875 106.85546875 C193.66372812 112.05430197 197.35069056 119.67184721 198.29296875 127.85546875 C198.33421875 129.09296875 198.37546875 130.33046875 198.41796875 131.60546875 C192.80796875 131.60546875 187.19796875 131.60546875 181.41796875 131.60546875 C180.86109375 129.53265625 180.86109375 129.53265625 180.29296875 127.41796875 C178.28160051 121.37437643 175.10870452 119.19544898 169.66796875 115.98046875 C167.41796875 114.60546875 167.41796875 114.60546875 165.41796875 111.60546875 C165.1796875 109.625 165.1796875 109.625 165.10546875 107.41796875 C164.79186901 103.70301801 163.95912128 101.49071964 161.85546875 98.41796875 C160.10497824 95.84820798 159.42083512 94.62139303 158.85546875 91.48046875 C159.57134375 87.82155207 161.22921131 85.59013798 163.41796875 82.60546875 C164.77268657 78.5413153 164.95646406 74.85521556 164.41796875 70.60546875 C162.79163859 67.63321019 161.11777799 65.34584664 158.80078125 62.89453125 C156.85158233 59.66789122 157.11674918 57.03431015 157.10546875 53.29296875 C156.92831466 47.60556995 156.24457449 43.87779982 152.0859375 39.8046875 C148.69571621 37.3672216 146.1185997 36.32669731 141.91796875 36.35546875 C141.16515625 36.3503125 140.41234375 36.34515625 139.63671875 36.33984375 C137.17338948 36.63474937 135.6029784 37.46873296 133.41796875 38.60546875 C128.18429389 39.09006827 124.86095998 38.43282681 120.41796875 35.60546875 C117.70203227 32.63270613 117.12429096 30.77700299 117.10546875 26.79296875 C116.76042269 21.9263816 115.37855491 19.50162258 112.0859375 15.98046875 C108.18201568 12.76224748 104.80832373 12.12980971 99.85546875 12.203125 C96.2289963 12.80172542 93.58366226 14.58555396 90.48046875 16.4765625 C87.56222588 18.07385831 85.66992515 18.25586003 82.41796875 17.60546875 C79.23046875 15.66796875 79.23046875 15.66796875 76.41796875 13.60546875 C71.88497156 12.09446969 67.70716063 11.59132308 63.29296875 13.546875 C59.93352402 15.57653952 57.48515542 17.53008858 54.85546875 20.48046875 C52.41796875 22.60546875 52.41796875 22.60546875 49.04296875 22.85546875 C44.8014411 21.39287301 43.01434611 19.4895478 40.03125 16.26171875 C36.81956621 12.96449374 34.02348155 12.66406676 29.54296875 12.23046875 C24.87218604 12.3629106 22.1856996 13.87201695 18.41796875 16.60546875 C15.90861685 19.6339969 15.23826289 22.3283303 14.54296875 26.10546875 C13.63359951 30.57032262 12.24412623 32.90976689 8.41796875 35.60546875 C5.41796875 36.29296875 5.41796875 36.29296875 2.41796875 35.60546875 C-2.03305782 31.66024066 -2.96892908 28.50331538 -4 22.7890625 C-5.18148781 18.35650086 -7.96846521 15.5648864 -11.89453125 13.23046875 C-16.85476922 12.07692504 -20.50943522 11.51205195 -25.0625 13.9140625 C-29.01731865 16.51230492 -29.01731865 16.51230492 -32.58203125 19.60546875 C-36.30501532 19.81204616 -40.02266025 19.92517262 -43.75 20.03125 C-49.23550691 20.85323727 -52.29058325 23.17807885 -55.95703125 27.23046875 C-58.16111018 31.80817114 -58.37919515 35.61099286 -57.58203125 40.60546875 C-55.25279946 45.443104 -52.4005535 48.24166538 -47.58203125 50.60546875 C-41.87452258 51.51744051 -37.48690127 50.76638499 -32.58203125 47.60546875 C-31.69515625 46.69796875 -30.80828125 45.79046875 -29.89453125 44.85546875 C-27.00275379 42.32325092 -24.80113256 42.31485607 -21.01953125 42.54296875 C-16.48528641 43.23296253 -13.45292628 43.80847854 -10.58203125 47.60546875 C-9.9306947 50.10368723 -9.50254854 52.58739694 -9.09765625 55.13671875 C-8.10891879 59.87067387 -5.76066096 62.80185758 -1.83203125 65.48046875 C0.41796875 67.60546875 0.41796875 67.60546875 0.8046875 69.48828125 C0.90113778 73.50951597 0.25618562 76.04392357 -1.58203125 79.60546875 C-2.25911704 85.4735456 -1.05580327 89.89544257 2.41796875 94.60546875 C5.61446976 97.4300996 8.71782153 98.53176904 12.98046875 98.98046875 C16.39516555 98.73055891 16.39516555 98.73055891 19.41796875 97.60546875 C22.95044255 96.42797748 25.71423888 96.33111839 29.41796875 96.60546875 C30.75130208 97.27213542 32.08463542 97.93880208 33.41796875 98.60546875 C38.87279252 99.12007477 42.61498502 98.23351645 47.41796875 95.60546875 C49.92702006 93.02672157 51.36115178 90.72383744 52.91796875 87.48046875 C54.50583701 84.43705459 55.32172807 83.0675824 58.41796875 81.60546875 C61.66796875 81.91796875 61.66796875 81.91796875 65.41796875 82.60546875 C72.40098703 83.24028859 76.66704842 81.43941563 82.41796875 77.60546875 C86.77658592 76.87903256 89.15091637 77.88884032 92.79296875 80.10546875 C97.37882622 82.83073422 100.12668997 83.22278461 105.41796875 82.60546875 C107.09542557 81.96643758 108.76358262 81.30205238 110.41796875 80.60546875 C114.22227216 80.12993082 115.82328898 80.20901557 119.04296875 82.35546875 C121.41796875 84.60546875 121.41796875 84.60546875 123.23046875 86.60546875 C125.81178903 88.96553301 128.43144718 90.1793187 131.61328125 91.578125 C133.41796875 92.60546875 133.41796875 92.60546875 135.41796875 95.60546875 C135.60546875 99.23046875 135.60546875 99.23046875 135.41796875 102.60546875 C135.08796875 102.93546875 134.75796875 103.26546875 134.41796875 103.60546875 C134.28695738 105.04077114 134.18789406 106.47905839 134.10546875 107.91796875 C133.78191078 110.9299128 133.60687761 112.33343999 131.85546875 114.85546875 C129.41796875 116.60546875 129.41796875 116.60546875 127.515625 117.59765625 C121.06017869 121.08383768 119.64326381 124.65142167 117.41796875 131.60546875 C112.13796875 131.60546875 106.85796875 131.60546875 101.41796875 131.60546875 C101.41796875 120.43557738 104.88582583 114.54881243 112.39453125 106.44140625 C114.41796875 104.60546875 114.41796875 104.60546875 116.41796875 104.60546875 C116.41796875 103.94546875 116.41796875 103.28546875 116.41796875 102.60546875 C111.3280748 99.97276498 107.38986818 99.56845811 101.73046875 99.73046875 C97.16838563 99.82144612 93.12600293 99.89970829 88.91796875 97.91796875 C85.3859784 96.16715496 85.3859784 96.16715496 81.66796875 97.91796875 C81.0234375 98.21960938 80.37890625 98.52125 79.71484375 98.83203125 C75.13358055 100.37470151 70.19343529 99.82036474 65.41796875 99.60546875 C65.03125 100.73275391 65.03125 100.73275391 64.63671875 101.8828125 C62.04995911 107.66156721 56.52284651 111.37307766 50.91796875 114.04296875 C43.92794418 116.59073471 34.39841498 116.90737487 27.19140625 115.0234375 C24.93845686 114.49245604 23.65861717 115.02078116 21.41796875 115.60546875 C9.94853953 116.37009736 1.35679441 115.791611 -7.83203125 108.35546875 C-13.32176925 103.24848141 -18.31529144 96.36577841 -18.67431641 88.61254883 C-18.62249928 85.66873058 -18.4966717 82.73427418 -18.328125 79.79492188 C-18.21026629 75.90211803 -18.21561501 74.14597071 -20.46484375 70.828125 C-21.16351563 70.09464844 -21.8621875 69.36117187 -22.58203125 68.60546875 C-23.29089019 67.29407971 -23.97659577 65.96769858 -24.58203125 64.60546875 C-25.11828125 64.82203125 -25.65453125 65.03859375 -26.20703125 65.26171875 C-35.15515144 68.44065618 -46.55465773 69.67269259 -55.58203125 66.04296875 C-64.0808604 61.42051397 -70.16061859 54.76983972 -73.69140625 45.78125 C-75.994503 37.56889184 -75.51999839 28.59238596 -71.91015625 20.8515625 C-67.59094292 13.54701054 -61.55865287 7.86756949 -53.83203125 4.35546875 C-50.83767944 3.66446449 -48.20083805 3.45558262 -45.14453125 3.29296875 C-40.44468664 2.94907768 -37.80804854 1.99880867 -34.3125 -1.140625 C-24.71173315 -8.09738834 -9.47760889 -5.41386686 0 0 Z " fill="#010101" transform="translate(289.58203125,12.39453125)"/>
<path d="M0 0 C21.12 0 42.24 0 64 0 C64 68.64 64 137.28 64 208 C42.88 208 21.76 208 0 208 C3 203 3 203 4.6484375 200.66796875 C15.67785803 184.82253427 15.74259684 168.78959207 15.62890625 150.17578125 C15.62973678 147.69630326 15.63220307 145.21682534 15.63621521 142.73735046 C15.63905802 137.56748679 15.62451716 132.39805999 15.59692383 127.22827148 C15.56279087 120.63154259 15.56889225 114.03559115 15.5875864 107.43882465 C15.5981969 102.32813637 15.58918261 97.21762632 15.57420158 92.10695457 C15.56905269 89.67550372 15.56946112 87.24403401 15.57574654 84.81258583 C15.90917602 60.36791826 15.90917602 60.36791826 4.44433594 39.4387207 C-0.32007402 34.51505675 -0.60013224 29.59002816 -0.57989502 23.0460968 C-0.53469443 20.69683984 -0.45274506 18.34840521 -0.375 16 C-0.25125 10.72 -0.1275 5.44 0 0 Z " fill="#F1C250" transform="translate(408,216)"/>
<path d="M0 0 C1.21869781 -0.00832352 2.43739563 -0.01664703 3.69302368 -0.02522278 C7.02615002 -0.04515582 10.35902684 -0.05595797 13.69219136 -0.06104922 C15.7805121 -0.06470324 17.86880921 -0.07094889 19.9571209 -0.07805061 C27.25999877 -0.10252772 34.56280588 -0.11559176 41.86572266 -0.11914062 C48.64360745 -0.12276729 55.42103704 -0.15260415 62.19878298 -0.19454521 C68.03941401 -0.2294035 73.87989544 -0.24469179 79.72062963 -0.24538666 C83.19926446 -0.24617468 86.67743583 -0.25468989 90.15596199 -0.28338432 C94.0468562 -0.31476299 97.93711359 -0.30543147 101.828125 -0.29296875 C102.95950394 -0.30780304 104.09088287 -0.32263733 105.25654602 -0.33792114 C117.75328931 -0.22471458 128.65841686 4.18188545 137.54272461 12.96264648 C144.52260942 20.58336439 148.14494347 29.55638277 148.06225586 39.89233398 C148.05942596 40.59411774 148.05659607 41.29590149 148.05368042 42.01895142 C148.04256848 44.23994677 148.0174817 46.46052494 147.99194336 48.68139648 C147.9819019 50.19571354 147.97277809 51.71003697 147.96459961 53.22436523 C147.94436797 56.91866205 147.90520453 60.61206743 147.86694336 64.30639648 C142.58694336 64.30639648 137.30694336 64.30639648 131.86694336 64.30639648 C131.82827148 61.19717773 131.82827148 61.19717773 131.78881836 58.02514648 C131.74705969 55.99289125 131.70515943 53.96063642 131.65942383 51.9284668 C131.63139265 50.52819688 131.6100902 49.12777397 131.59594727 47.72729492 C131.49679658 38.46001129 131.18113581 31.41226549 124.97241211 24.06420898 C124.02301758 23.2559668 124.02301758 23.2559668 123.05444336 22.43139648 C122.42924805 21.87709961 121.80405273 21.32280273 121.15991211 20.75170898 C114.62159153 16.6304507 107.47259437 17.00972896 100 17.01586914 C98.82189255 17.00915192 97.6437851 17.00243469 96.42997742 16.99551392 C93.21504068 16.97982326 90.00025942 16.97316206 86.78528905 16.97188234 C84.77288358 16.970456 82.76050481 16.96617736 80.748106 16.96088791 C73.71681892 16.94241662 66.68560741 16.93421394 59.65429688 16.93579102 C53.11663168 16.93699273 46.57929644 16.91587741 40.04171473 16.88430369 C34.41345397 16.85809733 28.78530075 16.84742548 23.1569795 16.84870183 C19.80204728 16.84921006 16.4476422 16.84174665 13.09272957 16.82234573 C9.34930223 16.80272143 5.60672263 16.80851055 1.86328125 16.82055664 C0.21173538 16.80369812 0.21173538 16.80369812 -1.47317505 16.78649902 C-9.12896775 16.84900999 -14.46004061 18.08770822 -20.37524414 23.27124023 C-20.91407227 23.9222168 -21.45290039 24.57319336 -22.00805664 25.24389648 C-22.56235352 25.89229492 -23.11665039 26.54069336 -23.68774414 27.20874023 C-26.52067885 31.32032385 -27.38306026 34.93292859 -27.39476967 39.88795948 C-27.40596791 41.56447203 -27.40596791 41.56447203 -27.41739237 43.27485353 C-27.41545764 44.49761088 -27.4135229 45.72036823 -27.41152954 46.98017883 C-27.41732194 48.28302061 -27.42311435 49.58586238 -27.42908227 50.92818421 C-27.44488574 54.5426037 -27.44831314 58.15694546 -27.44973087 61.77139533 C-27.45342431 65.66979857 -27.46857952 69.56815914 -27.48234558 73.46653748 C-27.50462398 80.22013719 -27.51963378 86.97372173 -27.52971268 93.72735023 C-27.54429558 103.49196877 -27.56983132 113.25653446 -27.59804396 123.021122 C-27.64351901 138.8633512 -27.68013088 154.70558801 -27.71118164 170.54785156 C-27.74136426 185.93751358 -27.77571321 201.327157 -27.81567383 216.71679688 C-27.81936615 218.13962334 -27.81936615 218.13962334 -27.82313307 219.59119377 C-27.83550761 224.34977544 -27.84796416 229.10835689 -27.86046147 233.86693823 C-27.96403995 273.346732 -28.05309223 312.82654829 -28.13305664 352.30639648 C-33.41305664 352.30639648 -38.69305664 352.30639648 -44.13305664 352.30639648 C-44.24717924 311.74458343 -44.33563576 271.18279565 -44.38838329 230.62085395 C-44.39463664 225.82951109 -44.40110827 221.03816855 -44.40771484 216.24682617 C-44.4090264 215.29297717 -44.41033795 214.33912817 -44.41168924 213.35637465 C-44.4334314 197.9223667 -44.47284638 182.4884521 -44.51882062 167.05449948 C-44.56561837 151.2116735 -44.59335905 135.36889633 -44.60349911 119.52600408 C-44.61035139 109.75417201 -44.63197461 99.98260383 -44.67263898 90.21085301 C-44.69911831 83.50523279 -44.7070459 76.7997485 -44.70056353 70.09407982 C-44.69736868 66.22820366 -44.70218172 62.36278782 -44.72908401 58.49699402 C-44.75809717 54.29699416 -44.74795367 50.09796605 -44.73432922 45.89788818 C-44.74889343 44.68773883 -44.76345764 43.47758947 -44.77846318 42.23076892 C-44.66993841 29.81881147 -40.1783316 19.45136873 -31.47680664 10.62670898 C-27.46385926 6.96033434 -23.15339403 4.37083429 -18.13305664 2.30639648 C-17.35019791 1.9649913 -16.56733917 1.62358612 -15.76075745 1.27183533 C-10.50521367 -0.12682084 -5.41677076 0.00314293 0 0 Z " fill="#E6E3DC" transform="translate(76.133056640625,103.693603515625)"/>
<path d="M0 0 C153.12 0 306.24 0 464 0 C464 5.28 464 10.56 464 16 C310.88 16 157.76 16 0 16 C0 10.72 0 5.44 0 0 Z " fill="#C16B3F" transform="translate(24,472)"/>
<path d="M0 0 C3.65090501 2.9999358 6.96000535 6.26627504 10.23144531 9.671875 C11.11703125 10.54585938 11.11703125 10.54585938 12.02050781 11.4375 C19.43399538 19.28707507 24.96777799 30.1875211 27.23144531 40.671875 C27.43382812 41.5071875 27.63621094 42.3425 27.84472656 43.203125 C32.05012947 62.65668945 28.30768055 80.87177324 18.23144531 97.671875 C16.111281 100.91088434 13.83279729 103.80871672 11.23144531 106.671875 C10.25111328 107.78949219 10.25111328 107.78949219 9.25097656 108.9296875 C-0.15124457 119.03407815 -11.66265064 124.78105974 -24.76855469 128.671875 C-25.97511719 129.04119141 -25.97511719 129.04119141 -27.20605469 129.41796875 C-46.32509974 134.2309228 -65.0982594 129.33492607 -81.76855469 119.671875 C-84.98839457 117.54658434 -87.89503595 115.24291808 -90.76855469 112.671875 C-91.89003906 111.68960938 -91.89003906 111.68960938 -93.03417969 110.6875 C-105.25293656 99.29995108 -114.39799825 81.55386082 -115.03417969 64.59375 C-115.04291631 63.20314269 -115.03735836 61.81238262 -115.01855469 60.421875 C-115.00731567 59.31054199 -115.00731567 59.31054199 -114.99584961 58.17675781 C-114.60163907 37.83637471 -106.95350422 21.10097169 -92.76855469 6.671875 C-92.15367187 6.04410156 -91.53878906 5.41632813 -90.90527344 4.76953125 C-82.98266529 -2.71198951 -72.35712985 -8.7153597 -61.76855469 -11.328125 C-61.0634375 -11.53050781 -60.35832031 -11.73289062 -59.63183594 -11.94140625 C-39.67084528 -16.92318151 -16.47709307 -12.37374189 0 0 Z M-84.76855469 20.671875 C-95.69595383 33.91253404 -99.97930094 48.45940557 -99.01123047 65.36767578 C-97.51951513 79.53146787 -89.41593027 93.56444302 -78.48730469 102.546875 C-64.93494807 112.49670644 -50.47011984 116.5226393 -33.76855469 114.671875 C-19.24219255 111.85404082 -5.90488785 103.86992614 2.91894531 91.984375 C12.051957 78.30570909 14.8893072 63.46755446 12.80175781 47.35546875 C9.56711283 32.36029355 0.64568302 19.67193117 -12.05371094 11.23828125 C-36.24550588 -2.71986231 -65.18040816 -0.14053069 -84.76855469 20.671875 Z " fill="#020201" transform="translate(290.7685546875,277.328125)"/>
<path d="M0 0 C4.55010167 3.97938445 8.12934762 8.79218816 11.8125 13.5625 C12.42834961 14.35881836 13.04419922 15.15513672 13.67871094 15.97558594 C30.73388097 38.19844558 30.73388097 38.19844558 29 54 C26.60627523 62.58864339 22.89629677 70.10822741 15.08984375 74.71875 C6.16088199 79.31884695 -2.41477139 82.07085024 -12.50390625 79.31640625 C-14.79305384 78.35695483 -16.87034706 77.2738111 -19 76 C-19.69996094 75.5875 -20.39992187 75.175 -21.12109375 74.75 C-27.8105151 70.29881604 -32.10123748 63.75223852 -34.375 56.0625 C-36.42822791 45.45415578 -34.86722483 37.84166208 -28.96484375 28.92578125 C-26.39735473 25.21826251 -23.70735664 21.60604984 -21 18 C-20.43909668 17.24895996 -19.87819336 16.49791992 -19.30029297 15.72412109 C-17.5405867 13.37316127 -15.77251785 11.02881274 -14 8.6875 C-13.43611572 7.93984375 -12.87223145 7.1921875 -12.29125977 6.421875 C-11.76201904 5.72964844 -11.23277832 5.03742188 -10.6875 4.32421875 C-10.21699219 3.70635498 -9.74648437 3.08849121 -9.26171875 2.4519043 C-6.61169919 -0.59756674 -3.83501682 -0.45117845 0 0 Z " fill="#020201" transform="translate(251,296)"/>
<path d="M0 0 C73.92 0 147.84 0 224 0 C224 5.28 224 10.56 224 16 C150.08 16 76.16 16 0 16 C0 10.72 0 5.44 0 0 Z " fill="#F2C351" transform="translate(136,440)"/>
<path d="M0 0 C0.87054095 -0.00638882 1.7410819 -0.01277764 2.63800287 -0.01936007 C5.5548314 -0.03461973 8.47030375 -0.01414236 11.38708496 0.00622559 C13.47820994 0.00272469 15.56933227 -0.00293353 17.66044617 -0.0105896 C23.34023323 -0.02485158 29.019537 -0.00776189 34.69927788 0.01569557 C40.64001166 0.03578379 46.58072498 0.02992607 52.52148438 0.02758789 C62.49841292 0.02764148 72.47515221 0.04741158 82.45202637 0.07946777 C93.99063706 0.11636143 105.52899979 0.12514352 117.06766176 0.11817026 C128.1623447 0.11186745 139.25694251 0.12261547 150.35160828 0.14213562 C155.07558911 0.15031551 159.79952647 0.15301808 164.52351379 0.15144348 C170.08527209 0.15056526 175.64679434 0.16476418 181.20849037 0.19067001 C183.25110543 0.19783902 185.29374559 0.19991192 187.33637047 0.19655228 C190.1218836 0.19284432 192.90670523 0.20756133 195.69213867 0.22705078 C196.50293585 0.22172286 197.31373303 0.21639493 198.14909983 0.21090555 C202.71164422 0.26608636 205.72975588 0.75873678 209.34606934 3.62145996 C210.34606934 5.62145996 210.34606934 5.62145996 210.34606934 16.62145996 C136.42606934 16.62145996 62.50606934 16.62145996 -13.65393066 16.62145996 C-13.65393066 5.62145996 -13.65393066 5.62145996 -11.69480133 2.47280121 C-7.76124098 0.0779731 -4.47291474 -0.06905706 0 0 Z " fill="#F6D780" transform="translate(149.6539306640625,215.3785400390625)"/>
<path d="M0 0 C15.52622009 6.9355704 25.34578604 16.63300219 32 32.37109375 C37.52947124 46.90755525 36.16963524 61.97219778 30 76 C22.4627648 91.24012392 10.92470304 100.38322892 -5 106 C-10.29159803 107.77624402 -14.86099581 108.31949122 -20.375 108.25 C-21.49056274 108.24419922 -21.49056274 108.24419922 -22.62866211 108.23828125 C-27.98955708 108.15394072 -32.83316399 107.50307957 -38 106 C-36.515 105.505 -36.515 105.505 -35 105 C-34.27566653 103.02015519 -33.62256028 101.01416562 -33 99 C-31.74168512 96.29389425 -30.38263387 93.64445506 -29 91 C-28.18917969 91.04640625 -27.37835938 91.0928125 -26.54296875 91.140625 C-16.12255422 91.48028927 -7.08308583 89.61910059 1.2109375 82.98046875 C8.00547566 75.45900402 10.40268555 66.16717621 10.26171875 56.33203125 C9.53418052 47.0694923 3.4924719 40.17229702 -1.85546875 32.94140625 C-5.06605672 28.53781292 -5.06605672 28.53781292 -4.76220703 26.06396484 C-4.51253174 24.89921631 -4.51253174 24.89921631 -4.2578125 23.7109375 C-4.07863281 22.85113281 -3.89945312 21.99132812 -3.71484375 21.10546875 C-3.52019531 20.20441406 -3.32554687 19.30335938 -3.125 18.375 C-1.82231101 12.25685378 -0.6815437 6.22089886 0 0 Z " fill="#649B4D" transform="translate(269,284)"/>
<path d="M0 0 C44.55 0 89.1 0 135 0 C129.37326458 5.62673542 129.37326458 5.62673542 126.30078125 7.640625 C125.64916016 8.07117188 124.99753906 8.50171875 124.32617188 8.9453125 C123.66166016 9.37585938 122.99714844 9.80640625 122.3125 10.25 C121.29833008 10.91902344 121.29833008 10.91902344 120.26367188 11.6015625 C113.3746557 16.12569252 113.3746557 16.12569252 108.46957397 16.12025452 C107.51602524 16.12162918 106.5624765 16.12300385 105.58003235 16.12442017 C104.005868 16.11902725 104.005868 16.11902725 102.39990234 16.11352539 C101.29745682 16.11367142 100.19501129 16.11381744 99.05915833 16.1139679 C95.40139829 16.11326912 91.74368868 16.10547833 88.0859375 16.09765625 C85.55530831 16.09579195 83.02467875 16.0943681 80.49404907 16.09336853 C74.50526544 16.08993557 68.51650358 16.08204755 62.52772868 16.07201904 C55.7104022 16.06085033 48.89307487 16.05534554 42.07574153 16.05032361 C28.05048396 16.03986475 14.02524367 16.02206911 0 16 C0 10.72 0 5.44 0 0 Z " fill="#E29753" transform="translate(24,472)"/>
<path d="M0 0 C4.94480834 -0.09242632 9.88655521 -0.17187493 14.83154297 -0.21972656 C16.50938131 -0.23969699 18.18715136 -0.26688332 19.86474609 -0.30175781 C40.26457422 -0.71485737 40.26457422 -0.71485737 48.65625 6.18359375 C49.56890625 7.29927734 49.56890625 7.29927734 50.5 8.4375 C51.1290625 9.17871094 51.758125 9.91992188 52.40625 10.68359375 C56.06857839 16.00653674 56.27555322 20.54016581 56.1953125 26.80078125 C56.1924826 27.63715622 56.18965271 28.47353119 56.18673706 29.33525085 C56.1755832 31.99448226 56.15048763 34.65337118 56.125 37.3125 C56.11496399 39.12043783 56.10583923 40.92838096 56.09765625 42.73632812 C56.07565959 47.15768312 56.04116294 51.57878358 56 56 C50.72 56 45.44 56 40 56 C39.97421875 53.51984375 39.9484375 51.0396875 39.921875 48.484375 C39.88344471 46.07817307 39.83828791 43.67218473 39.79248047 41.26611328 C39.76428282 39.59596989 39.74306221 37.92569335 39.72900391 36.25537109 C39.70755663 33.85184628 39.66090155 31.44992017 39.609375 29.046875 C39.60814636 28.30193787 39.60691772 27.55700073 39.60565186 26.78948975 C39.51384208 23.52832007 39.20224792 21.32472884 37.46484375 18.53515625 C34.0361479 16.39969275 30.87535384 16.397094 26.953125 16.390625 C26.18192322 16.37408875 25.41072144 16.35755249 24.6161499 16.34051514 C22.16068546 16.29205407 19.70584016 16.27066963 17.25 16.25 C15.58200013 16.22183854 13.91402908 16.19191086 12.24609375 16.16015625 C8.16377833 16.08297815 4.08341449 16.04244714 0 16 C0 10.72 0 5.44 0 0 Z " fill="#000000" transform="translate(336,264)"/>
<path d="M0 0 C10.73549477 -0.06778556 21.47084731 -0.1228218 32.20650768 -0.15543652 C37.19154501 -0.17109019 42.17642829 -0.19232311 47.16137695 -0.22631836 C51.97243577 -0.2589223 56.78334644 -0.27685526 61.59450722 -0.28463173 C63.42972457 -0.29017337 65.26493386 -0.30099483 67.10008812 -0.31719017 C69.67131426 -0.33897825 72.24192877 -0.34196636 74.81323242 -0.34057617 C75.57136734 -0.351362 76.32950226 -0.36214783 77.11061096 -0.3732605 C81.58072267 -0.34712117 84.45147436 0.22510961 88 3 C89 5 89 5 89 16 C59.63 16 30.26 16 0 16 C0 10.72 0 5.44 0 0 Z " fill="#F1C250" transform="translate(271,216)"/>
<path d="M0 0 C21.12 0 42.24 0 64 0 C64 5.28 64 10.56 64 16 C42.88 16 21.76 16 0 16 C0 10.72 0 5.44 0 0 Z " fill="#669E4F" transform="translate(408,440)"/>
<path d="M0 0 C21.12 0 42.24 0 64 0 C64 5.28 64 10.56 64 16 C42.88 16 21.76 16 0 16 C0 10.72 0 5.44 0 0 Z " fill="#669E4F" transform="translate(408,184)"/>
<path d="M0 0 C3.48901202 1.16300401 4.0229081 2.03658824 6.1015625 4.96484375 C6.67390625 5.76470703 7.24625 6.56457031 7.8359375 7.38867188 C8.42632812 8.22978516 9.01671875 9.07089844 9.625 9.9375 C10.5221875 11.19336914 10.5221875 11.19336914 11.4375 12.47460938 C15.54138977 18.24512407 17.71586813 21.68223689 17 29 C15.21005068 34.8670561 12.90504678 37.59649815 8 41 C4.31725872 42.59585455 -0.05192199 42.5487676 -4 42 C-9.29112204 39.25268663 -13.09375244 35.71874267 -15 30 C-15.81245922 24.87842165 -15.44608001 21.06066416 -12.5625 16.6875 C-11.39574788 15.10944677 -10.20538859 13.5487417 -9 12 C-8.19679229 10.92368151 -7.39615319 9.84544293 -6.59765625 8.765625 C-4.41954837 5.82756227 -2.21565298 2.90989091 0 0 Z " fill="#F2D47E" transform="translate(247,318)"/>
<path d="M0 0 C19.47 0 38.94 0 59 0 C57.02 2.31 55.04 4.62 53 7 C52.41871338 7.86874756 51.83742676 8.73749512 51.23852539 9.63256836 C48.60380451 13.14338963 46.16169632 15.56193855 41.73114014 16.45977783 C34.97292773 17.13039367 28.21118768 16.81822212 21.4375 16.5625 C19.35881057 16.51730758 17.28002685 16.47625136 15.20117188 16.43945312 C10.13177045 16.34075535 5.06692868 16.18573553 0 16 C0 10.72 0 5.44 0 0 Z " fill="#F6D780" transform="translate(136,440)"/>
<path d="M0 0 C0.80232056 -0.00004028 1.60464111 -0.00008057 2.43127441 -0.00012207 C4.12239443 0.00522359 5.8135146 0.02276578 7.50439453 0.05175781 C10.08573724 0.09362006 12.66446867 0.09282315 15.24609375 0.0859375 C16.89324721 0.09643096 18.54038728 0.10936992 20.1875 0.125 C21.3392572 0.12530212 21.3392572 0.12530212 22.51428223 0.12561035 C27.02599744 0.22473308 30.01087988 0.78722566 33.59375 3.59375 C34.59375 5.59375 34.59375 5.59375 34.59375 16.59375 C18.75375 16.59375 2.91375 16.59375 -13.40625 16.59375 C-13.40625 5.59375 -13.40625 5.59375 -11.43164062 2.44335938 C-7.57727583 0.08694656 -4.38769221 -0.0936882 0 0 Z " fill="#95CA7E" transform="translate(205.40625,183.40625)"/>
<path d="M0 0 C4.15457718 3.87760537 5.84213004 6.07398647 6.3125 11.8125 C6.12847046 17.6364936 4.28830998 21.65313047 0.25 25.875 C-3.34427504 28.22510291 -5.79254348 28.53139702 -10 29 C-9.7326001 28.29915283 -9.4652002 27.59830566 -9.18969727 26.8762207 C-7.97657864 23.68983978 -6.7694842 20.50120939 -5.5625 17.3125 C-5.14162109 16.20970703 -4.72074219 15.10691406 -4.28710938 13.97070312 C-3.88427734 12.90400391 -3.48144531 11.83730469 -3.06640625 10.73828125 C-2.69459229 9.75899658 -2.32277832 8.77971191 -1.93969727 7.77075195 C-1.06247527 5.18421196 -0.4654833 2.68779068 0 0 Z " fill="#EBBE4F" transform="translate(258,331)"/>
</svg>
