<?xml version="1.0" encoding="UTF-8"?>
<svg id="Layer_2" data-name="Layer 2" xmlns="http://www.w3.org/2000/svg" viewBox="0 0 381.41 382.88">
  <defs>
    <style>
      .cls-1 {
        fill: #fff;
      }

      .cls-2 {
        fill: #d6d1e8;
      }

      .cls-3 {
        fill: #f99d27;
      }

      .cls-4 {
        fill: #e2dff0;
      }

      .cls-5 {
        fill: #0c8fbd;
      }

      .cls-6 {
        fill: #fdc179;
      }

      .cls-7 {
        fill: #105366;
      }

      .cls-8 {
        fill: #0f627e;
      }

      .cls-9 {
        fill: #04a9d3;
      }

      .cls-10 {
        fill: #fccb93;
      }

      .cls-11 {
        fill: #d67927;
      }
    </style>
  </defs>
  <g id="Layer_1-2" data-name="Layer 1">
    <g>
      <path class="cls-7" d="M123.48,196.12c3.52-.08,7.05-.16,10.57-.24,13.91,0,27.82,0,41.73,0,13.93,0,27.85,0,41.78,0,5.84,.04,11.67,.08,17.51,.13,7.02,.06,11.66,4.63,11.72,11.59,.05,6.09,.06,12.17,.09,18.26-.03,1.61-.09,3.23-.09,4.85,0,50.73,0,101.46,0,152.19h-59.8c0-28.39,0-56.78,0-85.17,0-7.58-4.43-11.99-12.01-12.01-17.18-.04-34.36-.09-51.54-.14,.01-29.82,.02-59.63,.04-89.45Zm33.61,56.08c.08-6.05-4.93-11.22-10.99-11.34-6.05-.12-11.27,4.85-11.43,10.89-.17,6.19,4.98,11.51,11.17,11.53,6.05,.02,11.17-5.02,11.25-11.08Zm33.6,11.08c6.05,.02,11.18-5.02,11.26-11.07,.08-6.05-4.92-11.22-10.98-11.35-6.2-.13-11.47,5.05-11.44,11.26,.03,6.05,5.12,11.14,11.16,11.16Z"/>
      <path class="cls-9" d="M123.48,196.12c-.01,29.82-.02,59.63-.04,89.45l.02,.31c-16.78-.05-33.55-.12-50.33-.15-8.88-.02-13.21,4.34-13.21,13.26,0,27.97-.01,55.93-.01,83.9H8.33C1.88,379.9-.03,374.8,0,367.85c.2-52.75,.11-105.5,.11-158.25,0-9.43,4.18-13.58,13.63-13.61,5.22-.01,10.45-.08,15.67-.12,13.91,0,27.82,0,41.73,0,13.92,0,27.84,0,41.77,0,3.52,.08,7.05,.16,10.57,.24Zm-67.21,44.74c-6.02-.06-11.25,5.08-11.3,11.11-.06,6.02,5.08,11.25,11.11,11.31,6.01,.06,11.24-5.09,11.3-11.11,.06-6.01-5.08-11.24-11.11-11.3Zm55.96,11.1c-.06-6.02-5.29-11.16-11.31-11.1-6.03,.06-11.17,5.29-11.1,11.3,.06,6.02,5.3,11.17,11.31,11.11,6.02-.06,11.17-5.3,11.11-11.31Z"/>
      <path class="cls-7" d="M352.12,225.78c5.85,.04,11.7,.08,17.54,.13,7.03,.06,11.68,4.64,11.68,11.67,.02,44.44-.03,88.88,.05,133.33,.01,6.11-3.24,9.56-8.27,11.98h-62.79c0-16.81,0-33.62,0-50.43,.02-35.48,.05-70.97,.08-106.45,13.9-.08,27.8-.16,41.71-.23Zm-8.15,56.33c.08-6.05-4.92-11.22-10.98-11.35-6.05-.12-11.27,4.84-11.44,10.88-.18,6.19,4.97,11.51,11.16,11.54,6.05,.03,11.18-5.01,11.26-11.07Zm-11.08,33.5c-6.06-.07-11.22,4.93-11.34,10.98-.12,6.05,4.85,11.26,10.89,11.44,6.19,.18,11.5-4.97,11.53-11.17,.03-6.06-5.02-11.18-11.08-11.25Z"/>
      <path class="cls-9" d="M310.41,226.01c-.03,35.48-.06,70.97-.08,106.45,0,16.81,0,33.62,0,50.43h-63.54c0-50.73,0-101.46,0-152.19,0-1.62,.06-3.23,.09-4.85,7.24-.02,14.49-.05,21.73-.07,13.88,0,27.76,0,41.64,0l.15,.23Zm-22.42,67.16c6.02-.05,11.17-5.29,11.12-11.29-.05-6.03-5.27-11.17-11.29-11.12-6.03,.05-11.17,5.27-11.12,11.29,.05,6.02,5.28,11.18,11.29,11.13Zm.05,22.44c-6.02-.08-11.26,5.05-11.34,11.07-.07,6.01,5.05,11.26,11.07,11.34,6.01,.08,11.26-5.05,11.34-11.08,.08-6-5.06-11.26-11.08-11.34Z"/>
      <path class="cls-4" d="M123.44,285.56c17.18,.05,34.36,.09,51.54,.14,7.58,.02,12.01,4.43,12.01,12.01,0,28.39,0,56.78,0,85.17h-22.43c0-23.77-.05-47.53,.06-71.3,.01-2.73-.57-3.61-3.45-3.53-7.71,.22-15.43,.22-23.14,0-2.87-.08-3.46,.8-3.45,3.53,.11,23.77,.06,47.53,.06,71.3h-11.21c0-32.34,0-64.67,.01-97.01,0,0-.02-.31-.02-.31Z"/>
      <path class="cls-1" d="M123.46,285.87c0,32.34,0,64.67-.01,97.01h-11.21c0-23.67-.03-47.33,.06-71,.01-2.77-.48-3.94-3.62-3.84-7.59,.24-15.2,.24-22.79,0-3.14-.1-3.63,1.08-3.62,3.84,.1,23.67,.06,47.33,.06,71h-22.43c0-27.97,0-55.93,.01-83.9,0-8.92,4.33-13.28,13.21-13.26,16.78,.03,33.55,.1,50.33,.15Z"/>
      <path class="cls-6" d="M82.34,382.88c0-23.67,.03-47.33-.06-71-.01-2.77,.48-3.94,3.62-3.84,7.59,.24,15.2,.24,22.79,0,3.14-.1,3.63,1.08,3.62,3.84-.1,23.67-.06,47.33-.06,71h-29.9Z"/>
      <path class="cls-3" d="M134.66,382.88c0-23.77,.05-47.53-.06-71.3-.01-2.73,.57-3.61,3.45-3.53,7.71,.22,15.43,.22,23.14,0,2.87-.08,3.46,.8,3.45,3.53-.11,23.77-.06,47.53-.06,71.3h-29.9Z"/>
      <path class="cls-2" d="M238.67,.14c13.69,0,27.38-.01,41.08,0,6.75,0,11.87,4.84,11.89,11.17,.02,6.35-5.08,11.24-11.81,11.25-26.76,.02-53.52,0-80.29,0-7.99,0-12.54,4.49-12.56,12.36,0,2.24,.06,4.48-.01,6.72-.17,5.46-5.02,10.49-10.37,10.81-5.64,.34-11.52-3.99-11.92-9.53-.73-10.13-.15-20.08,6.25-28.78,6.56-8.91,15.44-13.61,26.29-13.91,13.81-.39,27.63-.09,41.45-.09Z"/>
      <path class="cls-11" d="M217.56,195.87c-13.93,0-27.85,0-41.78,0,.03-24.84,.06-49.68,.09-74.51,10.69-.04,21.37-.09,32.06-.13,.96,6.75,1.99,13.5,2.85,20.26,2.3,18.12,4.52,36.25,6.78,54.38Z"/>
      <path class="cls-11" d="M352.12,225.78c-13.9,.08-27.8,.16-41.71,.23,0,0-.15-.23-.15-.23,.02-2.73,.06-5.46,.07-8.19,.04-22.11,.07-44.21,.1-66.32,10.69-.04,21.37-.09,32.06-.13,.96,6.75,1.99,13.5,2.85,20.26,2.3,18.12,4.52,36.25,6.78,54.38Z"/>
      <path class="cls-11" d="M112.9,195.87c-13.92,0-27.84,0-41.77,0,.03-24.84,.05-49.68,.08-74.52,10.69-.04,21.37-.09,32.06-.13,.96,6.75,1.99,13.5,2.85,20.26,2.3,18.12,4.52,36.25,6.77,54.38Z"/>
      <path class="cls-10" d="M310.43,151.26c-.03,22.11-.06,44.21-.1,66.32,0,2.73-.04,5.46-.07,8.19-13.88,0-27.76,0-41.65,0,1.7-13.43,3.38-26.87,5.1-40.3,1.47-11.45,3-22.9,4.51-34.35,10.68-.04,21.36-.08,32.03-.12,0,0,.17,.25,.17,.25Z"/>
      <path class="cls-10" d="M175.87,121.36c-.03,24.84-.06,49.68-.09,74.51-13.91,0-27.82,0-41.73,0,1.71-13.49,3.39-26.98,5.12-40.47,1.47-11.4,3-22.79,4.5-34.18,10.68-.04,21.36-.08,32.03-.12l.17,.25Z"/>
      <path class="cls-10" d="M71.22,121.36c-.03,24.84-.05,49.68-.08,74.52-13.91,0-27.82,0-41.73,0,1.7-13.43,3.38-26.87,5.1-40.3,1.47-11.45,3-22.9,4.51-34.35,10.68-.04,21.36-.08,32.03-.12l.17,.25Z"/>
      <path class="cls-2" d="M112.05,22.57c-5.47,0-10.98,.35-16.42-.09-7.21-.58-14.34,5.01-13.4,13.59,.37,3.35,.67,6.87-1.21,10.19-2.39,4.21-7.16,6.94-11.68,6.16-4.39-.75-9.04-5.07-9.32-9.48-.65-10.14-.14-20.08,6.26-28.78C72.73,5.37,81.49,.64,92.17,.25c12.92-.47,25.88-.15,38.82-.09,6.07,.03,11.13,5.19,11.15,11.14,.02,5.96-5.03,11.17-11.05,11.25-6.34,.08-12.69,.02-19.04,.02Z"/>
      <path class="cls-2" d="M350.68,31.54c6.1,0,12.19,.03,18.29-.01,4.22-.03,7.8,1.21,10.26,4.81,2.92,4.27,2.88,8.61-.03,12.87-2.28,3.33-5.6,4.75-9.55,4.75-12.07,.02-24.14,0-36.21,.01-7.14,.01-11.75,4.76-11.95,11.88-.11,3.91,.87,7.9-1.23,11.7-2.35,4.25-7.07,6.99-11.61,6.28-4.36-.68-9.11-4.97-9.41-9.38-.69-10.13-.19-20.08,6.18-28.79,6.52-8.93,15.38-13.45,26.22-14.05,6.33-.35,12.69-.06,19.03-.06Z"/>
      <path class="cls-8" d="M103.28,121.23c-10.69,.04-21.38,.09-32.06,.13,0,0-.17-.25-.16-.26,.03-14.86,.07-29.73,.1-44.59,5.83-.04,11.66-.18,17.49-.07,5.22,.1,9.49,3.69,10.33,9.42,1.74,11.75,3.41,23.52,4.31,35.37Z"/>
      <path class="cls-8" d="M342.49,151.13c-10.69,.04-21.38,.09-32.06,.13,0,0-.17-.25-.16-.26,.03-14.86,.07-29.73,.1-44.59,5.83-.04,11.66-.18,17.49-.07,5.22,.1,9.49,3.69,10.33,9.42,1.74,11.75,3.41,23.52,4.31,35.37Z"/>
      <path class="cls-8" d="M207.93,121.23c-10.69,.04-21.38,.09-32.06,.13,0,0-.17-.25-.16-.26,.03-14.86,.07-29.73,.1-44.59,5.83-.04,11.66-.18,17.49-.07,5.22,.1,9.49,3.69,10.33,9.42,1.74,11.75,3.41,23.52,4.31,35.37Z"/>
      <path class="cls-5" d="M71.15,76.51c-.03,14.86-.06,29.73-.1,44.59-10.68,.04-21.36,.08-32.03,.12,1.47-11.96,2.77-23.95,4.47-35.88,.75-5.27,5.13-8.76,10.49-8.9,5.72-.14,11.45,.03,17.17,.06Z"/>
      <path class="cls-5" d="M175.8,76.51c-.03,14.86-.06,29.73-.1,44.59-10.68,.04-21.36,.08-32.03,.12,1.47-11.96,2.77-23.95,4.47-35.88,.75-5.27,5.13-8.76,10.49-8.9,5.72-.14,11.45,.03,17.17,.06Z"/>
      <path class="cls-5" d="M310.36,106.41c-.03,14.86-.06,29.73-.1,44.59-10.68,.04-21.36,.08-32.03,.12,1.47-11.96,2.77-23.95,4.47-35.88,.75-5.27,5.13-8.76,10.49-8.9,5.72-.14,11.45,.03,17.17,.06Z"/>
      <path class="cls-11" d="M157.09,252.19c-.08,6.06-5.2,11.1-11.25,11.08-6.19-.02-11.34-5.34-11.17-11.53,.17-6.04,5.39-11.01,11.43-10.89,6.06,.12,11.06,5.29,10.99,11.34Z"/>
      <path class="cls-11" d="M190.68,263.27c-6.05-.02-11.14-5.12-11.16-11.16-.03-6.2,5.24-11.38,11.44-11.26,6.06,.12,11.06,5.29,10.98,11.35-.08,6.06-5.2,11.1-11.26,11.07Z"/>
      <path class="cls-10" d="M56.27,240.86c6.03,.06,11.17,5.29,11.11,11.3-.06,6.02-5.29,11.17-11.3,11.11-6.02-.06-11.16-5.29-11.11-11.31,.06-6.03,5.28-11.16,11.3-11.11Z"/>
      <path class="cls-10" d="M112.23,251.96c.06,6.01-5.09,11.25-11.11,11.31-6.01,.06-11.24-5.08-11.31-11.11-.06-6.02,5.07-11.25,11.1-11.3,6.02-.06,11.25,5.08,11.31,11.1Z"/>
      <path class="cls-11" d="M343.97,282.1c-.08,6.06-5.21,11.1-11.26,11.07-6.19-.03-11.34-5.35-11.16-11.54,.17-6.04,5.39-11,11.44-10.88,6.06,.12,11.06,5.3,10.98,11.35Z"/>
      <path class="cls-11" d="M332.89,315.61c6.06,.07,11.11,5.19,11.08,11.25-.03,6.2-5.34,11.35-11.53,11.17-6.04-.17-11.01-5.39-10.89-11.44,.12-6.05,5.28-11.05,11.34-10.98Z"/>
      <path class="cls-10" d="M287.99,293.17c-6.01,.05-11.24-5.1-11.29-11.13-.05-6.02,5.09-11.24,11.12-11.29,6.02-.05,11.24,5.09,11.29,11.12,.05,6.01-5.11,11.24-11.12,11.29Z"/>
      <path class="cls-10" d="M288.03,315.61c6.02,.08,11.16,5.33,11.08,11.34-.08,6.02-5.33,11.16-11.34,11.08-6.02-.08-11.15-5.33-11.07-11.34,.07-6.03,5.32-11.15,11.34-11.07Z"/>
    </g>
  </g>
</svg>