<?xml version="1.0" encoding="UTF-8"?>
<svg version="1.1" xmlns="http://www.w3.org/2000/svg" width="512" height="512">
<path d="M0 0 C6.45605853 4.32693284 10.69105236 9.61130054 12.53710938 17.21118164 C13.06511859 20.39232579 13.11238128 23.38850055 13.09765625 26.61328125 C13.09443359 27.86044922 13.09121094 29.10761719 13.08789062 30.39257812 C13.07532227 32.33293945 13.07532227 32.33293945 13.0625 34.3125 C13.05798828 35.62541016 13.05347656 36.93832031 13.04882812 38.29101562 C13.03705949 41.5273901 13.0206176 44.76367178 13 48 C16.3 48 19.6 48 23 48 C23.40605469 46.45699219 23.81210937 44.91398437 24.23046875 43.32421875 C26.03018935 36.74000367 28.12071564 30.27545389 30.3125 23.8125 C30.86067383 22.12737305 30.86067383 22.12737305 31.41992188 20.40820312 C34.21177608 12.19658358 37.43950551 4.12632324 45.625 0.0625 C46.35976562 -0.31777344 47.09453125 -0.69804688 47.8515625 -1.08984375 C51.81208188 -2.76766378 55.260758 -3.1264097 59.55552101 -3.13422108 C61.26159726 -3.14090784 61.26159726 -3.14090784 63.00213969 -3.14772969 C64.87710456 -3.14745315 64.87710456 -3.14745315 66.78994751 -3.14717102 C68.1309588 -3.15047097 69.47196911 -3.15419682 70.81297815 -3.1583125 C74.50154919 -3.1683257 78.19010396 -3.1720482 81.87868667 -3.17470181 C85.85567525 -3.17860688 89.83265098 -3.18818508 93.80963135 -3.19691467 C103.41580486 -3.21667332 113.02197941 -3.22674452 122.62816817 -3.23564246 C127.1525988 -3.24002633 131.67702827 -3.24539289 136.20145798 -3.25063133 C151.24289265 -3.26764299 166.2843266 -3.28213701 181.32576942 -3.28938007 C185.22873562 -3.29128995 189.1317018 -3.29321028 193.03466797 -3.29516602 C194.00472327 -3.29564976 194.97477858 -3.2961335 195.9742295 -3.2966319 C211.68738182 -3.30493165 227.40045801 -3.33026792 243.11357708 -3.36274669 C259.24807059 -3.39582439 275.38252541 -3.41382948 291.51705301 -3.41702431 C300.57511325 -3.41918875 309.63306245 -3.42792766 318.69108963 -3.45348549 C326.40556037 -3.47520219 334.11989311 -3.48323814 341.83439095 -3.47351871 C345.76883323 -3.4689768 349.7029908 -3.4708536 353.63739395 -3.49028015 C357.24377727 -3.50793288 360.84966866 -3.50689748 364.45605735 -3.49138286 C366.36919379 -3.48789129 368.28233552 -3.50401741 370.19539988 -3.52098733 C379.11464726 -3.45460999 385.79711902 -1.6961878 393.3125 3.125 C400.02972842 10.31087226 402.66299033 20.27387806 405.6496582 29.46191406 C406.32125723 31.52692648 407.00445167 33.58783632 407.68945312 35.6484375 C411 45.68741628 411 45.68741628 411 48 C414.3 48 417.6 48 421 48 C420.98428955 47.20416504 420.9685791 46.40833008 420.95239258 45.58837891 C420.88949575 41.93399343 420.85083625 38.27972239 420.8125 34.625 C420.77479492 32.74748047 420.77479492 32.74748047 420.73632812 30.83203125 C420.65315441 20.24124428 421.51705366 11.57176046 429.03125 3.69140625 C434.73710246 -1.21064557 441.30702346 -3.34982331 448.79296875 -3.2109375 C456.26421305 -2.49687167 462.71655956 0.72111578 468 6 C472.83425071 13.07395364 473.72238498 19.53573596 473.63491821 27.93235779 C473.64271817 29.09539226 473.65051812 30.25842673 473.65855443 31.45670468 C473.67495623 34.6586082 473.66917825 37.85955107 473.65362334 41.06142938 C473.64225405 44.52523025 473.65980075 47.98890678 473.67352295 51.4526825 C473.69570715 58.23030597 473.69097397 65.0076519 473.67645974 71.78528606 C473.66514005 77.30121191 473.6636484 82.81706031 473.66907883 88.33299446 C473.67022807 89.51336348 473.67022807 89.51336348 473.67140054 90.71757834 C473.6729993 92.31659613 473.67462037 93.91561389 473.6762635 95.51463164 C473.69050907 110.49738157 473.67415141 125.47997837 473.64726166 140.46270318 C473.62496316 153.28307373 473.62877198 166.10321761 473.65185547 178.92358398 C473.67870247 193.84095947 473.68909474 208.75820049 473.67379415 223.67559677 C473.67220158 225.27128571 473.67062973 226.86697467 473.66907883 228.46266365 C473.66792176 229.64003184 473.66792176 229.64003184 473.66674132 230.84118525 C473.66244797 236.33773919 473.66966026 241.83420701 473.68147659 247.3307476 C473.69560117 254.04832853 473.69149688 260.76561793 473.66507287 267.48316609 C473.65206024 270.90248869 473.64931915 274.32093325 473.66331863 277.74031067 C473.75675712 302.89907687 473.75675712 302.89907687 469.56992495 314.89386505 C467.69707333 320.46257196 468.27879547 324.42762823 470 330 C476.38184496 351.04837857 474.48524496 373.87669678 465.34375 393.765625 C463.80639314 396.32192768 462.31613422 398.11388335 460 400 C457.78125 400.43359375 457.78125 400.43359375 455.5 400.4375 C452.15408576 400.70252291 451.17625872 400.86990428 448.375 402.9375 C446.62320096 406.83923423 447.11529699 409.37629979 447.93359375 413.5 C448.02476958 416.93250194 447.09000038 418.28979625 445 421 C442.96171019 422.77316959 441.01051541 424.33248488 438.8125 425.875 C438.20100098 426.30627197 437.58950195 426.73754395 436.95947266 427.18188477 C418.03122061 440.05663593 394.52017027 444.92007376 372 440.875 C354.17724935 437.33585463 340.13823386 429.55029224 327 417 C326.38511719 416.45988281 325.77023437 415.91976563 325.13671875 415.36328125 C316.19220621 407.20012842 309.79876356 395.37720141 306 384 C306 383.34 306 382.68 306 382 C305.45131175 382.00113916 304.90262351 382.00227832 304.33730835 382.003452 C271.76962561 382.0706831 239.20196134 382.12210852 206.63422513 382.15319599 C202.71798265 382.15694781 198.80174031 382.16083081 194.88549805 382.16479492 C194.10589163 382.16558185 193.32628522 382.16636878 192.52305437 382.16717956 C179.92343932 382.18020989 167.32386562 382.20385056 154.72427505 382.23145839 C141.78217317 382.2595788 128.84009285 382.27619025 115.89796168 382.28226548 C107.92117065 382.28636821 99.94449651 382.29929492 91.9677415 382.3237494 C85.83640364 382.34158126 79.70515366 382.34334896 73.57379341 382.33932304 C71.06933501 382.34014459 68.56487195 382.34606116 66.06044006 382.35761642 C49.95442439 382.42824838 35.1668684 381.99780758 20.0625 375.8125 C19.36705078 375.53986328 18.67160156 375.26722656 17.95507812 374.98632812 C16.298982 374.33531103 14.64872816 373.6694573 13 373 C13.00666183 373.55408539 13.01332367 374.10817078 13.02018738 374.67904663 C13.0869665 380.48730622 13.13197579 386.29545534 13.16479492 392.10400391 C13.17980768 394.26680945 13.20022416 396.42958493 13.22631836 398.59228516 C13.26303366 401.71524511 13.27980196 404.8377998 13.29296875 407.9609375 C13.30845261 408.91551849 13.32393646 409.87009949 13.33988953 410.85360718 C13.34221675 420.30450095 11.59866267 428.3556133 4.96875 435.30859375 C-1.03139041 440.46347629 -7.7819474 442.33876113 -15.56640625 442.2109375 C-23.09517229 441.55836388 -29.00377675 438.63622394 -34 433 C-39.89213746 424.76909587 -39.7075947 416.11723051 -39.63491821 406.41345215 C-39.64068553 404.7331462 -39.64863073 403.05284657 -39.65855443 401.37256002 C-39.67936734 396.77384604 -39.66913797 392.17565293 -39.65362334 387.57693744 C-39.64229096 382.61024168 -39.65978191 377.64363427 -39.67352295 372.67695618 C-39.69573971 362.9546051 -39.69096109 353.23244717 -39.67645974 343.51008856 C-39.66516138 335.60755494 -39.6636392 327.7050754 -39.66907883 319.80253601 C-39.66984499 318.67720611 -39.67061116 317.55187622 -39.67140054 316.39244542 C-39.67299919 314.10625905 -39.67462026 311.8200727 -39.6762635 309.53388637 C-39.69051643 288.10335675 -39.67413539 266.67293412 -39.64726166 245.24242204 C-39.62492333 226.85964055 -39.62880358 208.47701693 -39.65185547 190.09423828 C-39.67862148 168.73966387 -39.68914317 147.38518319 -39.67379415 126.03059435 C-39.67220143 123.75288424 -39.67062957 121.47517412 -39.66907883 119.19746399 C-39.66830745 118.07682811 -39.66753607 116.95619223 -39.66674132 115.80159768 C-39.66242674 107.90983839 -39.66970569 100.01813862 -39.68147659 92.12638855 C-39.69550899 82.50710886 -39.69168595 72.88803314 -39.66507287 63.26877677 C-39.65194477 58.36215864 -39.64676525 53.45588042 -39.66331863 48.54926491 C-39.67825193 44.05484251 -39.6699744 39.5610741 -39.64343087 35.06671077 C-39.63786021 33.44369965 -39.64065454 31.82063293 -39.65280981 30.19765776 C-39.71432033 21.30004745 -39.5141627 13.40981934 -34 6 C-24.52336202 -3.22888877 -12.05233453 -6.02616726 0 0 Z " fill="#272626" transform="translate(39,45)"/>
<path d="M0 0 C135.3 0 270.6 0 410 0 C410 25.08 410 50.16 410 76 C400 73 400 73 396.375 71.875 C389.46248911 70.08286755 382.66071936 69.84062606 375.5625 69.875 C374.76779297 69.87113281 373.97308594 69.86726563 373.15429688 69.86328125 C349.64553442 69.90153798 330.65917292 79.77771493 313.8125 95.8125 C305.4732593 104.36054798 297.73418291 116.25238782 295 128 C261.82704348 128.11454909 228.65413844 128.20260143 195.48102914 128.25532665 C191.56092014 128.26157987 187.64081154 128.26805151 183.72070312 128.2746582 C182.55011311 128.27662553 182.55011311 128.27662553 181.35587481 128.2786326 C168.73479472 128.30036434 156.113829 128.33977347 143.49281666 128.38576398 C130.53378364 128.43259091 117.57481034 128.46030855 104.61569619 128.47044247 C96.62498721 128.47728876 88.63460152 128.49887886 80.6439921 128.53958233 C74.50742404 128.5692412 68.3711003 128.57225844 62.23447037 128.56553841 C59.72390126 128.56691054 57.21331957 128.57681064 54.70282364 128.59602737 C30.33201237 128.77337748 30.33201237 128.77337748 21 123 C19.96101563 122.36578125 18.92203125 121.7315625 17.8515625 121.078125 C8.13116348 113.09716581 2.07541947 103.45251679 0 91 C0 60.97 0 30.94 0 0 Z " fill="#F9C953" transform="translate(51,247)"/>
<path d="M0 0 C135.3 0 270.6 0 410 0 C410 28.05 410 56.1 410 85 C274.7 85 139.4 85 0 85 C0 56.95 0 28.9 0 0 Z " fill="#F0B448" transform="translate(51,145)"/>
<path d="M0 0 C4.3366354 3.32699463 8.19580855 7.08528922 12 11 C12.61617188 11.63035156 13.23234375 12.26070313 13.8671875 12.91015625 C26.13451021 26.35336223 30.65574544 43.89522533 30.3203125 61.79296875 C29.48696168 70.13663973 27.34153692 78.57502128 23.6875 86.125 C21.91335714 89.79901238 21.64155398 92.01522501 23 96 C24.46111016 98.79897943 24.46111016 98.79897943 26 101 C24.02 103.31 22.04 105.62 20 108 C18.02 107.505 18.02 107.505 16 107 C12.75643424 106.24586647 12.75643424 106.24586647 9 107 C6.51499479 108.78016737 4.26652134 110.7641081 1.953125 112.76171875 C-1.44760615 115.33925704 -4.88138398 117.1129574 -8.75 118.875 C-9.68875977 119.30341187 -9.68875977 119.30341187 -10.64648438 119.74047852 C-25.66042066 126.39184375 -45.43470011 127.96032182 -61 122 C-77.50193103 115.35248726 -91.90628686 104.06213982 -99.75 87.6875 C-100.52205656 85.80054142 -101.27193649 83.9043654 -102 82 C-102.39316406 81.08347656 -102.78632813 80.16695313 -103.19140625 79.22265625 C-109.14993621 63.4232092 -107.41588087 45.33076507 -101 30 C-100.42378906 28.59041016 -100.42378906 28.59041016 -99.8359375 27.15234375 C-92.63155593 11.29780336 -78.87207323 -0.41151908 -63 -7 C-42.18756127 -14.69746994 -18.64397693 -12.0091097 0 0 Z " fill="#3E3E46" transform="translate(465,344)"/>
<path d="M0 0 C1.13350087 -0.00905664 2.26700173 -0.01811328 3.43485111 -0.02744436 C4.68045639 -0.02211644 5.92606168 -0.01678851 7.20941257 -0.01129913 C8.54574187 -0.01618709 9.88206694 -0.02237645 11.2183848 -0.02975702 C14.89386758 -0.04619195 18.56913637 -0.04383147 22.24464309 -0.03838205 C26.20724089 -0.03571623 30.16978107 -0.05023518 34.13235569 -0.06247711 C41.89664388 -0.08355193 49.66085743 -0.08807081 57.42517083 -0.08628923 C63.73463438 -0.08498269 70.04407459 -0.08878021 76.35353374 -0.09621429 C78.16949814 -0.09831344 79.98546254 -0.10041104 81.80142695 -0.10250711 C83.15711793 -0.10407241 83.15711793 -0.10407241 84.54019661 -0.10566932 C101.64080737 -0.1245798 118.74137526 -0.12351895 135.84199215 -0.11669999 C151.49388786 -0.1111233 167.14561995 -0.13195388 182.79747742 -0.16506046 C198.86076859 -0.19877417 214.92398133 -0.21396874 230.98730856 -0.20934343 C240.00889249 -0.20709647 249.03032517 -0.21237501 258.05187893 -0.23723602 C265.73176265 -0.25821919 273.41141219 -0.26187091 281.09130543 -0.24293643 C285.01100029 -0.23376019 288.93025815 -0.23269263 292.84991932 -0.25329208 C296.4370337 -0.27193568 300.02335119 -0.26757449 303.6104346 -0.24474627 C305.52527517 -0.23854997 307.44014626 -0.25700574 309.35489982 -0.27628279 C317.67747862 -0.18980262 317.67747862 -0.18980262 321.67930031 2.73355103 C323.66144717 5.67995869 324.83246137 8.3256525 325.91877842 11.7073288 C326.50369053 13.49686981 326.50369053 13.49686981 327.10041904 15.32256317 C327.48778233 16.55941864 327.87514561 17.79627411 328.27424717 19.07061005 C328.68094639 20.31906708 329.08764561 21.56752411 329.50666904 22.85381317 C332.46174717 32.01703862 332.46174717 32.01703862 332.46174717 34.38311005 C216.30174717 34.38311005 100.14174717 34.38311005 -19.53825283 34.38311005 C-17.55688971 27.11811192 -15.53692524 19.9917639 -13.10075283 12.88311005 C-12.81393642 12.00396942 -12.52712002 11.1248288 -12.23161221 10.21904755 C-11.94221767 9.37600067 -11.65282314 8.5329538 -11.35465908 7.66436005 C-10.97482876 6.53610809 -10.97482876 6.53610809 -10.5873251 5.38506317 C-8.18759991 0.80564811 -4.91310704 0.00787698 0 0 Z " fill="#F0B448" transform="translate(99.53825283050537,59.61688995361328)"/>
<path d="M0 0 C2.9355033 2.03625549 4.72479454 3.65201697 5.45762575 7.24149525 C5.6438288 10.13350946 5.65933726 12.98671916 5.6257782 15.88465881 C5.63619502 17.55058151 5.63619502 17.55058151 5.64682227 19.2501592 C5.66411485 22.97970008 5.64575841 26.7082193 5.62768555 30.43774414 C5.63286251 33.10866406 5.64002622 35.77950877 5.64971924 38.45040894 C5.66674673 44.20713163 5.66574182 49.96362418 5.65271568 55.72035408 C5.6340556 64.05663639 5.64486599 72.39268062 5.66319225 80.72895425 C5.69234864 94.27138538 5.70069436 107.81374283 5.69458008 121.35620117 C5.68872556 134.48120973 5.68763437 147.60619348 5.6965332 160.73120117 C5.69707577 161.53855251 5.69761835 162.34590385 5.69817736 163.17772038 C5.70435054 172.00171885 5.71309854 180.8257111 5.72552967 189.64970303 C5.72662216 190.42656145 5.72771464 191.20341988 5.72884024 192.00381948 C5.73326067 195.11063886 5.737735 198.21745809 5.74256585 201.32427686 C5.75665439 210.40181799 5.76273754 219.47927586 5.75402997 228.55682521 C5.74882765 234.25786061 5.75023997 239.95886845 5.75673302 245.65990246 C5.76016404 248.94441702 5.75916351 252.22882826 5.7515049 255.51333809 C5.74358014 259.08444803 5.74796205 262.65534876 5.75517273 266.22645569 C5.74715473 267.76225197 5.74715473 267.76225197 5.73897475 269.32907444 C5.78475881 279.48239939 6.82272242 289.15854705 11.6875 298.1875 C12.04344238 298.86748047 12.39938477 299.54746094 12.76611328 300.24804688 C20.36581465 314.4125103 30.87686142 323.33333471 46 329 C52.38149574 330.91495284 58.15337107 331.29152499 64.79467773 331.2784729 C65.85915319 331.2842653 66.92362865 331.2900577 68.02036095 331.29602563 C71.5748029 331.31298371 75.12911467 331.31589857 78.68359375 331.31884766 C81.23646868 331.32814871 83.78934057 331.33831764 86.34220886 331.34928894 C91.83200184 331.37093295 97.32175906 331.38655632 102.81158447 331.39665604 C110.7488449 331.41126882 118.68604086 331.43681287 126.62326336 331.46498732 C139.50224311 331.51040816 152.38123216 331.54704239 165.26025391 331.578125 C177.7677575 331.60832985 190.27523835 331.64268899 202.78271484 331.68261719 C203.55424491 331.68507874 204.32577498 331.68754028 205.12068474 331.69007643 C208.99139434 331.7024514 212.86210367 331.71490786 216.73281288 331.72740483 C248.82184454 331.83090211 280.91090094 331.91998175 313 332 C313 337.94 313 343.88 313 350 C280.67650386 350.09141954 248.35304479 350.16212573 216.02944941 350.20426132 C212.20591202 350.20926363 208.38237489 350.21444097 204.55883789 350.21972656 C203.79769979 350.2207758 203.03656168 350.22182505 202.25235879 350.22290608 C189.95800351 350.24027061 177.66372371 350.27178629 165.36941309 350.30861118 C152.73692708 350.34613102 140.10448037 350.36825908 127.47194093 350.37635398 C119.68858327 350.38181897 111.90543899 350.39902502 104.12214708 350.43166587 C98.13525558 350.45548105 92.14854431 350.45779221 86.16160011 350.45243073 C83.71925297 350.45352427 81.27689717 350.46138805 78.83459854 350.4768219 C62.56348851 350.57453566 46.27035947 350.29095012 31.625 342.25 C30.97345947 341.90783447 30.32191895 341.56566895 29.65063477 341.21313477 C10.80496888 331.05582906 -2.64963625 315.68782649 -8.99839175 295.06991827 C-12.81352876 281.60990719 -12.70561246 268.39503386 -12.64697266 254.49462891 C-12.65101555 251.77088886 -12.66249274 249.04719057 -12.67352295 246.32347107 C-12.69557248 239.74227831 -12.69103987 233.16137312 -12.67645974 226.58016981 C-12.66510804 221.23262583 -12.66366198 215.88516171 -12.66907883 210.5376091 C-12.66984499 209.77285196 -12.67061116 209.00809482 -12.67140054 208.22016322 C-12.67299932 206.666132 -12.67462038 205.1121008 -12.6762635 203.55806963 C-12.69046377 189.04544153 -12.67421164 174.53297233 -12.64726166 160.02037029 C-12.62486494 147.57372258 -12.62886155 135.12730772 -12.65185547 122.68066406 C-12.67860649 108.19368201 -12.68915706 93.70683798 -12.67379415 79.21983469 C-12.6722015 77.67621321 -12.67062964 76.13259171 -12.66907883 74.58897018 C-12.66830745 73.82961997 -12.66753607 73.07026975 -12.66674132 72.28790892 C-12.6624269 66.94096577 -12.66970393 61.59411048 -12.68147659 56.24718094 C-12.6954896 49.7405832 -12.69172461 43.2342871 -12.66507287 36.72772397 C-12.65192772 33.40938761 -12.64948337 30.09165882 -12.66331863 26.77330971 C-12.67692974 23.17817037 -12.65991014 19.58445815 -12.63491821 15.9894104 C-12.64607182 14.9391422 -12.65722543 13.88887401 -12.66871703 12.8067795 C-12.60459662 8.07036734 -12.55311136 5.75015993 -9.67906761 1.85222435 C-6.12310931 -0.60625506 -4.23832715 -0.75684413 0 0 Z " fill="#47474F" transform="translate(29,60)"/>
<path d="M0 0 C135.3 0 270.6 0 410 0 C410 5.61 410 11.22 410 17 C274.7 17 139.4 17 0 17 C0 11.39 0 5.78 0 0 Z " fill="#FBCB53" transform="translate(51,111)"/>
<path d="M0 0 C4.57879681 0.81764229 5.74559981 1.87681123 8.5 5.625 C9.23780293 9.32952088 9.15715786 12.98001366 9.10800171 16.74658203 C9.1129794 17.88255388 9.11795709 19.01852573 9.12308562 20.18892097 C9.13368177 24.00393568 9.10847861 27.81787703 9.08349609 31.6328125 C9.08094606 34.36432877 9.08592321 37.09581931 9.09057617 39.82733154 C9.09739534 46.48133605 9.07772707 53.13501303 9.04941289 59.78895044 C9.01757512 67.53664914 9.01316282 75.28428997 9.01022096 83.03204465 C9.00415521 96.8554194 8.97503027 110.67864755 8.93212891 124.50195312 C8.89052965 137.91732062 8.86219625 151.33261939 8.85009766 164.74804688 C8.84934944 165.57429101 8.84860123 166.40053515 8.84783034 167.25181699 C8.84485604 170.57290077 8.84191875 173.89398459 8.83904406 177.21506846 C8.82630731 191.53930295 8.8025582 205.8635221 8.7774058 220.18773937 C8.77342498 222.50729279 8.7697062 224.8268465 8.76605177 227.14640045 C8.75302425 235.26770601 8.73668085 243.38898441 8.71106736 251.51026106 C8.70048724 254.86881203 8.69189111 258.22733365 8.68649673 261.58589935 C8.68028817 265.22510415 8.66793907 268.86423616 8.65390015 272.50341797 C8.65340239 273.56712679 8.65290463 274.63083561 8.65239179 275.72677803 C8.64731725 276.70203375 8.64224271 277.67728947 8.63701439 278.68209839 C8.63468375 279.52198744 8.6323531 280.36187649 8.62995183 281.22721672 C8.49203048 283.77204812 8.05714853 286.14095492 7.5 288.625 C3.89295989 285.8424262 0.68085923 282.88344117 -2.5 279.625 C-3.52727612 278.80489221 -4.55455225 277.98478441 -5.61295795 277.13982487 C-9.06545199 273.65519455 -9.22169659 270.63123683 -9.29779834 265.85942787 C-9.28373189 264.83754137 -9.26966544 263.81565488 -9.25517273 262.76280212 C-9.26382711 261.66681137 -9.27248149 260.57082062 -9.28139812 259.44161803 C-9.30299542 255.7677794 -9.28168781 252.09545349 -9.26049805 248.42163086 C-9.26699081 245.78845465 -9.27582631 243.15538069 -9.28749084 240.52223206 C-9.31030758 234.11232465 -9.30084591 227.70285353 -9.27998998 221.29295485 C-9.26370217 216.08382152 -9.25950732 210.87480719 -9.26395607 205.66565132 C-9.26458675 204.92411106 -9.26521742 204.1825708 -9.26586721 203.41855963 C-9.26721327 201.91212146 -9.26859284 200.40568332 -9.27000556 198.89924521 C-9.28194017 184.77625991 -9.25788131 170.65351376 -9.22098748 156.53058291 C-9.19008841 144.41182411 -9.18772681 132.29334052 -9.20678711 120.17456055 C-9.22889732 106.10040899 -9.23504572 92.0264117 -9.21446449 77.95225245 C-9.21230155 76.45167929 -9.21015245 74.95110611 -9.20801735 73.45053291 C-9.20695098 72.71222485 -9.20588462 71.97391678 -9.20478594 71.21323575 C-9.19831571 66.00971737 -9.20308305 60.80627837 -9.21204185 55.60276604 C-9.22367519 48.60044818 -9.20851843 41.59861147 -9.17529869 34.59636497 C-9.16707437 32.02321917 -9.16739537 29.45003012 -9.17677689 26.87688828 C-9.1881581 23.37079614 -9.16889449 19.86618774 -9.14164734 16.36021423 C-9.15211883 15.33609702 -9.16259032 14.3119798 -9.17337912 13.25682873 C-9.10538868 8.57753708 -9.03027545 6.34042913 -6.17864704 2.49311161 C-3.5 0.625 -3.5 0.625 0 0 Z " fill="#474750" transform="translate(486.5,59.375)"/>
<path d="M0 0 C1.1749704 -0.01591187 2.3499408 -0.03182373 3.56051636 -0.04821777 C4.81687897 -0.04841919 6.07324158 -0.04862061 7.36767578 -0.04882812 C8.6719754 -0.05644165 9.97627502 -0.06405518 11.32009888 -0.07189941 C14.07546607 -0.08530931 16.83054692 -0.08692922 19.5859375 -0.08105469 C23.09875081 -0.07516514 26.61017883 -0.10573226 30.12272453 -0.14617157 C33.49608317 -0.17840155 36.86916399 -0.17393216 40.24267578 -0.17382812 C41.49498993 -0.19022339 42.74730408 -0.20661865 44.03756714 -0.22351074 C51.29431247 -0.16634617 56.38714044 0.5224655 61.93798828 5.41992188 C67.74052562 11.66880824 67.18102956 17.480752 67.25048828 25.60742188 C67.29399414 27.27514648 67.29399414 27.27514648 67.33837891 28.9765625 C67.39210471 35.95678379 66.76111736 40.5202011 62.93798828 46.41992188 C58.0029201 50.34783328 54.3055114 51.5391685 48.09301758 51.59692383 C46.89134445 51.60975906 45.68967133 51.6225943 44.45158386 51.63581848 C43.15158951 51.64320541 41.85159515 51.65059235 40.51220703 51.65820312 C39.84946085 51.66227865 39.18671467 51.66635418 38.50388527 51.67055321 C34.99567606 51.69139279 31.48750571 51.70570336 27.97924805 51.71508789 C24.36441295 51.72614584 20.75019452 51.76054355 17.1355772 51.80025959 C14.34821973 51.82646262 11.56100839 51.83478294 8.77353859 51.83836937 C6.79601385 51.84557986 4.81858917 51.87200227 2.8412323 51.89875793 C-8.30341902 51.87183726 -8.30341902 51.87183726 -13.06201172 47.41992188 C-19.08066821 40.75059982 -18.37326506 34.33896127 -18.49951172 25.73242188 C-18.54527344 24.47751953 -18.59103516 23.22261719 -18.63818359 21.9296875 C-18.72147262 15.05291116 -18.43817299 10.33811059 -13.94506836 4.9597168 C-9.60624791 1.41181837 -5.5545667 0.04547172 0 0 Z " fill="#272726" transform="translate(283.06201171875,161.580078125)"/>
<path d="M0 0 C1.06549576 -0.00997513 2.13099152 -0.01995026 3.22877502 -0.03022766 C4.39767776 -0.03089233 5.56658051 -0.03155701 6.77090454 -0.03224182 C8.00201462 -0.04056534 9.23312469 -0.04888885 10.50154114 -0.0574646 C13.87976016 -0.07745461 17.25773253 -0.08820938 20.63598967 -0.09329104 C22.74684568 -0.0969338 24.85767796 -0.10317343 26.96852493 -0.11029243 C34.33348889 -0.13478956 41.69838239 -0.14783936 49.06338501 -0.15138245 C55.92713659 -0.15501786 62.79044104 -0.18491242 69.65405595 -0.22678703 C75.54800428 -0.26148432 81.4418044 -0.27693078 87.33585417 -0.27762848 C90.85563452 -0.27842152 94.37495947 -0.28717103 97.89463425 -0.31562614 C101.82101489 -0.3466593 105.74675319 -0.33774976 109.67324829 -0.32521057 C110.83810257 -0.34004486 112.00295685 -0.35487915 113.20310974 -0.37016296 C121.06534532 -0.29849691 121.06534532 -0.29849691 125.07745361 2.62411499 C127.26865722 5.89735047 127.57606109 7.40967392 126.85147095 11.27415466 C124.70056643 14.61176512 123.64734296 16.00886399 119.85147095 17.27415466 C118.17541372 17.37231724 116.49574413 17.41339913 114.8168335 17.42132568 C113.25645355 17.43205864 113.25645355 17.43205864 111.66455078 17.44300842 C110.52370026 17.44569733 109.38284973 17.44838623 108.20742798 17.45115662 C107.00557861 17.45772781 105.80372925 17.46429901 104.56546021 17.47106934 C100.58006543 17.49081426 96.59471088 17.5024677 92.60928345 17.51243591 C91.23650976 17.51648412 89.86373626 17.52060107 88.49096298 17.524786 C82.04262192 17.54383017 75.59429227 17.55806409 69.1459285 17.56639796 C61.70428786 17.57617476 54.26294432 17.60250868 46.82140839 17.64289886 C41.06759931 17.6730565 35.31387544 17.6878664 29.55998886 17.69117898 C26.12409836 17.69352946 22.68852555 17.70248926 19.25271988 17.72764015 C15.41981734 17.75524576 11.58730627 17.75109079 7.75430298 17.74412537 C6.61750092 17.75693542 5.48069885 17.76974548 4.30944824 17.78294373 C-3.34282093 17.73213933 -3.34282093 17.73213933 -7.3338623 15.46353149 C-9.84632753 12.43226795 -10.07899191 10.16823455 -10.14852905 6.27415466 C-8.45733349 1.05963501 -5.15050296 0.02583081 0 0 Z " fill="#2A2926" transform="translate(206.14852905273438,298.72584533691406)"/>
<path d="M0 0 C1.23140213 -0.0087616 2.46280426 -0.01752319 3.73152161 -0.02655029 C7.10182983 -0.04477009 10.4706006 -0.0405248 13.84082222 -0.02465487 C17.37123777 -0.01197583 20.90158864 -0.02374151 24.43200684 -0.03158569 C30.3602271 -0.04067651 36.28813568 -0.02870959 42.21630859 -0.00488281 C49.06539242 0.02232783 55.91373203 0.01351324 62.76279783 -0.01401484 C68.64834309 -0.03672143 74.5336646 -0.03989856 80.41923952 -0.02682149 C83.93222022 -0.01903532 87.44485135 -0.01796188 90.95780945 -0.03450394 C94.87450987 -0.05165963 98.79037999 -0.02786752 102.70703125 0 C103.86874344 -0.01012115 105.03045563 -0.02024231 106.22737122 -0.03067017 C114.04673286 0.07253286 114.04673286 0.07253286 118.10876465 2.9647522 C119.85351562 5.64697266 119.85351562 5.64697266 119.91601562 9.20947266 C118.78920609 12.85503291 117.81351277 14.31485369 114.85351562 16.64697266 C112.37500561 17.88622767 110.71259769 17.78381629 107.93913269 17.8008728 C106.90025406 17.80947327 105.86137543 17.81807373 104.79101562 17.82693481 C103.07434692 17.83332474 103.07434692 17.83332474 101.32299805 17.83984375 C100.12129471 17.84802124 98.91959137 17.85619873 97.68147278 17.86462402 C93.69064672 17.88950928 89.69985859 17.90615144 85.70898438 17.92041016 C84.33528448 17.92576986 82.96158466 17.93114737 81.5878849 17.93654251 C75.87377806 17.95817106 70.15967404 17.97690786 64.44553661 17.9881649 C56.25574056 18.00440507 48.06641888 18.03758391 39.87680167 18.09456575 C34.11876898 18.13326349 28.36086319 18.15279734 22.60270387 18.15808547 C19.16336362 18.16173925 15.72452932 18.1737617 12.28532982 18.2061882 C8.44748379 18.24185463 4.61023329 18.23789836 0.7722168 18.23046875 C-0.36615631 18.24687408 -1.50452942 18.26327942 -2.67739868 18.28018188 C-10.36277898 18.21914076 -10.36277898 18.21914076 -14.3210907 15.32925415 C-16.64794745 11.91010962 -17.29443185 9.78950206 -17.14648438 5.64697266 C-12.85772309 -0.92186777 -7.09961693 -0.06185381 0 0 Z " fill="#2B2A27" transform="translate(213.146484375,264.35302734375)"/>
<path d="M0 0 C1.22164856 -0.00730133 2.44329712 -0.01460266 3.70196533 -0.02212524 C7.04569043 -0.03554817 10.38718426 -0.02213258 13.73069 0.00453901 C17.23305889 0.02721197 20.73537176 0.01894964 24.23779297 0.01504517 C30.11900986 0.01328056 35.99976511 0.03541202 41.88085938 0.07226562 C48.67534785 0.11459983 55.46916024 0.12162026 62.26375389 0.10914171 C68.8061552 0.09774254 75.34831898 0.10905942 81.89068604 0.1314888 C84.6721029 0.14076531 87.45337414 0.14253529 90.23480225 0.13831711 C94.12033152 0.13384173 98.00522088 0.16280228 101.890625 0.1953125 C103.04298645 0.19035767 104.1953479 0.18540283 105.38262939 0.18029785 C113.13846016 0.28399095 113.13846016 0.28399095 117.13232422 2.56411743 C119.69581422 5.64726994 120.01515945 7.76335265 119.9453125 11.74462891 C117.85905911 15.1720452 116.7708814 16.46943927 112.9453125 17.74462891 C111.26925527 17.84279148 109.58958568 17.88387337 107.91067505 17.89179993 C106.3502951 17.90253288 106.3502951 17.90253288 104.75839233 17.91348267 C103.61754181 17.91617157 102.47669128 17.91886047 101.30126953 17.92163086 C100.09942017 17.92820206 98.8975708 17.93477325 97.65930176 17.94154358 C93.67390698 17.9612885 89.68855243 17.97294194 85.703125 17.98291016 C84.33035131 17.98695837 82.95757782 17.99107531 81.58480453 17.99526024 C75.13646347 18.01430441 68.68813382 18.02853833 62.23977005 18.03687221 C54.79812942 18.046649 47.35678588 18.07298293 39.91524994 18.1133731 C34.16144086 18.14353075 28.40771699 18.15834064 22.65383041 18.16165322 C19.21793991 18.1640037 15.7823671 18.1729635 12.34656143 18.1981144 C8.5136589 18.22572 4.68114783 18.22156504 0.84814453 18.21459961 C-0.28865753 18.22740967 -1.42545959 18.24021973 -2.59671021 18.25341797 C-10.25546754 18.2025705 -10.25546754 18.2025705 -14.228302 15.92619324 C-16.84231476 12.80383107 -17.19446411 10.79815064 -17.0546875 6.74462891 C-12.96470797 -0.66888587 -7.90778846 -0.10490643 0 0 Z " fill="#282726" transform="translate(213.0546875,332.25537109375)"/>
<path d="M0 0 C5.74799233 4.65364259 8.55449629 9.59708263 10.86328125 16.5234375 C11.54571042 24.16664421 9.90061962 31.35574789 5.3203125 37.640625 C-0.69320627 44.05321023 -6.33230026 46.73214937 -15.13671875 47.0234375 C-24.01710914 46.71101438 -28.46056076 44.55618158 -34.51171875 38.1484375 C-40.13035859 31.81347704 -40.71300392 25.29333391 -40.57421875 17.0703125 C-39.66888417 9.73063575 -35.85006128 4.60579714 -30.19921875 0.0234375 C-20.80319608 -6.27616861 -9.29532552 -6.42346078 0 0 Z " fill="#292726" transform="translate(416.13671875,166.4765625)"/>
<path d="M0 0 C1.90625 0.375 1.90625 0.375 4.40625 1.875 C6.52235694 5.4018449 6.55603175 8.41549246 5.90625 12.375 C4.37749516 16.37394627 2.42140541 20.10215376 0.40625 23.875 C-0.11839844 24.88820313 -0.64304688 25.90140625 -1.18359375 26.9453125 C-2.47271229 29.4297955 -3.7761844 31.90552018 -5.09375 34.375 C-4.4231958 34.35405273 -3.7526416 34.33310547 -3.06176758 34.31152344 C-0.0100822 34.22813973 3.04136317 34.17626984 6.09375 34.125 C7.67639648 34.07472656 7.67639648 34.07472656 9.29101562 34.0234375 C13.77703848 33.96683153 17.04327287 33.97109756 21.14453125 35.890625 C23.57189963 39.31369882 23.43955704 42.35135504 22.90625 46.375 C21.92709983 49.38147549 20.5603564 52.12128529 19.109375 54.92578125 C18.71933289 55.70640427 18.32929077 56.48702728 17.9274292 57.29130554 C17.10445287 58.92959626 16.27368263 60.56399277 15.43554688 62.19458008 C14.15574325 64.68848749 12.90443244 67.19522071 11.65625 69.70507812 C10.85060235 71.30031052 10.04336472 72.89474112 9.234375 74.48828125 C8.86129211 75.23515701 8.48820923 75.98203278 8.1038208 76.75154114 C6.19198489 80.4401161 4.68489926 83.32413281 0.90625 85.375 C-3.12070637 86.06043938 -4.59111169 85.72466143 -7.96875 83.375 C-10.63711891 79.60789095 -10.828004 76.80459788 -10.09375 72.375 C-8.72073629 68.71173988 -6.94479211 65.31693777 -5.09375 61.875 C-4.61679688 60.9571875 -4.13984375 60.039375 -3.6484375 59.09375 C-2.47781498 56.84615476 -1.29290256 54.60746488 -0.09375 52.375 C-0.73401123 52.37089111 -1.37427246 52.36678223 -2.03393555 52.36254883 C-4.95062905 52.32953962 -7.86525384 52.25888974 -10.78125 52.1875 C-12.29235352 52.17879883 -12.29235352 52.17879883 -13.83398438 52.16992188 C-18.48158149 52.03187444 -21.32464403 51.86681563 -25.30078125 49.32421875 C-27.56237443 45.60416897 -27.63962289 42.58545061 -27.09375 38.375 C-26.18116601 35.52653677 -24.89528894 32.94583905 -23.515625 30.296875 C-23.14777893 29.56301575 -22.77993286 28.82915649 -22.40093994 28.07305908 C-21.62497374 26.53314286 -20.84128828 24.99709436 -20.05029297 23.46484375 C-18.84433979 21.12614378 -17.66464108 18.77557618 -16.48828125 16.421875 C-15.7280696 14.92111063 -14.96639991 13.42108375 -14.203125 11.921875 C-13.85191589 11.22390808 -13.50070679 10.52594116 -13.13885498 9.80682373 C-9.8278293 3.43325129 -7.39539155 -0.44151591 0 0 Z " fill="#282826" transform="translate(130.09375,264.625)"/>
<path d="M0 0 C3.55200531 3.53164164 6.90345817 7.1323473 10.15625 10.9375 C11.97138492 13.12592679 11.97138492 13.12592679 14.57373047 14.80273438 C18.10392261 18.35603135 17.63044299 22.68277067 17.69473267 27.43371582 C17.67955093 29.30730774 17.67955093 29.30730774 17.6640625 31.21875 C17.66884613 32.50938354 17.67362976 33.80001709 17.67855835 35.12976074 C17.6859143 37.8568323 17.67526785 40.5830828 17.65185547 43.31005859 C17.62336557 46.79752706 17.63977683 50.28307172 17.66971779 53.77046967 C17.692179 57.10754877 17.67643132 60.44411631 17.6640625 63.78125 C17.67418365 65.03031128 17.68430481 66.27937256 17.69473267 67.56628418 C17.56449305 77.19086696 17.56449305 77.19086696 14.68115234 80.29101562 C11.14794779 82.54310376 9.11434633 82.67325667 5 82 C2.63502561 80.13291495 1.33969285 78.67938569 0 76 C-0.09275395 73.58905638 -0.12584719 71.20731681 -0.11352539 68.79638672 C-0.11367142 68.0548233 -0.11381744 67.31325989 -0.1139679 66.54922485 C-0.11327 64.09268287 -0.10548334 61.63621627 -0.09765625 59.1796875 C-0.09579163 57.4786076 -0.09436794 55.77752716 -0.09336853 54.07644653 C-0.08954678 49.59493533 -0.0797194 45.11345643 -0.06866455 40.63195801 C-0.05844308 36.0606327 -0.05386933 31.48930219 -0.04882812 26.91796875 C-0.03809685 17.94529829 -0.02102451 8.97265183 0 0 Z " fill="#3E3E46" transform="translate(17,387)"/>
<path d="M0 0 C1.16478378 -0.0157608 2.32956757 -0.03152161 3.52964783 -0.04776001 C5.41098167 -0.03257828 5.41098167 -0.03257828 7.33032227 -0.01708984 C9.268395 -0.02426529 9.268395 -0.02426529 11.24562073 -0.03158569 C13.97866754 -0.03894957 16.71089615 -0.02827127 19.44384766 -0.00488281 C22.93919129 0.02357924 26.43261317 0.00721851 29.92788601 -0.02274513 C33.2705167 -0.0452112 36.61263703 -0.02945652 39.95532227 -0.01708984 C41.83361977 -0.03227158 41.83361977 -0.03227158 43.74986267 -0.04776001 C53.40163994 0.08248666 53.40163994 0.08248666 56.50244141 3.00097656 C58.61446321 6.27519946 58.92658254 7.82108455 58.20922852 11.64697266 C56.40929077 14.34687927 55.12545552 16.18885916 52.20922852 17.64697266 C50.4489641 17.75802181 48.6845724 17.80617315 46.92089844 17.82397461 C45.81602585 17.83680984 44.71115326 17.84964508 43.57279968 17.86286926 C42.37387589 17.8702562 41.17495209 17.87764313 39.93969727 17.88525391 C38.09726189 17.89736153 38.09726189 17.89736153 36.21760559 17.90971375 C33.61416032 17.923564 31.01069682 17.93428192 28.40722656 17.94213867 C24.42363131 17.95536756 20.44064572 18.00323782 16.45727539 18.04736328 C13.9305888 18.05748938 11.40389514 18.06600574 8.87719727 18.07275391 C7.08792061 18.09901604 7.08792061 18.09901604 5.26249695 18.12580872 C-3.01453136 18.10407815 -3.01453136 18.10407815 -7.02001953 15.74536133 C-9.1467325 13.22514928 -9.7373584 12.12769039 -10.10327148 8.83447266 C-9.47981967 2.47526419 -6.14987059 0.02388675 0 0 Z " fill="#2B2A27" transform="translate(376.790771484375,264.35302734375)"/>
<path d="M0 0 C16.83 0 33.66 0 51 0 C51 5.61 51 11.22 51 17 C34.17 17 17.34 17 0 17 C0 11.39 0 5.78 0 0 Z " fill="#64B465" transform="translate(282,179)"/>
<path d="M0 0 C1.19625 -0.0103125 2.3925 -0.020625 3.625 -0.03125 C7.57642799 0.59073404 9.23110693 1.65475878 12 4.5 C13.1659741 8.50803597 13.43240501 10.55282711 11.6875 14.375 C10 16.5 10 16.5 8 17.5 C5.3755271 17.73011472 2.81613847 17.86961886 0.1875 17.9375 C-0.52470703 17.98326172 -1.23691406 18.02902344 -1.97070312 18.07617188 C-4.8804596 18.13808159 -7.25570279 18.06864127 -9.62207031 16.26074219 C-12.18502532 13.36451247 -12.9905131 11.77512023 -13.125 7.875 C-10.90638012 1.21914035 -6.63712573 -0.0572166 0 0 Z " fill="#2C2A27" transform="translate(226,195.5)"/>
<path d="M0 0 C2.75982977 2.47885163 3.00270224 4.02337077 3.43359375 7.75 C3.45077222 9.16656311 3.45161464 10.58340305 3.4375 12 C3.4674707 13.06734375 3.4674707 13.06734375 3.49804688 14.15625 C3.49481282 17.62315196 3.28131655 19.62228403 1.1875 22.43359375 C-1.95456144 24.68353418 -4.14984001 25.06754667 -8 25 C-10.678348 22.84567661 -12.46254419 21.07491161 -14 18 C-14.17471848 15.90051399 -14.26717852 13.79375592 -14.3125 11.6875 C-14.34988281 10.55699219 -14.38726562 9.42648438 -14.42578125 8.26171875 C-13.91605818 4.35695943 -12.72790817 2.77851871 -10 0 C-6.82503506 -1.58748247 -3.30053472 -1.07839253 0 0 Z " fill="#2D2B27" transform="translate(116,163)"/>
<path d="M0 0 C2.1875 1.5546875 2.1875 1.5546875 4 4 C4.45652645 6.81919906 4.65062189 9.12677872 4.625 11.9375 C4.65722656 12.64068359 4.68945312 13.34386719 4.72265625 14.06835938 C4.72806246 16.9525729 4.54822825 19.29065409 2.74975586 21.61767578 C-0.20604649 24.24701085 -1.68581212 25 -5.6875 25 C-10.16697248 23.64770642 -10.16697248 23.64770642 -12 21 C-13.09697531 17.70907406 -13.2371983 15.08887841 -13.3125 11.625 C-13.34988281 10.50351563 -13.38726562 9.38203125 -13.42578125 8.2265625 C-12.91371636 4.34614414 -11.70908823 2.76437575 -9 0 C-5.81452856 -1.59273572 -3.39809153 -0.76164121 0 0 Z " fill="#2C2A27" transform="translate(209,163)"/>
<path d="M0 0 C3.39469781 1.21488329 3.88567556 1.86054856 6 5 C6.37703343 8.21322517 6.18706578 10.9814613 5 14 C2.51263049 16.7658064 0.99044627 17.00110465 -2.75 17.43359375 C-4.16656311 17.45077222 -5.58340305 17.45161464 -7 17.4375 C-7.7115625 17.45748047 -8.423125 17.47746094 -9.15625 17.49804688 C-12.6106331 17.4948245 -14.63657171 17.26263598 -17.46484375 15.21875 C-19.34686379 12.49868032 -19.64537312 10.26080055 -19.41796875 6.97265625 C-19 5 -19 5 -17.375 2 C-11.8534071 -1.27205505 -6.24059927 -0.88214078 0 0 Z " fill="#2B2926" transform="translate(139,196)"/>
<path d="M0 0 C3.17729896 1.2629905 3.87025346 2.14005465 6 5 C6.6875 8.5 6.6875 8.5 6 12 C3.21195256 15.66398572 1.74163932 16.87200134 -2.84765625 17.6640625 C-4.2526028 17.67722976 -5.65802263 17.66361991 -7.0625 17.625 C-8.12307617 17.65400391 -8.12307617 17.65400391 -9.20507812 17.68359375 C-12.98871197 17.64806667 -14.67774825 17.30284515 -17.46484375 14.68359375 C-19.48013497 11.16068009 -19.58146037 8.99754006 -19 5 C-13.98561042 -1.35156013 -7.57791373 -0.79912545 0 0 Z " fill="#2A2926" transform="translate(190,196)"/>
<path d="M0 0 C1.7265625 1.16015625 1.7265625 1.16015625 3.7265625 4.16015625 C4.28024031 8.43138506 4.32338067 10.38100844 1.66796875 13.84765625 C-2.03932141 16.76228543 -4.10216245 16.831869 -8.7734375 16.78515625 C-10.70703125 16.80449219 -10.70703125 16.80449219 -12.6796875 16.82421875 C-17.08607766 16.00999448 -18.5609024 14.66448596 -21.2734375 11.16015625 C-21.9609375 7.66015625 -21.9609375 7.66015625 -21.2734375 4.16015625 C-16.37377923 -2.41938486 -7.45647456 -2.75453957 0 0 Z " fill="#2A2826" transform="translate(98.2734375,196.83984375)"/>
<path d="M0 0 C4.14182881 0.862881 5.56226471 2.18349135 8 5.625 C8.75517074 8.70049372 8.51878636 10.35664594 8 13.625 C5.28707652 16.9133921 3.65183071 17.53351499 -0.5625 18.125 C-4 17.625 -4 17.625 -6.4375 16.125 C-8.6077527 12.65259567 -8.89291241 9.54605015 -8 5.625 C-5.56226471 2.18349135 -4.14182881 0.862881 0 0 Z " fill="#E93248" transform="translate(401,178.375)"/>
</svg>
