<?xml version="1.0" encoding="UTF-8"?>
<svg version="1.1" xmlns="http://www.w3.org/2000/svg" width="80" height="80">
<path d="M0 0 C1.05048523 0.00607269 1.05048523 0.00607269 2.12219238 0.01226807 C2.86054321 0.00876343 3.59889404 0.00525879 4.35961914 0.00164795 C6.80661346 -0.00717336 9.25331999 -0.00131891 11.70031738 0.00543213 C13.39660701 0.00408559 15.09289627 0.00214515 16.78918457 -0.00036621 C20.34683908 -0.00331801 23.90439327 0.00098194 27.46203613 0.01031494 C32.02882879 0.02170954 36.59538638 0.01515036 41.16217041 0.00317001 C44.66566752 -0.0040471 48.16910865 -0.00176135 51.67260742 0.0034256 C53.35677111 0.00476251 55.04093984 0.00311293 56.72509766 -0.00153351 C59.07635012 -0.00659634 61.42721861 0.0011078 63.77844238 0.01226807 C64.82892761 0.00619537 64.82892761 0.00619537 65.90063477 0 C70.72178823 0.04252797 70.72178823 0.04252797 72.95031738 2.27105713 C73.20428467 4.472229 73.20428467 4.472229 73.20910645 7.23980713 C73.21541077 8.27427979 73.22171509 9.30875244 73.22821045 10.37457275 C73.22416199 11.4954126 73.22011353 12.61625244 73.21594238 13.77105713 C73.21785583 14.91767822 73.21976929 16.06429932 73.22174072 17.2456665 C73.2231036 19.67340311 73.21940006 22.10114697 73.21105957 24.52886963 C73.20036176 28.25559786 73.21095169 31.98184399 73.22375488 35.70855713 C73.22243331 38.06272486 73.21987095 40.4168923 73.21594238 42.77105713 C73.21999084 43.89189697 73.22403931 45.01273682 73.22821045 46.1675415 C73.21875397 47.71925049 73.21875397 47.71925049 73.20910645 49.30230713 C73.20751526 50.21560791 73.20592407 51.12890869 73.20428467 52.06988525 C72.95031738 54.27105713 72.95031738 54.27105713 70.95031738 56.27105713 C68.52201677 56.46920897 66.20777719 56.5438898 63.77844238 56.52984619 C63.04009155 56.53335083 62.30174072 56.53685547 61.54101562 56.54046631 C59.0940213 56.54928762 56.64731478 56.54343317 54.20031738 56.53668213 C52.50402775 56.53802867 50.8077385 56.5399691 49.1114502 56.54248047 C45.55379569 56.54543227 41.9962415 56.54113232 38.43859863 56.53179932 C33.87180598 56.52040472 29.30524838 56.52696389 24.73846436 56.53894424 C21.23496724 56.54616135 17.73152612 56.54387561 14.22802734 56.53868866 C12.54386365 56.53735175 10.85969492 56.53900133 9.17553711 56.54364777 C6.82428464 56.5487106 4.47341615 56.54100645 2.12219238 56.52984619 C1.4218689 56.53389465 0.72154541 56.53794312 0 56.54211426 C-4.82115346 56.49958628 -4.82115346 56.49958628 -7.04968262 54.27105713 C-7.3036499 52.06988525 -7.3036499 52.06988525 -7.30847168 49.30230713 C-7.314776 48.26783447 -7.32108032 47.23336182 -7.32757568 46.1675415 C-7.32352722 45.04670166 -7.31947876 43.92586182 -7.31530762 42.77105713 C-7.31722107 41.62443604 -7.31913452 40.47781494 -7.32110596 39.29644775 C-7.32246883 36.86871115 -7.31876529 34.44096729 -7.3104248 32.01324463 C-7.29972699 28.2865164 -7.31031693 24.56027027 -7.32312012 20.83355713 C-7.32179854 18.47938939 -7.31923619 16.12522196 -7.31530762 13.77105713 C-7.31935608 12.65021729 -7.32340454 11.52937744 -7.32757568 10.37457275 C-7.32127136 9.3401001 -7.31496704 8.30562744 -7.30847168 7.23980713 C-7.30688049 6.32650635 -7.30528931 5.41320557 -7.3036499 4.472229 C-6.77276882 -0.12899554 -3.98723908 0.03517192 0 0 Z M-3.04968262 4.27105713 C-3.04968262 20.11105713 -3.04968262 35.95105713 -3.04968262 52.27105713 C20.71031738 52.27105713 44.47031738 52.27105713 68.95031738 52.27105713 C68.95031738 36.43105713 68.95031738 20.59105713 68.95031738 4.27105713 C45.19031738 4.27105713 21.43031738 4.27105713 -3.04968262 4.27105713 Z " fill="#16301F" transform="translate(7.0496826171875,11.72894287109375)"/>
<path d="M0 0 C4.67685919 1.6766099 7.43580645 3.72634408 10 8 C10.66305376 10.74027688 10.85776275 13.15525505 11 16 C10 17 10 17 7.31616211 17.11352539 C6.14835205 17.10828857 4.98054199 17.10305176 3.77734375 17.09765625 C2.51728516 17.09443359 1.25722656 17.09121094 -0.04101562 17.08789062 C-1.38151109 17.07953403 -2.72200588 17.07106907 -4.0625 17.0625 C-5.40689942 17.0574866 -6.7513006 17.05292342 -8.09570312 17.04882812 C-11.39717941 17.03699488 -14.69856803 17.02050971 -18 17 C-19.0625 15.21484375 -19.0625 15.21484375 -20 13 C-18.30025959 7.15714235 -15.88155388 4.53133685 -11 1 C-7.54155176 -0.72922412 -3.78834735 -0.35136443 0 0 Z M-12 7 C-13.80796103 9.56610666 -13.80796103 9.56610666 -15 12 C-11.7 12 -8.4 12 -5 12 C-4.34 10.35 -3.68 8.7 -3 7 C-2.34 7 -1.68 7 -1 7 C-1 8.65 -1 10.3 -1 12 C1.31 12 3.62 12 6 12 C5.06601394 8.85841051 4.33205059 7.2674852 1.75 5.1875 C-3.56175351 2.89378826 -7.46364708 3.44448015 -12 7 Z " fill="#152F20" transform="translate(27,20)"/>
<path d="M0 0 C4.25414623 -0.02465622 8.50825498 -0.04283899 12.76245117 -0.05493164 C14.21070073 -0.05997101 15.65894517 -0.06680253 17.10717773 -0.07543945 C19.18474588 -0.08752247 21.26224697 -0.09323211 23.33984375 -0.09765625 C24.59144287 -0.10289307 25.84304199 -0.10812988 27.13256836 -0.11352539 C30 0 30 0 31 1 C31.09823937 2.66429051 31.12973631 4.33281931 31.125 6 C31.12886719 7.36125 31.12886719 7.36125 31.1328125 8.75 C31 11 31 11 30 12 C27.86646826 12.10003289 25.72962458 12.13081048 23.59375 12.1328125 C22.29308594 12.13410156 20.99242187 12.13539062 19.65234375 12.13671875 C18.97155762 12.13462402 18.29077148 12.1325293 17.58935547 12.13037109 C15.50871485 12.1250224 13.42829011 12.1303168 11.34765625 12.13671875 C9.39666016 12.13478516 9.39666016 12.13478516 7.40625 12.1328125 C6.20291016 12.13168457 4.99957031 12.13055664 3.75976562 12.12939453 C1 12 1 12 0 11 C-0.07226502 9.14712498 -0.0838122 7.29166122 -0.0625 5.4375 C-0.05347656 4.42558594 -0.04445312 3.41367187 -0.03515625 2.37109375 C-0.02355469 1.58863281 -0.01195312 0.80617188 0 0 Z M4 4 C4 5.32 4 6.64 4 8 C11.26 8 18.52 8 26 8 C26 6.68 26 5.36 26 4 C18.74 4 11.48 4 4 4 Z " fill="#17301F" transform="translate(42,20)"/>
<path d="M0 0 C1.32 0 2.64 0 4 0 C4.07347656 1.15628906 4.07347656 1.15628906 4.1484375 2.3359375 C4.22320312 3.33882812 4.29796875 4.34171875 4.375 5.375 C4.44460937 6.37273438 4.51421875 7.37046875 4.5859375 8.3984375 C4.76363964 11.15508879 4.76363964 11.15508879 7 13 C7.38951724 16.50565513 7.16217772 18.62699124 5.75 21.875 C5.1725 22.57625 4.595 23.2775 4 24 C2.68 24 1.36 24 0 24 C0 22.68 0 21.36 0 20 C-0.66 20 -1.32 20 -2 20 C-2.625 16.625 -2.625 16.625 -3 13 C-2.34 12.34 -1.68 11.68 -1 11 C-0.53709779 8.33757179 -0.53709779 8.33757179 -0.375 5.375 C-0.30023438 4.37210938 -0.22546875 3.36921875 -0.1484375 2.3359375 C-0.09945312 1.56507812 -0.05046875 0.79421875 0 0 Z M1 15 C1.66 15.66 2.32 16.32 3 17 C3 16.34 3 15.68 3 15 C2.34 15 1.68 15 1 15 Z " fill="#16301F" transform="translate(48,36)"/>
<path d="M0 0 C2.86714191 1.43357096 3.60338699 3.14329157 5 6 C5.3125 9.1875 5.3125 9.1875 5 12 C4.34 12.66 3.68 13.32 3 14 C2.53709779 16.66242821 2.53709779 16.66242821 2.375 19.625 C2.30023438 20.62789062 2.22546875 21.63078125 2.1484375 22.6640625 C2.09945312 23.43492188 2.05046875 24.20578125 2 25 C0.68 24.67 -0.64 24.34 -2 24 C-2 20.37 -2 16.74 -2 13 C-2.66 13 -3.32 13 -4 13 C-4.99351105 9.20659419 -5.15468108 7.39038559 -3.6875 3.6875 C-2 1 -2 1 0 0 Z M-1 8 C-0.34 8.66 0.32 9.32 1 10 C1 9.34 1 8.68 1 8 C0.34 8 -0.32 8 -1 8 Z " fill="#16301F" transform="translate(64,35)"/>
<path d="M0 0 C9.24 0 18.48 0 28 0 C28 1.32 28 2.64 28 4 C18.76 4 9.52 4 0 4 C0 2.68 0 1.36 0 0 Z " fill="#16311F" transform="translate(8,48)"/>
<path d="M0 0 C9.24 0 18.48 0 28 0 C28 1.32 28 2.64 28 4 C18.76 4 9.52 4 0 4 C0 2.68 0 1.36 0 0 Z " fill="#16311F" transform="translate(8,40)"/>
<path d="M0 0 C4.95 0 9.9 0 15 0 C15 1.32 15 2.64 15 4 C10.05 4 5.1 4 0 4 C0 2.68 0 1.36 0 0 Z " fill="#16301F" transform="translate(8,56)"/>
</svg>
