<?xml version="1.0" encoding="UTF-8"?>
<svg id="Layer_2" data-name="Layer 2" xmlns="http://www.w3.org/2000/svg" viewBox="0 0 428.11 417.53">
  <defs>
    <style>
      .cls-1 {
        fill: #173120;
      }
    </style>
  </defs>
  <g id="Layer_1-2" data-name="Layer 1">
    <g>
      <path class="cls-1" d="M36.91,166.58c0-7.16-.02-13.88,0-20.61,.03-6.43,2.48-8.91,8.91-8.91,29.21-.02,58.43,0,87.64,0,1.65,0,3.3,0,5.68,0-14.26-23.85-18.06-48.59-10.06-74.72,5.82-19,17.02-34.28,33.16-45.82,32.01-22.91,74.96-21.94,106.36,2.72,17.87,14.04,28.67,32.57,32.43,55.06,3.72,22.27-.95,42.94-12.99,62.77,2.4,0,4.03,0,5.66,0,29.21,0,58.43,0,87.64,0,7.65,0,9.82,2.19,9.84,9.84,.02,6.15,.05,12.3,.1,18.45,0,.27,.23,.53,.55,1.24,8.84,0,17.87-.01,26.9,0,7.02,.01,9.36,2.35,9.36,9.4,0,77.34,0,154.68,0,232.03,0,7.25-2.32,9.52-9.71,9.52-136.23,0-272.46,0-408.7,0-7.39,0-9.69-2.26-9.69-9.53,0-77.34,0-154.68,0-232.03,0-7.05,2.33-9.37,9.36-9.39,9.03-.02,18.06,0,27.54,0Zm184.74,201.61c1.41-.54,2.56-.89,3.63-1.4,22.58-10.63,46.32-15.84,71.3-15.7,24.91,.14,49.82,.03,74.73,.03h4.81V151.78c-6.79,0-13.24-.05-19.69,0-25.97,.25-51.95,.52-77.92,.89-1.54,.02-3.44,.54-4.55,1.52-9.46,8.31-14.85,18.61-14.83,31.44,.01,10.61,.08,21.22-.04,31.83-.16,13.47-9.67,22.84-23.04,22.9-4.73,.02-9.45,0-14.4,0v127.83Zm191.4,34.41V181.68h-21.85c0,2.21,0,4.05,0,5.89,0,56.12,0,112.25,0,168.37,0,7.69-2.19,9.9-9.79,9.9-28.6,0-57.2-.08-85.8,.06-6.9,.03-13.82,.56-20.68,1.33-19.04,2.13-36.61,8.85-53.27,17.99-5.27,2.89-9.72,2.93-15.02-.02-24.83-13.83-51.49-20.01-79.97-19.46-26.59,.51-53.2,.11-79.8,.11-7.87,0-9.97-2.14-9.97-10.17,0-56.28,0-112.55,0-168.83,0-1.77,0-3.55,0-5.32H14.99v221.07H413.06ZM51.83,351.13h5.37c25.21,0,50.43,.16,75.64-.05,24.71-.2,48.09,5.13,70.34,15.73,1.01,.48,2.1,.8,3.16,1.19v-127.64c-4.81,0-9.26,0-13.7,0-14.25-.03-23.55-9.33-23.63-23.7-.05-10.15,0-20.29-.03-30.44-.02-9.37-3.28-17.58-8.37-25.38-4.89-7.49-11.63-9.64-20.38-8.59,0,1.7,0,3.36,0,5.02,0,34.44-.02,68.87,.03,103.31,0,3.43-.51,6.44-3.75,8.29-3.45,1.97-6.45,.78-9.41-1.26-4.43-3.04-9.04-5.83-13.36-9.03-2.27-1.69-3.91-1.48-6.07,.07-4.24,3.04-8.7,5.77-13.01,8.73-2.91,1.99-5.8,3.48-9.38,1.66-3.79-1.93-4.11-5.28-4.1-9,.05-34.28,.03-68.57,.03-102.85,0-1.76,0-3.52,0-5.17h-29.37v199.08ZM244.3,181.14c1.61-15.59,8.66-27.82,19.74-38.27,18.15-17.12,26.02-38.29,23.09-63.21-4.78-40.59-42.64-71.58-86.99-63.07-29.1,5.58-48.72,23.78-56.86,52.36-8.09,28.38-.53,53.33,20.35,74.23,3.36,3.36,6.68,6.81,9.57,10.57,6.18,8.05,9.23,17.47,10.72,27.36h10.36c.16-.65,.36-1.08,.35-1.5-.37-28.17-5.39-54.98-23.19-77.96-2.26-2.92-3.33-5.91-1.28-9.31,2.02-3.35,5.29-4.42,8.78-3.42,3.75,1.07,7.62,2.42,10.82,4.57,3.88,2.59,6.97,2.91,10.83,.09,9.29-6.77,17.57-6.7,27.04,.11,3.68,2.65,6.68,2.45,10.46-.01,3.36-2.19,7.33-3.65,11.22-4.77,3.49-1,6.75,.16,8.72,3.54,2,3.44,.87,6.47-1.42,9.31-9.73,12.07-15.63,25.96-19.13,40.93-2.94,12.57-4.15,25.33-3.99,38.46h10.83Zm-119.13,68.33v-97.32h-28.98v97.15c9.7-10.91,19.12-11.55,28.98,.17Zm59-53.26c0,7.79-.19,15.15,.07,22.49,.16,4.34,3.06,6.85,7.69,6.89,14.76,.11,29.52,.08,44.28,.01,3.51-.02,7.01-1.57,7.25-5.14,.53-8.02,.17-16.09,.17-24.25h-59.46Zm11.52-83.62c9.68,21.3,14.47,44.35,13.76,68.43h9.28c-.98-24.43,3.88-47.45,13.24-68.43-4.84-2.45-9.43-4.43-13.64-7.02-3.13-1.92-5.65-2.19-8.87-.21-4.22,2.6-8.78,4.65-13.77,7.23Z"/>
      <path class="cls-1" d="M273.34,210.52v-14.17h88.11v14.17h-88.11Z"/>
      <path class="cls-1" d="M273.36,269.59v-14.21h87.95v14.21h-87.95Z"/>
      <path class="cls-1" d="M361.44,314.52v14.21h-87.95v-14.21h87.95Z"/>
      <path class="cls-1" d="M273.36,225.81h59.41v14.3h-59.41v-14.3Z"/>
      <path class="cls-1" d="M273.35,299.11v-14.19h59.37v14.19h-59.37Z"/>
    </g>
  </g>
</svg>