<?xml version="1.0" encoding="UTF-8"?>
<svg version="1.1" xmlns="http://www.w3.org/2000/svg" width="72" height="80">
<path d="M0 0 C0 26.4 0 52.8 0 80 C-4.11578493 78.62807169 -6.99646758 77.60598717 -10.59765625 75.5234375 C-11.46720947 75.02545654 -12.3367627 74.52747559 -13.23266602 74.0144043 C-14.63343384 73.20289917 -14.63343384 73.20289917 -16.0625 72.375 C-18.11374277 71.20035385 -20.1658702 70.02725159 -22.21875 68.85546875 C-23.31058594 68.2320459 -24.40242188 67.60862305 -25.52734375 66.96630859 C-32.27040633 63.14821059 -39.06769167 59.42771735 -45.86135864 55.70062256 C-54.62779851 50.89065838 -63.33254593 45.98561632 -72 41 C-72 40.34 -72 39.68 -72 39 C-69.25692116 37.47606731 -66.51384045 35.95213797 -63.77075195 34.42822266 C-61.35388216 33.08552186 -58.93705798 31.742739 -56.52026367 30.39990234 C-50.85848685 27.25414833 -45.19655991 24.10866823 -39.53320312 20.96575928 C-37.7723782 19.98855229 -36.01166389 19.01114629 -34.25097656 18.03369141 C-31.97192774 16.768596 -29.69263368 15.50394228 -27.41308594 14.23974609 C-22.5370522 11.53300559 -17.66616394 8.81906992 -12.8203125 6.05859375 C-12.06645264 5.62981934 -11.31259277 5.20104492 -10.53588867 4.75927734 C-9.18486977 3.98874859 -7.83589831 3.21461302 -6.48950195 2.43603516 C-2.21956404 0 -2.21956404 0 0 0 Z " fill="#3CB549" transform="translate(72,0)"/>
</svg>
