<svg width="18" height="18" viewBox="0 0 18 18" fill="none" xmlns="http://www.w3.org/2000/svg">
<path d="M5.25 11.9998C5.54837 11.9998 5.83452 11.8812 6.0455 11.6703C6.25647 11.4593 6.375 11.1731 6.375 10.8748C6.37866 10.8373 6.37866 10.7997 6.375 10.7623L8.4675 8.66976H8.8125L10.02 9.87726V9.93726C10.02 10.2356 10.1385 10.5218 10.3495 10.7328C10.5605 10.9437 10.8466 11.0623 11.145 11.0623C11.4434 11.0623 11.7295 10.9437 11.9405 10.7328C12.1515 10.5218 12.27 10.2356 12.27 9.93726V9.87726L15 7.12476C15.2225 7.12476 15.44 7.05878 15.625 6.93516C15.81 6.81154 15.9542 6.63584 16.0394 6.43027C16.1245 6.22471 16.1468 5.99851 16.1034 5.78028C16.06 5.56205 15.9528 5.36159 15.7955 5.20426C15.6382 5.04693 15.4377 4.93978 15.2195 4.89637C15.0012 4.85296 14.775 4.87524 14.5695 4.96039C14.3639 5.04554 14.1882 5.18973 14.0646 5.37474C13.941 5.55974 13.875 5.77725 13.875 5.99976C13.8713 6.03717 13.8713 6.07484 13.875 6.11226L11.1675 8.81976H11.0475L9.75 7.49976C9.75 7.20139 9.63147 6.91524 9.4205 6.70426C9.20952 6.49328 8.92337 6.37476 8.625 6.37476C8.32663 6.37476 8.04048 6.49328 7.8295 6.70426C7.61853 6.91524 7.5 7.20139 7.5 7.49976L5.25 9.74976C4.95163 9.74976 4.66548 9.86828 4.4545 10.0793C4.24353 10.2902 4.125 10.5764 4.125 10.8748C4.125 11.1731 4.24353 11.4593 4.4545 11.6703C4.66548 11.8812 4.95163 11.9998 5.25 11.9998ZM15.375 14.9998H2.625V2.24976C2.625 2.05084 2.54598 1.86008 2.40533 1.71943C2.26468 1.57877 2.07391 1.49976 1.875 1.49976C1.67609 1.49976 1.48532 1.57877 1.34467 1.71943C1.20402 1.86008 1.125 2.05084 1.125 2.24976V15.7498C1.125 15.9487 1.20402 16.1394 1.34467 16.2801C1.48532 16.4207 1.67609 16.4998 1.875 16.4998H15.375C15.5739 16.4998 15.7647 16.4207 15.9053 16.2801C16.046 16.1394 16.125 15.9487 16.125 15.7498C16.125 15.5508 16.046 15.3601 15.9053 15.2194C15.7647 15.0788 15.5739 14.9998 15.375 14.9998Z" fill="#776F86"/>
</svg>
