<?xml version="1.0" encoding="UTF-8"?>
<svg version="1.1" xmlns="http://www.w3.org/2000/svg" width="512" height="512">
<path d="M0 0 C1.65246735 -0.01925285 1.65246735 -0.01925285 3.33831787 -0.03889465 C4.53410461 -0.04628159 5.72989136 -0.05366852 6.96191406 -0.0612793 C8.18783264 -0.06935104 9.41375122 -0.07742279 10.67681885 -0.08573914 C13.27606792 -0.09959042 15.87533527 -0.11030788 18.47460938 -0.11816406 C22.44721978 -0.13137862 26.41921688 -0.17924558 30.39160156 -0.22338867 C32.91503293 -0.23351614 35.43847139 -0.24203207 37.96191406 -0.2487793 C39.14960388 -0.26628738 40.3372937 -0.28379547 41.56097412 -0.30183411 C47.91029806 -0.28516342 51.98482784 -0.23573519 56.72753906 4.17700195 C62.7923284 11.32106548 62.40795929 22.75539597 63.51513672 31.70141602 C63.68261311 33.03307865 63.85040268 34.36470194 64.01847839 35.69628906 C64.4701276 39.28233814 64.91716529 42.86894756 65.36312151 46.4557085 C65.83201152 50.22211367 66.3045312 53.98806383 66.77645874 57.75408936 C67.56749402 64.07148874 68.35543252 70.38926872 69.14160156 76.70727539 C70.04943683 84.00266336 70.96261017 91.29736861 71.87853014 98.59174562 C72.66685027 104.87105544 73.45228464 111.15072134 74.2353195 117.43069243 C74.70213266 121.17453127 75.16993088 124.91823971 75.6403389 128.66162872 C76.08200293 132.17757305 76.52003455 135.69395151 76.95530128 139.21069336 C77.19138568 141.11104448 77.43109171 143.01094458 77.6709137 144.91082764 C77.811064 146.04894897 77.95121429 147.18707031 78.09561157 148.35968018 C78.21837778 149.344072 78.34114399 150.32846382 78.46763039 151.3426857 C78.73665602 154.27642285 78.72753906 157.23095571 78.72753906 160.17700195 C87.96753906 160.17700195 97.20753906 160.17700195 106.72753906 160.17700195 C106.92472031 157.14162231 106.92472031 157.14162231 107.12588501 154.04492188 C107.64806408 146.75997691 108.44630092 139.53597927 109.35400391 132.2902832 C109.51514175 130.98114456 109.6762796 129.67200592 109.84230042 128.32319641 C110.27881096 124.77988126 110.72008514 121.2371769 111.16293287 117.69464874 C111.4401917 115.47577589 111.71657157 113.25679519 111.99269485 111.03778076 C112.85908986 104.07700016 113.72838531 97.11659141 114.60204828 90.15671921 C115.60683325 82.15217254 116.60188041 74.14649365 117.58863485 66.1397047 C118.35540288 59.92268273 119.13066618 53.70675698 119.91238368 47.49159718 C120.3777702 43.79000409 120.83960659 40.0880522 121.29258347 36.38491821 C121.79688531 32.26453078 122.3187843 28.14655665 122.84228516 24.02856445 C122.98889084 22.80978104 123.13549652 21.59099762 123.2865448 20.33528137 C124.92380173 7.70720394 124.92380173 7.70720394 130.29003906 2.86450195 C133.854683 0.39667153 135.69468262 0.04359008 140 0 C141.65246735 -0.01925285 141.65246735 -0.01925285 143.33831787 -0.03889465 C144.53410461 -0.04628159 145.72989136 -0.05366852 146.96191406 -0.0612793 C148.18783264 -0.06935104 149.41375122 -0.07742279 150.67681885 -0.08573914 C153.27606792 -0.09959042 155.87533527 -0.11030788 158.47460938 -0.11816406 C162.44721978 -0.13137862 166.41921688 -0.17924558 170.39160156 -0.22338867 C172.91503293 -0.23351614 175.43847139 -0.24203207 177.96191406 -0.2487793 C179.14960388 -0.26628738 180.3372937 -0.28379547 181.56097412 -0.30183411 C187.91029806 -0.28516342 191.98482784 -0.23573519 196.72753906 4.17700195 C202.7923284 11.32106548 202.40795929 22.75539597 203.51513672 31.70141602 C203.68261311 33.03307865 203.85040268 34.36470194 204.01847839 35.69628906 C204.4701276 39.28233814 204.91716529 42.86894756 205.36312151 46.4557085 C205.83201152 50.22211367 206.3045312 53.98806383 206.77645874 57.75408936 C207.56749402 64.07148874 208.35543252 70.38926872 209.14160156 76.70727539 C210.04943683 84.00266336 210.96261017 91.29736861 211.87853014 98.59174562 C212.66685027 104.87105544 213.45228464 111.15072134 214.2353195 117.43069243 C214.70213266 121.17453127 215.16993088 124.91823971 215.6403389 128.66162872 C216.08200293 132.17757305 216.52003455 135.69395151 216.95530128 139.21069336 C217.19138568 141.11104448 217.43109171 143.01094458 217.6709137 144.91082764 C217.811064 146.04894897 217.95121429 147.18707031 218.09561157 148.35968018 C218.27976089 149.83626791 218.27976089 149.83626791 218.46763039 151.3426857 C218.73910072 154.30308241 218.77204874 157.20587378 218.72753906 160.17700195 C219.60490723 160.15605469 220.48227539 160.13510742 221.38623047 160.11352539 C224.66270589 160.04507595 227.93841419 159.99507144 231.21533203 159.95727539 C232.62951701 159.93724353 234.04362003 159.91000947 235.45751953 159.87524414 C237.49825325 159.82634707 239.53788596 159.80395073 241.57910156 159.78637695 C242.8045166 159.76542969 244.02993164 159.74448242 245.29248047 159.72290039 C250.40219288 160.39838476 253.3713915 162.50022937 256.58422852 166.47265625 C258.05433427 169.9499916 258.06706642 172.67528571 258.02050781 176.4465332 C258.01626297 177.12753586 258.01201813 177.80853851 258.00764465 178.51017761 C257.99094516 180.67036654 257.95331218 182.82959838 257.91503906 184.98950195 C257.89998081 186.46019154 257.8862944 187.93089585 257.87402344 189.40161133 C257.84363041 192.99406729 257.78490057 196.58447229 257.72753906 200.17700195 C267.29753906 200.17700195 276.86753906 200.17700195 286.72753906 200.17700195 C287.05753906 195.55700195 287.38753906 190.93700195 287.72753906 186.17700195 C288.23811861 181.54121478 288.7743785 176.91711558 289.35400391 172.2902832 C289.51514175 170.98114456 289.6762796 169.67200592 289.84230042 168.32319641 C290.27881096 164.77988126 290.72008514 161.2371769 291.16293287 157.69464874 C291.4401917 155.47577589 291.71657157 153.25679519 291.99269485 151.03778076 C292.85908986 144.07700016 293.72838531 137.11659141 294.60204828 130.15671921 C295.60683325 122.15217254 296.60188041 114.14649365 297.58863485 106.1397047 C298.35540288 99.92268273 299.13066618 93.70675698 299.91238368 87.49159718 C300.3777702 83.79000409 300.83960659 80.0880522 301.29258347 76.38491821 C301.79688531 72.26453078 302.3187843 68.14655665 302.84228516 64.02856445 C302.98889084 62.80978104 303.13549652 61.59099762 303.2865448 60.33528137 C304.92380173 47.70720394 304.92380173 47.70720394 310.29003906 42.86450195 C313.854683 40.39667153 315.69468262 40.04359008 320 40 C321.65246735 39.98074715 321.65246735 39.98074715 323.33831787 39.96110535 C325.13199799 39.95002495 325.13199799 39.95002495 326.96191406 39.9387207 C328.18783264 39.93064896 329.41375122 39.92257721 330.67681885 39.91426086 C333.27606792 39.90040958 335.87533527 39.88969212 338.47460938 39.88183594 C342.44721978 39.86862138 346.41921688 39.82075442 350.39160156 39.77661133 C352.91503293 39.76648386 355.43847139 39.75796793 357.96191406 39.7512207 C359.14960388 39.73371262 360.3372937 39.71620453 361.56097412 39.69816589 C367.91029806 39.71483658 371.98482784 39.76426481 376.72753906 44.17700195 C382.7923284 51.32106548 382.40795929 62.75539597 383.51513672 71.70141602 C383.68261311 73.03307865 383.85040268 74.36470194 384.01847839 75.69628906 C384.4701276 79.28233814 384.91716529 82.86894756 385.36312151 86.4557085 C385.83201152 90.22211367 386.3045312 93.98806383 386.77645874 97.75408936 C387.56749402 104.07148874 388.35543252 110.38926872 389.14160156 116.70727539 C390.04943683 124.00266336 390.96261017 131.29736861 391.87853014 138.59174562 C392.66685027 144.87105544 393.45228464 151.15072134 394.2353195 157.43069243 C394.70213266 161.17453127 395.16993088 164.91823971 395.6403389 168.66162872 C396.08200293 172.17757305 396.52003455 175.69395151 396.95530128 179.21069336 C397.19138568 181.11104448 397.43109171 183.01094458 397.6709137 184.91082764 C397.811064 186.04894897 397.95121429 187.18707031 398.09561157 188.35968018 C398.27976089 189.83626791 398.27976089 189.83626791 398.46763039 191.3426857 C398.73910072 194.30308241 398.77204874 197.20587378 398.72753906 200.17700195 C399.60490723 200.15605469 400.48227539 200.13510742 401.38623047 200.11352539 C404.66270589 200.04507595 407.93841419 199.99507144 411.21533203 199.95727539 C412.62951701 199.93724353 414.04362003 199.91000947 415.45751953 199.87524414 C417.49825325 199.82634707 419.53788596 199.80395073 421.57910156 199.78637695 C422.8045166 199.76542969 424.02993164 199.74448242 425.29248047 199.72290039 C429.46622585 200.27465351 431.51029413 201.4910925 434.72753906 204.17700195 C437.89975319 208.32244771 438.15688321 211.97735926 438.11521912 217.02696228 C438.12329742 218.20308345 438.12329742 218.20308345 438.13153893 219.40296465 C438.14583189 222.02694137 438.13871158 224.65041456 438.1315918 227.27441406 C438.13729467 229.15702215 438.1442586 231.03962678 438.15238953 232.92222595 C438.17034518 238.03378975 438.16914802 243.14518211 438.16344714 248.25676799 C438.16035879 252.52377453 438.16644381 256.79074797 438.17248589 261.05774981 C438.1865374 271.12381428 438.18496459 281.1897939 438.17358398 291.25585938 C438.16210171 301.64136644 438.17617891 312.0266153 438.20298046 322.41208833 C438.2251297 331.32857582 438.23177659 340.24498222 438.22590405 349.16149527 C438.22253147 354.48700331 438.22496958 359.81234582 438.24215508 365.13783073 C438.25760973 370.1456017 438.25368502 375.15298986 438.23484993 380.16074562 C438.23115997 381.99815675 438.23428436 383.83559615 438.24473572 385.67298126 C438.25791971 388.18244913 438.24642191 390.69064483 438.22874451 393.20005798 C438.23834951 393.92623241 438.24795452 394.65240683 438.25785059 395.40058655 C438.18468357 400.45275434 436.9832141 403.33936591 433.72753906 407.17700195 C429.48207623 410.46217075 425.62331348 410.60236466 420.44531345 410.55731869 C419.61066196 410.56197861 418.77601046 410.56663853 417.9160665 410.57143965 C415.10669209 410.5834332 412.29779741 410.57397744 409.48841858 410.56468201 C407.45897467 410.56885301 405.4295331 410.57432924 403.40009588 410.58100182 C397.81335579 410.59550571 392.2267626 410.59119628 386.64001429 410.58383501 C380.61878536 410.57911785 374.59758888 410.59160027 368.57637024 410.60185242 C357.45903138 410.61807815 346.34173115 410.62047982 335.22438538 410.61554743 C324.95399644 410.61099296 314.68362499 410.61158604 304.41323662 410.61738777 C303.03640031 410.61814463 301.65956401 410.61890061 300.2827277 410.61965572 C298.20804431 410.62080089 296.13336093 410.62195077 294.05867756 410.62311496 C274.76620118 410.63382245 255.47373064 410.63854264 236.18125248 410.6306448 C235.45376662 410.63034762 234.72628076 410.63005045 233.97674988 410.62974427 C228.06878072 410.62729525 222.16081163 410.62468371 216.25284255 410.62206014 C193.20539927 410.61195682 170.15802883 410.62031371 147.1105957 410.64355469 C121.22469782 410.66961565 95.33884379 410.68247836 69.4529323 410.67536694 C66.69384063 410.67465086 63.93474896 410.67397647 61.17565727 410.67332649 C60.15659778 410.67307178 60.15659778 410.67307178 59.11695122 410.67281192 C48.85311326 410.67050711 38.58931597 410.67849457 28.32548714 410.69161797 C16.65544685 410.70651262 4.98548536 410.70701933 -6.68455594 410.68954705 C-12.64170674 410.68100713 -18.59867514 410.67896037 -24.55581665 410.69419861 C-30.00554659 410.70796663 -35.45493648 410.70338459 -40.90464634 410.68395937 C-42.8796905 410.68017473 -44.85476138 410.6831916 -46.82978188 410.69357102 C-49.50839982 410.7066508 -52.18582838 410.69523852 -54.86439419 410.6775732 C-55.63654083 410.68722372 -56.40868746 410.69687423 -57.20423248 410.70681718 C-62.36992019 410.63655942 -65.28217695 409.41830855 -69.27246094 406.17700195 C-73.02818667 401.78469634 -72.69755329 397.31162139 -72.66014099 391.80848694 C-72.66552653 390.86106406 -72.67091207 389.91364118 -72.6764608 388.93750852 C-72.69077576 385.76077876 -72.68362783 382.5844636 -72.67651367 379.40771484 C-72.68221537 377.13102381 -72.68917885 374.85433563 -72.6973114 372.57765198 C-72.71527979 366.39175096 -72.71406749 360.20599151 -72.70836902 354.02007222 C-72.70528254 348.85834968 -72.71136357 343.69665454 -72.71740776 338.53493589 C-72.73226736 325.66297127 -72.72862929 312.7911062 -72.71654446 299.91914546 C-72.70661196 288.74282879 -72.71955279 277.56667767 -72.74347865 266.39038653 C-72.76786694 254.91150816 -72.77707841 243.43273611 -72.77082592 231.95382684 C-72.7674514 225.51050263 -72.76990446 219.06731522 -72.78707695 212.62401009 C-72.80251821 206.56566897 -72.79862158 200.5076445 -72.7797718 194.44931602 C-72.77607817 192.22489102 -72.77921682 190.0004427 -72.78965759 187.77603912 C-72.80281577 184.74115896 -72.79136531 181.70733501 -72.77366638 178.67250061 C-72.78327139 177.79068825 -72.79287639 176.9088759 -72.80277246 176.00034195 C-72.73761776 170.57640608 -71.87901225 167.48261559 -68.27246094 163.17700195 C-64.31579629 159.99585863 -61.22038319 159.82021997 -56.22167969 159.8840332 C-55.56287308 159.88827805 -54.90406647 159.89252289 -54.22529602 159.89689636 C-52.13642209 159.91358999 -50.04853955 159.95122138 -47.95996094 159.98950195 C-46.5374489 160.00456099 -45.11492163 160.01824726 -43.69238281 160.03051758 C-40.21872657 160.06089941 -36.74575668 160.11886753 -33.27246094 160.17700195 C-33.21914297 159.32748459 -33.165825 158.47796722 -33.11089134 157.60270691 C-32.54662762 149.1241194 -31.70209398 140.72053453 -30.64599609 132.2902832 C-30.48485825 130.98114456 -30.3237204 129.67200592 -30.15769958 128.32319641 C-29.72118904 124.77988126 -29.27991486 121.2371769 -28.83706713 117.69464874 C-28.5598083 115.47577589 -28.28342843 113.25679519 -28.00730515 111.03778076 C-27.14091014 104.07700016 -26.27161469 97.11659141 -25.39795172 90.15671921 C-24.39316675 82.15217254 -23.39811959 74.14649365 -22.41136515 66.1397047 C-21.64459712 59.92268273 -20.86933382 53.70675698 -20.08761632 47.49159718 C-19.6222298 43.79000409 -19.16039341 40.0880522 -18.70741653 36.38491821 C-18.20311469 32.26453078 -17.6812157 28.14655665 -17.15771484 24.02856445 C-17.01110916 22.80978104 -16.86450348 21.59099762 -16.7134552 20.33528137 C-15.07619827 7.70720394 -15.07619827 7.70720394 -9.70996094 2.86450195 C-6.145317 0.39667153 -4.30531738 0.04359008 0 0 Z " fill="#0A617C" transform="translate(73.2724609375,101.822998046875)"/>
<path d="M0 0 C1.65246735 -0.01925285 1.65246735 -0.01925285 3.33831787 -0.03889465 C4.53410461 -0.04628159 5.72989136 -0.05366852 6.96191406 -0.0612793 C8.18783264 -0.06935104 9.41375122 -0.07742279 10.67681885 -0.08573914 C13.27606792 -0.09959042 15.87533527 -0.11030788 18.47460938 -0.11816406 C22.44721978 -0.13137862 26.41921688 -0.17924558 30.39160156 -0.22338867 C32.91503293 -0.23351614 35.43847139 -0.24203207 37.96191406 -0.2487793 C39.14960388 -0.26628738 40.3372937 -0.28379547 41.56097412 -0.30183411 C47.91029806 -0.28516342 51.98482784 -0.23573519 56.72753906 4.17700195 C62.7923284 11.32106548 62.40795929 22.75539597 63.51513672 31.70141602 C63.68261311 33.03307865 63.85040268 34.36470194 64.01847839 35.69628906 C64.4701276 39.28233814 64.91716529 42.86894756 65.36312151 46.4557085 C65.83201152 50.22211367 66.3045312 53.98806383 66.77645874 57.75408936 C67.56749402 64.07148874 68.35543252 70.38926872 69.14160156 76.70727539 C70.04943683 84.00266336 70.96261017 91.29736861 71.87853014 98.59174562 C72.66685027 104.87105544 73.45228464 111.15072134 74.2353195 117.43069243 C74.70213266 121.17453127 75.16993088 124.91823971 75.6403389 128.66162872 C76.08200293 132.17757305 76.52003455 135.69395151 76.95530128 139.21069336 C77.19138568 141.11104448 77.43109171 143.01094458 77.6709137 144.91082764 C77.811064 146.04894897 77.95121429 147.18707031 78.09561157 148.35968018 C78.21837778 149.344072 78.34114399 150.32846382 78.46763039 151.3426857 C78.73665602 154.27642285 78.72753906 157.23095571 78.72753906 160.17700195 C83.34753906 160.17700195 87.96753906 160.17700195 92.72753906 160.17700195 C92.72753906 199.77700195 92.72753906 239.37700195 92.72753906 280.17700195 C116.81089222 280.05833842 116.81089222 280.05833842 140.89404297 279.90673828 C145.56420898 279.89318848 145.56420898 279.89318848 147.75424194 279.89067078 C149.27567175 279.88608021 150.797091 279.87556251 152.31845093 279.86027527 C154.6302979 279.83821696 156.94148105 279.83528716 159.25341797 279.83642578 C161.20533554 279.82643303 161.20533554 279.82643303 163.19668579 279.8162384 C168.34838398 280.34261115 171.57942746 281.90477018 175.04003906 285.73950195 C177.409838 289.16254487 177.85209094 290.85630326 177.84779358 294.97317505 C177.84985558 296.49184677 177.84985558 296.49184677 177.85195923 298.04119873 C177.84836395 299.1560968 177.84476868 300.27099487 177.84106445 301.41967773 C177.84121048 302.59039825 177.84135651 303.76111877 177.84150696 304.96731567 C177.84092867 308.18198805 177.83590499 311.39661719 177.828933 314.61128092 C177.82269201 317.96919474 177.82209507 321.32710935 177.82090759 324.68502808 C177.81779648 331.04567743 177.80958605 337.40630964 177.7995581 343.76695144 C177.78839015 351.00748646 177.78288479 358.24802229 177.77786267 365.48856378 C177.76740326 380.38471939 177.74980806 395.28085896 177.72753906 410.17700195 C147.12771816 410.26824748 116.52792835 410.33903811 85.9280039 410.38126327 C82.31560915 410.38626611 78.70321466 410.3914434 75.09082031 410.39672852 C74.01207387 410.39830238 74.01207387 410.39830238 72.91153456 410.39990804 C61.26609861 410.41731445 49.62074162 410.44885343 37.97535251 410.48561314 C26.02657734 410.52301601 14.07784354 410.54523641 2.12901223 410.55335593 C-4.58268754 410.55835247 -11.29422262 410.57037238 -18.00586319 410.59992218 C-24.32099795 410.62703866 -30.63587952 410.63545444 -36.95106697 410.62943268 C-39.27064323 410.63053459 -41.59022782 410.63851061 -43.9097538 410.65382385 C-47.07402892 410.67369219 -50.23734506 410.66895202 -53.40164185 410.65802002 C-54.32188334 410.66967139 -55.24212483 410.68132275 -56.19025242 410.69332719 C-61.6915122 410.64186982 -64.99495894 409.97503573 -69.27246094 406.17700195 C-73.02818667 401.78469634 -72.69755329 397.31162139 -72.66014099 391.80848694 C-72.66552653 390.86106406 -72.67091207 389.91364118 -72.6764608 388.93750852 C-72.69077576 385.76077876 -72.68362783 382.5844636 -72.67651367 379.40771484 C-72.68221537 377.13102381 -72.68917885 374.85433563 -72.6973114 372.57765198 C-72.71527979 366.39175096 -72.71406749 360.20599151 -72.70836902 354.02007222 C-72.70528254 348.85834968 -72.71136357 343.69665454 -72.71740776 338.53493589 C-72.73226736 325.66297127 -72.72862929 312.7911062 -72.71654446 299.91914546 C-72.70661196 288.74282879 -72.71955279 277.56667767 -72.74347865 266.39038653 C-72.76786694 254.91150816 -72.77707841 243.43273611 -72.77082592 231.95382684 C-72.7674514 225.51050263 -72.76990446 219.06731522 -72.78707695 212.62401009 C-72.80251821 206.56566897 -72.79862158 200.5076445 -72.7797718 194.44931602 C-72.77607817 192.22489102 -72.77921682 190.0004427 -72.78965759 187.77603912 C-72.80281577 184.74115896 -72.79136531 181.70733501 -72.77366638 178.67250061 C-72.78327139 177.79068825 -72.79287639 176.9088759 -72.80277246 176.00034195 C-72.73761776 170.57640608 -71.87901225 167.48261559 -68.27246094 163.17700195 C-64.31579629 159.99585863 -61.22038319 159.82021997 -56.22167969 159.8840332 C-55.56287308 159.88827805 -54.90406647 159.89252289 -54.22529602 159.89689636 C-52.13642209 159.91358999 -50.04853955 159.95122138 -47.95996094 159.98950195 C-46.5374489 160.00456099 -45.11492163 160.01824726 -43.69238281 160.03051758 C-40.21872657 160.06089941 -36.74575668 160.11886753 -33.27246094 160.17700195 C-33.21914297 159.32748459 -33.165825 158.47796722 -33.11089134 157.60270691 C-32.54662762 149.1241194 -31.70209398 140.72053453 -30.64599609 132.2902832 C-30.48485825 130.98114456 -30.3237204 129.67200592 -30.15769958 128.32319641 C-29.72118904 124.77988126 -29.27991486 121.2371769 -28.83706713 117.69464874 C-28.5598083 115.47577589 -28.28342843 113.25679519 -28.00730515 111.03778076 C-27.14091014 104.07700016 -26.27161469 97.11659141 -25.39795172 90.15671921 C-24.39316675 82.15217254 -23.39811959 74.14649365 -22.41136515 66.1397047 C-21.64459712 59.92268273 -20.86933382 53.70675698 -20.08761632 47.49159718 C-19.6222298 43.79000409 -19.16039341 40.0880522 -18.70741653 36.38491821 C-18.20311469 32.26453078 -17.6812157 28.14655665 -17.15771484 24.02856445 C-17.01110916 22.80978104 -16.86450348 21.59099762 -16.7134552 20.33528137 C-15.07619827 7.70720394 -15.07619827 7.70720394 -9.70996094 2.86450195 C-6.145317 0.39667153 -4.30531738 0.04359008 0 0 Z " fill="#0D8EBB" transform="translate(73.2724609375,101.822998046875)"/>
<path d="M0 0 C1.65246735 -0.01925285 1.65246735 -0.01925285 3.33831787 -0.03889465 C4.53410461 -0.04628159 5.72989136 -0.05366852 6.96191406 -0.0612793 C8.18783264 -0.06935104 9.41375122 -0.07742279 10.67681885 -0.08573914 C13.27606792 -0.09959042 15.87533527 -0.11030788 18.47460938 -0.11816406 C22.44721978 -0.13137862 26.41921688 -0.17924558 30.39160156 -0.22338867 C32.91503293 -0.23351614 35.43847139 -0.24203207 37.96191406 -0.2487793 C39.14960388 -0.26628738 40.3372937 -0.28379547 41.56097412 -0.30183411 C47.91029806 -0.28516342 51.98482784 -0.23573519 56.72753906 4.17700195 C62.7923284 11.32106548 62.40795929 22.75539597 63.51513672 31.70141602 C63.68261311 33.03307865 63.85040268 34.36470194 64.01847839 35.69628906 C64.4701276 39.28233814 64.91716529 42.86894756 65.36312151 46.4557085 C65.83201152 50.22211367 66.3045312 53.98806383 66.77645874 57.75408936 C67.56749402 64.07148874 68.35543252 70.38926872 69.14160156 76.70727539 C70.04943683 84.00266336 70.96261017 91.29736861 71.87853014 98.59174562 C72.66685027 104.87105544 73.45228464 111.15072134 74.2353195 117.43069243 C74.70213266 121.17453127 75.16993088 124.91823971 75.6403389 128.66162872 C76.08200293 132.17757305 76.52003455 135.69395151 76.95530128 139.21069336 C77.19138568 141.11104448 77.43109171 143.01094458 77.6709137 144.91082764 C77.811064 146.04894897 77.95121429 147.18707031 78.09561157 148.35968018 C78.21837778 149.344072 78.34114399 150.32846382 78.46763039 151.3426857 C78.73910072 154.30308241 78.77204874 157.20587378 78.72753906 160.17700195 C79.60490723 160.15605469 80.48227539 160.13510742 81.38623047 160.11352539 C84.66270589 160.04507595 87.93841419 159.99507144 91.21533203 159.95727539 C92.62951701 159.93724353 94.04362003 159.91000947 95.45751953 159.87524414 C97.49825325 159.82634707 99.53788596 159.80395073 101.57910156 159.78637695 C102.8045166 159.76542969 104.02993164 159.74448242 105.29248047 159.72290039 C109.46622585 160.27465351 111.51029413 161.4910925 114.72753906 164.17700195 C117.89975319 168.32244771 118.15688321 171.97735926 118.11521912 177.02696228 C118.12329742 178.20308345 118.12329742 178.20308345 118.13153893 179.40296465 C118.14583189 182.02694137 118.13871158 184.65041456 118.1315918 187.27441406 C118.13729467 189.15702215 118.1442586 191.03962678 118.15238953 192.92222595 C118.17034518 198.03378975 118.16914802 203.14518211 118.16344714 208.25676799 C118.16035879 212.52377453 118.16644381 216.79074797 118.17248589 221.05774981 C118.1865374 231.12381428 118.18496459 241.1897939 118.17358398 251.25585938 C118.16210171 261.64136644 118.17617891 272.0266153 118.20298046 282.41208833 C118.2251297 291.32857582 118.23177659 300.24498222 118.22590405 309.16149527 C118.22253147 314.48700331 118.22496958 319.81234582 118.24215508 325.13783073 C118.25760973 330.1456017 118.25368502 335.15298986 118.23484993 340.16074562 C118.23115997 341.99815675 118.23428436 343.83559615 118.24473572 345.67298126 C118.25791971 348.18244913 118.24642191 350.69064483 118.22874451 353.20005798 C118.24315202 354.28931962 118.24315202 354.28931962 118.25785059 355.40058655 C118.18468357 360.45275434 116.9832141 363.33936591 113.72753906 367.17700195 C87.70278966 382.7918516 53.07735144 370.17700195 22.72753906 370.17700195 C22.72753906 300.87700195 22.72753906 231.57700195 22.72753906 160.17700195 C4.24753906 160.17700195 -14.23246094 160.17700195 -33.27246094 160.17700195 C-32.60359972 150.81294487 -31.81081594 141.58840244 -30.64599609 132.2902832 C-30.48485825 130.98114456 -30.3237204 129.67200592 -30.15769958 128.32319641 C-29.72118904 124.77988126 -29.27991486 121.2371769 -28.83706713 117.69464874 C-28.5598083 115.47577589 -28.28342843 113.25679519 -28.00730515 111.03778076 C-27.14091014 104.07700016 -26.27161469 97.11659141 -25.39795172 90.15671921 C-24.39316675 82.15217254 -23.39811959 74.14649365 -22.41136515 66.1397047 C-21.64459712 59.92268273 -20.86933382 53.70675698 -20.08761632 47.49159718 C-19.6222298 43.79000409 -19.16039341 40.0880522 -18.70741653 36.38491821 C-18.20311469 32.26453078 -17.6812157 28.14655665 -17.15771484 24.02856445 C-17.01110916 22.80978104 -16.86450348 21.59099762 -16.7134552 20.33528137 C-15.07619827 7.70720394 -15.07619827 7.70720394 -9.70996094 2.86450195 C-6.145317 0.39667153 -4.30531738 0.04359008 0 0 Z " fill="#0A617C" transform="translate(393.2724609375,141.822998046875)"/>
<path d="M0 0 C1.44941227 -0.00378704 2.89882091 -0.00929025 4.34822083 -0.01637268 C8.26972671 -0.03029335 12.19079219 -0.01918222 16.11227345 -0.00266147 C20.22275562 0.01122485 24.33321315 0.00472498 28.44371033 0.00120544 C35.3443814 -0.00149355 42.24487821 0.01195315 49.14550781 0.03515625 C57.11688825 0.06177463 65.08797761 0.06350861 73.05938727 0.05176789 C80.73795222 0.04097951 88.41641217 0.04718479 96.0949688 0.06132317 C99.3583977 0.06707273 102.62174951 0.06700843 105.88517952 0.06225777 C109.72911025 0.05747662 113.57272323 0.06763645 117.41659355 0.08921242 C118.82505598 0.09476462 120.23354905 0.09525998 121.64201355 0.09025955 C123.56852406 0.08427889 125.49506537 0.09868354 127.42152405 0.11402893 C128.49830445 0.11645883 129.57508486 0.11888872 130.68449497 0.12139225 C135.5382183 0.73059636 138.76588064 2.4504258 142.02709961 6.06420898 C144.39689855 9.4872519 144.83915149 11.18101029 144.83485413 15.29788208 C144.83692037 16.81339 144.83692037 16.81339 144.83902836 18.35951424 C144.83543025 19.47652151 144.83183214 20.59352879 144.828125 21.74438477 C144.82824553 22.93408812 144.82836607 24.12379147 144.82849026 25.34954643 C144.82774157 29.21539022 144.82011528 33.08118628 144.81225586 36.94702148 C144.81078631 39.32779924 144.80976568 41.70857732 144.8092041 44.08935547 C144.80395277 52.93514489 144.78999167 61.7809274 144.77709961 70.62670898 C144.75647461 90.38545898 144.73584961 110.14420898 144.71459961 130.50170898 C88.61459961 130.50170898 32.51459961 130.50170898 -25.28540039 130.50170898 C-25.40915039 101.26577148 -25.40915039 101.26577148 -25.53540039 71.43920898 C-25.57181641 65.29030029 -25.60823242 59.1413916 -25.64575195 52.80615234 C-25.66381836 45.28405762 -25.66381836 45.28405762 -25.66717529 41.76002502 C-25.67330823 39.30446981 -25.68735718 36.84892647 -25.70770264 34.39344788 C-25.73701494 30.66882473 -25.74102334 26.94493619 -25.73950195 23.22021484 C-25.75389439 22.13056647 -25.76828682 21.0409181 -25.78311539 19.91825008 C-25.74844661 13.57070594 -25.30214372 9.53296723 -21.28540039 4.50170898 C-14.97902521 -0.80916914 -7.90355481 -0.05884557 0 0 Z " fill="#E1DEF3" transform="translate(106.285400390625,381.498291015625)"/>
<path d="M0 0 C28.05 0 56.1 0 85 0 C85 69.3 85 138.6 85 210 C56.95 210 28.9 210 0 210 C0 140.7 0 71.4 0 0 Z " fill="#0D8EBB" transform="translate(331,302)"/>
<path d="M0 0 C1.65246735 -0.01925285 1.65246735 -0.01925285 3.33831787 -0.03889465 C4.53410461 -0.04628159 5.72989136 -0.05366852 6.96191406 -0.0612793 C8.18783264 -0.06935104 9.41375122 -0.07742279 10.67681885 -0.08573914 C13.27606792 -0.09959042 15.87533527 -0.11030788 18.47460938 -0.11816406 C22.44721978 -0.13137862 26.41921688 -0.17924558 30.39160156 -0.22338867 C32.91503293 -0.23351614 35.43847139 -0.24203207 37.96191406 -0.2487793 C39.14960388 -0.26628738 40.3372937 -0.28379547 41.56097412 -0.30183411 C47.91029806 -0.28516342 51.98482784 -0.23573519 56.72753906 4.17700195 C62.7923284 11.32106548 62.40795929 22.75539597 63.51513672 31.70141602 C63.68261311 33.03307865 63.85040268 34.36470194 64.01847839 35.69628906 C64.4701276 39.28233814 64.91716529 42.86894756 65.36312151 46.4557085 C65.83201152 50.22211367 66.3045312 53.98806383 66.77645874 57.75408936 C67.56749402 64.07148874 68.35543252 70.38926872 69.14160156 76.70727539 C70.04943683 84.00266336 70.96261017 91.29736861 71.87853014 98.59174562 C72.66685027 104.87105544 73.45228464 111.15072134 74.2353195 117.43069243 C74.70213266 121.17453127 75.16993088 124.91823971 75.6403389 128.66162872 C76.08200293 132.17757305 76.52003455 135.69395151 76.95530128 139.21069336 C77.19138568 141.11104448 77.43109171 143.01094458 77.6709137 144.91082764 C77.811064 146.04894897 77.95121429 147.18707031 78.09561157 148.35968018 C78.21837778 149.344072 78.34114399 150.32846382 78.46763039 151.3426857 C78.73665602 154.27642285 78.72753906 157.23095571 78.72753906 160.17700195 C41.76753906 160.17700195 4.80753906 160.17700195 -33.27246094 160.17700195 C-32.60359972 150.81294487 -31.81081594 141.58840244 -30.64599609 132.2902832 C-30.48485825 130.98114456 -30.3237204 129.67200592 -30.15769958 128.32319641 C-29.72118904 124.77988126 -29.27991486 121.2371769 -28.83706713 117.69464874 C-28.5598083 115.47577589 -28.28342843 113.25679519 -28.00730515 111.03778076 C-27.14091014 104.07700016 -26.27161469 97.11659141 -25.39795172 90.15671921 C-24.39316675 82.15217254 -23.39811959 74.14649365 -22.41136515 66.1397047 C-21.64459712 59.92268273 -20.86933382 53.70675698 -20.08761632 47.49159718 C-19.6222298 43.79000409 -19.16039341 40.0880522 -18.70741653 36.38491821 C-18.20311469 32.26453078 -17.6812157 28.14655665 -17.15771484 24.02856445 C-17.01110916 22.80978104 -16.86450348 21.59099762 -16.7134552 20.33528137 C-15.07619827 7.70720394 -15.07619827 7.70720394 -9.70996094 2.86450195 C-6.145317 0.39667153 -4.30531738 0.04359008 0 0 Z " fill="#FEC178" transform="translate(393.2724609375,141.822998046875)"/>
<path d="M0 0 C1.65246735 -0.01925285 1.65246735 -0.01925285 3.33831787 -0.03889465 C4.53410461 -0.04628159 5.72989136 -0.05366852 6.96191406 -0.0612793 C8.18783264 -0.06935104 9.41375122 -0.07742279 10.67681885 -0.08573914 C13.27606792 -0.09959042 15.87533527 -0.11030788 18.47460938 -0.11816406 C22.44721978 -0.13137862 26.41921688 -0.17924558 30.39160156 -0.22338867 C32.91503293 -0.23351614 35.43847139 -0.24203207 37.96191406 -0.2487793 C39.14960388 -0.26628738 40.3372937 -0.28379547 41.56097412 -0.30183411 C47.91029806 -0.28516342 51.98482784 -0.23573519 56.72753906 4.17700195 C62.7923284 11.32106548 62.40795929 22.75539597 63.51513672 31.70141602 C63.68261311 33.03307865 63.85040268 34.36470194 64.01847839 35.69628906 C64.4701276 39.28233814 64.91716529 42.86894756 65.36312151 46.4557085 C65.83201152 50.22211367 66.3045312 53.98806383 66.77645874 57.75408936 C67.56749402 64.07148874 68.35543252 70.38926872 69.14160156 76.70727539 C70.04943683 84.00266336 70.96261017 91.29736861 71.87853014 98.59174562 C72.66685027 104.87105544 73.45228464 111.15072134 74.2353195 117.43069243 C74.70213266 121.17453127 75.16993088 124.91823971 75.6403389 128.66162872 C76.08200293 132.17757305 76.52003455 135.69395151 76.95530128 139.21069336 C77.19138568 141.11104448 77.43109171 143.01094458 77.6709137 144.91082764 C77.811064 146.04894897 77.95121429 147.18707031 78.09561157 148.35968018 C78.21837778 149.344072 78.34114399 150.32846382 78.46763039 151.3426857 C78.73665602 154.27642285 78.72753906 157.23095571 78.72753906 160.17700195 C41.76753906 160.17700195 4.80753906 160.17700195 -33.27246094 160.17700195 C-32.60359972 150.81294487 -31.81081594 141.58840244 -30.64599609 132.2902832 C-30.48485825 130.98114456 -30.3237204 129.67200592 -30.15769958 128.32319641 C-29.72118904 124.77988126 -29.27991486 121.2371769 -28.83706713 117.69464874 C-28.5598083 115.47577589 -28.28342843 113.25679519 -28.00730515 111.03778076 C-27.14091014 104.07700016 -26.27161469 97.11659141 -25.39795172 90.15671921 C-24.39316675 82.15217254 -23.39811959 74.14649365 -22.41136515 66.1397047 C-21.64459712 59.92268273 -20.86933382 53.70675698 -20.08761632 47.49159718 C-19.6222298 43.79000409 -19.16039341 40.0880522 -18.70741653 36.38491821 C-18.20311469 32.26453078 -17.6812157 28.14655665 -17.15771484 24.02856445 C-17.01110916 22.80978104 -16.86450348 21.59099762 -16.7134552 20.33528137 C-15.07619827 7.70720394 -15.07619827 7.70720394 -9.70996094 2.86450195 C-6.145317 0.39667153 -4.30531738 0.04359008 0 0 Z " fill="#FEC178" transform="translate(213.2724609375,101.822998046875)"/>
<path d="M0 0 C1.65246735 -0.01925285 1.65246735 -0.01925285 3.33831787 -0.03889465 C4.53410461 -0.04628159 5.72989136 -0.05366852 6.96191406 -0.0612793 C8.18783264 -0.06935104 9.41375122 -0.07742279 10.67681885 -0.08573914 C13.27606792 -0.09959042 15.87533527 -0.11030788 18.47460938 -0.11816406 C22.44721978 -0.13137862 26.41921688 -0.17924558 30.39160156 -0.22338867 C32.91503293 -0.23351614 35.43847139 -0.24203207 37.96191406 -0.2487793 C39.14960388 -0.26628738 40.3372937 -0.28379547 41.56097412 -0.30183411 C47.91029806 -0.28516342 51.98482784 -0.23573519 56.72753906 4.17700195 C62.7923284 11.32106548 62.40795929 22.75539597 63.51513672 31.70141602 C63.68261311 33.03307865 63.85040268 34.36470194 64.01847839 35.69628906 C64.4701276 39.28233814 64.91716529 42.86894756 65.36312151 46.4557085 C65.83201152 50.22211367 66.3045312 53.98806383 66.77645874 57.75408936 C67.56749402 64.07148874 68.35543252 70.38926872 69.14160156 76.70727539 C70.04943683 84.00266336 70.96261017 91.29736861 71.87853014 98.59174562 C72.66685027 104.87105544 73.45228464 111.15072134 74.2353195 117.43069243 C74.70213266 121.17453127 75.16993088 124.91823971 75.6403389 128.66162872 C76.08200293 132.17757305 76.52003455 135.69395151 76.95530128 139.21069336 C77.19138568 141.11104448 77.43109171 143.01094458 77.6709137 144.91082764 C77.811064 146.04894897 77.95121429 147.18707031 78.09561157 148.35968018 C78.21837778 149.344072 78.34114399 150.32846382 78.46763039 151.3426857 C78.73665602 154.27642285 78.72753906 157.23095571 78.72753906 160.17700195 C41.76753906 160.17700195 4.80753906 160.17700195 -33.27246094 160.17700195 C-32.60359972 150.81294487 -31.81081594 141.58840244 -30.64599609 132.2902832 C-30.48485825 130.98114456 -30.3237204 129.67200592 -30.15769958 128.32319641 C-29.72118904 124.77988126 -29.27991486 121.2371769 -28.83706713 117.69464874 C-28.5598083 115.47577589 -28.28342843 113.25679519 -28.00730515 111.03778076 C-27.14091014 104.07700016 -26.27161469 97.11659141 -25.39795172 90.15671921 C-24.39316675 82.15217254 -23.39811959 74.14649365 -22.41136515 66.1397047 C-21.64459712 59.92268273 -20.86933382 53.70675698 -20.08761632 47.49159718 C-19.6222298 43.79000409 -19.16039341 40.0880522 -18.70741653 36.38491821 C-18.20311469 32.26453078 -17.6812157 28.14655665 -17.15771484 24.02856445 C-17.01110916 22.80978104 -16.86450348 21.59099762 -16.7134552 20.33528137 C-15.07619827 7.70720394 -15.07619827 7.70720394 -9.70996094 2.86450195 C-6.145317 0.39667153 -4.30531738 0.04359008 0 0 Z " fill="#FEC178" transform="translate(73.2724609375,101.822998046875)"/>
<path d="M0 0 C0.73434548 -0.00048214 1.46869097 -0.00096428 2.22528934 -0.00146103 C4.57851943 0.00150052 6.93044701 0.03184542 9.28344727 0.06347656 C10.74572134 0.06936526 12.20800387 0.07344131 13.67028809 0.07568359 C19.063606 0.09656769 24.45674286 0.15241296 29.84985352 0.20410156 C47.94829102 0.32785156 47.94829102 0.32785156 66.41235352 0.45410156 C66.41235352 43.35410156 66.41235352 86.25410156 66.41235352 130.45410156 C38.36235352 130.45410156 10.31235352 130.45410156 -18.58764648 130.45410156 C-18.74830116 100.99628211 -18.74830116 100.99628211 -18.78866196 86.43804073 C-18.81082137 78.56674987 -18.83894724 70.69562869 -18.8894043 62.82446289 C-18.92933634 56.59218826 -18.95509446 50.36004171 -18.96400046 44.12764269 C-18.96920459 40.82908832 -18.98350545 37.53098468 -19.01056671 34.23252678 C-19.03961102 30.54566618 -19.04360187 26.85956405 -19.04174805 23.17260742 C-19.05612915 22.08503647 -19.07051025 20.99746552 -19.08532715 19.87693787 C-19.0507879 13.5270298 -18.60595816 9.48732428 -14.58764648 4.45410156 C-10.03674815 0.66952889 -5.91051145 -0.04041375 0 0 Z " fill="#F5F8F8" transform="translate(99.587646484375,381.5458984375)"/>
<path d="M0 0 C1.05701111 -0.0071553 2.11402222 -0.01431061 3.20306396 -0.02168274 C4.35744965 -0.02437164 5.51183533 -0.02706055 6.70120239 -0.02983093 C7.92109863 -0.03640213 9.14099487 -0.04297333 10.39785767 -0.04974365 C14.43793993 -0.06946792 18.47798255 -0.08113899 22.51809692 -0.09111023 C23.91097152 -0.09515934 25.30384592 -0.09927631 26.69672012 -0.10346031 C33.23956654 -0.12249799 39.78240176 -0.13673369 46.32527053 -0.14507228 C53.87103022 -0.15484884 61.41649689 -0.1811849 68.96215332 -0.22157317 C74.80007387 -0.25174613 80.63791044 -0.26654214 86.47590744 -0.26985329 C89.96043871 -0.27220185 93.44465641 -0.28113684 96.92910385 -0.30631447 C100.81677361 -0.33395389 104.70405813 -0.32976042 108.59182739 -0.32279968 C109.74216461 -0.33560974 110.89250183 -0.3484198 112.07769775 -0.36161804 C118.28334045 -0.3210677 122.08732442 -0.0740143 126.77590942 4.14717102 C130.83221341 9.36976959 130.54988486 14.80057244 129.77590942 21.14717102 C127.6057855 25.72854374 125.36746922 28.08035569 120.77590942 30.14717102 C117.07567006 30.59641341 113.39459442 30.56395023 109.67092896 30.54780579 C108.55002869 30.55478485 107.42912842 30.56176392 106.27426147 30.56895447 C102.56900534 30.58894908 98.86402725 30.58843111 95.15872192 30.58857727 C92.58188118 30.60034803 90.00504726 30.61371151 87.42822266 30.62860107 C79.94703089 30.66852357 72.46589275 30.68816592 64.98461914 30.70477295 C54.82248717 30.72866056 44.66048773 30.76833289 34.49847031 30.82205009 C30.70787175 30.83836572 26.91739935 30.84215597 23.12677002 30.84506226 C20.79773746 30.85484077 18.46870688 30.8651044 16.13967896 30.87593079 C15.08801544 30.87337784 14.03635193 30.87082489 12.95281982 30.86819458 C6.19062139 30.91538436 0.48483146 31.04023166 -5.03659058 35.33467102 C-9.61275664 41.2183131 -9.56051846 48.1133304 -9.61471558 55.27412415 C-9.79042288 60.35499374 -10.95239848 63.27398227 -14.22409058 67.14717102 C-19.44668915 71.203475 -24.877492 70.92114646 -31.22409058 70.14717102 C-35.84372808 67.95892168 -37.94028645 65.64675107 -40.22409058 61.14717102 C-40.85765224 57.00102559 -40.74735009 52.83712219 -40.72409058 48.64717102 C-40.71837036 47.47549377 -40.71265015 46.30381653 -40.70675659 45.09663391 C-40.41721531 31.08849044 -36.29875671 21.68039844 -26.64205933 11.47529602 C-19.50044528 4.73333434 -9.84723071 0.04585653 0 0 Z " fill="#E2DFF4" transform="translate(261.2240905761719,-0.1471710205078125)"/>
<path d="M0 0 C14.52 0 29.04 0 44 0 C46.12576689 16.50700331 46.12576689 16.50700331 47.05273438 23.7109375 C47.67772868 28.56806606 48.30280456 33.42518399 48.9284668 38.28222656 C50.01914454 46.74994185 51.10765957 55.21792614 52.1908741 63.68659973 C52.77698205 68.26690374 53.36862826 72.84646329 53.96240234 77.42578125 C54.23946611 79.58591079 54.5163373 81.74606505 54.79296875 83.90625 C54.98056511 85.33729065 54.98056511 85.33729065 55.17195129 86.79724121 C55.28302719 87.67174927 55.39410309 88.54625732 55.50854492 89.44726562 C55.60439377 90.18900024 55.70024261 90.93073486 55.79899597 91.69494629 C56.03955801 94.4536394 56 97.23083808 56 100 C37.52 100 19.04 100 0 100 C0 67 0 34 0 0 Z " fill="#FE9D21" transform="translate(416,202)"/>
<path d="M0 0 C14.52 0 29.04 0 44 0 C46.12576689 16.50700331 46.12576689 16.50700331 47.05273438 23.7109375 C47.67772868 28.56806606 48.30280456 33.42518399 48.9284668 38.28222656 C50.01914454 46.74994185 51.10765957 55.21792614 52.1908741 63.68659973 C52.77698205 68.26690374 53.36862826 72.84646329 53.96240234 77.42578125 C54.23946611 79.58591079 54.5163373 81.74606505 54.79296875 83.90625 C54.98056511 85.33729065 54.98056511 85.33729065 55.17195129 86.79724121 C55.28302719 87.67174927 55.39410309 88.54625732 55.50854492 89.44726562 C55.60439377 90.18900024 55.70024261 90.93073486 55.79899597 91.69494629 C56.03955801 94.4536394 56 97.23083808 56 100 C37.52 100 19.04 100 0 100 C0 67 0 34 0 0 Z " fill="#FE9D21" transform="translate(236,162)"/>
<path d="M0 0 C14.52 0 29.04 0 44 0 C46.12576689 16.50700331 46.12576689 16.50700331 47.05273438 23.7109375 C47.67772868 28.56806606 48.30280456 33.42518399 48.9284668 38.28222656 C50.01914454 46.74994185 51.10765957 55.21792614 52.1908741 63.68659973 C52.77698205 68.26690374 53.36862826 72.84646329 53.96240234 77.42578125 C54.23946611 79.58591079 54.5163373 81.74606505 54.79296875 83.90625 C54.98056511 85.33729065 54.98056511 85.33729065 55.17195129 86.79724121 C55.28302719 87.67174927 55.39410309 88.54625732 55.50854492 89.44726562 C55.60439377 90.18900024 55.70024261 90.93073486 55.79899597 91.69494629 C56.03955801 94.4536394 56 97.23083808 56 100 C37.52 100 19.04 100 0 100 C0 67 0 34 0 0 Z " fill="#FE9D21" transform="translate(96,162)"/>
<path d="M0 0 C1.65246735 -0.01925285 1.65246735 -0.01925285 3.33831787 -0.03889465 C4.53410461 -0.04628159 5.72989136 -0.05366852 6.96191406 -0.0612793 C8.18783264 -0.06935104 9.41375122 -0.07742279 10.67681885 -0.08573914 C13.27606792 -0.09959042 15.87533527 -0.11030788 18.47460938 -0.11816406 C22.44721978 -0.13137862 26.41921688 -0.17924558 30.39160156 -0.22338867 C32.91503293 -0.23351614 35.43847139 -0.24203207 37.96191406 -0.2487793 C39.14960388 -0.26628738 40.3372937 -0.28379547 41.56097412 -0.30183411 C47.91029806 -0.28516342 51.98482784 -0.23573519 56.72753906 4.17700195 C66.02153566 16.56899741 65.94463462 53.60060467 66.72753906 60.17700195 C37.68753906 60.17700195 8.64753906 60.17700195 -21.27246094 60.17700195 C-20.34433594 52.21575195 -19.41621094 44.25450195 -18.45996094 36.05200195 C-18.17403076 33.54848145 -17.88810059 31.04496094 -17.59350586 28.46557617 C-17.3558719 26.47084087 -17.11740248 24.47620484 -16.87792969 22.48168945 C-16.76372681 21.45438721 -16.64952393 20.42708496 -16.53186035 19.36865234 C-15.7247212 12.76215815 -14.85922081 7.51139501 -9.70996094 2.86450195 C-6.145317 0.39667153 -4.30531738 0.04359008 0 0 Z " fill="#0A617D" transform="translate(393.2724609375,141.822998046875)"/>
<path d="M0 0 C1.65246735 -0.01925285 1.65246735 -0.01925285 3.33831787 -0.03889465 C4.53410461 -0.04628159 5.72989136 -0.05366852 6.96191406 -0.0612793 C8.18783264 -0.06935104 9.41375122 -0.07742279 10.67681885 -0.08573914 C13.27606792 -0.09959042 15.87533527 -0.11030788 18.47460938 -0.11816406 C22.44721978 -0.13137862 26.41921688 -0.17924558 30.39160156 -0.22338867 C32.91503293 -0.23351614 35.43847139 -0.24203207 37.96191406 -0.2487793 C39.14960388 -0.26628738 40.3372937 -0.28379547 41.56097412 -0.30183411 C47.91029806 -0.28516342 51.98482784 -0.23573519 56.72753906 4.17700195 C66.02153566 16.56899741 65.94463462 53.60060467 66.72753906 60.17700195 C37.68753906 60.17700195 8.64753906 60.17700195 -21.27246094 60.17700195 C-20.34433594 52.21575195 -19.41621094 44.25450195 -18.45996094 36.05200195 C-18.17403076 33.54848145 -17.88810059 31.04496094 -17.59350586 28.46557617 C-17.3558719 26.47084087 -17.11740248 24.47620484 -16.87792969 22.48168945 C-16.76372681 21.45438721 -16.64952393 20.42708496 -16.53186035 19.36865234 C-15.7247212 12.76215815 -14.85922081 7.51139501 -9.70996094 2.86450195 C-6.145317 0.39667153 -4.30531738 0.04359008 0 0 Z " fill="#0A617D" transform="translate(213.2724609375,101.822998046875)"/>
<path d="M0 0 C1.65246735 -0.01925285 1.65246735 -0.01925285 3.33831787 -0.03889465 C4.53410461 -0.04628159 5.72989136 -0.05366852 6.96191406 -0.0612793 C8.18783264 -0.06935104 9.41375122 -0.07742279 10.67681885 -0.08573914 C13.27606792 -0.09959042 15.87533527 -0.11030788 18.47460938 -0.11816406 C22.44721978 -0.13137862 26.41921688 -0.17924558 30.39160156 -0.22338867 C32.91503293 -0.23351614 35.43847139 -0.24203207 37.96191406 -0.2487793 C39.14960388 -0.26628738 40.3372937 -0.28379547 41.56097412 -0.30183411 C47.91029806 -0.28516342 51.98482784 -0.23573519 56.72753906 4.17700195 C66.02153566 16.56899741 65.94463462 53.60060467 66.72753906 60.17700195 C37.68753906 60.17700195 8.64753906 60.17700195 -21.27246094 60.17700195 C-20.34433594 52.21575195 -19.41621094 44.25450195 -18.45996094 36.05200195 C-18.17403076 33.54848145 -17.88810059 31.04496094 -17.59350586 28.46557617 C-17.3558719 26.47084087 -17.11740248 24.47620484 -16.87792969 22.48168945 C-16.76372681 21.45438721 -16.64952393 20.42708496 -16.53186035 19.36865234 C-15.7247212 12.76215815 -14.85922081 7.51139501 -9.70996094 2.86450195 C-6.145317 0.39667153 -4.30531738 0.04359008 0 0 Z " fill="#0A617D" transform="translate(73.2724609375,101.822998046875)"/>
<path d="M0 0 C1.30170135 -0.01283524 2.60340271 -0.02567047 3.94454956 -0.03889465 C5.3629315 -0.04706185 6.78131776 -0.05450562 8.19970703 -0.0612793 C9.27519491 -0.06739259 9.27519491 -0.06739259 10.37240982 -0.07362938 C14.16591347 -0.09445147 17.95938134 -0.10877105 21.75292969 -0.11816406 C25.66253808 -0.12923397 29.5715782 -0.16365086 33.48098564 -0.20333576 C36.49566684 -0.22952221 39.51021279 -0.23785753 42.52499771 -0.24144554 C43.96586073 -0.24630455 45.40671798 -0.25789911 46.84746933 -0.27648354 C48.86692254 -0.30091847 50.88665402 -0.29748591 52.90625 -0.29296875 C54.05334442 -0.29883499 55.20043884 -0.30470123 56.3822937 -0.31074524 C61.25288848 0.43158329 64.43469144 2.69914295 67.43017578 6.5559082 C69.51820635 11.30529298 69.2017291 16.09948347 68.58251953 21.17700195 C66.39482712 25.79546372 64.08174372 27.89404423 59.58251953 30.17700195 C56.90237427 30.56227112 56.90237427 30.56227112 53.98535156 30.57763672 C52.33806564 30.59764488 52.33806564 30.59764488 50.65750122 30.61805725 C48.89175247 30.61823097 48.89175247 30.61823097 47.09033203 30.6184082 C45.87102997 30.63161606 44.65172791 30.64482391 43.39547729 30.65843201 C39.49946824 30.69931688 35.6036945 30.72098995 31.70751953 30.73950195 C27.81855823 30.76332371 23.92981746 30.79152106 20.04098511 30.83128357 C17.62254505 30.85554515 15.20398864 30.87048116 12.78543091 30.87489319 C2.62712809 30.89225847 2.62712809 30.89225847 -6.22998047 35.36450195 C-10.80614653 41.24814404 -10.75390835 48.14316134 -10.80810547 55.30395508 C-10.98381277 60.38482467 -12.14578837 63.3038132 -15.41748047 67.17700195 C-20.64007904 71.23330594 -26.07088189 70.95097739 -32.41748047 70.17700195 C-37.03711797 67.98875261 -39.13367634 65.676582 -41.41748047 61.17700195 C-42.05104214 57.03085652 -41.94073998 52.86695313 -41.91748047 48.67700195 C-41.91176025 47.50532471 -41.90604004 46.33364746 -41.90014648 45.12646484 C-41.61060521 31.11832137 -37.49214661 21.71022938 -27.83544922 11.50512695 C-20.1947367 4.29199688 -10.41756998 0.08952635 0 0 Z " fill="#E2DFF4" transform="translate(442.41748046875,41.822998046875)"/>
<path d="M0 0 C1.30170135 -0.01283524 2.60340271 -0.02567047 3.94454956 -0.03889465 C5.3629315 -0.04706185 6.78131776 -0.05450562 8.19970703 -0.0612793 C9.27519491 -0.06739259 9.27519491 -0.06739259 10.37240982 -0.07362938 C14.16591347 -0.09445147 17.95938134 -0.10877105 21.75292969 -0.11816406 C25.66253808 -0.12923397 29.5715782 -0.16365086 33.48098564 -0.20333576 C36.49566684 -0.22952221 39.51021279 -0.23785753 42.52499771 -0.24144554 C43.96586073 -0.24630455 45.40671798 -0.25789911 46.84746933 -0.27648354 C48.86692254 -0.30091847 50.88665402 -0.29748591 52.90625 -0.29296875 C54.05334442 -0.29883499 55.20043884 -0.30470123 56.3822937 -0.31074524 C61.25288848 0.43158329 64.43469144 2.69914295 67.43017578 6.5559082 C69.51820635 11.30529298 69.2017291 16.09948347 68.58251953 21.17700195 C66.39482712 25.79546372 64.08174372 27.89404423 59.58251953 30.17700195 C56.90237427 30.56227112 56.90237427 30.56227112 53.98535156 30.57763672 C52.33806564 30.59764488 52.33806564 30.59764488 50.65750122 30.61805725 C48.89175247 30.61823097 48.89175247 30.61823097 47.09033203 30.6184082 C45.87102997 30.63161606 44.65172791 30.64482391 43.39547729 30.65843201 C39.49946824 30.69931688 35.6036945 30.72098995 31.70751953 30.73950195 C27.81855823 30.76332371 23.92981746 30.79152106 20.04098511 30.83128357 C17.62254505 30.85554515 15.20398864 30.87048116 12.78543091 30.87489319 C2.62712809 30.89225847 2.62712809 30.89225847 -6.22998047 35.36450195 C-10.80614653 41.24814404 -10.75390835 48.14316134 -10.80810547 55.30395508 C-10.98381277 60.38482467 -12.14578837 63.3038132 -15.41748047 67.17700195 C-20.64007904 71.23330594 -26.07088189 70.95097739 -32.41748047 70.17700195 C-37.03711797 67.98875261 -39.13367634 65.676582 -41.41748047 61.17700195 C-42.05104214 57.03085652 -41.94073998 52.86695313 -41.91748047 48.67700195 C-41.91176025 47.50532471 -41.90604004 46.33364746 -41.90014648 45.12646484 C-41.61060521 31.11832137 -37.49214661 21.71022938 -27.83544922 11.50512695 C-20.1947367 4.29199688 -10.41756998 0.08952635 0 0 Z " fill="#E2DFF4" transform="translate(122.41748046875,-0.177001953125)"/>
<path d="M0 0 C13.2 0 26.4 0 40 0 C40 33 40 66 40 100 C26.8 100 13.6 100 0 100 C0 67 0 34 0 0 Z " fill="#FF9D21" transform="translate(181,412)"/>
<path d="M0 0 C13.2 0 26.4 0 40 0 C40 33 40 66 40 100 C26.8 100 13.6 100 0 100 C0 67 0 34 0 0 Z " fill="#FFC178" transform="translate(111,412)"/>
<path d="M0 0 C0 19.8 0 39.6 0 60 C-14.52 60 -29.04 60 -44 60 C-43.21084654 53.13002325 -42.41489902 46.26155662 -41.60131836 39.39453125 C-41.3267581 37.05939218 -41.05621036 34.72377763 -40.78979492 32.38769531 C-40.40562951 29.02535368 -40.00695442 25.66499949 -39.60546875 22.3046875 C-39.48970993 21.26384003 -39.37395111 20.22299255 -39.25468445 19.15060425 C-38.44859832 12.55817317 -37.57475926 7.32356324 -32.4375 2.6875 C-21.9168525 -4.59602519 -20.62823771 0 0 0 Z " fill="#0D8EBB" transform="translate(416,142)"/>
<path d="M0 0 C0 19.8 0 39.6 0 60 C-14.52 60 -29.04 60 -44 60 C-43.21084654 53.13002325 -42.41489902 46.26155662 -41.60131836 39.39453125 C-41.3267581 37.05939218 -41.05621036 34.72377763 -40.78979492 32.38769531 C-40.40562951 29.02535368 -40.00695442 25.66499949 -39.60546875 22.3046875 C-39.48970993 21.26384003 -39.37395111 20.22299255 -39.25468445 19.15060425 C-38.44859832 12.55817317 -37.57475926 7.32356324 -32.4375 2.6875 C-21.9168525 -4.59602519 -20.62823771 0 0 0 Z " fill="#0D8EBB" transform="translate(236,102)"/>
<path d="M0 0 C0 19.8 0 39.6 0 60 C-14.52 60 -29.04 60 -44 60 C-43.21084654 53.13002325 -42.41489902 46.26155662 -41.60131836 39.39453125 C-41.3267581 37.05939218 -41.05621036 34.72377763 -40.78979492 32.38769531 C-40.40562951 29.02535368 -40.00695442 25.66499949 -39.60546875 22.3046875 C-39.48970993 21.26384003 -39.37395111 20.22299255 -39.25468445 19.15060425 C-38.44859832 12.55817317 -37.57475926 7.32356324 -32.4375 2.6875 C-21.9168525 -4.59602519 -20.62823771 0 0 0 Z " fill="#0D8EBB" transform="translate(96,102)"/>
<path d="M0 0 C4.36492736 2.40706674 5.93942071 4.83284673 7.8125 9.4375 C8.54520346 14.47483626 7.62027557 18.24512573 5.20703125 22.63671875 C1.89427009 26.91454198 -2.56531496 28.20982491 -7.75 28.9375 C-11.90567414 28.33303831 -15.0494453 27.21048398 -18.1875 24.4375 C-21.62339266 19.77883377 -23.03044428 15.23274192 -22.1875 9.4375 C-20.42898855 4.50534364 -17.74068059 1.40845153 -13.0390625 -0.90234375 C-8.34602817 -2.57559861 -4.45447532 -1.90552555 0 0 Z " fill="#FAC079" transform="translate(393.1875,423.5625)"/>
<path d="M0 0 C4.36492736 2.40706674 5.93942071 4.83284673 7.8125 9.4375 C8.54520346 14.47483626 7.62027557 18.24512573 5.20703125 22.63671875 C1.89427009 26.91454198 -2.56531496 28.20982491 -7.75 28.9375 C-11.90567414 28.33303831 -15.0494453 27.21048398 -18.1875 24.4375 C-21.62339266 19.77883377 -23.03044428 15.23274192 -22.1875 9.4375 C-20.42898855 4.50534364 -17.74068059 1.40845153 -13.0390625 -0.90234375 C-8.34602817 -2.57559861 -4.45447532 -1.90552555 0 0 Z " fill="#FAC079" transform="translate(393.1875,363.5625)"/>
<path d="M0 0 C4.36492736 2.40706674 5.93942071 4.83284673 7.8125 9.4375 C8.54520346 14.47483626 7.62027557 18.24512573 5.20703125 22.63671875 C1.89427009 26.91454198 -2.56531496 28.20982491 -7.75 28.9375 C-11.90567414 28.33303831 -15.0494453 27.21048398 -18.1875 24.4375 C-21.62339266 19.77883377 -23.03044428 15.23274192 -22.1875 9.4375 C-20.42898855 4.50534364 -17.74068059 1.40845153 -13.0390625 -0.90234375 C-8.34602817 -2.57559861 -4.45447532 -1.90552555 0 0 Z " fill="#FAC079" transform="translate(143.1875,323.5625)"/>
<path d="M0 0 C4.36492736 2.40706674 5.93942071 4.83284673 7.8125 9.4375 C8.54520346 14.47483626 7.62027557 18.24512573 5.20703125 22.63671875 C1.89427009 26.91454198 -2.56531496 28.20982491 -7.75 28.9375 C-11.90567414 28.33303831 -15.0494453 27.21048398 -18.1875 24.4375 C-21.62339266 19.77883377 -23.03044428 15.23274192 -22.1875 9.4375 C-20.42898855 4.50534364 -17.74068059 1.40845153 -13.0390625 -0.90234375 C-8.34602817 -2.57559861 -4.45447532 -1.90552555 0 0 Z " fill="#FAC079" transform="translate(83.1875,323.5625)"/>
<path d="M0 0 C4.36492736 2.40706674 5.93942071 4.83284673 7.8125 9.4375 C8.54520346 14.47483626 7.62027557 18.24512573 5.20703125 22.63671875 C1.9113554 26.89247944 -2.54684459 28.17382324 -7.6875 29 C-12.37661747 28.24639184 -15.64727219 26.60297396 -19.1875 23.4375 C-21.97287223 18.73718437 -22.86540686 14.86075487 -22.1875 9.4375 C-20.44294414 4.504976 -17.73316107 1.40475576 -13.0390625 -0.90234375 C-8.34602817 -2.57559861 -4.45447532 -1.90552555 0 0 Z " fill="#FA9B22" transform="translate(453.1875,423.5625)"/>
<path d="M0 0 C4.36492736 2.40706674 5.93942071 4.83284673 7.8125 9.4375 C8.54520346 14.47483626 7.62027557 18.24512573 5.20703125 22.63671875 C1.9113554 26.89247944 -2.54684459 28.17382324 -7.6875 29 C-12.37661747 28.24639184 -15.64727219 26.60297396 -19.1875 23.4375 C-21.97287223 18.73718437 -22.86540686 14.86075487 -22.1875 9.4375 C-20.44294414 4.504976 -17.73316107 1.40475576 -13.0390625 -0.90234375 C-8.34602817 -2.57559861 -4.45447532 -1.90552555 0 0 Z " fill="#FA9B22" transform="translate(453.1875,363.5625)"/>
<path d="M0 0 C4.36492736 2.40706674 5.93942071 4.83284673 7.8125 9.4375 C8.54520346 14.47483626 7.62027557 18.24512573 5.20703125 22.63671875 C1.9113554 26.89247944 -2.54684459 28.17382324 -7.6875 29 C-12.37661747 28.24639184 -15.64727219 26.60297396 -19.1875 23.4375 C-21.97287223 18.73718437 -22.86540686 14.86075487 -22.1875 9.4375 C-20.44294414 4.504976 -17.73316107 1.40475576 -13.0390625 -0.90234375 C-8.34602817 -2.57559861 -4.45447532 -1.90552555 0 0 Z " fill="#FA9B22" transform="translate(263.1875,323.5625)"/>
<path d="M0 0 C4.36492736 2.40706674 5.93942071 4.83284673 7.8125 9.4375 C8.54520346 14.47483626 7.62027557 18.24512573 5.20703125 22.63671875 C1.9113554 26.89247944 -2.54684459 28.17382324 -7.6875 29 C-12.37661747 28.24639184 -15.64727219 26.60297396 -19.1875 23.4375 C-21.97287223 18.73718437 -22.86540686 14.86075487 -22.1875 9.4375 C-20.44294414 4.504976 -17.73316107 1.40475576 -13.0390625 -0.90234375 C-8.34602817 -2.57559861 -4.45447532 -1.90552555 0 0 Z " fill="#FA9B22" transform="translate(203.1875,323.5625)"/>
</svg>
