<?xml version="1.0" encoding="UTF-8"?>
<svg version="1.1" xmlns="http://www.w3.org/2000/svg" width="80" height="80">
<path d="M0 0 C3.63 0 7.26 0 11 0 C10.40241829 6.68722395 8.19854074 12.64641773 5.9375 18.9375 C5.56044922 20.00291016 5.18339844 21.06832031 4.79492188 22.16601562 C3.86909973 24.7794123 2.93534061 27.38999487 2 30 C5.96 30 9.92 30 14 30 C13.87625 28.06125 13.7525 26.1225 13.625 24.125 C13.64825496 17.00123049 15.25379985 12.33345819 20 7 C28.02493114 0.4133731 34.85625467 -0.91209895 45.01464844 -0.26074219 C50.94637868 0.51828977 55.18300421 3.80617347 58.90234375 8.296875 C64.24415611 15.98908481 64.85400792 22.71514645 64 32 C61.88387125 39.42622754 57.68664236 44.25142777 51 48 C44.3681763 51.22689408 36.08134503 51.25832353 29.0859375 49.1015625 C26.625 48 26.625 48 23 46 C21.02 50.62 19.04 55.24 17 60 C20.63 60 24.26 60 28 60 C26.90844451 64.36622197 26.46274042 64.81283675 23.0703125 67.3828125 C22.27496094 67.99253906 21.47960938 68.60226563 20.66015625 69.23046875 C19.40525391 70.16826172 19.40525391 70.16826172 18.125 71.125 C17.29613281 71.75792969 16.46726563 72.39085938 15.61328125 73.04296875 C6.48331833 79.99000031 6.48331833 79.99000031 3.734375 80.046875 C-0.42253724 78.45537146 -2.81182818 75.51170086 -5.75 72.25 C-6.33910156 71.62867187 -6.92820312 71.00734375 -7.53515625 70.3671875 C-10.97618007 66.6176581 -11.93847287 65.30763566 -13 60 C-7.06 59.505 -7.06 59.505 -1 59 C0.98 54.05 2.96 49.1 5 44 C-1.93 44 -8.86 44 -16 44 C-14.875 35 -14.875 35 -13.50952148 31.78710938 C-13.20928574 31.06696655 -12.90904999 30.34682373 -12.59971619 29.6048584 C-12.27677078 28.85869263 -11.95382538 28.11252686 -11.62109375 27.34375 C-11.28956802 26.55601196 -10.9580423 25.76827393 -10.61647034 24.95666504 C-9.56616731 22.4670258 -8.50211812 19.98354655 -7.4375 17.5 C-6.71848065 15.80247289 -6.00037254 14.1045595 -5.28320312 12.40625 C-3.53263759 8.26629344 -1.76972808 4.13179923 0 0 Z M4 4 C0.18453015 11.35363773 -3.14697582 18.84646598 -6.3125 26.5 C-6.76689453 27.5828125 -7.22128906 28.665625 -7.68945312 29.78125 C-8.11806641 30.8125 -8.54667969 31.84375 -8.98828125 32.90625 C-9.37540283 33.83759766 -9.76252441 34.76894531 -10.16137695 35.72851562 C-11.11544847 37.90914422 -11.11544847 37.90914422 -11 40 C-3.74 40 3.52 40 11 40 C10.071875 42.495625 9.14375 44.99125 8.1875 47.5625 C7.90156982 48.33408447 7.61563965 49.10566895 7.32104492 49.90063477 C6.81896222 51.24483229 6.30988264 52.58642723 5.7956543 53.92602539 C5.26957042 55.29733024 4.75771513 56.67418748 4.26098633 58.05639648 C3.53125 59.96875 3.53125 59.96875 2 63 C-1.6875 63.9375 -1.6875 63.9375 -5 64 C-2.58662205 68.82675589 0.86062408 71.69984002 5 75 C7.16959299 73.35790421 9.33572532 71.71157832 11.5 70.0625 C12.12003906 69.59392578 12.74007813 69.12535156 13.37890625 68.64257812 C14.93766786 67.45209536 16.47109164 66.22858708 18 65 C18 64.67 18 64.34 18 64 C16.35 63.67 14.7 63.34 13 63 C13.74727813 57.23900696 15.77419757 52.43289022 18.0390625 47.12109375 C19.40025697 42.69997836 18.5384883 40.4586637 16.98046875 36.23828125 C14.72597611 33.69030436 14.22553816 33.62083825 10.98828125 33.29296875 C9.4304331 33.23330648 7.87144771 33.19900987 6.3125 33.1875 C5.51521484 33.16236328 4.71792969 33.13722656 3.89648438 33.11132812 C1.9315198 33.05249685 -0.03429391 33.02337596 -2 33 C-1.35856108 26.55850777 0.54745269 20.69542617 2.5625 14.5625 C2.89185547 13.54478516 3.22121094 12.52707031 3.56054688 11.47851562 C4.36863532 8.98398174 5.18190128 6.49126517 6 4 C5.34 4 4.68 4 4 4 Z M22.625 11.4375 C18.05453249 17.32446087 17.11013189 22.62197959 18 30 C20.11850971 37.19278446 25.01831044 41.63250891 31.3125 45.375 C37.98945732 46.92778077 44.15256415 46.77652208 50.1796875 43.3359375 C54.68471935 40.02966949 58.716612 35.51856841 60 30 C60.7611818 23.14936381 60.14071327 17.64202451 56 12 C51.04843735 6.71989765 46.48006379 3.98073482 39.1875 3.625 C32.13862118 3.80305489 27.33184345 6.23041231 22.625 11.4375 Z " fill="#16301F" transform="translate(16,0)"/>
<path d="M0 0 C9.9 0 19.8 0 30 0 C30 1.32 30 2.64 30 4 C20.1 4 10.2 4 0 4 C0 2.68 0 1.36 0 0 Z " fill="#16301F" transform="translate(40,23)"/>
</svg>
