<?xml version="1.0" encoding="UTF-8"?>
<svg version="1.1" xmlns="http://www.w3.org/2000/svg" width="40" height="40">
<path d="M0 0 C0.99 0 1.98 0 3 0 C4.75328507 3.02840149 5.25093193 5.19874367 5.1875 8.6875 C5.18105469 9.47511719 5.17460938 10.26273438 5.16796875 11.07421875 C5 13 5 13 4 14 C3.76340471 17.18089225 3.60374385 20.35409437 3.48242188 23.54101562 C3.21328125 28.78671875 3.21328125 28.78671875 1 31 C-2.5625 30.75 -2.5625 30.75 -6 30 C-7.4783226 27.04335481 -7.06032783 24.25770263 -7 21 C-8.32 21 -9.64 21 -11 21 C-11 25.62 -11 30.24 -11 35 C-10.34 35 -9.68 35 -9 35 C-9 35.99 -9 36.98 -9 38 C-17.58 38 -26.16 38 -35 38 C-35 37.01 -35 36.02 -35 35 C-34.34 35 -33.68 35 -33 35 C-33.01571045 33.94087402 -33.01571045 33.94087402 -33.03173828 32.86035156 C-33.0733479 29.65693734 -33.09934204 26.45358004 -33.125 23.25 C-33.14175781 22.13882812 -33.15851562 21.02765625 -33.17578125 19.8828125 C-33.18222656 18.81289063 -33.18867187 17.74296875 -33.1953125 16.640625 C-33.20578613 15.65610352 -33.21625977 14.67158203 -33.22705078 13.65722656 C-32.99033578 10.88689744 -32.5099866 9.3160407 -31 7 C-26.70418968 3.96150002 -23.18866165 3.50995461 -18.125 4.296875 C-14.25781767 5.57645739 -13.04675195 7.50071441 -11 11 C-10.6875 14.375 -10.6875 14.375 -11 17 C-10.05125 17.103125 -9.1025 17.20625 -8.125 17.3125 C-5 18 -5 18 -3 21 C-2.92094936 23.33199388 -2.91201231 25.66832622 -3 28 C-2.34 27.67 -1.68 27.34 -1 27 C-0.52998967 23.72444392 -0.52998967 23.72444392 -0.375 19.9375 C-0.30023438 18.64714844 -0.22546875 17.35679688 -0.1484375 16.02734375 C-0.09945312 15.02832031 -0.05046875 14.02929688 0 13 C-0.66 13 -1.32 13 -2 13 C-3.19876651 7.55106131 -2.91360308 4.77830905 0 0 Z M1 7 C2 10 2 10 2 10 Z M-28.5 9.6875 C-30.45349259 12.23973697 -30.45349259 12.23973697 -30 17 C-24.72 17 -19.44 17 -14 17 C-14.55923679 11.52772393 -14.55923679 11.52772393 -16.0625 9.125 C-20.26635001 6.68405483 -24.64007153 7.08204829 -28.5 9.6875 Z M-30 21 C-30 25.62 -30 30.24 -30 35 C-24.72 35 -19.44 35 -14 35 C-14 30.38 -14 25.76 -14 21 C-19.28 21 -24.56 21 -30 21 Z " fill="#16301F" transform="translate(35,1)"/>
<path d="M0 0 C0.99 0.33 1.98 0.66 3 1 C4.125 6.75 4.125 6.75 3 9 C1.68 9 0.36 9 -1 9 C-1.625 6.1875 -1.625 6.1875 -2 3 C-1.34 2.01 -0.68 1.02 0 0 Z " fill="#162F1E" transform="translate(12,24)"/>
</svg>
