<?xml version="1.0" encoding="UTF-8"?>
<svg version="1.1" xmlns="http://www.w3.org/2000/svg" width="80" height="81">
<path d="M0 0 C11.47038683 -0.4069651 24.69940246 -0.86420157 35 5 C35.02686553 6.97909398 35.04633375 8.95828971 35.0625 10.9375 C35.07410156 12.03964844 35.08570313 13.14179687 35.09765625 14.27734375 C35 17 35 17 34 18 C31.46950598 18.07313567 28.96695163 18.09247527 26.4375 18.0625 C25.72658203 18.05798828 25.01566406 18.05347656 24.28320312 18.04882812 C22.52209987 18.03700864 20.76103964 18.01907263 19 18 C19.01804687 17.05769531 19.03609375 16.11539063 19.0546875 15.14453125 C19.00042754 12.02458347 18.70549691 10.55824536 17 8 C13.90826248 6.45413124 11.40570448 6.70640479 8 7 C5.47993156 8.43661311 5.47993156 8.43661311 4 11 C3.19234122 14.64721696 3.19234122 14.64721696 3 18 C2.34 18 1.68 18 1 18 C-0.7291857 11.83977593 -2.09107044 6.27321131 0 0 Z " fill="#163020" transform="translate(4,57)"/>
<path d="M0 0 C0.82878662 0.00394775 1.65757324 0.00789551 2.51147461 0.01196289 C10.46838757 0.19593331 17.70514294 1.85257147 24.875 5.4375 C24.545 6.4275 24.215 7.4175 23.875 8.4375 C22.616875 8.14875 21.35875 7.86 20.0625 7.5625 C3.29965652 3.60307314 3.29965652 3.60307314 -13.125 7.4375 C-15.75629788 9.62080848 -15.75629788 9.62080848 -16.375 12.9375 C-16.20497567 15.56467443 -16.20497567 15.56467443 -15.125 18.4375 C-13.40044591 19.4867872 -13.40044591 19.4867872 -11.125 20.4375 C9.29025424 31.26800847 9.29025424 31.26800847 12.875 38.4375 C13.10833333 44.97083333 13.10833333 44.97083333 11.875 47.4375 C10.885 47.1075 9.895 46.7775 8.875 46.4375 C8.813125 45.385625 8.75125 44.33375 8.6875 43.25 C7.50791049 37.71500308 4.44664327 35.48190827 -0.17578125 32.41015625 C-1.25214844 31.77980469 -2.32851563 31.14945313 -3.4375 30.5 C-19.0338922 21.15319466 -19.0338922 21.15319466 -21.125 15.4375 C-21.05454987 11.49229294 -20.5085056 9.08650947 -18.5 5.6875 C-13.04660029 0.52112133 -7.1884173 -0.0880452 0 0 Z " fill="#163020" transform="translate(24.125,5.5625)"/>
<path d="M0 0 C2.4375 1.25 2.4375 1.25 4.4375 4.25 C4.375 7.25 4.375 7.25 3.4375 10.25 C1.25 12.25 1.25 12.25 -1.5625 13.25 C-4.8125 12.5625 -4.8125 12.5625 -7.5625 11.25 C-8.96185013 8.45129973 -8.81515405 6.34501208 -8.5625 3.25 C-6.25855276 0.06835858 -3.89787719 -1.1408421 0 0 Z " fill="#163020" transform="translate(17.5625,64.75)"/>
<path d="M0 0 C0.66 0 1.32 0 2 0 C4.20437013 8.05533128 6.31680311 16.12513486 8.25 24.25 C8.42499023 24.97630615 8.59998047 25.7026123 8.78027344 26.45092773 C9.46722763 29.37324747 10 31.98657433 10 35 C8.68 35 7.36 35 6 35 C4.99569004 30.96329975 3.99903 26.92480919 3.00927734 22.88452148 C2.67183363 21.5116141 2.33234027 20.13920874 1.99072266 18.76733398 C1.49876979 16.79019979 1.0143262 14.81135049 0.53125 12.83203125 C0.23798828 11.64327393 -0.05527344 10.4545166 -0.35742188 9.22973633 C-0.9286746 6.35849688 -1.21571693 3.91184565 -1 1 C-0.67 0.67 -0.34 0.34 0 0 Z " fill="#163020" transform="translate(58,32)"/>
<path d="M0 0 C3.76594796 2.11834572 5.51245048 5.44322805 6.6953125 9.5234375 C7.18685317 11.71806276 7.62551388 13.90764798 8 16.125 C6.35 16.455 4.7 16.785 3 17.125 C0.03 12.835 -2.94 8.545 -6 4.125 C-2 0.125 -2 0.125 0 0 Z " fill="#173020" transform="translate(52,13.875)"/>
<path d="M0 0 C6.93 0 13.86 0 21 0 C21 0.99 21 1.98 21 3 C14.07 3 7.14 3 0 3 C0 2.01 0 1.02 0 0 Z " fill="#163020" transform="translate(56,74)"/>
<path d="M0 0 C3.3 0.66 6.6 1.32 10 2 C9.67 3.32 9.34 4.64 9 6 C5.7 5.34 2.4 4.68 -1 4 C-0.67 2.68 -0.34 1.36 0 0 Z " fill="#163020" transform="translate(28,53)"/>
<path d="M0 0 C2.31 0 4.62 0 7 0 C7.33 0.99 7.66 1.98 8 3 C5.03 3 2.06 3 -1 3 C-0.67 2.01 -0.34 1.02 0 0 Z " fill="#163020" transform="translate(63,69)"/>
<path d="M0 0 C1.32 0 2.64 0 4 0 C4 1.32 4 2.64 4 4 C2.68 4 1.36 4 0 4 C0 2.68 0 1.36 0 0 Z " fill="#173020" transform="translate(8,51)"/>
</svg>
