<?xml version="1.0" encoding="UTF-8"?>
<svg version="1.1" xmlns="http://www.w3.org/2000/svg" width="512" height="512">
<path d="M0 0 C23.72309179 1.74002016 47.86740598 25.79897868 62.78125 42.27734375 C90.5088786 74.65632306 103.86285135 118.7404797 111.40625 159.875 C111.6051458 160.95856026 111.6051458 160.95856026 111.80805969 162.06401062 C112.44774755 165.57885785 113.06622199 169.09581929 113.65307617 172.61987305 C114.84269401 179.46288029 115.91808963 185.42803879 119.78125 191.27734375 C121.84246061 192.01192117 121.84246061 192.01192117 123.78125 192.27734375 C127.59759013 186.34360438 129.45302476 180.37477478 131.28125 173.58984375 C131.58385742 172.48350586 131.88646484 171.37716797 132.19824219 170.23730469 C135.36551582 158.44065316 137.99827582 146.59856363 139.546875 134.4765625 C139.6715918 133.51459961 139.79630859 132.55263672 139.92480469 131.56152344 C140.15710795 129.70627959 140.37217064 127.84877032 140.56738281 125.98925781 C141.3101498 119.8844206 141.3101498 119.8844206 143.5 117.0625 C146.90224581 115.89152156 148.56397596 116.76822443 151.78125 118.27734375 C153.36402828 120.47637467 154.47666875 122.33569762 155.62890625 124.7421875 C155.96247635 125.39822968 156.29604645 126.05427185 156.63972473 126.73019409 C157.72759492 128.88241772 158.78602447 131.04766677 159.84375 133.21484375 C160.59576862 134.72229721 161.34920238 136.22904547 162.10400391 137.73510742 C163.99979558 141.53071952 165.87045006 145.33815563 167.73529053 149.14904785 C169.26983683 152.27150976 170.83368547 155.37888326 172.39453125 158.48828125 C193.70383761 201.34178492 216.39641071 255.35241505 205.4375 304.16015625 C204.64390968 307.39879068 204.64390968 307.39879068 204.78125 311.27734375 C214.70562999 302.7485797 220.18740264 291.23550781 224.90405273 279.28198242 C226.37101326 275.72492425 227.28694961 273.67022993 230.3515625 271.234375 C232.78125 270.27734375 232.78125 270.27734375 235.46875 270.58984375 C238.2749472 272.63760928 238.76009406 274.26964008 239.37890625 277.62890625 C239.51167969 278.50289063 239.64445312 279.376875 239.78125 280.27734375 C239.96558594 281.25445312 240.14992188 282.2315625 240.33984375 283.23828125 C249.20475894 338.62871685 231.78104355 397.31052685 199.32666016 442.29345703 C194.19411808 449.19342751 188.65737712 455.71005964 182.8359375 462.0390625 C180.90022397 464.14773902 179.02305024 466.29520703 177.15625 468.46484375 C171.49640172 474.92585776 165.45385164 480.48474821 158.7578125 485.87109375 C156.69220419 487.54092934 154.64674242 489.22135121 152.6171875 490.93359375 C152.0914917 491.37662842 151.5657959 491.81966309 151.02416992 492.27612305 C149.55004796 493.52117881 148.0777058 494.76834095 146.60546875 496.015625 C141.13746515 500.39456564 137.96901943 502.8523653 130.78125 502.27734375 C130.12125 500.62734375 129.46125 498.97734375 128.78125 497.27734375 C123.74521047 497.32156301 118.71041683 497.39146416 113.67504883 497.48486328 C111.9632358 497.51303461 110.25129363 497.53426827 108.53930664 497.54833984 C106.07371081 497.5698234 103.60966139 497.61649791 101.14453125 497.66796875 C100.00205681 497.66981171 100.00205681 497.66981171 98.83650208 497.67169189 C93.77768113 497.81016669 91.49181906 498.94058077 87.78125 502.27734375 C84.09375 502.65234375 84.09375 502.65234375 80.78125 502.27734375 C80.12125 501.61734375 79.46125 500.95734375 78.78125 500.27734375 C78.78125 499.28734375 78.78125 498.29734375 78.78125 497.27734375 C51.39125 497.27734375 24.00125 497.27734375 -4.21875 497.27734375 C-4.54875 498.59734375 -4.87875 499.91734375 -5.21875 501.27734375 C-6.21875 502.27734375 -6.21875 502.27734375 -9.78125 502.33984375 C-10.915625 502.31921875 -12.05 502.29859375 -13.21875 502.27734375 C-13.87875 500.62734375 -14.53875 498.97734375 -15.21875 497.27734375 C-30.06875 497.27734375 -44.91875 497.27734375 -60.21875 497.27734375 C-60.54875 498.59734375 -60.87875 499.91734375 -61.21875 501.27734375 C-62.21875 502.27734375 -62.21875 502.27734375 -64.97265625 502.5625 C-76.17931394 501.5780403 -89.52475226 483.55809121 -96.71875 475.46484375 C-98.94631314 472.77866466 -101.08791918 470.04087861 -103.21875 467.27734375 C-104.21004063 466.03704308 -105.20229837 464.79751498 -106.1953125 463.55859375 C-153.43977365 403.97394799 -174.95351051 323.65353989 -166.98828125 248.26171875 C-165.8421425 238.74892927 -164.17408641 229.30721521 -162.4375 219.88671875 C-162.25123047 218.87577148 -162.06496094 217.86482422 -161.87304688 216.82324219 C-161.21875 214.27734375 -161.21875 214.27734375 -159.21875 211.27734375 C-156.90625 210.33984375 -156.90625 210.33984375 -154.21875 210.27734375 C-148.2644462 213.56761847 -146.51027877 219.5782093 -143.96875 225.52734375 C-134.04948855 248.79115538 -134.04948855 248.79115538 -116.90625 266.90234375 C-110.92825022 269.13142841 -104.92015262 269.52514237 -98.80859375 267.46484375 C-94.14480912 264.95424567 -91.75958562 261.78512022 -89.890625 256.875 C-88.64804307 252.0708315 -88.45880115 247.21553873 -88.21875 242.27734375 C-88.03670447 239.83878035 -87.74060429 237.67787347 -87.21875 235.27734375 C-86.22875 234.61734375 -85.23875 233.95734375 -84.21875 233.27734375 C-84.54875 230.63734375 -84.87875 227.99734375 -85.21875 225.27734375 C-85.8375 225.15359375 -86.45625 225.02984375 -87.09375 224.90234375 C-89.21875 224.27734375 -89.21875 224.27734375 -91.21875 222.27734375 C-91.53125 219.83984375 -91.53125 219.83984375 -91.21875 217.27734375 C-90.703125 216.84421875 -90.1875 216.41109375 -89.65625 215.96484375 C-87.78643903 214.13930968 -87.78643903 214.13930968 -88.21875 210.27734375 C-88.49687305 208.14246061 -88.49687305 208.14246061 -89.21875 206.27734375 C-90.87407623 205.25868146 -92.54135138 204.25923562 -94.21875 203.27734375 C-95.24405432 200.47124771 -95.77401684 198.20299031 -96.21875 195.27734375 C-96.39148438 194.15457031 -96.56421875 193.03179687 -96.7421875 191.875 C-101.78595598 156.45897353 -101.73117068 111.25966974 -82.1640625 79.6953125 C-80.21875 77.27734375 -80.21875 77.27734375 -77.15625 76.65234375 C-74.21875 77.27734375 -74.21875 77.27734375 -72.59716797 78.99902344 C-71.05086991 81.55482462 -70.62775843 83.40546697 -70.2265625 86.35546875 C-70.0095166 87.83756836 -70.0095166 87.83756836 -69.78808594 89.34960938 C-69.64145508 90.39826172 -69.49482422 91.44691406 -69.34375 92.52734375 C-66.78174665 109.06435962 -62.68745092 132.45849618 -48.2109375 143.1328125 C-43.93583342 145.58890171 -40.75036556 146.76971631 -35.80859375 145.80859375 C-25.37338677 142.32481522 -18.93078558 133.98003865 -13.83984375 124.59765625 C2.61533345 90.89428126 3.19107192 49.9573628 -4.6328125 13.8203125 C-5.29598971 9.81030095 -5.45165651 6.33595536 -5.21875 2.27734375 C-3.21875 0.27734375 -3.21875 0.27734375 0 0 Z " fill="#FB5C3D" transform="translate(217.21875,4.72265625)"/>
<path d="M0 0 C10.04944332 8.3745361 18.14605403 17.59352159 26 28 C26.41507812 28.54366211 26.83015625 29.08732422 27.2578125 29.64746094 C31.66815811 35.45560157 35.68268785 41.36618592 39.3046875 47.703125 C39.87590332 48.70021484 40.44711914 49.69730469 41.03564453 50.72460938 C42.16111187 52.71076592 43.26950735 54.70671338 44.35888672 56.71289062 C47.24830166 62.17045329 47.24830166 62.17045329 52.2734375 65.3828125 C53.17320312 65.58648437 54.07296875 65.79015625 55 66 C56.2421875 67.9453125 56.2421875 67.9453125 56.875 70.125 C57.09929687 70.84945312 57.32359375 71.57390625 57.5546875 72.3203125 C57.70164062 72.87460937 57.84859375 73.42890625 58 74 C57.34 74.66 56.68 75.32 56 76 C55.83312552 78.58354218 55.83312552 78.58354218 56 81 C56.94875 81.226875 57.8975 81.45375 58.875 81.6875 C62 83 62 83 63.375 85.3125 C64.00842339 88.03622058 64.30063865 90.21909248 64 93 C63.34 93.66 62.68 94.32 62 95 C62.49056458 100.97734071 64.04457478 106.80607363 65.45117188 112.625 C68.50495941 125.81550435 69.33877146 138.96239708 69.625 152.4375 C69.66332583 153.95900311 69.70238504 155.48048793 69.7421875 157.00195312 C69.83653444 160.66779799 69.92111531 164.33378584 70 168 C76.03689847 168.17401259 77.85691752 167.00024522 82.171875 162.95703125 C84.48968958 160.47578103 86.18580191 157.86085084 88 155 C88.66 155 89.32 155 90 155 C90.63406824 182.60635546 90.63406824 182.60635546 87 194 C86.77425293 194.71816895 86.54850586 195.43633789 86.31591797 196.17626953 C80.4542779 214.4338989 71.62002885 231.18246359 56.203125 243.17578125 C53.74480494 244.88387164 53.74480494 244.88387164 53 248 C25.28 248 -2.44 248 -31 248 C-36.16432238 237.67135524 -41.00854376 227.76105675 -45 217 C-45.680625 215.18048828 -45.680625 215.18048828 -46.375 213.32421875 C-49.68871157 203.98468048 -51.58766762 194.79557435 -53 185 C-53.17063965 183.90091309 -53.3412793 182.80182617 -53.51708984 181.66943359 C-54.84953935 172.59811734 -55.314448 163.80020918 -55.25 154.625 C-55.24822754 153.95588593 -55.24645508 153.28677185 -55.24462891 152.59738159 C-55.21264184 142.28293535 -54.6949976 132.18511953 -53 122 C-52.01 122 -51.02 122 -50 122 C-48.125 124.38671875 -48.125 124.38671875 -46 127.6875 C-36.04518903 142.97084454 -36.04518903 142.97084454 -22 154 C-18.66125088 154.50691259 -18.66125088 154.50691259 -16 154 C-2.94118312 130.38299075 1.17957948 101.68273855 1.1328125 75.01171875 C1.13376923 73.79152542 1.13472595 72.57133209 1.13571167 71.31416321 C1.13638898 68.74500476 1.13456616 66.17584456 1.13037109 63.60668945 C1.1250305 59.70975832 1.1303243 55.81294315 1.13671875 51.91601562 C1.13605762 49.40624975 1.13477573 46.89648394 1.1328125 44.38671875 C1.13483673 43.23838058 1.13686096 42.09004242 1.13894653 40.90690613 C1.1198482 34.19420933 0.81373098 27.56896146 0.22361755 20.88162231 C-0.1050486 16.64630316 -0.10995249 12.43267282 -0.0625 8.1875 C-0.05798828 7.38763672 -0.05347656 6.58777344 -0.04882812 5.76367188 C-0.03732358 3.84241342 -0.01940601 1.92119489 0 0 Z " fill="#EFBF20" transform="translate(244,254)"/>
<path d="M0 0 C23.72309179 1.74002016 47.86740598 25.79897868 62.78125 42.27734375 C90.5088786 74.65632306 103.86285135 118.7404797 111.40625 159.875 C111.5388472 160.5973735 111.6714444 161.31974701 111.80805969 162.06401062 C112.44774755 165.57885785 113.06622199 169.09581929 113.65307617 172.61987305 C114.84269401 179.46288029 115.91808963 185.42803879 119.78125 191.27734375 C121.84246061 192.01192117 121.84246061 192.01192117 123.78125 192.27734375 C127.59759013 186.34360438 129.45302476 180.37477478 131.28125 173.58984375 C131.58385742 172.48350586 131.88646484 171.37716797 132.19824219 170.23730469 C135.36551582 158.44065316 137.99827582 146.59856363 139.546875 134.4765625 C139.6715918 133.51459961 139.79630859 132.55263672 139.92480469 131.56152344 C140.15710795 129.70627959 140.37217064 127.84877032 140.56738281 125.98925781 C141.3101498 119.8844206 141.3101498 119.8844206 143.5 117.0625 C146.90224581 115.89152156 148.56397596 116.76822443 151.78125 118.27734375 C153.36402828 120.47637467 154.47666875 122.33569762 155.62890625 124.7421875 C156.1292614 125.72625076 156.1292614 125.72625076 156.63972473 126.73019409 C157.72759492 128.88241772 158.78602447 131.04766677 159.84375 133.21484375 C160.59576862 134.72229721 161.34920238 136.22904547 162.10400391 137.73510742 C163.99979558 141.53071952 165.87045006 145.33815563 167.73529053 149.14904785 C169.26983683 152.27150976 170.83368547 155.37888326 172.39453125 158.48828125 C193.70383761 201.34178492 216.39641071 255.35241505 205.4375 304.16015625 C204.64390968 307.39879068 204.64390968 307.39879068 204.78125 311.27734375 C214.70562999 302.7485797 220.18740264 291.23550781 224.90405273 279.28198242 C226.37101326 275.72492425 227.28694961 273.67022993 230.3515625 271.234375 C232.78125 270.27734375 232.78125 270.27734375 235.46875 270.58984375 C238.2749472 272.63760928 238.76009406 274.26964008 239.37890625 277.62890625 C239.51167969 278.50289063 239.64445312 279.376875 239.78125 280.27734375 C239.96558594 281.25445312 240.14992188 282.2315625 240.33984375 283.23828125 C249.20475894 338.62871685 231.78104355 397.31052685 199.32666016 442.29345703 C194.19411808 449.19342751 188.65737712 455.71005964 182.8359375 462.0390625 C180.90022397 464.14773902 179.02305024 466.29520703 177.15625 468.46484375 C171.49640172 474.92585776 165.45385164 480.48474821 158.7578125 485.87109375 C156.69220419 487.54092934 154.64674242 489.22135121 152.6171875 490.93359375 C152.0914917 491.37662842 151.5657959 491.81966309 151.02416992 492.27612305 C149.55004796 493.52117881 148.0777058 494.76834095 146.60546875 496.015625 C141.13746515 500.39456564 137.96901943 502.8523653 130.78125 502.27734375 C129.59375 500.08984375 129.59375 500.08984375 128.78125 497.27734375 C130.69950644 493.15737716 133.0657119 491.05477374 136.78125 488.52734375 C154.35106104 476.17537409 170.60107048 461.24493118 183.78125 444.27734375 C184.42731201 443.44589844 184.42731201 443.44589844 185.08642578 442.59765625 C203.69477751 418.45709184 218.80031201 389.34259579 224.78125 359.27734375 C224.90838379 358.65134277 225.03551758 358.0253418 225.16650391 357.38037109 C227.31232858 346.74202289 228.9546453 336.39727465 228.87890625 325.5234375 C228.8774913 324.73711441 228.87607635 323.95079132 228.87461853 323.14064026 C228.86908672 320.6653336 228.85654775 318.19012238 228.84375 315.71484375 C228.83872616 314.02148569 228.83416481 312.3281262 228.83007812 310.63476562 C228.81913978 306.51558905 228.80192362 302.3964825 228.78125 298.27734375 C228.16564209 299.2422876 227.55003418 300.20723145 226.91577148 301.20141602 C226.09887281 302.47807677 225.2818926 303.75468535 224.46484375 305.03125 C223.85787659 305.98336365 223.85787659 305.98336365 223.23864746 306.95471191 C215.73372537 318.66757407 206.61390065 326.74515314 192.78125 330.27734375 C190.21418012 330.64078196 188.38551098 330.6098026 185.78125 330.27734375 C183.78125 328.27734375 183.78125 328.27734375 183.28125 325.71484375 C183.90620069 321.41830779 185.70786315 319.18474603 188.1875 315.69921875 C199.96241966 297.80595848 197.85398318 270.54395185 193.78125 250.46484375 C185.24170261 211.69076653 168.64079936 175.52117355 150.78125 140.27734375 C150.57145508 141.4065625 150.57145508 141.4065625 150.35742188 142.55859375 C147.80112658 156.10449293 145.08163082 169.47243456 140.78125 182.58984375 C140.32008789 184.03520508 140.32008789 184.03520508 139.84960938 185.50976562 C137.4381289 192.55448395 134.15690104 198.43469024 128.40625 203.27734375 C124.79703446 204.652283 121.55321622 204.92333009 117.78125 204.27734375 C112.17209243 201.63774019 109.40653899 197.70297759 106.78125 192.27734375 C104.29005336 184.76274024 102.88236199 176.98761767 101.46875 169.21484375 C94.2636223 131.13254308 84.78619627 92.26283054 61.78125 60.27734375 C61.02714844 59.21 60.27304687 58.14265625 59.49609375 57.04296875 C45.84760851 38.23239428 28.49924864 24.53348776 7.78125 14.27734375 C7.9978125 15.56898437 8.214375 16.860625 8.4375 18.19140625 C14.42366165 57.24871582 14.00962207 102.74228337 -8.0078125 137.06640625 C-9.65150093 139.2504854 -11.36584902 141.26901178 -13.21875 143.27734375 C-13.83363281 143.98246094 -14.44851562 144.68757812 -15.08203125 145.4140625 C-20.69266075 151.49692935 -28.14240975 156.56961693 -36.56640625 157.55078125 C-45.894432 157.89974336 -52.44691761 155.09135849 -59.34375 148.83984375 C-70.35162392 136.87957833 -76.25638249 120.04590599 -79.21875 104.27734375 C-82.21994274 111.42304074 -83.79672981 118.67193238 -85.21875 126.27734375 C-85.53199219 127.870625 -85.53199219 127.870625 -85.8515625 129.49609375 C-89.35780456 150.6323135 -88.55080289 174.28929441 -84.21875 195.27734375 C-83.90625 198.90234375 -83.90625 198.90234375 -84.21875 202.27734375 C-85.90625 204.27734375 -85.90625 204.27734375 -88.21875 205.27734375 C-90.84375 205.15234375 -90.84375 205.15234375 -93.21875 204.27734375 C-95.16847767 201.35275224 -95.57005668 200.18632065 -96.03515625 196.84765625 C-96.15914795 195.97681396 -96.28313965 195.10597168 -96.41088867 194.20874023 C-96.53310791 193.28262939 -96.65532715 192.35651855 -96.78125 191.40234375 C-96.91055908 190.44851807 -97.03986816 189.49469238 -97.1730957 188.51196289 C-101.74022157 154.05251609 -101.12555708 110.28273417 -82.1640625 79.6953125 C-80.21875 77.27734375 -80.21875 77.27734375 -77.15625 76.65234375 C-74.21875 77.27734375 -74.21875 77.27734375 -72.59716797 78.99902344 C-71.05086991 81.55482462 -70.62775843 83.40546697 -70.2265625 86.35546875 C-70.08186523 87.34353516 -69.93716797 88.33160156 -69.78808594 89.34960938 C-69.64145508 90.39826172 -69.49482422 91.44691406 -69.34375 92.52734375 C-66.78174665 109.06435962 -62.68745092 132.45849618 -48.2109375 143.1328125 C-43.93583342 145.58890171 -40.75036556 146.76971631 -35.80859375 145.80859375 C-25.37338677 142.32481522 -18.93078558 133.98003865 -13.83984375 124.59765625 C2.61533345 90.89428126 3.19107192 49.9573628 -4.6328125 13.8203125 C-5.29598971 9.81030095 -5.45165651 6.33595536 -5.21875 2.27734375 C-3.21875 0.27734375 -3.21875 0.27734375 0 0 Z " fill="#030100" transform="translate(217.21875,4.72265625)"/>
<path d="M0 0 C4.69497596 0.33370017 8.78918436 1.39440305 13.26953125 2.78125 C14.14037354 3.04824707 15.01121582 3.31524414 15.90844727 3.59033203 C33.61100513 9.20220472 49.59056101 17.44168856 63.95703125 29.28125 C64.54742187 29.72597656 65.1378125 30.17070313 65.74609375 30.62890625 C80.07782464 41.85215669 87.51555009 59.67441471 89.95703125 77.28125 C90.85631898 89.6291623 88.78779095 101.39161641 80.95703125 111.28125 C75.05921533 116.95539625 69.36499995 119.31293268 61.20703125 119.71875 C53.23309565 119.56065462 47.21804462 116.55200393 41.26953125 111.34375 C34.86287396 104.37403732 30.43928865 94.77330676 29.63671875 85.3671875 C29.95703125 83.28125 29.95703125 83.28125 31.5 81.234375 C32.22123047 80.26757812 32.22123047 80.26757812 32.95703125 79.28125 C32.54036458 75.61458333 32.54036458 75.61458333 30.95703125 72.28125 C29.63182622 71.59856862 28.29890943 70.9305459 26.95703125 70.28125 C26.01953125 67.40625 26.01953125 67.40625 25.95703125 64.28125 C26.73046875 63.353125 26.73046875 63.353125 27.51953125 62.40625 C29.1981546 60.42448718 29.1981546 60.42448718 28.71484375 58.2578125 C28.19958497 56.24618575 27.58392984 54.26092976 26.95703125 52.28125 C25.81234375 52.1884375 25.81234375 52.1884375 24.64453125 52.09375 C21.95703125 51.28125 21.95703125 51.28125 20.55078125 49.30078125 C18.87632804 46.12834907 17.37783392 42.90968838 15.89868164 39.64282227 C12.40702194 31.9536214 8.85635269 25.04342628 3.5859375 18.41015625 C1.95703125 16.28125 1.95703125 16.28125 0.86328125 14.0703125 C-0.32539395 11.7237037 -1.66763404 11.2773581 -4.04296875 10.28125 C-5.04296875 9.28125 -5.04296875 9.28125 -5.23046875 5.84375 C-4.99342104 1.33984357 -4.52750212 0.41845976 0 0 Z " fill="#F95C3C" transform="translate(373.04296875,34.71875)"/>
<path d="M0 0 C1.44921875 2.1796875 1.44921875 2.1796875 2.6875 4.875 C3.44160156 6.46634766 3.44160156 6.46634766 4.2109375 8.08984375 C4.80922459 9.39234304 5.40537295 10.69582574 6 12 C16.57721205 37.66123005 16.57721205 37.66123005 37 55 C43.68911645 55.90780866 49.83013254 55.79391902 55.37890625 51.6640625 C61.48943778 45.39156508 61.56402405 37.28354305 62 29 C62.27660321 26.6528242 62.62861938 24.3343925 63 22 C66.3125 21.3125 66.3125 21.3125 70 21 C71.70336914 22.23803711 71.70336914 22.23803711 73 24 C73.32948458 26.94755122 73.4745685 29.61734769 73.4375 32.5625 C73.43137695 33.37299805 73.42525391 34.18349609 73.41894531 35.01855469 C73.25415231 41.34914132 72.1705426 46.45155044 69 52 C68.4225 53.0725 67.845 54.145 67.25 55.25 C61.78672165 61.92734021 54.79653858 66.34969581 46.1796875 67.31640625 C35.84416559 67.72612643 28.73386457 65.02644596 21 58.1875 C9.71403694 47.5947558 3.12967806 33.98867871 -3 20 C-5.67713948 35.25013385 -6.30981518 50.24224495 -6.3125 65.6875 C-6.31572266 66.58377106 -6.31894531 67.48004211 -6.32226562 68.4034729 C-6.36045666 85.83191112 -5.50700922 103.26949579 -1.625 120.3125 C-1.29085083 121.83097534 -1.29085083 121.83097534 -0.94995117 123.38012695 C-0.50770792 125.37236379 -0.05939182 127.36326569 0.39599609 129.35253906 C0.90488684 131.5831014 1.38940588 133.81652887 1.86328125 136.0546875 C6.61502895 156.99840957 14.49969838 177.77590985 24 197 C24.35916504 197.7307373 24.71833008 198.46147461 25.08837891 199.21435547 C32.83255784 214.79660324 42.24030688 229.33228172 53 243 C53.70511719 243.89847656 54.41023438 244.79695312 55.13671875 245.72265625 C63.7810241 256.50863869 73.10480722 266.45254946 83.40625 275.66015625 C89.93578661 281.5505063 89.93578661 281.5505063 90.375 284.625 C90 287 90 287 88 289 C84.50941264 289.43087694 82.5955498 289.34826922 79.53515625 287.55859375 C67.65344662 277.36622672 56.56926022 266.41064465 47 254 C46.00870937 252.75969933 45.01645163 251.52017123 44.0234375 250.28125 C-3.22102365 190.69660424 -24.73476051 110.37619614 -16.76953125 34.984375 C-15.6233925 25.47158552 -13.95533641 16.02987146 -12.21875 6.609375 C-12.03248047 5.59842773 -11.84621094 4.58748047 -11.65429688 3.54589844 C-11 1 -11 1 -9 -2 C-5.1866171 -3.84094347 -3.25332566 -2.32954183 0 0 Z " fill="#030100" transform="translate(67,218)"/>
<path d="M0 0 C3.46270086 1.28002639 5.41278096 3.12457345 8.08984375 5.66796875 C8.85929321 6.39729614 8.85929321 6.39729614 9.64428711 7.14135742 C11.32431122 8.74365171 12.98810454 10.36179912 14.65234375 11.98046875 C15.22758789 12.52993164 15.80283203 13.07939453 16.39550781 13.64550781 C24.9849944 21.85471829 32.5930558 30.4293515 39.65234375 39.98046875 C40.2858374 40.82279053 40.2858374 40.82279053 40.93212891 41.68212891 C62.56417686 70.49438794 62.56417686 70.49438794 61.65234375 80.98046875 C59.65234375 82.98046875 59.65234375 82.98046875 57.203125 83.33203125 C54.65234375 82.98046875 54.65234375 82.98046875 53.1328125 81.50390625 C52.49279297 80.44042969 52.49279297 80.44042969 51.83984375 79.35546875 C51.33324219 78.53175781 50.82664062 77.70804687 50.3046875 76.859375 C48.48153133 73.68285941 46.69263461 70.48811562 44.90234375 67.29296875 C34.82329599 49.33158876 21.23109069 33.43407623 6.65234375 18.98046875 C6.62472316 21.54304586 6.60521531 24.10530995 6.58984375 26.66796875 C6.57727539 27.72081055 6.57727539 27.72081055 6.56445312 28.79492188 C6.54478271 33.22076422 6.76172446 37.57217108 7.14575195 41.98193359 C7.67087746 48.64396096 7.8299065 55.26469121 7.85546875 61.9453125 C7.86116882 63.13991592 7.8668689 64.33451935 7.8727417 65.56532288 C7.88212183 68.07877741 7.88869757 70.59224385 7.89257812 73.10571289 C7.90223968 76.87734406 7.93331398 80.64841899 7.96484375 84.41992188 C8.02878723 99.19632692 7.18423961 113.41808219 4.65234375 127.98046875 C4.52744568 128.71414169 4.40254761 129.44781464 4.27386475 130.20372009 C-1.56525443 164.19806693 -1.56525443 164.19806693 -10.34765625 172.98046875 C-13.83865065 173.40773927 -15.78606844 173.29198125 -18.8828125 171.57421875 C-29.08900084 163.11901481 -37.62003498 152.85509397 -44.37158203 141.45141602 C-44.69368652 140.96600342 -45.01579102 140.48059082 -45.34765625 139.98046875 C-45.67765625 139.98046875 -46.00765625 139.98046875 -46.34765625 139.98046875 C-51.00726284 167.97971191 -50.04806895 198.87533689 -41.34765625 225.98046875 C-40.98414063 227.12612305 -40.98414063 227.12612305 -40.61328125 228.29492188 C-37.44723556 238.15777499 -33.93630851 247.6053859 -28.92480469 256.69311523 C-26.71339026 260.78888055 -25.56568817 264.31573328 -25.34765625 268.98046875 C-27.34765625 270.98046875 -27.34765625 270.98046875 -30.97265625 271.10546875 C-32.08640625 271.06421875 -33.20015625 271.02296875 -34.34765625 270.98046875 C-46.57227344 247.99428697 -55.13851477 223.85070182 -58.34765625 197.98046875 C-58.44336914 197.23031494 -58.53908203 196.48016113 -58.63769531 195.70727539 C-60.8222353 176.66301957 -64.58588132 137.17481908 -51.90625 121.15991211 C-50.34765625 119.98046875 -50.34765625 119.98046875 -47.828125 120.0625 C-44.86442362 121.15930287 -44.23811604 121.97498374 -42.66015625 124.66796875 C-34.81324345 137.33599249 -26.09531498 150.68023892 -14.34765625 159.98046875 C-13.6501395 157.43875998 -12.95671597 154.89609082 -12.26953125 152.3515625 C-11.65083103 150.08911213 -11.01515842 147.83124013 -10.36328125 145.578125 C-5.60536187 128.72411058 -3.2011224 111.36815757 -3.1796875 93.859375 C-3.175634 92.81335114 -3.17158051 91.76732727 -3.16740417 90.68960571 C-3.15798554 87.30736194 -3.15800566 83.92522383 -3.16015625 80.54296875 C-3.15943115 79.38818024 -3.15870605 78.23339172 -3.15795898 77.04360962 C-3.15906847 61.02525558 -3.48613119 45.08422882 -4.63598633 29.10571289 C-5.09820478 22.64494442 -5.48409506 16.1951151 -5.59765625 9.71875 C-5.6234375 8.49841064 -5.64921875 7.27807129 -5.67578125 6.02075195 C-5.34765625 2.98046875 -5.34765625 2.98046875 -3.97875977 1.05810547 C-2.34765625 -0.01953125 -2.34765625 -0.01953125 0 0 Z " fill="#060301" transform="translate(238.34765625,236.01953125)"/>
<path d="M0 0 C5.24615371 1.60362777 8.80630818 6.09192422 12.68359375 9.8203125 C13.36808594 10.44164062 14.05257813 11.06296875 14.7578125 11.703125 C35.23474575 30.89246205 47.86043452 60.45655245 55.68359375 86.8203125 C56.06644531 88.0475 56.44929688 89.2746875 56.84375 90.5390625 C60.81157119 103.6896015 63.33540657 117.19493521 66.03515625 130.6484375 C66.44926758 132.70598826 66.86399703 134.76341095 67.27966309 136.82064819 C67.54784705 138.14829661 67.81518817 139.47611556 68.08166504 140.80410767 C68.46146236 142.68697859 68.84973301 144.56813417 69.23828125 146.44921875 C69.45726074 147.51986572 69.67624023 148.5905127 69.90185547 149.69360352 C71.55867208 156.32035254 73.69825327 163.02337151 78.68359375 167.8203125 C78.68359375 168.4803125 78.68359375 169.1403125 78.68359375 169.8203125 C79.26882813 170.10648438 79.8540625 170.39265625 80.45703125 170.6875 C81.81780016 171.37982103 83.16246056 172.10679614 84.47265625 172.890625 C89.849238 175.97929962 94.54250112 176.87784205 100.68359375 175.8203125 C107.5107277 173.54460118 112.92463205 170.01751962 116.68359375 163.8203125 C118.55150424 159.89277051 120.11989463 155.87648504 121.68359375 151.8203125 C122.42097762 150.08572829 123.16962914 148.35585499 123.93359375 146.6328125 C124.248125 145.91738281 124.56265625 145.20195312 124.88671875 144.46484375 C125.68359375 142.8203125 125.68359375 142.8203125 126.68359375 141.8203125 C128.68317739 141.77950467 130.68404629 141.77776894 132.68359375 141.8203125 C148.52102466 170.66331582 165.96104163 214.10666413 161.68359375 247.8203125 C160.3203125 249.69140625 160.3203125 249.69140625 158.68359375 250.8203125 C156.18359375 251.1953125 156.18359375 251.1953125 153.68359375 250.8203125 C152.05273438 249.53759766 152.05273438 249.53759766 150.68359375 247.8203125 C150.37486491 244.89332559 150.22414443 242.12654727 150.18359375 239.1953125 C149.28982906 213.32524445 141.98917045 184.58954837 129.68359375 161.8203125 C129.20921875 162.9340625 128.73484375 164.0478125 128.24609375 165.1953125 C123.32554666 174.89876901 115.71011707 181.70336126 105.68359375 185.8203125 C96.33991563 188.17065129 87.83935788 187.05909565 79.3671875 182.6015625 C68.16710892 175.77917961 62.32495907 164.75904153 59.17138672 152.30883789 C57.54543084 145.47217356 56.25712389 138.5776592 54.98095703 131.66870117 C47.12700437 89.35230852 33.95850168 39.49126807 -1.44140625 11.4453125 C-4.31640625 8.8203125 -4.31640625 8.8203125 -5.44140625 5.6328125 C-5.31640625 2.8203125 -5.31640625 2.8203125 -4.19140625 0.8828125 C-2.31640625 -0.1796875 -2.31640625 -0.1796875 0 0 Z " fill="#FEC7BE" transform="translate(243.31640625,42.1796875)"/>
<path d="M0 0 C4.69497596 0.33370017 8.78918436 1.39440305 13.26953125 2.78125 C14.14037354 3.04824707 15.01121582 3.31524414 15.90844727 3.59033203 C33.61100513 9.20220472 49.59056101 17.44168856 63.95703125 29.28125 C64.54742187 29.72597656 65.1378125 30.17070313 65.74609375 30.62890625 C80.07782464 41.85215669 87.51555009 59.67441471 89.95703125 77.28125 C90.85631898 89.6291623 88.78779095 101.39161641 80.95703125 111.28125 C75.05921533 116.95539625 69.36499995 119.31293268 61.20703125 119.71875 C53.23309565 119.56065462 47.21804462 116.55200393 41.26953125 111.34375 C34.819543 104.32689817 30.47524717 94.71071564 29.5390625 85.26953125 C29.95703125 83.28125 29.95703125 83.28125 31.80859375 81.48828125 C33.95703125 80.28125 33.95703125 80.28125 36.51953125 80.65625 C39.26109993 82.48396245 39.95561902 83.98252966 41.08984375 87.015625 C44.43668194 95.75961666 47.69227109 102.56355865 55.859375 107.41015625 C60.35463133 109.27690143 65.39875093 107.90456213 69.76953125 106.15625 C74.55177942 102.05718014 77.42576484 95.57216423 78.19555664 89.35473633 C79.21670984 73.4130869 75.54908951 60.28669837 65.95703125 47.28125 C65.5084375 46.64960937 65.05984375 46.01796875 64.59765625 45.3671875 C52.96276913 30.37871527 32.89931554 22.5038111 15.95703125 15.28125 C16.53710938 16.27382813 17.1171875 17.26640625 17.71484375 18.2890625 C21.62066284 25.04849009 25.41678485 31.82610885 28.58203125 38.96875 C29.31292969 40.61423828 29.31292969 40.61423828 30.05859375 42.29296875 C31.02803183 45.5174041 31.05120959 47.12581651 29.95703125 50.28125 C27.95703125 52.28125 27.95703125 52.28125 25.51953125 52.59375 C22.3464448 52.20678824 21.92329088 51.7602305 19.95703125 49.28125 C18.8015002 46.8128755 17.73417332 44.36384821 16.70703125 41.84375 C12.37648957 31.61728517 7.37007251 22.59832068 -0.04296875 14.28125 C-0.04296875 13.62125 -0.04296875 12.96125 -0.04296875 12.28125 C-0.68234375 11.971875 -1.32171875 11.6625 -1.98046875 11.34375 C-4.04296875 10.28125 -4.04296875 10.28125 -5.04296875 9.28125 C-5.23046875 5.84375 -5.23046875 5.84375 -5.04296875 2.28125 C-3.04296875 0.28125 -3.04296875 0.28125 0 0 Z " fill="#020000" transform="translate(373.04296875,34.71875)"/>
<path d="M0 0 C3.69376622 8.09980063 7.00136892 16.34105804 10.26708984 24.62109375 C12.8939125 31.32224862 12.8939125 31.32224862 15.76171875 37.921875 C19.86571708 47.18820935 20.62782654 56.96204408 18.3359375 66.87109375 C15.88511389 73.18995636 11.39772775 76.97972944 5.6875 80.375 C-1.43617482 82.03166856 -8.5787979 81.63610239 -15 78 C-21.92386976 73.2065517 -26.39280229 67.3484992 -28 59 C-29.50960357 38.85545402 -21.28208482 16.91556881 -8.52734375 1.18359375 C-5.94071681 -0.82087674 -3.13347984 -0.17736678 0 0 Z " fill="#010000" transform="translate(86,124)"/>
<path d="M0 0 C2.84943547 0.1461249 4.44108531 0.45269912 6.50390625 2.47265625 C8.72092863 6.21786116 9.5489031 10.08870114 10.5 14.3125 C10.71358154 15.24787598 10.92716309 16.18325195 11.1472168 17.14697266 C14.0038476 30.5801575 14.92667111 44.33143062 16 58 C16.56589844 57.07316406 17.13179688 56.14632812 17.71484375 55.19140625 C18.45565576 53.98172588 19.19654518 52.77209291 19.9375 51.5625 C20.31068359 50.95083984 20.68386719 50.33917969 21.06835938 49.70898438 C23.88671875 45.11328125 23.88671875 45.11328125 25 44 C26.99958364 43.95919217 29.00045254 43.95745644 31 44 C36.23537321 52.80494586 36.3655084 63.12512105 36.3125 73.125 C36.30621582 74.76033691 36.30621582 74.76033691 36.29980469 76.42871094 C36.17319503 85.56885082 35.15918942 94.12956381 33 103 C32.73316406 104.10988281 32.46632813 105.21976562 32.19140625 106.36328125 C26.32062789 127.7329145 13.47014296 144.63841944 -2 160 C-2.33 160.33 -2.66 160.66 -3 161 C-6.4375 161.1875 -6.4375 161.1875 -10 161 C-10.66 160.34 -11.32 159.68 -12 159 C-12 154.81989219 -11.28292441 153.29681802 -8.375 150.24609375 C-7.25789445 149.30048986 -6.13238825 148.36474775 -5 147.4375 C12.5726089 132.09939111 23.44821567 107.98546817 25.25024414 84.77709961 C25.41413211 81.45562049 25.53152579 78.13667675 25.625 74.8125 C25.68300781 73.09836914 25.68300781 73.09836914 25.7421875 71.34960938 C25.83534411 68.56655555 25.92115849 65.78348978 26 63 C25.34 63 24.68 63 24 63 C23.74089844 63.57492187 23.48179687 64.14984375 23.21484375 64.7421875 C21.90115939 67.18369734 20.39702947 69.04981183 18.5625 71.125 C17.96566406 71.80820312 17.36882812 72.49140625 16.75390625 73.1953125 C15 75 15 75 12 77 C8.875 76.75 8.875 76.75 6 76 C4.62201514 73.24403028 4.85480075 70.9858451 4.82421875 67.90234375 C4.80311035 66.63745117 4.78200195 65.37255859 4.76025391 64.06933594 C4.74907532 63.39543823 4.73789673 62.72154053 4.72637939 62.02722168 C4.39470999 44.20038171 2.86006823 26.59662388 -2.51611328 9.49902344 C-3.07040253 6.6364075 -2.85107941 4.77733033 -2 2 C-1.34 1.34 -0.68 0.68 0 0 Z " fill="#050301" transform="translate(308,346)"/>
<path d="M0 0 C2.4375 0.8125 2.4375 0.8125 4.4375 2.8125 C4.59130942 6.15968604 3.92241523 9.50625982 3.4375 12.8125 C3.25058594 14.09253906 3.06367188 15.37257813 2.87109375 16.69140625 C-3.55526334 57.80854728 -25.08310241 94.12250102 -53.5625 123.8125 C-54.34496094 124.63621094 -55.12742187 125.45992188 -55.93359375 126.30859375 C-61.43270542 131.96454283 -67.35091645 136.95756725 -73.5625 141.8125 C-74.5421875 142.59753906 -75.521875 143.38257813 -76.53125 144.19140625 C-77.4903125 144.93261719 -78.449375 145.67382812 -79.4375 146.4375 C-80.30117188 147.11039063 -81.16484375 147.78328125 -82.0546875 148.4765625 C-84.5625 149.8125 -84.5625 149.8125 -87.2578125 149.6484375 C-89.5625 148.8125 -89.5625 148.8125 -91.5625 146.8125 C-91.54983347 143.08854161 -90.64783825 141.89862117 -88.0078125 139.234375 C-86.9111754 138.33130156 -85.80369062 137.44129069 -84.6875 136.5625 C-84.10178223 136.08361328 -83.51606445 135.60472656 -82.91259766 135.11132812 C-81.13943389 133.66514094 -79.35374408 132.23620584 -77.5625 130.8125 C-65.89700712 121.51753509 -55.77924121 111.55459613 -46.5625 99.8125 C-45.77230469 98.85085938 -44.98210937 97.88921875 -44.16796875 96.8984375 C-28.07653069 76.8791681 -17.89701017 53.52817266 -11.1394043 28.89257812 C-10.61908618 27.01652636 -10.05805496 25.15188165 -9.4921875 23.2890625 C-8.21328462 18.50661055 -7.50205218 13.67286126 -6.79492188 8.77734375 C-5.91630654 3.31148259 -5.91630654 3.31148259 -4.125 0.78515625 C-2.5625 -0.1875 -2.5625 -0.1875 0 0 Z " fill="#FEC7BF" transform="translate(431.5625,337.1875)"/>
<path d="M0 0 C9.9407542 3.18461287 18.08022291 24.10903469 22.609375 32.8359375 C30.20668518 48.41315621 35.64246724 64.90788839 38.984375 81.8984375 C39.15227539 82.7426123 39.32017578 83.58678711 39.49316406 84.45654297 C40.53447431 90.16125884 41.32828025 96.04506535 40.609375 101.8359375 C39.949375 102.4959375 39.289375 103.1559375 38.609375 103.8359375 C34.984375 103.4609375 34.984375 103.4609375 31.609375 102.8359375 C31.33854167 101.48177083 31.06770833 100.12760417 30.796875 98.7734375 C30.61125 97.85304688 30.425625 96.93265625 30.234375 95.984375 C29.80576522 93.82525321 29.38973469 91.66360735 28.984375 89.5 C23.55879915 61.07738108 13.94413742 33.73515881 -3.7734375 10.5 C-5.53910398 7.59134169 -5.85623894 6.16996327 -5.390625 2.8359375 C-3.75251309 0.24944502 -3.08265115 -0.21155449 0 0 Z " fill="#F7E3AC" transform="translate(261.390625,290.1640625)"/>
<path d="M0 0 C3.77615695 3.07439327 4.88508283 7.32772113 6.57861328 11.75097656 C6.84013184 12.4312793 7.10165039 13.11158203 7.37109375 13.8125 C7.63647949 14.50601563 7.90186523 15.19953125 8.17529297 15.9140625 C8.97838361 17.9453255 9.83714668 19.94096909 10.72265625 21.9375 C13.88126175 29.14106373 16.74567488 36.01067043 15 44 C13.38011875 47.67291755 11.68125362 51.15937319 8 53 C2.90737193 53.64115821 -0.86626176 53.65084973 -5.375 51.0625 C-9.78854145 46.59880467 -12.15304954 40.78366512 -12.625 34.5625 C-12.10028463 22.56900581 -6.23747929 10.04189929 0 0 Z " fill="#F55A3B" transform="translate(80,141)"/>
<path d="M0 0 C3.0625 0.1875 3.0625 0.1875 5.0625 2.1875 C4.74007401 17.01909571 -6.39068028 31.71327494 -15.9375 42.1875 C-18.9375 44.1875 -18.9375 44.1875 -21.5 43.9375 C-23.9375 43.1875 -23.9375 43.1875 -25.9375 41.1875 C-25.75294223 36.47726471 -23.48424698 34.23108796 -20.375 30.875 C-13.43954403 23.03649638 -9.31289267 13.84024394 -5.27734375 4.26953125 C-3.51890567 0.224611 -3.51890567 0.224611 0 0 Z " fill="#F7E3AB" transform="translate(314.9375,442.8125)"/>
<path d="M0 0 C2.5 0.4375 2.5 0.4375 4.375 1.5625 C5.5 3.4375 5.5 3.4375 5.5625 6.0625 C4.02224803 10.9550651 1.16137589 15.77612411 -2.5 19.4375 C-4.9375 19.625 -4.9375 19.625 -7.5 19.4375 C-9.5 17.4375 -9.5 17.4375 -9.875 14.75 C-9.39660662 10.52419177 -7.81476106 7.92653766 -5.5 4.4375 C-5.025625 3.633125 -4.55125 2.82875 -4.0625 2 C-2.5 0.4375 -2.5 0.4375 0 0 Z " fill="#FEC6BD" transform="translate(395.5,302.5625)"/>
<path d="M0 0 C1.423125 0.4021875 1.423125 0.4021875 2.875 0.8125 C4.2991906 3.66088121 4.04495508 6.14037908 4.0625 9.3125 C4.07667969 10.4778125 4.09085937 11.643125 4.10546875 12.84375 C3.875 15.8125 3.875 15.8125 1.875 17.8125 C-1.125 18.125 -1.125 18.125 -4.125 17.8125 C-6.42283606 14.36574591 -6.42254883 12.87921888 -6.4375 8.8125 C-6.45425781 7.760625 -6.47101563 6.70875 -6.48828125 5.625 C-6.125 2.8125 -6.125 2.8125 -4.80078125 0.92578125 C-3.125 -0.1875 -3.125 -0.1875 0 0 Z " fill="#F7E3A9" transform="translate(299.125,404.1875)"/>
<path d="M0 0 C2.9375 0.875 2.9375 0.875 4.9375 3.875 C4.76121786 6.69551418 4.13289902 7.67960098 2.125 9.6875 C-0.0625 10.875 -0.0625 10.875 -2.1875 10.6875 C-4.0625 9.875 -4.0625 9.875 -6.0625 7.875 C-6.4258156 5.04113833 -6.4193671 3.46977849 -4.9375 1 C-3.0625 -0.125 -3.0625 -0.125 0 0 Z " fill="#0A0302" transform="translate(132.0625,219.125)"/>
<path d="M0 0 C3 -0.3125 3 -0.3125 6 0 C8 2 8 2 8.4375 4.9375 C8 8 8 8 5.75 10 C3 11 3 11 0.75 10.5625 C-1 9 -1 9 -1.875 6.0625 C-2 3 -2 3 0 0 Z " fill="#050101" transform="translate(401,96)"/>
<path d="M0 0 C2.4375 0.8125 2.4375 0.8125 4.4375 2.8125 C4.0625 5.9375 4.0625 5.9375 3.4375 8.8125 C0.0625 9.4375 0.0625 9.4375 -3.5625 9.8125 C-5.5625 7.8125 -5.5625 7.8125 -5.875 5.375 C-5.5625 2.8125 -5.5625 2.8125 -4.375 0.9375 C-2.5625 -0.1875 -2.5625 -0.1875 0 0 Z " fill="#100603" transform="translate(304.5625,327.1875)"/>
</svg>
