<?xml version="1.0" encoding="UTF-8"?>
<svg version="1.1" xmlns="http://www.w3.org/2000/svg" width="80" height="80">
<path d="M0 0 C4.58365479 2.60083783 8.07539799 5.96086561 9.5859375 11.12109375 C10.57813112 17.98140395 10.32428886 23.79086967 6.15234375 29.49609375 C3.54677734 32.19912524 1.02254228 33.59371385 -2.4140625 35.12109375 C-3.4040625 35.12109375 -4.3940625 35.12109375 -5.4140625 35.12109375 C-4.67573645 37.18780149 -3.92286419 39.24931566 -3.1640625 41.30859375 C-2.74640625 42.45714844 -2.32875 43.60570312 -1.8984375 44.7890625 C-0.43167756 48.08155257 1.33740731 50.33901402 3.5859375 53.12109375 C3.8359375 56.43359375 3.8359375 56.43359375 3.5859375 59.12109375 C0.8270808 60.5005221 -1.39691885 60.24830772 -4.484375 60.25048828 C-5.75909668 60.25364044 -7.03381836 60.2567926 -8.34716797 60.26004028 C-9.7444665 60.25825045 -11.14176471 60.25619948 -12.5390625 60.25390625 C-13.96630876 60.2545796 -15.39355491 60.2555499 -16.82080078 60.25680542 C-19.81348766 60.2582809 -22.80614471 60.25613263 -25.79882812 60.25146484 C-29.63915379 60.24576763 -33.47940957 60.24904744 -37.31973267 60.25503731 C-40.26733936 60.25864694 -43.21492943 60.25750248 -46.16253662 60.25490952 C-47.57875578 60.25424136 -48.99497644 60.25506479 -50.41119385 60.25738907 C-52.38871228 60.25992212 -54.36623599 60.25537832 -56.34375 60.25048828 C-58.03346924 60.24929489 -58.03346924 60.24929489 -59.75732422 60.24807739 C-62.4140625 60.12109375 -62.4140625 60.12109375 -64.4140625 59.12109375 C-64.91380316 53.7488817 -63.68962377 52.21554534 -60.4140625 48.12109375 C-56.74526542 40.94186493 -55.76701183 33.60215535 -55.27294922 25.66723633 C-54.74309963 18.82221359 -52.52479703 13.63115644 -48.1015625 8.37109375 C-41.2607711 2.64391955 -35.32035806 0.62054613 -26.4140625 1.12109375 C-25.3828125 1.34796875 -24.3515625 1.57484375 -23.2890625 1.80859375 C-20.340929 2.40650056 -20.340929 2.40650056 -17.7890625 0.68359375 C-12.16908884 -1.91824591 -5.86321123 -2.13466428 0 0 Z M-41.4140625 14.12109375 C-45.88342707 19.62185014 -46.46740895 23.83820082 -46.7890625 30.74609375 C-47.18877936 36.92881099 -48.31444282 42.3129067 -50.4140625 48.12109375 C-50.7440625 49.11109375 -51.0740625 50.10109375 -51.4140625 51.12109375 C-37.8840625 51.12109375 -24.3540625 51.12109375 -10.4140625 51.12109375 C-11.0740625 48.15109375 -11.7340625 45.18109375 -12.4140625 42.12109375 C-12.6203125 40.71859375 -12.8265625 39.31609375 -13.0390625 37.87109375 C-14.73132092 33.2558435 -16.38712523 32.58151652 -20.5078125 30.3046875 C-23.6014171 28.38386333 -24.34657063 26.57474391 -25.4140625 23.12109375 C-25.7870894 19.95651392 -26.03872943 16.81504108 -26.203125 13.6328125 C-26.13673674 11.18326922 -26.13673674 11.18326922 -27.4140625 10.12109375 C-32.8917768 9.45307981 -36.97461756 11.03525356 -41.4140625 14.12109375 Z " fill="#766E85" transform="translate(70.4140625,0.87890625)"/>
<path d="M0 0 C4.58365479 2.60083783 8.07539799 5.96086561 9.5859375 11.12109375 C10.57637579 17.96926704 10.35188632 23.82876014 6.125 29.49609375 C2.1237182 33.72079737 -1.51897327 35.33495152 -7.3515625 35.55859375 C-13.47130191 35.27915359 -18.4423572 34.14468603 -22.7890625 29.68359375 C-26.71424375 23.49388485 -27.46207865 18.45720677 -26.4140625 11.12109375 C-24.43696394 6.44423302 -21.76335829 3.18125473 -17.7890625 0.05859375 C-11.91766194 -1.57235085 -5.81724111 -2.11792759 0 0 Z " fill="#DE2222" transform="translate(70.4140625,0.87890625)"/>
<path d="M0 0 C3.05448544 0.17967561 4.62545344 0.61085596 7.1875 2.1875 C7.8475 1.5275 8.5075 0.8675 9.1875 0.1875 C12.25 0 12.25 0 15.1875 0.1875 C16.1875 1.1875 16.1875 1.1875 16.5625 4 C16.1875 7.1875 16.1875 7.1875 13.8125 9.5 C9.9188455 12.00306361 7.86442385 12.63720422 3.1875 12.1875 C0.6227707 10.68737532 -1.70433465 9.29566535 -3.8125 7.1875 C-3.9375 4.1875 -3.9375 4.1875 -3.8125 1.1875 C-2.8125 0.1875 -2.8125 0.1875 0 0 Z " fill="#766F85" transform="translate(33.8125,65.8125)"/>
</svg>
