<svg width="34" height="34" viewBox="0 0 34 34" fill="none" xmlns="http://www.w3.org/2000/svg">
<g clip-path="url(#clip0_234_2793)">
<path d="M18.4167 2.83301H8.50008C7.74863 2.83301 7.02797 3.13152 6.49661 3.66287C5.96526 4.19422 5.66675 4.91489 5.66675 5.66634V28.333C5.66675 29.0845 5.96526 29.8051 6.49661 30.3365C7.02797 30.8678 7.74863 31.1663 8.50008 31.1663H25.5001C26.2515 31.1663 26.9722 30.8678 27.5035 30.3365C28.0349 29.8051 28.3334 29.0845 28.3334 28.333V12.7497L18.4167 2.83301Z" stroke="#E99D2D" stroke-width="3" stroke-linecap="round" stroke-linejoin="round"/>
<path d="M18.4167 2.83301V12.7497H28.3334" stroke="#E99D2D" stroke-width="3" stroke-linecap="round" stroke-linejoin="round"/>
<path d="M32.3474 23.3238V24.084C32.3463 25.8661 31.7693 27.6001 30.7023 29.0274C29.6353 30.4547 28.1355 31.4988 26.4266 32.0041C24.7177 32.5093 22.8912 32.4487 21.2196 31.8311C19.548 31.2135 18.1208 30.0721 17.1509 28.5772C16.1809 27.0822 15.7202 25.3138 15.8375 23.5356C15.9547 21.7574 16.6437 20.0648 17.8015 18.7101C18.9593 17.3554 20.524 16.4113 22.2623 16.0186C24.0005 15.6259 25.8191 15.8056 27.4469 16.5309" fill="white"/>
<path d="M32.3474 23.3238V24.084C32.3463 25.8661 31.7693 27.6001 30.7023 29.0274C29.6353 30.4547 28.1355 31.4988 26.4266 32.0041C24.7177 32.5093 22.8912 32.4487 21.2196 31.8311C19.548 31.2135 18.1208 30.0721 17.1509 28.5772C16.1809 27.0822 15.7202 25.3138 15.8375 23.5356C15.9547 21.7574 16.6437 20.0648 17.8015 18.7101C18.9593 17.3554 20.524 16.4113 22.2623 16.0186C24.0005 15.6259 25.8191 15.8056 27.4469 16.5309C29.0017 17.2343 32.1586 19.5397 32.3474 23.1335" stroke="#E99D2D" stroke-linecap="round" stroke-linejoin="round"/>
<path d="M32.3473 17.4727L24.0834 25.7448L21.6042 23.2656" stroke="#E99D2D" stroke-width="1.5" stroke-linecap="round" stroke-linejoin="round"/>
</g>
<defs>
<clipPath id="clip0_234_2793">
<rect width="34" height="34" fill="white"/>
</clipPath>
</defs>
</svg>
