<?xml version="1.0" encoding="UTF-8"?>
<svg version="1.1" xmlns="http://www.w3.org/2000/svg" width="512" height="512">
<path d="M0 0 C3.33144909 2.82044992 5.35816073 5.03691746 6.625 9.3125 C7.25809913 17.86433635 6.02339958 25.75058834 4.125 34.0625 C3.76728516 35.69832031 3.76728516 35.69832031 3.40234375 37.3671875 C2.82096086 40.01829347 2.22844155 42.6663446 1.625 45.3125 C2.3672583 45.43906982 3.1095166 45.56563965 3.87426758 45.69604492 C8.05997905 46.63408712 11.54353974 48.62177181 15.3125 50.625 C16.14322021 51.06505371 16.97394043 51.50510742 17.82983398 51.95849609 C33.61630054 60.49228557 47.87873913 70.93159525 61.11328125 83.0234375 C62.8049032 84.56510229 64.51105651 86.09095444 66.23046875 87.6015625 C71.46995686 92.21484855 76.20429589 96.91430952 80.625 102.3125 C81.05006836 102.81990723 81.47513672 103.32731445 81.91308594 103.85009766 C114.23165538 142.47932805 133.20347933 190.81761376 134.625 241.3125 C134.66496094 242.27285156 134.70492188 243.23320312 134.74609375 244.22265625 C135.25174466 266.79848222 131.99951324 289.67345729 125.625 311.3125 C125.04011438 313.94125402 125.04011438 313.94125402 125.625 316.3125 C127.27691491 317.66406675 128.94794092 318.992262 130.625 320.3125 C141.9596646 333.63524928 144.94552444 349.32273578 143.625 366.3125 C140.98243644 381.18089979 131.68460703 392.82455675 122.98046875 404.6953125 C119.79476429 409.05103266 116.72657345 413.47871726 113.6875 417.9375 C112.78678987 419.24762383 111.88576422 420.55753081 110.984375 421.8671875 C109.59925727 423.88160675 108.235668 425.90351299 106.890625 427.9453125 C103.60037775 432.73916737 100.30013011 435.6867065 94.625 437.3125 C87.60288314 438.52122503 82.80398616 436.89202792 76.75390625 433.30859375 C74.5192566 431.9652627 74.5192566 431.9652627 71.625 433.3125 C70.09010908 435.12517442 70.09010908 435.12517442 68.6640625 437.390625 C68.10976563 438.22207031 67.55546875 439.05351562 66.984375 439.91015625 C66.12585938 441.22306641 66.12585938 441.22306641 65.25 442.5625 C57.87085655 453.79968877 57.87085655 453.79968877 53.625 457.3125 C50.4375 457.3125 50.4375 457.3125 47.625 456.3125 C45.625 453.3125 45.625 453.3125 45.63671875 450.65234375 C47.00791248 446.01846771 49.56324253 442.71299906 52.4375 438.875 C56.16239163 433.82011088 59.62113811 428.83291446 62.625 423.3125 C59.6268977 421.24723116 56.62617209 419.18580484 53.625 417.125 C52.78582031 416.54685547 51.94664062 415.96871094 51.08203125 415.37304688 C46.0031592 411.88870442 40.87251265 408.53753382 35.625 405.3125 C35.25737549 405.85664551 34.88975098 406.40079102 34.51098633 406.96142578 C32.8231216 409.45570004 31.13035531 411.94661042 29.4375 414.4375 C28.85935547 415.2934375 28.28121094 416.149375 27.68554688 417.03125 C19.04486648 429.72377487 19.04486648 429.72377487 15.0625 431.375 C12.625 431.3125 12.625 431.3125 10.3125 430.25 C8.625 428.3125 8.625 428.3125 8.3347168 425.49267578 C8.66337522 421.89208319 9.47678878 420.38984766 11.58203125 417.4921875 C12.20013672 416.62722656 12.81824219 415.76226562 13.45507812 414.87109375 C14.10927734 413.98550781 14.76347656 413.09992188 15.4375 412.1875 C16.08009766 411.29417969 16.72269531 410.40085937 17.38476562 409.48046875 C20.09152156 405.72747451 22.8434627 402.01033938 25.625 398.3125 C25.01011719 397.80460937 24.39523437 397.29671875 23.76171875 396.7734375 C14.15961559 388.59556974 14.15961559 388.59556974 13.28515625 381.58984375 C12.70821015 370.45900564 18.34050164 363.3799524 24.75 354.75 C29.10222072 348.81521001 33.36387441 342.83740195 37.5 336.75 C46.00710508 324.29349182 53.62959358 313.80502143 67.625 307.3125 C68.94757813 306.68794922 68.94757813 306.68794922 70.296875 306.05078125 C83.64536076 300.67745012 99.51413173 301.85329231 112.625 307.3125 C113.285 307.6425 113.945 307.9725 114.625 308.3125 C114.75003906 307.17683594 114.87507813 306.04117187 115.00390625 304.87109375 C115.47563041 301.09647141 116.19894495 297.43099371 117.03417969 293.72192383 C129.20017018 239.67771558 119.07867773 182.16335661 89.625 135.25 C67.25902231 100.60550577 36.86438978 76.17754404 0.625 57.3125 C-0.90869553 61.63032377 -1.9699837 65.86608153 -2.83035278 70.36485291 C-2.96273531 71.05107729 -3.09511783 71.73730168 -3.23151195 72.44432074 C-3.67144791 74.73029489 -4.10550775 77.01734358 -4.53955078 79.30444336 C-4.85477736 80.94918642 -5.17034816 82.59386354 -5.48623657 84.23847961 C-6.34129416 88.69637876 -7.19105971 93.15527103 -8.03951883 97.61443019 C-8.74881222 101.33988657 -9.46054613 105.06487505 -10.17223155 108.78987509 C-11.85125546 117.57850533 -13.52584344 126.36797297 -15.19775391 135.15795898 C-16.92159577 144.22051315 -18.65320823 153.28155822 -20.38860333 162.34190649 C-21.87947065 170.12717774 -23.36535304 177.91338925 -24.84728611 185.70036608 C-25.73191629 190.3484258 -26.61845881 194.99609994 -27.50986099 199.64286613 C-28.34789217 204.01252122 -29.17968765 208.3833182 -30.00674057 212.75506401 C-30.31088087 214.35705162 -30.61720628 215.95862619 -30.92590332 217.55974197 C-31.34778607 219.74979668 -31.76166006 221.94122278 -32.1736145 224.13316345 C-32.40699587 225.35780776 -32.64037724 226.58245207 -32.88083076 227.84420681 C-34.04048959 234.28673773 -34.04048959 234.28673773 -32.11010265 240.22634125 C-29.00120499 242.17248339 -25.36583212 241.7236989 -21.80786133 241.69726562 C-20.93269867 241.7026384 -20.05753601 241.70801117 -19.15585327 241.71354675 C-17.25375897 241.72333597 -15.35161995 241.72626546 -13.44950294 241.72319031 C-10.43500583 241.71871732 -7.42109741 241.73270002 -4.40666199 241.75158691 C1.9997156 241.78841608 8.40603215 241.80207655 14.8125 241.8125 C22.21988272 241.82458813 29.62698013 241.84623576 37.034235 241.89250183 C39.99666778 241.90603843 42.95873695 241.90190598 45.92118835 241.89709473 C47.75109309 241.90644136 49.58099387 241.91661169 51.41088867 241.92773438 C52.22833054 241.92158615 53.0457724 241.91543793 53.88798523 241.90910339 C60.05554084 241.97460532 65.79640523 242.9508649 70.68359375 247.03125 C71.13863281 247.6190625 71.59367187 248.206875 72.0625 248.8125 C72.53558594 249.4003125 73.00867188 249.988125 73.49609375 250.59375 C75.58983452 253.78145221 75.86359549 256.78035404 76 260.5 C76.04898437 261.40105469 76.09796875 262.30210937 76.1484375 263.23046875 C74.70678219 271.7190213 67.53807423 277.81550317 61.66796875 283.59765625 C60.80617508 284.45757675 59.94438141 285.31749725 59.05647278 286.20347595 C57.2402952 288.01295908 55.42053726 289.81885493 53.59741211 291.62133789 C50.82474103 294.36289632 48.06283881 297.11493647 45.30273438 299.86914062 C43.52926562 301.63343573 41.75519667 303.39712776 39.98046875 305.16015625 C39.16249313 305.97388199 38.34451752 306.78760773 37.50175476 307.62599182 C36.71766739 308.40047165 35.93358002 309.17495148 35.12573242 309.97290039 C34.10910774 310.97928307 34.10910774 310.97928307 33.07194519 312.0059967 C31.09404034 313.87038013 29.0857197 315.64190517 27.02363586 317.40989685 C21.68696378 322.05645981 16.73382816 327.07949433 11.74609375 332.09375 C10.67438803 333.16737881 9.60245152 334.24077727 8.53030396 335.31396484 C6.23613509 337.61127598 3.94352449 339.91012661 1.65213013 342.21020508 C-1.97725782 345.85320539 -5.61053741 349.49230801 -9.24438477 353.13085938 C-16.95756663 360.85510438 -24.66650628 368.58357683 -32.375 376.3125 C-40.69921468 384.65877595 -49.02416998 393.00430515 -57.35402966 401.34494781 C-60.96015384 404.9560296 -64.56383151 408.56952938 -68.16560364 412.18495178 C-70.41292116 414.43977122 -72.66234689 416.69247865 -74.91232681 418.94464111 C-75.94835398 419.98252735 -76.98352301 421.02127107 -78.0177269 422.06097412 C-83.06981119 427.13905555 -88.15500798 432.08863971 -93.59283447 436.75226593 C-96.38568124 439.19732202 -98.97801747 441.82313325 -101.57226562 444.47558594 C-102.13604416 445.04724991 -102.69982269 445.61891388 -103.28068542 446.207901 C-104.48913946 447.43338436 -105.69651277 448.65993423 -106.90287781 449.88747406 C-109.47759407 452.50472194 -112.06204766 455.11226679 -114.64588165 457.72050858 C-119.43990552 462.56004585 -124.22987664 467.40343389 -129.00341797 472.26318359 C-132.34096955 475.66025694 -135.6907185 479.04487616 -139.04875183 482.42169952 C-140.3194943 483.70414164 -141.5857022 484.99109434 -142.84712219 486.28270721 C-144.61249082 488.08928606 -146.3930431 489.87952736 -148.17773438 491.66699219 C-148.68809738 492.19690262 -149.19846039 492.72681305 -149.72428894 493.27278137 C-154.02595388 497.5273572 -158.70487904 499.94084218 -164.84375 500.5625 C-170.55012525 499.86017689 -175.07206149 498.22691133 -179.375 494.3125 C-183.47109674 489.01641999 -183.88226531 483.88205987 -183.375 477.3125 C-182.69195152 472.75954621 -181.79838589 468.25961706 -180.875 463.75 C-180.63652344 462.55052734 -180.39804688 461.35105469 -180.15234375 460.11523438 C-179.56751067 457.17937232 -178.97490091 454.24531346 -178.375 451.3125 C-179.26977051 451.02818115 -180.16454102 450.7438623 -181.08642578 450.45092773 C-205.21979239 442.09651879 -226.1256781 424.61243521 -244.375 407.3125 C-245.12765137 406.60287109 -245.12765137 406.60287109 -245.89550781 405.87890625 C-283.99543646 369.71460099 -308.77454524 315.09021064 -310.49926758 262.52514648 C-310.59522975 258.05852584 -310.62159454 253.59255808 -310.625 249.125 C-310.62567474 248.32770477 -310.62634949 247.53040955 -310.62704468 246.70895386 C-310.56746284 202.22916664 -297.43443851 157.67558176 -271.375 121.3125 C-270.95412109 120.71646973 -270.53324219 120.12043945 -270.09960938 119.50634766 C-262.36870757 108.6095365 -253.79735845 98.77694465 -244.375 89.3125 C-243.80555664 88.73902832 -243.23611328 88.16555664 -242.64941406 87.57470703 C-203.87617563 48.99386353 -148.20570943 25.98875122 -93.58007812 26.0390625 C-92.30886108 26.04534668 -92.30886108 26.04534668 -91.01196289 26.05175781 C-88.44328138 26.06247588 -85.87530113 26.05179197 -83.30664062 26.0390625 C-81.61197741 26.03997527 -79.91731424 26.04256918 -78.22265625 26.046875 C-77.39133179 26.04472992 -76.56000732 26.04258484 -75.70349121 26.04037476 C-71.61349591 26.07914415 -67.82841059 26.33814296 -63.83203125 27.23681641 C-56.56644874 28.99995287 -56.56644874 28.99995287 -49.47915649 27.34155273 C-44.75639087 23.93632362 -41.03394326 19.57224256 -37.25 15.1875 C-35.52178831 13.2784402 -33.77982407 11.3831667 -32.03103638 9.49295044 C-30.9549964 8.3202818 -29.89302459 7.13447782 -28.84860229 5.93356323 C-21.15311077 -2.73826133 -10.31254134 -7.26824869 0 0 Z M-245.54589844 107.33544922 C-250.20995752 112.37676668 -254.38641688 117.72674758 -258.375 123.3125 C-258.8592041 123.99006348 -259.3434082 124.66762695 -259.84228516 125.36572266 C-280.99879968 155.32443391 -293.84655646 188.91355644 -298.375 225.3125 C-298.57222656 226.84970703 -298.57222656 226.84970703 -298.7734375 228.41796875 C-304.40512435 282.37561706 -287.10892835 337.02835097 -253.78515625 379.3828125 C-250.78061894 383.03500534 -247.66697502 386.56304287 -244.4609375 390.0390625 C-242.5227745 392.1514424 -240.66476729 394.31248072 -238.8125 396.5 C-235.29813291 400.50845044 -231.48731789 403.92779602 -227.375 407.3125 C-226.85405762 407.74578613 -226.33311523 408.17907227 -225.79638672 408.62548828 C-202.54692352 429.22012314 -202.54692352 429.22012314 -175.375 440.3125 C-171.53249244 420.20494168 -167.69005727 400.09736953 -163.84770584 379.98978138 C-162.0632178 370.65130289 -160.278707 361.31282875 -158.49414062 351.97436523 C-156.93682766 343.82509658 -155.37955944 335.67581938 -153.82234263 327.52653235 C-152.99952621 323.22054585 -152.17668894 318.91456333 -151.35379791 314.60859108 C-151.19575676 313.78154826 -151.0377156 312.95450544 -150.87488532 312.10240072 C-150.5620501 310.46548488 -150.24914505 308.82858238 -149.936167 307.19169384 C-149.19683173 303.32434016 -148.4587086 299.45676482 -147.7236824 295.58858967 C-146.51663573 289.24177259 -145.29972974 282.89794583 -144.01989746 276.5652771 C-143.82353069 275.58081698 -143.62716393 274.59635687 -143.42484665 273.58206463 C-143.07622892 271.84080025 -142.72032739 270.10096716 -142.35484695 268.36316395 C-141.57036171 264.41724805 -140.98215337 261.15164029 -142.375 257.3125 C-143.64863266 255.63871378 -143.64863266 255.63871378 -145.375 254.3125 C-148.33578818 254.01804963 -151.08804031 253.90601712 -154.04980469 253.92773438 C-154.93632721 253.9223616 -155.82284973 253.91698883 -156.73623657 253.91145325 C-158.66288827 253.90166405 -160.58958412 253.89873454 -162.51625824 253.90180969 C-165.56828373 253.90628137 -168.61972738 253.89230425 -171.67169189 253.87341309 C-178.15611831 253.83658359 -184.64048439 253.82292064 -191.125 253.8125 C-198.62577961 253.80041765 -206.12627714 253.77881209 -213.62693024 253.73249817 C-216.62873965 253.71894476 -219.63019111 253.72309681 -222.63201904 253.72790527 C-224.48222302 253.71856061 -226.33242306 253.70839077 -228.18261719 253.69726562 C-229.42819901 253.70648796 -229.42819901 253.70648796 -230.69894409 253.71589661 C-237.3339415 253.64606671 -241.99866811 252.31918027 -247.1875 247.9375 C-251.05468512 243.29687786 -251.60174391 239.56251204 -251.73828125 233.69140625 C-250.86881134 227.99778071 -247.55057017 224.11379716 -243.58833313 220.15834045 C-243.1095552 219.67629369 -242.63077728 219.19424692 -242.13749093 218.69759268 C-240.5418084 217.09466544 -238.93569166 215.50263578 -237.3293457 213.91040039 C-236.17869935 212.75896262 -235.02870681 211.60687117 -233.87931824 210.45417786 C-230.76187682 207.33161064 -227.63519847 204.21844583 -224.50663781 201.10702443 C-221.22746047 197.84291695 -217.95642247 194.57067197 -214.68437195 191.29942322 C-209.18561994 185.80436205 -203.68126768 180.31496363 -198.1730957 174.8293457 C-191.11908799 167.80416434 -184.07432167 160.76979202 -177.0324831 153.7324152 C-170.96253021 147.66645519 -164.8883278 141.6047555 -158.81344962 135.54372859 C-156.86931191 133.60367424 -154.92574925 131.66304523 -152.98226357 129.72233772 C-149.9173953 126.66239583 -146.84987571 123.60513507 -143.78035164 120.54986382 C-142.6589154 119.43291601 -141.53828891 118.31515447 -140.41856766 117.19648743 C-135.13122142 111.91523096 -129.81948669 106.71970338 -124.14198589 101.85489368 C-121.28917345 99.36468711 -118.62656094 96.69560436 -115.95898438 94.01000977 C-115.37260193 93.42377335 -114.78621948 92.83753693 -114.18206787 92.23353577 C-112.27524391 90.32602404 -110.37197071 88.41501252 -108.46875 86.50390625 C-107.1351887 85.16847673 -105.80140412 83.83327015 -104.46740723 82.49827576 C-100.98003352 79.00710872 -97.4956751 75.51294766 -94.01196289 72.01812744 C-90.44731217 68.44319368 -86.87978083 64.87113706 -83.3125 61.29882812 C-76.33053122 54.30617826 -69.35174853 47.31035799 -62.375 40.3125 C-62.705 39.6525 -63.035 38.9925 -63.375 38.3125 C-130.06656508 25.17832062 -200.80730641 60.3565839 -245.54589844 107.33544922 Z " fill="#F9A529" transform="translate(339.375,7.6875)"/>
<path d="M0 0 C3.33144909 2.82044992 5.35816073 5.03691746 6.625 9.3125 C7.25809913 17.86433635 6.02339958 25.75058834 4.125 34.0625 C3.76728516 35.69832031 3.76728516 35.69832031 3.40234375 37.3671875 C2.82096086 40.01829347 2.22844155 42.6663446 1.625 45.3125 C2.3672583 45.43906982 3.1095166 45.56563965 3.87426758 45.69604492 C8.05997905 46.63408712 11.54353974 48.62177181 15.3125 50.625 C16.14322021 51.06505371 16.97394043 51.50510742 17.82983398 51.95849609 C33.61630054 60.49228557 47.87873913 70.93159525 61.11328125 83.0234375 C62.8049032 84.56510229 64.51105651 86.09095444 66.23046875 87.6015625 C71.46995686 92.21484855 76.20429589 96.91430952 80.625 102.3125 C81.05006836 102.81990723 81.47513672 103.32731445 81.91308594 103.85009766 C114.23165538 142.47932805 133.20347933 190.81761376 134.625 241.3125 C134.66496094 242.27285156 134.70492188 243.23320312 134.74609375 244.22265625 C135.25174466 266.79848222 131.99951324 289.67345729 125.625 311.3125 C125.04011438 313.94125402 125.04011438 313.94125402 125.625 316.3125 C127.27691491 317.66406675 128.94794092 318.992262 130.625 320.3125 C141.9596646 333.63524928 144.94552444 349.32273578 143.625 366.3125 C140.98243644 381.18089979 131.68460703 392.82455675 122.98046875 404.6953125 C119.79476429 409.05103266 116.72657345 413.47871726 113.6875 417.9375 C112.78678987 419.24762383 111.88576422 420.55753081 110.984375 421.8671875 C109.59925727 423.88160675 108.235668 425.90351299 106.890625 427.9453125 C103.60037775 432.73916737 100.30013011 435.6867065 94.625 437.3125 C87.60288314 438.52122503 82.80398616 436.89202792 76.75390625 433.30859375 C74.5192566 431.9652627 74.5192566 431.9652627 71.625 433.3125 C70.09010908 435.12517442 70.09010908 435.12517442 68.6640625 437.390625 C68.10976563 438.22207031 67.55546875 439.05351562 66.984375 439.91015625 C66.12585938 441.22306641 66.12585938 441.22306641 65.25 442.5625 C57.87085655 453.79968877 57.87085655 453.79968877 53.625 457.3125 C50.4375 457.3125 50.4375 457.3125 47.625 456.3125 C45.625 453.3125 45.625 453.3125 45.63671875 450.65234375 C47.00791248 446.01846771 49.56324253 442.71299906 52.4375 438.875 C56.16239163 433.82011088 59.62113811 428.83291446 62.625 423.3125 C59.6268977 421.24723116 56.62617209 419.18580484 53.625 417.125 C52.78582031 416.54685547 51.94664062 415.96871094 51.08203125 415.37304688 C46.0031592 411.88870442 40.87251265 408.53753382 35.625 405.3125 C35.25737549 405.85664551 34.88975098 406.40079102 34.51098633 406.96142578 C32.8231216 409.45570004 31.13035531 411.94661042 29.4375 414.4375 C28.85935547 415.2934375 28.28121094 416.149375 27.68554688 417.03125 C19.04486648 429.72377487 19.04486648 429.72377487 15.0625 431.375 C12.625 431.3125 12.625 431.3125 10.3125 430.25 C8.625 428.3125 8.625 428.3125 8.3347168 425.49267578 C8.66337522 421.89208319 9.47678878 420.38984766 11.58203125 417.4921875 C12.20013672 416.62722656 12.81824219 415.76226562 13.45507812 414.87109375 C14.10927734 413.98550781 14.76347656 413.09992188 15.4375 412.1875 C16.08009766 411.29417969 16.72269531 410.40085937 17.38476562 409.48046875 C20.09152156 405.72747451 22.8434627 402.01033938 25.625 398.3125 C25.01011719 397.80460937 24.39523437 397.29671875 23.76171875 396.7734375 C14.15961559 388.59556974 14.15961559 388.59556974 13.28515625 381.58984375 C12.70821015 370.45900564 18.34050164 363.3799524 24.75 354.75 C29.10222072 348.81521001 33.36387441 342.83740195 37.5 336.75 C46.00710508 324.29349182 53.62959358 313.80502143 67.625 307.3125 C68.94757813 306.68794922 68.94757813 306.68794922 70.296875 306.05078125 C83.64536076 300.67745012 99.51413173 301.85329231 112.625 307.3125 C113.285 307.6425 113.945 307.9725 114.625 308.3125 C114.75003906 307.17683594 114.87507813 306.04117187 115.00390625 304.87109375 C115.47563041 301.09647141 116.19894495 297.43099371 117.03417969 293.72192383 C129.20017018 239.67771558 119.07867773 182.16335661 89.625 135.25 C67.25902231 100.60550577 36.86438978 76.17754404 0.625 57.3125 C-0.90869553 61.63032377 -1.9699837 65.86608153 -2.83035278 70.36485291 C-2.96273531 71.05107729 -3.09511783 71.73730168 -3.23151195 72.44432074 C-3.67144791 74.73029489 -4.10550775 77.01734358 -4.53955078 79.30444336 C-4.85477736 80.94918642 -5.17034816 82.59386354 -5.48623657 84.23847961 C-6.34129416 88.69637876 -7.19105971 93.15527103 -8.03951883 97.61443019 C-8.74881222 101.33988657 -9.46054613 105.06487505 -10.17223155 108.78987509 C-11.85125546 117.57850533 -13.52584344 126.36797297 -15.19775391 135.15795898 C-16.92159577 144.22051315 -18.65320823 153.28155822 -20.38860333 162.34190649 C-21.87947065 170.12717774 -23.36535304 177.91338925 -24.84728611 185.70036608 C-25.73191629 190.3484258 -26.61845881 194.99609994 -27.50986099 199.64286613 C-28.34789217 204.01252122 -29.17968765 208.3833182 -30.00674057 212.75506401 C-30.31088087 214.35705162 -30.61720628 215.95862619 -30.92590332 217.55974197 C-31.34778607 219.74979668 -31.76166006 221.94122278 -32.1736145 224.13316345 C-32.40699587 225.35780776 -32.64037724 226.58245207 -32.88083076 227.84420681 C-34.04048959 234.28673773 -34.04048959 234.28673773 -32.11010265 240.22634125 C-29.00120499 242.17248339 -25.36583212 241.7236989 -21.80786133 241.69726562 C-20.93269867 241.7026384 -20.05753601 241.70801117 -19.15585327 241.71354675 C-17.25375897 241.72333597 -15.35161995 241.72626546 -13.44950294 241.72319031 C-10.43500583 241.71871732 -7.42109741 241.73270002 -4.40666199 241.75158691 C1.9997156 241.78841608 8.40603215 241.80207655 14.8125 241.8125 C22.21988272 241.82458813 29.62698013 241.84623576 37.034235 241.89250183 C39.99666778 241.90603843 42.95873695 241.90190598 45.92118835 241.89709473 C47.75109309 241.90644136 49.58099387 241.91661169 51.41088867 241.92773438 C52.22833054 241.92158615 53.0457724 241.91543793 53.88798523 241.90910339 C60.05554084 241.97460532 65.79640523 242.9508649 70.68359375 247.03125 C71.13863281 247.6190625 71.59367187 248.206875 72.0625 248.8125 C72.53558594 249.4003125 73.00867188 249.988125 73.49609375 250.59375 C75.58983452 253.78145221 75.86359549 256.78035404 76 260.5 C76.04898437 261.40105469 76.09796875 262.30210937 76.1484375 263.23046875 C74.70678219 271.7190213 67.53807423 277.81550317 61.66796875 283.59765625 C60.80617508 284.45757675 59.94438141 285.31749725 59.05647278 286.20347595 C57.2402952 288.01295908 55.42053726 289.81885493 53.59741211 291.62133789 C50.82474103 294.36289632 48.06283881 297.11493647 45.30273438 299.86914062 C43.52926562 301.63343573 41.75519667 303.39712776 39.98046875 305.16015625 C39.16249313 305.97388199 38.34451752 306.78760773 37.50175476 307.62599182 C36.71766739 308.40047165 35.93358002 309.17495148 35.12573242 309.97290039 C34.10910774 310.97928307 34.10910774 310.97928307 33.07194519 312.0059967 C31.09404034 313.87038013 29.0857197 315.64190517 27.02363586 317.40989685 C21.68696378 322.05645981 16.73382816 327.07949433 11.74609375 332.09375 C10.67438803 333.16737881 9.60245152 334.24077727 8.53030396 335.31396484 C6.23613509 337.61127598 3.94352449 339.91012661 1.65213013 342.21020508 C-1.97725782 345.85320539 -5.61053741 349.49230801 -9.24438477 353.13085938 C-16.95756663 360.85510438 -24.66650628 368.58357683 -32.375 376.3125 C-40.69921468 384.65877595 -49.02416998 393.00430515 -57.35402966 401.34494781 C-60.96015384 404.9560296 -64.56383151 408.56952938 -68.16560364 412.18495178 C-70.41292116 414.43977122 -72.66234689 416.69247865 -74.91232681 418.94464111 C-75.94835398 419.98252735 -76.98352301 421.02127107 -78.0177269 422.06097412 C-83.06981119 427.13905555 -88.15500798 432.08863971 -93.59283447 436.75226593 C-96.38568124 439.19732202 -98.97801747 441.82313325 -101.57226562 444.47558594 C-102.13604416 445.04724991 -102.69982269 445.61891388 -103.28068542 446.207901 C-104.48913946 447.43338436 -105.69651277 448.65993423 -106.90287781 449.88747406 C-109.47759407 452.50472194 -112.06204766 455.11226679 -114.64588165 457.72050858 C-119.43990552 462.56004585 -124.22987664 467.40343389 -129.00341797 472.26318359 C-132.34096955 475.66025694 -135.6907185 479.04487616 -139.04875183 482.42169952 C-140.3194943 483.70414164 -141.5857022 484.99109434 -142.84712219 486.28270721 C-144.61249082 488.08928606 -146.3930431 489.87952736 -148.17773438 491.66699219 C-148.68809738 492.19690262 -149.19846039 492.72681305 -149.72428894 493.27278137 C-154.02595388 497.5273572 -158.70487904 499.94084218 -164.84375 500.5625 C-170.55012525 499.86017689 -175.07206149 498.22691133 -179.375 494.3125 C-183.47109674 489.01641999 -183.88226531 483.88205987 -183.375 477.3125 C-182.69195152 472.75954621 -181.79838589 468.25961706 -180.875 463.75 C-180.63652344 462.55052734 -180.39804688 461.35105469 -180.15234375 460.11523438 C-179.56751067 457.17937232 -178.97490091 454.24531346 -178.375 451.3125 C-179.26977051 451.02818115 -180.16454102 450.7438623 -181.08642578 450.45092773 C-205.21979239 442.09651879 -226.1256781 424.61243521 -244.375 407.3125 C-245.12765137 406.60287109 -245.12765137 406.60287109 -245.89550781 405.87890625 C-283.99543646 369.71460099 -308.77454524 315.09021064 -310.49926758 262.52514648 C-310.59522975 258.05852584 -310.62159454 253.59255808 -310.625 249.125 C-310.62567474 248.32770477 -310.62634949 247.53040955 -310.62704468 246.70895386 C-310.56746284 202.22916664 -297.43443851 157.67558176 -271.375 121.3125 C-270.95412109 120.71646973 -270.53324219 120.12043945 -270.09960938 119.50634766 C-262.36870757 108.6095365 -253.79735845 98.77694465 -244.375 89.3125 C-243.80555664 88.73902832 -243.23611328 88.16555664 -242.64941406 87.57470703 C-203.87617563 48.99386353 -148.20570943 25.98875122 -93.58007812 26.0390625 C-92.30886108 26.04534668 -92.30886108 26.04534668 -91.01196289 26.05175781 C-88.44328138 26.06247588 -85.87530113 26.05179197 -83.30664062 26.0390625 C-81.61197741 26.03997527 -79.91731424 26.04256918 -78.22265625 26.046875 C-77.39133179 26.04472992 -76.56000732 26.04258484 -75.70349121 26.04037476 C-71.61349591 26.07914415 -67.82841059 26.33814296 -63.83203125 27.23681641 C-56.56644874 28.99995287 -56.56644874 28.99995287 -49.47915649 27.34155273 C-44.75639087 23.93632362 -41.03394326 19.57224256 -37.25 15.1875 C-35.52178831 13.2784402 -33.77982407 11.3831667 -32.03103638 9.49295044 C-30.9549964 8.3202818 -29.89302459 7.13447782 -28.84860229 5.93356323 C-21.15311077 -2.73826133 -10.31254134 -7.26824869 0 0 Z M-17.16882324 10.36242676 C-17.86676498 11.00511002 -18.56470673 11.64779327 -19.28379822 12.30995178 C-22.45103492 15.34291793 -25.5857721 18.39999007 -28.67382812 21.51367188 C-29.35464951 22.19595352 -30.03547089 22.87823517 -30.73692322 23.58119202 C-32.20081604 25.0488622 -33.66355359 26.51768542 -35.12522888 27.98756409 C-37.44439513 30.31960692 -39.76676959 32.64841268 -42.08996582 34.97644043 C-47.02113431 39.91898286 -51.94835913 44.86544504 -56.875 49.8125 C-62.58834128 55.54951516 -68.30332723 61.28487172 -74.02256775 67.01600647 C-76.30003874 69.29991518 -78.57445406 71.58683646 -80.84875488 73.87390137 C-82.25774414 75.28652632 -83.66687578 76.69900929 -85.07617188 78.11132812 C-85.69874374 78.73906631 -86.32131561 79.3668045 -86.9627533 80.01356506 C-89.93963608 82.99079946 -92.9611623 85.85276904 -96.15698242 88.59448242 C-101.41124576 93.13914621 -106.26567137 98.07923019 -111.16210938 103.00195312 C-112.22396297 104.06572987 -113.28604741 105.12927623 -114.3483429 106.19261169 C-116.62123101 108.46864181 -118.89256085 110.74621126 -121.16267395 113.02500916 C-124.75845623 116.63440524 -128.35813142 120.23990231 -131.95837402 123.84484863 C-139.60022647 131.49776363 -147.23783635 139.15490628 -154.875 146.8125 C-163.12222527 155.08178732 -171.37019159 163.35032738 -179.62306261 171.61398077 C-183.19573552 175.19161085 -186.76596188 178.77165866 -190.33428192 182.35363007 C-192.56084013 184.58769092 -194.78950718 186.81963909 -197.01872826 189.05104256 C-198.0450802 190.07925335 -199.07057413 191.1083215 -200.09510231 192.13834953 C-205.15940849 197.22896476 -210.24692821 202.22148281 -215.71090794 206.8841095 C-219.90576789 210.48481059 -223.81211381 214.40618586 -227.75024414 218.28271484 C-228.79816464 219.30885485 -229.85231274 220.32867071 -230.91235352 221.34228516 C-232.46547908 222.82838134 -233.99786967 224.33336783 -235.52734375 225.84375 C-236.43476318 226.72611328 -237.34218262 227.60847656 -238.27709961 228.51757812 C-240.86505503 231.96537443 -241.51836889 234.00355245 -241.375 238.3125 C-239.40859085 241.01254244 -237.81990313 242.96835081 -234.46444416 243.76755905 C-232.12032726 243.9475028 -229.82394819 243.96203692 -227.47314453 243.92431641 C-226.58632996 243.92998123 -225.69951538 243.93564606 -224.78582764 243.94148254 C-221.85939046 243.95496748 -218.93419533 243.93404882 -216.0078125 243.9140625 C-213.96905673 243.91956354 -211.9303065 243.92768893 -209.89157104 243.93832397 C-204.5249165 243.96121716 -199.1586691 243.95698809 -193.79199219 243.94451904 C-185.20962688 243.9262201 -176.62750117 243.93621415 -168.04519272 243.97037888 C-165.05217024 243.97647219 -162.05966292 243.9632345 -159.06668091 243.94839478 C-157.22300078 243.95134395 -155.37932159 243.95499933 -153.53564453 243.95947266 C-152.29477585 243.94553719 -152.29477585 243.94553719 -151.02883911 243.93132019 C-145.73689255 243.96752456 -142.06763612 244.81340158 -137.375 247.3125 C-132.40306911 252.67695175 -132.06240293 256.16226674 -132.125 263.30322266 C-132.4768894 271.13887101 -134.32261693 278.83440551 -135.875 286.5 C-136.24087842 288.35456268 -136.60543461 290.20938664 -136.96875 292.06445312 C-137.72277514 295.90906724 -138.48241225 299.75250767 -139.24609375 303.59521484 C-140.83779263 311.6269396 -142.35984023 319.6717685 -143.88305664 327.71670532 C-144.71045918 332.08258826 -145.54300499 336.44749035 -146.375 340.8125 C-146.70835764 342.56249537 -147.04169098 344.31249537 -147.375 346.0625 C-150.70833333 363.5625 -154.04166667 381.0625 -157.375 398.5625 C-157.53995972 399.42857376 -157.70491943 400.29464752 -157.87487793 401.18696594 C-158.20856582 402.93875611 -158.54230614 404.69053628 -158.87609863 406.44230652 C-159.70443522 410.78983708 -160.53189015 415.13753161 -161.35742188 419.4855957 C-162.91582621 427.6885195 -164.48353282 435.88937987 -166.08032227 444.08493042 C-166.83416933 447.95678511 -167.58328369 451.82954893 -168.33203125 455.70239258 C-168.6903408 457.54855678 -169.05096951 459.39427257 -169.4140625 461.23950195 C-169.91733624 463.79788838 -170.41260009 466.35771063 -170.90625 468.91796875 C-171.05582153 469.6670903 -171.20539307 470.41621185 -171.35949707 471.18803406 C-172.20273151 475.61170426 -172.69632988 479.78768625 -172.375 484.3125 C-170.4155988 487.4389113 -170.4155988 487.4389113 -167.375 489.3125 C-163.06745041 489.41884967 -160.83857806 488.11042697 -157.79150391 485.28076172 C-156.46542309 483.94714479 -155.15283043 482.60002631 -153.8515625 481.2421875 C-153.14655609 480.52773468 -152.44154968 479.81328186 -151.71517944 479.07717896 C-149.46467817 476.79214123 -147.23190731 474.49068963 -145 472.1875 C-142.77194314 469.90920075 -140.540317 467.6344906 -138.3062439 465.36209106 C-136.91951824 463.94932787 -135.53677584 462.53263912 -134.15884399 461.11129761 C-133.19777237 460.125905 -133.19777237 460.125905 -132.21728516 459.12060547 C-131.39171616 458.26908401 -131.39171616 458.26908401 -130.54946899 457.40036011 C-128.68537172 455.61050965 -126.78147092 453.93493715 -124.82052612 452.25405884 C-119.43466207 447.56751776 -114.43613412 442.49779493 -109.40429688 437.43945312 C-108.32273904 436.35597225 -107.24095045 435.27272168 -106.15895081 434.18968201 C-103.84350119 431.87108986 -101.52960982 429.55095804 -99.2169342 427.229599 C-95.55394061 423.55299445 -91.8870566 419.88028629 -88.21960449 416.20812988 C-80.4350932 408.41255487 -72.65482379 400.61275263 -64.875 392.8125 C-56.47379591 384.3892354 -48.07185164 375.96671708 -39.6650033 367.54908514 C-36.02542783 363.90455165 -32.38829886 360.25759992 -28.75307465 356.6087265 C-26.48499781 354.33314847 -24.21481341 352.05968178 -21.94407463 349.78676033 C-20.89837224 348.73919865 -19.8535281 347.69077938 -18.80964851 346.64140129 C-13.74922718 341.55518408 -8.6502636 336.5772217 -3.20096588 331.90479279 C-0.15281889 329.24672424 2.71485769 326.41105912 5.59179688 323.5703125 C6.23670074 322.93679871 6.88160461 322.30328491 7.54605103 321.65057373 C14.19406764 315.11201843 20.81178371 308.54265798 27.42675781 301.97070312 C30.56406972 298.85578774 33.7108809 295.75095711 36.86621094 292.65429688 C40.69046795 288.90097382 44.49739098 285.13087372 48.29249573 281.3480835 C49.73783327 279.91315354 51.18917851 278.48424847 52.64659119 277.06158447 C54.67889237 275.07532674 56.68815512 273.0682461 58.69335938 271.0546875 C59.29793976 270.473703 59.90252014 269.89271851 60.52542114 269.29412842 C63.43092287 266.32948887 64.52815017 264.83293156 65.30822754 260.64111328 C64.87656383 257.24910392 64.87656383 257.24910392 62.68710327 254.90515137 C58.54811535 252.7523942 55.23180591 252.76815889 50.63134766 252.83007812 C49.73477951 252.82616562 48.83821136 252.82225311 47.91447449 252.81822205 C45.9720187 252.81225414 44.02951815 252.81540427 42.08708572 252.8266449 C39.00959986 252.84391534 35.93305271 252.83639379 32.8555603 252.8223877 C25.21214839 252.7927449 17.56891596 252.80591882 9.92547607 252.81756592 C3.46595282 252.82577672 -2.99316028 252.81779906 -9.45262527 252.78843689 C-12.47896243 252.78135409 -15.50457341 252.79800772 -18.53085327 252.81555176 C-20.39475899 252.80984214 -22.25866174 252.80302401 -24.12255859 252.79492188 C-25.37745338 252.81189369 -25.37745338 252.81189369 -26.65769958 252.82920837 C-32.36283184 252.77009978 -35.66310751 251.56130584 -40.375 248.3125 C-44.16903737 243.95743956 -44.71085652 238.9727038 -44.61352539 233.40087891 C-44.10280451 226.7881674 -42.67093547 220.30709556 -41.375 213.8125 C-41.05689318 212.18142224 -40.7397782 210.55015078 -40.42358398 208.91870117 C-39.75504524 205.47412536 -39.0819745 202.03047957 -38.40576172 198.58740234 C-36.88200459 190.81202081 -35.41071893 183.02667105 -33.93432617 175.2421875 C-33.09555903 170.82371883 -32.25271594 166.40602799 -31.41015625 161.98828125 C-31.07045754 160.20654635 -30.73077654 158.42480807 -30.39111328 156.64306641 C-30.13917206 155.32148529 -30.13917206 155.32148529 -29.88214111 153.97320557 C-28.54535156 146.95976627 -27.20977105 139.94609658 -25.87399292 132.9324646 C-25.0410571 128.55913129 -24.20802358 124.18581659 -23.375 119.8125 C-23.0416662 118.06250009 -22.70833287 116.31250009 -22.375 114.5625 C-20.37500001 104.06250006 -20.37500001 104.06250006 -19.87510681 101.43806458 C-19.54141557 99.68618301 -19.2077262 97.9343011 -18.8740387 96.18241882 C-18.04619662 91.8362038 -17.21832314 87.48999476 -16.39038086 83.14379883 C-14.82484006 74.92547238 -13.25963877 66.70708164 -11.69546509 58.48849487 C-10.95472665 54.59655579 -10.21382019 50.7046487 -9.47290039 46.81274414 C-9.11897502 44.95338517 -8.76513243 43.09401044 -8.41137695 41.23461914 C-7.92159483 38.66027935 -7.43153024 36.08599347 -6.94140625 33.51171875 C-6.796996 32.75227463 -6.65258575 31.99283051 -6.50379944 31.21037292 C-5.94674495 28.2857587 -5.38518627 25.36279335 -4.79418945 22.44482422 C-4.05937656 18.70699323 -3.74155041 15.08504422 -4.375 11.3125 C-6.46254352 8.6246661 -6.46254352 8.6246661 -9.375 7.3125 C-13.79655782 7.3125 -14.12839168 7.54162153 -17.16882324 10.36242676 Z M-245.54589844 107.33544922 C-250.20995752 112.37676668 -254.38641688 117.72674758 -258.375 123.3125 C-258.8592041 123.99006348 -259.3434082 124.66762695 -259.84228516 125.36572266 C-280.99879968 155.32443391 -293.84655646 188.91355644 -298.375 225.3125 C-298.57222656 226.84970703 -298.57222656 226.84970703 -298.7734375 228.41796875 C-304.40512435 282.37561706 -287.10892835 337.02835097 -253.78515625 379.3828125 C-250.78061894 383.03500534 -247.66697502 386.56304287 -244.4609375 390.0390625 C-242.5227745 392.1514424 -240.66476729 394.31248072 -238.8125 396.5 C-235.29813291 400.50845044 -231.48731789 403.92779602 -227.375 407.3125 C-226.85405762 407.74578613 -226.33311523 408.17907227 -225.79638672 408.62548828 C-202.54692352 429.22012314 -202.54692352 429.22012314 -175.375 440.3125 C-171.53249244 420.20494168 -167.69005727 400.09736953 -163.84770584 379.98978138 C-162.0632178 370.65130289 -160.278707 361.31282875 -158.49414062 351.97436523 C-156.93682766 343.82509658 -155.37955944 335.67581938 -153.82234263 327.52653235 C-152.99952621 323.22054585 -152.17668894 318.91456333 -151.35379791 314.60859108 C-151.19575676 313.78154826 -151.0377156 312.95450544 -150.87488532 312.10240072 C-150.5620501 310.46548488 -150.24914505 308.82858238 -149.936167 307.19169384 C-149.19683173 303.32434016 -148.4587086 299.45676482 -147.7236824 295.58858967 C-146.51663573 289.24177259 -145.29972974 282.89794583 -144.01989746 276.5652771 C-143.82353069 275.58081698 -143.62716393 274.59635687 -143.42484665 273.58206463 C-143.07622892 271.84080025 -142.72032739 270.10096716 -142.35484695 268.36316395 C-141.57036171 264.41724805 -140.98215337 261.15164029 -142.375 257.3125 C-143.64863266 255.63871378 -143.64863266 255.63871378 -145.375 254.3125 C-148.33578818 254.01804963 -151.08804031 253.90601712 -154.04980469 253.92773438 C-154.93632721 253.9223616 -155.82284973 253.91698883 -156.73623657 253.91145325 C-158.66288827 253.90166405 -160.58958412 253.89873454 -162.51625824 253.90180969 C-165.56828373 253.90628137 -168.61972738 253.89230425 -171.67169189 253.87341309 C-178.15611831 253.83658359 -184.64048439 253.82292064 -191.125 253.8125 C-198.62577961 253.80041765 -206.12627714 253.77881209 -213.62693024 253.73249817 C-216.62873965 253.71894476 -219.63019111 253.72309681 -222.63201904 253.72790527 C-224.48222302 253.71856061 -226.33242306 253.70839077 -228.18261719 253.69726562 C-229.42819901 253.70648796 -229.42819901 253.70648796 -230.69894409 253.71589661 C-237.3339415 253.64606671 -241.99866811 252.31918027 -247.1875 247.9375 C-251.05468512 243.29687786 -251.60174391 239.56251204 -251.73828125 233.69140625 C-250.86881134 227.99778071 -247.55057017 224.11379716 -243.58833313 220.15834045 C-243.1095552 219.67629369 -242.63077728 219.19424692 -242.13749093 218.69759268 C-240.5418084 217.09466544 -238.93569166 215.50263578 -237.3293457 213.91040039 C-236.17869935 212.75896262 -235.02870681 211.60687117 -233.87931824 210.45417786 C-230.76187682 207.33161064 -227.63519847 204.21844583 -224.50663781 201.10702443 C-221.22746047 197.84291695 -217.95642247 194.57067197 -214.68437195 191.29942322 C-209.18561994 185.80436205 -203.68126768 180.31496363 -198.1730957 174.8293457 C-191.11908799 167.80416434 -184.07432167 160.76979202 -177.0324831 153.7324152 C-170.96253021 147.66645519 -164.8883278 141.6047555 -158.81344962 135.54372859 C-156.86931191 133.60367424 -154.92574925 131.66304523 -152.98226357 129.72233772 C-149.9173953 126.66239583 -146.84987571 123.60513507 -143.78035164 120.54986382 C-142.6589154 119.43291601 -141.53828891 118.31515447 -140.41856766 117.19648743 C-135.13122142 111.91523096 -129.81948669 106.71970338 -124.14198589 101.85489368 C-121.28917345 99.36468711 -118.62656094 96.69560436 -115.95898438 94.01000977 C-115.37260193 93.42377335 -114.78621948 92.83753693 -114.18206787 92.23353577 C-112.27524391 90.32602404 -110.37197071 88.41501252 -108.46875 86.50390625 C-107.1351887 85.16847673 -105.80140412 83.83327015 -104.46740723 82.49827576 C-100.98003352 79.00710872 -97.4956751 75.51294766 -94.01196289 72.01812744 C-90.44731217 68.44319368 -86.87978083 64.87113706 -83.3125 61.29882812 C-76.33053122 54.30617826 -69.35174853 47.31035799 -62.375 40.3125 C-62.705 39.6525 -63.035 38.9925 -63.375 38.3125 C-130.06656508 25.17832062 -200.80730641 60.3565839 -245.54589844 107.33544922 Z " fill="#25294E" transform="translate(339.375,7.6875)"/>
<path d="M0 0 C2.11470128 1.6069758 2.91105323 2.43455267 3.328125 5.0859375 C3.30234375 5.84132813 3.2765625 6.59671875 3.25 7.375 C3.22421875 8.16519531 3.1984375 8.95539062 3.171875 9.76953125 C2.98143288 12.24095064 2.61964403 14.59887937 2 17 C1.67 16.01 1.34 15.02 1 14 C-4.88589013 19.00490456 -10.41573691 24.28209558 -15.859375 29.76171875 C-16.70600708 30.6098111 -17.55263916 31.45790344 -18.42492676 32.33169556 C-20.72418921 34.63572578 -23.02124166 36.94193269 -25.31745911 39.24899673 C-27.73522816 41.67682877 -30.15630749 44.10135471 -32.57714844 46.52612305 C-38.72108483 52.68110657 -44.86076959 58.84032307 -51 65 C-57.63044551 71.652528 -64.26164349 78.30429574 -70.89775467 84.95117283 C-73.3005431 87.35810175 -75.70225382 89.76608563 -78.10144043 92.17660522 C-80.7789096 94.86609403 -83.45945287 97.55248465 -86.140625 100.23828125 C-86.92215942 101.02498199 -87.70369385 101.81168274 -88.50891113 102.6222229 C-91.88678822 106.00042183 -95.28369212 109.29477036 -98.90820312 112.40820312 C-103.9618465 116.76444558 -108.62619964 121.50203441 -113.328125 126.23046875 C-114.34071798 127.24498517 -115.35354204 128.25927101 -116.36657715 129.27334595 C-118.53306158 131.44297094 -120.69798766 133.61413439 -122.86169434 135.78652954 C-126.28944808 139.22790468 -129.72110139 142.66537386 -133.15332031 146.10229492 C-140.43852575 153.39855982 -147.71948681 160.69905343 -155 168 C-162.8622781 175.88434425 -170.72529953 183.76793864 -178.59322739 191.64664555 C-181.99864398 195.05701705 -185.40161392 198.46980494 -188.80267334 201.88452148 C-190.92543487 204.01478952 -193.05030863 206.1429413 -195.17573547 208.27054977 C-196.15371134 209.25038333 -197.13082981 210.2310736 -198.10697937 211.21272659 C-202.93760406 216.06970551 -207.78341 220.83030972 -213.02716064 225.24247742 C-215.7958654 227.70900421 -218.37802742 230.37802742 -221 233 C-193.94 233.33 -166.88 233.66 -139 234 C-139 234.33 -139 234.66 -139 235 C-150.648082 235.1158425 -162.29602699 235.20468957 -173.94456768 235.25906086 C-179.35347017 235.28515629 -184.76197861 235.3205539 -190.1706543 235.37719727 C-195.39021999 235.43151815 -200.60940663 235.46142094 -205.82923317 235.47438622 C-207.82078837 235.4836259 -209.8123228 235.50166901 -211.80371666 235.52865028 C-214.59315211 235.56494159 -217.3810208 235.56994532 -220.1706543 235.56762695 C-221.40603943 235.59459152 -221.40603943 235.59459152 -222.66638184 235.62210083 C-226.92148445 235.5838272 -228.54234319 235.34987784 -232.03948975 232.67631531 C-234 230 -234 230 -234.19750977 226.61132812 C-232.65245897 221.9519211 -230.3393989 219.55707714 -226.83984375 216.21875 C-226.21654678 215.60157104 -225.59324982 214.98439209 -224.95106506 214.34851074 C-222.96021313 212.38449865 -220.94927337 210.44255158 -218.9375 208.5 C-217.61130838 207.19535271 -216.28642453 205.88937464 -214.96289062 204.58203125 C-205.33647141 195.11947903 -205.33647141 195.11947903 -200.45204163 190.95898438 C-195.13421894 186.31728673 -190.18832497 181.31269021 -185.21289062 176.31054688 C-184.15103703 175.24677013 -183.08895259 174.18322377 -182.0266571 173.11988831 C-179.75376899 170.84385819 -177.48243915 168.56628874 -175.21232605 166.28749084 C-171.61654377 162.67809476 -168.01686858 159.07259769 -164.41662598 155.46765137 C-156.77477353 147.81473637 -149.13716365 140.15759372 -141.5 132.5 C-133.25277473 124.23071268 -125.00480841 115.96217262 -116.75193739 107.69851923 C-113.17926448 104.12088915 -109.60903812 100.54084134 -106.04071808 96.95886993 C-103.81415987 94.72480908 -101.58549282 92.49286091 -99.35627174 90.26145744 C-98.3299198 89.23324665 -97.30442587 88.2041785 -96.27989769 87.17415047 C-91.27802897 82.14629706 -86.24139613 77.25070029 -80.85846329 72.63261795 C-77.63311649 69.79922376 -74.62811824 66.7504794 -71.60595703 63.70361328 C-70.91549789 63.01169388 -70.22503876 62.31977448 -69.51365662 61.60688782 C-68.03010633 60.11956089 -66.54771124 58.63108093 -65.06637955 57.14154434 C-62.7236454 54.78595796 -60.37772362 52.43358767 -58.03097534 50.08200073 C-53.05949264 45.09914516 -48.09197388 40.11234949 -43.125 35.125 C-37.3468643 29.32327044 -31.56711914 23.52316331 -25.78316879 17.72723007 C-23.46888848 15.40645465 -21.15763145 13.08269646 -18.84646606 10.75881958 C-17.43701625 9.34573964 -16.0274272 7.93279857 -14.61767578 6.52001953 C-13.65146049 5.54605476 -13.65146049 5.54605476 -12.66572571 4.55241394 C-6.51784191 -1.59620618 -6.51784191 -1.59620618 0 0 Z " fill="#DE9425" transform="translate(332,16)"/>
<path d="M0 0 C8.31691622 6.96089727 14.47281722 15.91705082 16.1875 26.75 C17.33015685 41.58580692 13.71124806 52.72479527 5.1875 64.75 C4.52492188 65.7090625 3.86234375 66.668125 3.1796875 67.65625 C1.53110668 70.03234219 -0.13255286 72.39603152 -1.8125 74.75 C-6.15233814 73.84802442 -9.24726046 71.58853823 -12.8125 69.0625 C-13.85712402 68.33317261 -13.85712402 68.33317261 -14.92285156 67.58911133 C-16.43284875 66.53374231 -17.94091521 65.47560669 -19.44726562 64.41503906 C-21.83072057 62.73717338 -24.21929804 61.0668542 -26.609375 59.3984375 C-29.95440768 57.0622611 -33.29670573 54.72225351 -36.63671875 52.37890625 C-40.1362002 49.92388746 -43.63893853 47.47362804 -47.14453125 45.02734375 C-55.7593195 39.01341172 -64.36057806 32.99201575 -72.8125 26.75 C-68.48653426 14.17396846 -57.20563813 1.28507404 -45.5625 -4.75 C-30.57035502 -11.88911666 -13.25584521 -9.54153959 0 0 Z " fill="#40B2E6" transform="translate(455.8125,330.25)"/>
<path d="M0 0 C0.33 0 0.66 0 1 0 C1 1.98 1 3.96 1 6 C1.763125 6.2475 2.52625 6.495 3.3125 6.75 C6.38538916 8.17925077 7.3005439 9.10146791 9 12 C10.30167102 21.38456419 8.4024612 30.74313478 6.40945435 39.89407349 C5.74849943 42.93087605 5.11975756 45.97414159 4.48832703 49.01719666 C4.15629269 50.61603669 3.82271336 52.21455662 3.48762512 53.8127594 C1.73108111 62.20797132 0.13968103 70.63208378 -1.4375 79.0625 C-1.87284466 81.37943471 -2.30875373 83.69626283 -2.74465942 86.01309204 C-3.04081343 87.58741662 -3.33677169 89.16177804 -3.63253784 90.73617554 C-5.38414276 100.05646426 -7.16109902 109.37191169 -8.9375 118.6875 C-9.27467626 120.45645815 -9.61183442 122.22541974 -9.94897461 123.99438477 C-10.62717957 127.55275327 -11.3054966 131.11110038 -11.98388672 134.66943359 C-12.99106911 139.95270251 -13.99758773 145.23609772 -15.00390625 150.51953125 C-15.25151199 151.81943497 -15.25151199 151.81943497 -15.50411987 153.14559937 C-16.33115779 157.48763681 -17.15796194 161.82971858 -17.984375 166.171875 C-19.54546252 174.37282288 -21.1088612 182.57331235 -22.67953491 190.77243042 C-23.42120994 194.64476106 -24.16170074 198.51731775 -24.90209961 202.38989258 C-25.25534822 204.2357092 -25.60917691 206.08141491 -25.96362305 207.92700195 C-26.45508341 210.48621193 -26.94454224 213.04579753 -27.43359375 215.60546875 C-27.578004 216.3545903 -27.72241425 217.10371185 -27.87120056 217.87553406 C-28.70244463 222.23874905 -29.40511506 226.5981404 -30 231 C-32.6875 231.8125 -32.6875 231.8125 -36 232 C-38.875 230 -38.875 230 -41 227 C-41.50564095 220.97408105 -40.25786808 215.33149674 -39.05859375 209.4609375 C-38.85568222 208.4396022 -38.65277069 207.41826691 -38.44371033 206.36598206 C-38.0076541 204.17463589 -37.56862143 201.98388029 -37.12689209 199.79367065 C-36.19361929 195.16560428 -35.27487385 190.53469221 -34.35546875 185.90385437 C-33.89166458 183.56819204 -33.4271455 181.23267155 -32.96191406 178.89729309 C-31.0425792 169.25451058 -29.18848796 159.60067691 -27.375 149.9375 C-27.09755252 148.46230986 -26.82004585 146.98713085 -26.54248047 145.51196289 C-26.12493441 143.29237195 -25.70749145 141.072762 -25.29046631 138.85307312 C-23.7308352 130.55598265 -22.15026707 122.26289221 -20.56912231 113.96987915 C-20.06332002 111.31680126 -19.55786413 108.66365757 -19.05249023 106.01049805 C-17.52765302 98.00653912 -16.00105562 90.0029225 -14.46990967 82.00016785 C-11.12224359 64.50240021 -7.78471112 47.00253081 -4.52615356 29.48791504 C-4.22179473 27.85475833 -3.91607325 26.22185486 -3.6088562 24.5892334 C-2.07158024 16.41136539 -0.65104835 8.30704725 0 0 Z " fill="#DD9425" transform="translate(208,265)"/>
<path d="M0 0 C5.14286136 2.8342289 9.92080856 5.95144718 14.6875 9.375 C16.19500805 10.4483444 17.70283373 11.52124279 19.2109375 12.59375 C19.99436523 13.15191406 20.77779297 13.71007812 21.58496094 14.28515625 C25.6463811 17.16904376 29.72969041 20.02151374 33.8125 22.875 C35.48958512 24.04817453 37.16666844 25.22135163 38.84375 26.39453125 C40.56247565 27.59638899 42.28122616 28.79821117 44 30 C47.6044634 32.5204094 51.20857368 35.04132272 54.8125 37.5625 C55.63016846 38.13403809 56.44783691 38.70557617 57.2902832 39.29443359 C61.87866344 42.50434888 66.44907259 45.73718556 71 49 C59.73333333 67.13333333 59.73333333 67.13333333 56 69 C50.14784845 69.8043941 47.30944805 68.31751569 42.79931641 64.93774414 C42.06116699 64.36016357 41.32301758 63.78258301 40.5625 63.1875 C38.95826171 61.98013417 37.35276994 60.77443224 35.74609375 59.5703125 C34.94671387 58.96477539 34.14733398 58.35923828 33.32373047 57.73535156 C29.98980579 55.24559146 26.5683951 52.8973027 23.125 50.5625 C21.82644183 49.67503653 20.52827398 48.78700169 19.23046875 47.8984375 C18.55935059 47.43920898 17.88823242 46.97998047 17.19677734 46.50683594 C12.93309157 43.58224507 8.68259107 40.63900085 4.4375 37.6875 C3.60428223 37.11265869 2.77106445 36.53781738 1.91259766 35.94555664 C-0.41316373 34.32494882 -2.70896887 32.66921623 -5 31 C-5.70753418 30.5148291 -6.41506836 30.0296582 -7.14404297 29.52978516 C-10.72363179 26.86642735 -11.85277468 25.69082649 -12.8125 21.1875 C-12.31753677 15.88432255 -9.15571734 12.10101104 -6 8 C-5.42765625 7.22527344 -4.8553125 6.45054687 -4.265625 5.65234375 C-2.86014676 3.75494813 -1.43865282 1.87228931 0 0 Z " fill="#CADDEF" transform="translate(376,365)"/>
</svg>
