<?xml version="1.0" encoding="UTF-8"?>
<svg version="1.1" xmlns="http://www.w3.org/2000/svg" width="80" height="80">
<path d="M0 0 C1.08628693 0.00303635 1.08628693 0.00303635 2.19451904 0.00613403 C3.3334964 0.00350555 3.3334964 0.00350555 4.4954834 0.00082397 C7.0175807 -0.00359473 9.53960847 -0.00065649 12.06170654 0.00271606 C13.80666111 0.00204303 15.55161558 0.00107301 17.29656982 -0.00018311 C20.95852549 -0.0016601 24.62045682 0.00049454 28.28240967 0.00515747 C32.98715147 0.01085476 37.69183622 0.00757577 42.39657593 0.00158501 C46.00124546 -0.00202055 49.60590136 -0.00088204 53.21057129 0.0017128 C54.94580085 0.00238208 56.68103163 0.0015536 58.41625977 -0.00076675 C60.83717142 -0.0032932 63.25798941 0.00054718 65.67889404 0.00613403 C66.40308533 0.0041098 67.12727661 0.00208557 67.87341309 0 C72.82244388 0.0212659 72.82244388 0.0212659 73.93670654 1.13552856 C74.03035661 2.88481576 74.05415092 4.6378911 74.05023193 6.38967896 C74.05011864 8.07130882 74.05011864 8.07130882 74.05000305 9.78691101 C74.04484177 11.00668137 74.03968048 12.22645172 74.03436279 13.48318481 C74.03294785 14.72474838 74.0315329 15.96631195 74.03007507 17.24549866 C74.02541245 20.55158347 74.01642151 23.85760003 74.00537109 27.16366577 C73.99515481 30.53514006 73.99057699 33.90662139 73.98553467 37.27810669 C73.9744805 43.89726631 73.95772391 50.51639349 73.93670654 57.13552856 C70.98579843 58.61098262 67.99935451 58.27427223 64.76483154 58.2649231 C63.6573053 58.26755157 63.6573053 58.26755157 62.52740479 58.27023315 C60.08048164 58.27464368 57.63363045 58.27171648 55.18670654 58.26834106 C53.49041734 58.26901433 51.79412823 58.26998455 50.09783936 58.27124023 C46.54021284 58.27271612 42.9826114 58.27056613 39.42498779 58.26589966 C34.85825606 58.26020243 30.29158309 58.26348202 25.72485352 58.26947212 C22.22136998 58.27308066 18.71790045 58.27193779 15.2144165 58.26934433 C13.53025302 58.26867587 11.84608828 58.26950066 10.16192627 58.27182388 C7.81077697 58.27435519 5.45972367 58.27050303 3.10858154 58.2649231 C2.05809631 58.26795944 2.05809631 58.26795944 0.98638916 58.27105713 C-3.8347643 58.24979314 -3.8347643 58.24979314 -6.06329346 57.13552856 C-6.08642261 49.85131308 -6.10421147 42.56710547 -6.11510563 35.28286076 C-6.12033321 31.90081044 -6.12742857 28.51878517 -6.13873291 25.13674927 C-6.15163612 21.25223079 -6.15652269 17.3677226 -6.16094971 13.48318481 C-6.16611099 12.26341446 -6.17127228 11.0436441 -6.17658997 9.78691101 C-6.1766655 8.66582443 -6.17674103 7.54473785 -6.17681885 6.38967896 C-6.17903946 5.39706558 -6.18126007 4.40445221 -6.18354797 3.38175964 C-5.9564353 -0.86047216 -3.70173875 0.01590631 0 0 Z M-1.06329346 6.13552856 C-1.06329346 20.32552856 -1.06329346 34.51552856 -1.06329346 49.13552856 C3.04369146 47.76653359 5.92610209 46.74719893 9.51873779 44.66677856 C10.36089844 44.18394409 11.20305908 43.70110962 12.07073975 43.2036438 C13.89121958 42.13783922 15.7086679 41.06684316 17.52337646 39.99124146 C22.67611363 36.94974788 27.76398772 34.17063499 33.29412842 31.87356567 C36.75915361 30.03802578 39.80958367 27.501265 42.93670654 25.13552856 C42.93670654 18.86552856 42.93670654 12.59552856 42.93670654 6.13552856 C28.41670654 6.13552856 13.89670654 6.13552856 -1.06329346 6.13552856 Z M48.93670654 6.13552856 C48.93670654 12.07552856 48.93670654 18.01552856 48.93670654 24.13552856 C55.53670654 24.13552856 62.13670654 24.13552856 68.93670654 24.13552856 C68.93670654 18.19552856 68.93670654 12.25552856 68.93670654 6.13552856 C62.33670654 6.13552856 55.73670654 6.13552856 48.93670654 6.13552856 Z M29.33074951 38.53933716 C25.11145514 41.35248692 20.66685504 43.77570473 16.24920654 46.26052856 C14.63832442 47.17486775 13.02997115 48.09368664 11.42498779 49.01834106 C10.74992187 49.40393188 10.07485596 49.78952271 9.3793335 50.1867981 C8.9032666 50.49987915 8.42719971 50.81296021 7.93670654 51.13552856 C7.93670654 51.46552856 7.93670654 51.79552856 7.93670654 52.13552856 C28.06670654 52.13552856 48.19670654 52.13552856 68.93670654 52.13552856 C68.93670654 44.54552856 68.93670654 36.95552856 68.93670654 29.13552856 C52.12799536 28.01494782 43.071391 29.05949599 29.33074951 38.53933716 Z " fill="#626783" transform="translate(6.06329345703125,10.864471435546875)"/>
<path d="M0 0 C1.25554688 -0.00128906 2.51109375 -0.00257812 3.8046875 -0.00390625 C4.46178711 -0.00181152 5.11888672 0.0002832 5.79589844 0.00244141 C7.80411335 0.00779016 9.81210459 0.00249559 11.8203125 -0.00390625 C13.07585938 -0.00261719 14.33140625 -0.00132813 15.625 0 C16.78644531 0.00112793 17.94789062 0.00225586 19.14453125 0.00341797 C21.8125 0.1328125 21.8125 0.1328125 22.8125 1.1328125 C22.85342937 3.46578683 22.85491723 5.79986475 22.8125 8.1328125 C21.1625 8.4628125 19.5125 8.7928125 17.8125 9.1328125 C17.8125 8.4728125 17.8125 7.8128125 17.8125 7.1328125 C11.2125 7.1328125 4.6125 7.1328125 -2.1875 7.1328125 C-2.1875 7.7928125 -2.1875 8.4528125 -2.1875 9.1328125 C-3.8375 8.8028125 -5.4875 8.4728125 -7.1875 8.1328125 C-7.22991723 5.79986475 -7.22842937 3.46578683 -7.1875 1.1328125 C-5.35715945 -0.69752805 -2.45538008 0.00238453 0 0 Z " fill="#666A83" transform="translate(49.1875,49.8671875)"/>
<path d="M0 0 C2.05078125 0.03255208 4.1015625 0.06510417 6.15234375 0.09765625 C6.48234375 1.08765625 6.81234375 2.07765625 7.15234375 3.09765625 C6.82234375 3.75765625 6.49234375 4.41765625 6.15234375 5.09765625 C6.05730971 6.49878082 6.02161529 7.90425149 6.01953125 9.30859375 C6.01824219 10.14132813 6.01695313 10.9740625 6.015625 11.83203125 C6.01949219 12.7034375 6.02335937 13.57484375 6.02734375 14.47265625 C6.02347656 15.33632813 6.01960938 16.2 6.015625 17.08984375 C6.01755859 18.3428125 6.01755859 18.3428125 6.01953125 19.62109375 C6.02065918 20.38341309 6.02178711 21.14573242 6.02294922 21.93115234 C6.084914 24.12826781 6.084914 24.12826781 6.72314453 26.31494141 C6.93559814 27.19738525 6.93559814 27.19738525 7.15234375 28.09765625 C6.15234375 29.09765625 6.15234375 29.09765625 4.3046875 29.1953125 C2.25390625 29.16276042 0.203125 29.13020833 -1.84765625 29.09765625 C-2.41015625 27.16015625 -2.41015625 27.16015625 -2.84765625 25.09765625 C-2.51765625 24.76765625 -2.18765625 24.43765625 -1.84765625 24.09765625 C-1.74897956 22.72940156 -1.71686557 21.3561818 -1.71484375 19.984375 C-1.71355469 19.14841797 -1.71226563 18.31246094 -1.7109375 17.45117188 C-1.71480469 16.57138672 -1.71867188 15.69160156 -1.72265625 14.78515625 C-1.71878906 13.91697266 -1.71492187 13.04878906 -1.7109375 12.15429688 C-1.71222656 11.31447266 -1.71351562 10.47464844 -1.71484375 9.609375 C-1.71597168 8.84069092 -1.71709961 8.07200684 -1.71826172 7.2800293 C-1.77950878 5.06925937 -1.77950878 5.06925937 -2.41845703 2.87817383 C-2.63091064 1.99681763 -2.63091064 1.99681763 -2.84765625 1.09765625 C-1.84765625 0.09765625 -1.84765625 0.09765625 0 0 Z " fill="#636883" transform="translate(14.84765625,19.90234375)"/>
</svg>
