<?xml version="1.0" encoding="UTF-8"?>
<svg version="1.1" xmlns="http://www.w3.org/2000/svg" width="512" height="512">
<path d="M0 0 C0.92860336 -0.00817749 1.85720673 -0.01635498 2.81394958 -0.02478027 C5.89573517 -0.04965106 8.97747466 -0.06615404 12.05932617 -0.08056641 C13.11037725 -0.08589008 14.16142834 -0.09121376 15.24432945 -0.09669876 C20.8067591 -0.12343683 26.36916624 -0.14281021 31.93164062 -0.15722656 C37.68209843 -0.1738819 43.43198396 -0.21866557 49.18222523 -0.26959801 C53.59942802 -0.30322382 58.01649417 -0.31479887 62.4338131 -0.32045364 C64.55374211 -0.32717831 66.67366176 -0.34243176 68.79346657 -0.36634445 C71.75992353 -0.39790019 74.7248261 -0.39804709 77.69140625 -0.390625 C78.56795868 -0.40703033 79.44451111 -0.42343567 80.34762573 -0.44033813 C84.73050328 -0.39542375 86.49263578 -0.23246166 90.06156921 2.5418396 C93.46603052 7.10417752 93.21452489 11.33563327 93.24291992 16.80615234 C93.24862 17.65332321 93.25432007 18.50049408 93.26019287 19.37333679 C93.26963694 21.1662776 93.2761745 22.95923573 93.2800293 24.75219727 C93.28972155 27.48468618 93.32074454 30.21641848 93.35229492 32.94873047 C93.3588267 34.69286664 93.36407649 36.43700818 93.36791992 38.18115234 C93.38026672 38.99385086 93.39261353 39.80654938 93.40533447 40.64387512 C93.38619714 45.55828402 92.772364 48.93643323 90.03979492 53.19287109 C89.04979492 53.68787109 89.04979492 53.68787109 88.03979492 54.19287109 C87.57227705 56.54886345 87.57227705 56.54886345 87.41479492 59.25537109 C87.3400293 60.17447266 87.26526367 61.09357422 87.18823242 62.04052734 C87.11475586 63.1059375 87.11475586 63.1059375 87.03979492 64.19287109 C87.99335373 64.18620926 88.94691254 64.17954742 89.92936707 64.17268372 C98.91933692 64.1118471 107.90926497 64.06688622 116.89939404 64.03743458 C121.52123283 64.02178412 126.14290534 64.00055716 130.76464844 63.96655273 C135.2255803 63.93393718 139.68635228 63.91601341 144.14739418 63.90823936 C145.84864124 63.9026998 147.54987964 63.89188234 149.25105858 63.87568092 C151.63550036 63.85387718 154.01928302 63.85090536 156.40380859 63.85229492 C157.10583908 63.84150909 157.80786957 63.83072327 158.53117371 63.8196106 C162.86951245 63.8469354 165.63841129 64.45511431 169.03979492 67.19287109 C171.03641619 70.10408419 171.29507932 72.48902631 171.31445312 75.97387695 C171.32398514 76.91843246 171.33351715 77.86298798 171.34333801 78.83616638 C171.3419709 80.35658287 171.3419709 80.35658287 171.34057617 81.90771484 C171.3448613 82.95560684 171.34914642 84.00349884 171.3535614 85.08314514 C171.3593012 87.29801715 171.35980755 89.51290801 171.35546875 91.7277832 C171.35230995 95.11425984 171.37576898 98.4998619 171.40112305 101.88623047 C171.4033962 104.03922416 171.40409946 106.1922202 171.40307617 108.34521484 C171.41228592 109.35680161 171.42149567 110.36838837 171.4309845 111.41062927 C171.37267033 120.28310454 171.37267033 120.28310454 168.03979492 124.19287109 C164.80745369 126.34776525 162.87508572 127.20991784 158.97729492 127.13037109 C155.57391043 126.04418455 153.59474036 124.67481809 151.03979492 122.19287109 C150.13145523 119.46785202 149.85619507 117.57053139 149.72338867 114.74365234 C149.68149414 113.89609375 149.63959961 113.04853516 149.59643555 112.17529297 C149.55711914 111.29421875 149.51780273 110.41314453 149.47729492 109.50537109 C149.43411133 108.61269531 149.39092773 107.72001953 149.34643555 106.80029297 C149.24044139 104.59797001 149.13837442 102.39553636 149.03979492 100.19287109 C142.51000081 106.0005468 136.09554232 111.92074037 129.71582031 117.89208984 C124.85220927 122.44197871 119.95477438 126.95250944 115.03979492 131.44677734 C111.6566503 134.54081276 108.28469423 137.64692144 104.91479492 140.75537109 C104.07924072 141.52518311 104.07924072 141.52518311 103.22680664 142.31054688 C98.58964894 146.01501735 98.58964894 146.01501735 96.84448242 151.23193359 C96.86768555 152.41529297 96.89088867 153.59865234 96.91479492 154.81787109 C96.9328418 156.00638672 96.95088867 157.19490234 96.96948242 158.41943359 C96.99268555 159.33466797 97.01588867 160.24990234 97.03979492 161.19287109 C97.86005551 161.18734034 97.86005551 161.18734034 98.69688702 161.18169785 C112.00917726 161.09332004 125.32141603 161.02740402 138.63393688 160.98562241 C145.07182425 160.96473836 151.50950003 160.93640512 157.94726562 160.89111328 C164.15884293 160.84768571 170.37021659 160.82374015 176.58193398 160.81336212 C178.9530489 160.80596528 181.32415255 160.7915212 183.69518089 160.76995087 C187.01366734 160.74095886 190.33130984 160.73691346 193.64990234 160.73876953 C194.63245499 160.72438843 195.61500763 160.71000732 196.62733459 160.69519043 C200.9637363 160.72147428 203.36819051 160.77875582 207.12666321 163.09625244 C210.79277909 167.11398258 210.16837918 170.95706306 210.13745117 176.13818359 C210.13532875 177.46570145 210.13532875 177.46570145 210.13316345 178.82003784 C210.12755633 181.652683 210.11500264 184.48524974 210.10229492 187.31787109 C210.09728084 189.2358387 210.09271777 191.15380755 210.08862305 193.07177734 C210.07758458 197.77883891 210.06031517 202.4858417 210.03979492 207.19287109 C210.82008057 207.48258789 211.60036621 207.77230469 212.40429688 208.07080078 C215.50645947 209.39155477 217.01014136 210.92123416 219.22729492 213.44287109 C220.23856445 214.56435547 220.23856445 214.56435547 221.27026367 215.70849609 C227.08061899 223.86608104 225.98485495 235.62801146 225.03979492 245.19287109 C223.24718007 252.13125091 219.16978608 257.47065201 213.03979492 261.19287109 C205.86252139 264.5939935 199.17195163 265.23444169 191.53979492 263.13037109 C184.80774127 260.63055842 180.03665722 256.52751793 176.84057617 250.10693359 C174.66941228 244.94151574 174.44290963 240.23955389 174.53979492 234.69287109 C174.52432617 233.80728516 174.50885742 232.92169922 174.49291992 232.00927734 C174.53750817 224.41812879 176.29234361 218.34822047 181.32885742 212.56396484 C182.0997168 211.92587891 182.87057617 211.28779297 183.66479492 210.63037109 C184.82881836 209.6384375 184.82881836 209.6384375 186.01635742 208.62646484 C188.03979492 207.19287109 188.03979492 207.19287109 190.03979492 207.19287109 C189.70979492 203.23287109 189.37979492 199.27287109 189.03979492 195.19287109 C187.61666992 196.49224609 186.19354492 197.79162109 184.72729492 199.13037109 C181.11775312 202.3845431 177.45031997 205.52071629 173.66479492 208.56787109 C169.11198985 212.24858956 164.80562081 216.11935758 160.52294922 220.10424805 C156.41218535 223.90672124 152.11712969 227.43550408 147.75463867 230.94677734 C144.93305997 233.28117699 142.23388781 235.71277708 139.53979492 238.19287109 C135.98309248 241.46705533 132.36817681 244.59929542 128.60229492 247.63037109 C123.89017732 251.42718528 119.42327734 255.4273653 115.01074219 259.5637207 C112.76012827 261.66472624 110.61103866 263.4787086 108.03979492 265.19287109 C110.24313295 290.13083393 112.58801774 315.05306634 115.05541992 339.96630859 C115.18780555 341.30397743 115.32018571 342.6416468 115.45256042 343.97931671 C116.60520364 355.6238788 117.76205683 367.26802241 118.92137122 378.9119221 C119.67332332 386.46458943 120.42260942 394.01751483 121.16936493 401.57069778 C121.42501314 404.15039749 121.68177784 406.72998683 121.9397049 409.30945969 C122.29635036 412.87629723 122.64942713 416.44347142 123.00170898 420.01074219 C123.10763367 421.06083466 123.21355835 422.11092712 123.32269287 423.19284058 C123.78203715 427.87939632 124.17277505 432.47645515 124.03979492 437.19287109 C125.03093796 437.18398865 126.02208099 437.1751062 127.04325867 437.16595459 C136.3863883 437.08484821 145.72944645 437.02489586 155.07284832 436.98562241 C159.87635159 436.96475262 164.67957053 436.93644611 169.48291016 436.89111328 C174.1189179 436.84763379 178.75465225 436.8237294 183.39084816 436.81336212 C185.15909949 436.80597452 186.92733595 436.79154816 188.69547081 436.76995087 C191.17344808 436.74088837 193.65029753 436.73691619 196.12841797 436.73876953 C196.85850067 436.72438843 197.58858337 436.71000732 198.34078979 436.69519043 C203.18581933 436.73436828 205.64224314 437.74836611 209.03979492 441.19287109 C210.17570191 443.46468508 210.18341205 444.763454 210.21679688 447.2878418 C210.22963211 448.13244461 210.24246735 448.97704742 210.25569153 449.84724426 C210.26677193 451.21909126 210.26677193 451.21909126 210.27807617 452.61865234 C210.28614792 453.55839401 210.29421967 454.49813568 210.30253601 455.46635437 C210.31638045 457.4577754 210.32710099 459.44922019 210.33496094 461.44067383 C210.35216772 464.48288077 210.39604974 467.52399935 210.44018555 470.56591797 C210.45031297 472.50015476 210.45882891 474.4344008 210.46557617 476.36865234 C210.48308426 477.27714432 210.50059235 478.18563629 210.51863098 479.12165833 C210.50417047 483.34310649 210.41641527 485.58850882 208.13818359 489.24438477 C204.87270899 492.27658404 203.02308104 492.31969327 198.65672684 492.32988548 C197.50692439 492.33496003 196.35712195 492.34003457 195.17247701 492.34526289 C193.2613352 492.34600952 193.2613352 492.34600952 191.31158447 492.34677124 C189.95294911 492.35078455 188.59431496 492.35522256 187.23568225 492.3600508 C183.48926613 492.37203676 179.7428629 492.37766942 175.99643135 492.38223195 C171.96085893 492.38818037 167.92530199 492.39979208 163.88973999 492.41052246 C154.13740792 492.43506356 144.38507071 492.44967593 134.63271725 492.46258253 C131.87937615 492.46629315 129.12603556 492.47026649 126.37269497 492.47433519 C109.28394637 492.4995699 92.19519699 492.52162845 75.10643387 492.53406334 C71.14672086 492.53699316 67.18700787 492.5399548 63.22729492 492.54296875 C62.24309691 492.5437148 61.2588989 492.54446085 60.24487671 492.54522951 C44.296082 492.5578872 28.34739867 492.59111482 12.39865604 492.63277058 C-3.96627659 492.67516388 -20.33115216 492.69875534 -36.69613957 492.7039839 C-45.8882693 492.70740094 -55.08022496 492.71919048 -64.27230072 492.75208664 C-72.09967313 492.78005254 -79.92683581 492.79110175 -87.75425431 492.77989118 C-91.74900479 492.77469563 -95.74331581 492.77764879 -99.73800278 492.80235672 C-103.3949206 492.82478697 -107.05108173 492.82415885 -110.70801225 492.80515285 C-112.65801563 492.80101301 -114.60802314 492.82154458 -116.55791354 492.84293973 C-126.02161073 492.75670739 -126.02161073 492.75670739 -129.73334408 489.78467083 C-133.69299648 485.17610925 -133.11972755 480.75130969 -133.12817383 474.88427734 C-133.13150223 474.08054184 -133.13483063 473.27680634 -133.13825989 472.44871521 C-133.14331398 470.75170462 -133.14566868 469.05468413 -133.14550781 467.35766602 C-133.14769436 464.76806201 -133.16586608 462.17888417 -133.18481445 459.58935547 C-133.18774872 457.93766421 -133.18973329 456.28597094 -133.19067383 454.63427734 C-133.19785934 453.86330215 -133.20504486 453.09232697 -133.21244812 452.29798889 C-133.18895411 446.74275196 -132.84405288 443.09825024 -128.87353516 439.08235168 C-125.21041958 436.70658732 -122.2694421 436.65563226 -118.04882812 436.73876953 C-116.87730446 436.73789337 -116.87730446 436.73789337 -115.68211365 436.73699951 C-113.1115915 436.73977675 -110.54224231 436.77085034 -107.97192383 436.80224609 C-106.18545668 436.8097098 -104.39898132 436.81540212 -102.61250305 436.81939697 C-97.91874444 436.83464317 -93.22548376 436.87391612 -88.53192139 436.91821289 C-83.73920426 436.95918755 -78.94640639 436.97741267 -74.15356445 436.99755859 C-64.75555966 437.04041145 -55.35792383 437.10865042 -45.96020508 437.19287109 C-45.92468033 436.19953766 -45.88915558 435.20620422 -45.85255432 434.18276978 C-45.20858606 418.69643926 -43.59143912 403.30302759 -42.03180385 387.88883924 C-41.6383622 383.98840913 -41.25074897 380.08740018 -40.86268616 376.18643188 C-39.87955249 366.31305629 -38.88903831 356.44042627 -37.89770508 346.56787109 C-36.82339236 335.86882228 -35.75039856 325.16965083 -34.68599612 314.46961081 C-34.22581803 309.84618129 -33.76138333 305.22320604 -33.29357326 300.60054278 C-33.00343799 297.72472767 -32.71699983 294.84855277 -32.43153191 291.97227097 C-32.23654638 290.01891088 -32.03713355 288.06599429 -31.83755493 286.11309814 C-29.96185815 274.53770024 -29.96185815 274.53770024 -33.30395508 264.15380859 C-34.33407871 263.26570233 -35.38761774 262.40419868 -36.46020508 261.56787109 C-37.28669556 260.8699646 -37.28669556 260.8699646 -38.12988281 260.15795898 C-39.22829974 259.23295096 -40.33550221 258.31825884 -41.4519043 257.41503906 C-43.3560274 255.87213841 -45.18968037 254.25675001 -47.02270508 252.63037109 C-47.95276367 251.8240625 -47.95276367 251.8240625 -48.90161133 251.00146484 C-51.44977158 248.76275859 -53.95431101 246.47876898 -56.46020508 244.19287109 C-59.60104064 241.32815294 -62.75121263 238.48101207 -65.96020508 235.69287109 C-70.13749591 232.06342168 -74.21557747 228.32808089 -78.30395508 224.59912109 C-80.50373249 222.60638156 -82.71975726 220.63948969 -84.96020508 218.69287109 C-88.16919752 215.90473012 -91.31936951 213.05758925 -94.46020508 210.19287109 C-102.95298835 202.38472007 -102.95298835 202.38472007 -111.96020508 195.19287109 C-111.94738724 199.26894478 -111.78574185 203.19384233 -110.96020508 207.19287109 C-108.29353841 209.69287109 -108.29353841 209.69287109 -104.96020508 211.19287109 C-98.95024339 217.34259934 -96.61334108 223.76890108 -96.49243164 232.19628906 C-96.50242188 232.99953613 -96.51241211 233.8027832 -96.52270508 234.63037109 C-96.52882812 235.46713379 -96.53495117 236.30389648 -96.54125977 237.16601562 C-96.69523131 243.22894134 -97.48933839 248.08936676 -100.96020508 253.19287109 C-101.51708008 254.10037109 -102.07395508 255.00787109 -102.64770508 255.94287109 C-107.94936531 261.10124321 -114.21666592 263.86449047 -121.52270508 264.50537109 C-128.13263553 264.35766315 -134.31233487 262.45450416 -139.37036133 258.13427734 C-146.31565797 250.65957515 -147.32191171 244.24801648 -147.33520508 234.31787109 C-147.35969727 233.36267578 -147.38418945 232.40748047 -147.40942383 231.42333984 C-147.44042491 223.89007775 -145.86728035 218.76845102 -141.10864258 212.91552734 C-140.5234082 212.36767578 -139.93817383 211.81982422 -139.33520508 211.25537109 C-138.74481445 210.68947266 -138.15442383 210.12357422 -137.54614258 209.54052734 C-135.96020508 208.19287109 -135.96020508 208.19287109 -133.96020508 207.19287109 C-133.94562256 206.10868896 -133.93104004 205.02450684 -133.91601562 203.9074707 C-133.85777036 199.86108445 -133.78054037 195.8152395 -133.69775391 191.76928711 C-133.66462741 190.0226321 -133.63655771 188.27587321 -133.61376953 186.52905273 C-133.57999627 184.00899239 -133.5276716 181.48987357 -133.47192383 178.97021484 C-133.46553391 178.19701401 -133.45914398 177.42381317 -133.45256042 176.62718201 C-133.31457268 171.46687577 -132.4191683 167.76231448 -129.96020508 163.19287109 C-126.80653473 161.09042419 -126.09251638 160.94401555 -122.49934387 160.95236206 C-121.13006493 160.94823807 -121.13006493 160.94823807 -119.73312378 160.94403076 C-118.23448288 160.95481659 -118.23448288 160.95481659 -116.70556641 160.96582031 C-115.65174271 160.96552826 -114.59791901 160.96523621 -113.51216125 160.9649353 C-110.02210309 160.96633082 -106.53225729 160.98190263 -103.04223633 160.99755859 C-100.62513852 161.00128793 -98.20803919 161.00413528 -95.79093933 161.00613403 C-89.42375528 161.01377672 -83.05666222 161.03343073 -76.68951416 161.05554199 C-70.19447053 161.07598671 -63.69941222 161.08513281 -57.2043457 161.09521484 C-44.45625997 161.11667596 -31.70823736 161.15043611 -18.96020508 161.19287109 C-18.87897458 159.107579 -18.82091044 157.02137538 -18.77270508 154.93505859 C-18.73790039 153.77345215 -18.7030957 152.6118457 -18.66723633 151.41503906 C-18.98433435 147.92748928 -19.53226981 146.75477895 -21.96020508 144.31787109 C-23.26814677 143.24449523 -24.6025024 142.20256939 -25.96020508 141.19287109 C-31.36918131 136.61376131 -36.56152566 131.8103765 -41.71020508 126.94287109 C-51.33437549 117.88423431 -61.04381091 108.93231949 -70.96020508 100.19287109 C-71.0162793 101.91183594 -71.0162793 101.91183594 -71.07348633 103.66552734 C-71.13919091 105.19550555 -71.20563667 106.72545206 -71.27270508 108.25537109 C-71.29526367 109.00753906 -71.31782227 109.75970703 -71.34106445 110.53466797 C-71.58887022 115.73858909 -72.46964595 119.58680173 -74.96020508 124.19287109 C-78.91922416 126.70532551 -80.9907164 127.32432719 -85.64770508 126.69287109 C-89.58394339 124.91042356 -90.77109842 123.92020564 -92.96020508 120.19287109 C-93.55446933 116.44323522 -93.52062019 112.73288459 -93.49145508 108.94287109 C-93.49528198 107.85200195 -93.49910889 106.76113281 -93.50305176 105.63720703 C-93.50576997 103.33413773 -93.49841523 101.03103751 -93.48168945 98.72802734 C-93.46027995 95.20519097 -93.48149569 91.68439412 -93.50708008 88.16162109 C-93.50443679 85.92203326 -93.49931179 83.6824467 -93.49145508 81.44287109 C-93.499552 80.39067383 -93.50764893 79.33847656 -93.51599121 78.25439453 C-93.42249251 70.95372901 -93.42249251 70.95372901 -91.05200195 67.05224609 C-87.37840159 63.78682355 -84.3674482 64.05562664 -79.66479492 64.0793457 C-78.53781944 64.07912666 -78.53781944 64.07912666 -77.38807678 64.0789032 C-74.89906957 64.07960113 -72.41013675 64.08738796 -69.92114258 64.09521484 C-68.19764242 64.09707945 -66.47414174 64.09850315 -64.75064087 64.09950256 C-60.2099461 64.10332441 -55.66928322 64.11315187 -51.12860107 64.12420654 C-46.49695263 64.1344278 -41.86529904 64.13900172 -37.23364258 64.14404297 C-28.14248272 64.15477442 -19.05134655 64.17184687 -9.96020508 64.19287109 C-9.63020508 60.89287109 -9.30020508 57.59287109 -8.96020508 54.19287109 C-10.28020508 53.53287109 -11.60020508 52.87287109 -12.96020508 52.19287109 C-14.7549114 49.47228928 -15.21567513 47.29562972 -15.25073242 44.0703125 C-15.26349213 43.26912994 -15.27625183 42.46794739 -15.28939819 41.64248657 C-15.29162384 40.78512909 -15.29384949 39.92777161 -15.29614258 39.04443359 C-15.30612778 37.70921158 -15.30612778 37.70921158 -15.3163147 36.34701538 C-15.32642854 34.46590233 -15.33113211 32.58475349 -15.33081055 30.70361328 C-15.33517923 27.8348435 -15.37149898 24.96761834 -15.40942383 22.09912109 C-15.41529327 20.26839717 -15.41926181 18.43766596 -15.42114258 16.60693359 C-15.43551361 15.75362457 -15.44988464 14.90031555 -15.46469116 14.02114868 C-15.42235694 8.46566484 -14.57927551 5.46443641 -10.96020508 1.19287109 C-7.57483745 -0.49981272 -3.7253982 0.01798046 0 0 Z M6.03979492 20.19287109 C6.03979492 25.14287109 6.03979492 30.09287109 6.03979492 35.19287109 C20.55979492 35.19287109 35.07979492 35.19287109 50.03979492 35.19287109 C50.03979492 30.24287109 50.03979492 25.29287109 50.03979492 20.19287109 C35.51979492 20.19287109 20.99979492 20.19287109 6.03979492 20.19287109 Z M12.03979492 55.19287109 C11.70979492 58.16287109 11.37979492 61.13287109 11.03979492 64.19287109 C22.91979492 64.19287109 34.79979492 64.19287109 47.03979492 64.19287109 C47.03979492 61.55287109 47.03979492 58.91287109 47.03979492 56.19287109 C45.89391392 54.81970021 45.89391392 54.81970021 42.80517578 55.0793457 C41.37165366 55.07950478 39.9381258 55.08519702 38.50463867 55.09521484 C37.75138809 55.09662979 36.99813751 55.09804474 36.22206116 55.09950256 C33.80709932 55.10511734 31.39222891 55.11767226 28.97729492 55.13037109 C27.34383272 55.13538419 25.71036906 55.13994743 24.0769043 55.14404297 C20.06449907 55.15509156 16.05216252 55.17236603 12.03979492 55.19287109 Z M-54.96020508 85.19287109 C-50.23751163 90.81990624 -50.23751163 90.81990624 -45.08129883 95.66552734 C-40.93704349 99.19538132 -36.97610187 102.88928903 -33.02270508 106.63037109 C-24.64674808 116.07391428 -24.64674808 116.07391428 -14.96020508 122.19287109 C-14.52840462 118.04904137 -14.10133186 113.90475858 -13.6784668 109.76000977 C-13.53423001 108.35265236 -13.38874467 106.94542229 -13.24194336 105.53833008 C-13.03008909 103.50553788 -12.82286043 101.47231669 -12.61645508 99.43896484 C-12.49077148 98.21878662 -12.36508789 96.9986084 -12.2355957 95.74145508 C-11.96344401 92.23460678 -11.96020508 88.71026382 -11.96020508 85.19287109 C-26.15020508 85.19287109 -40.34020508 85.19287109 -54.96020508 85.19287109 Z M9.03979492 85.19287109 C8.46437555 90.17269725 7.89492804 95.15315823 7.33081055 100.13427734 C7.13840833 101.82586729 6.94442485 103.5172782 6.7487793 105.20849609 C6.46653872 107.65074108 6.19014338 110.09359061 5.91479492 112.53662109 C5.8272998 113.28278687 5.73980469 114.02895264 5.6496582 114.79772949 C5.5695752 115.51787231 5.48949219 116.23801514 5.40698242 116.97998047 C5.30039307 117.91263733 5.30039307 117.91263733 5.19165039 118.86413574 C4.96759174 122.30012199 5.03979492 125.74958723 5.03979492 129.19287109 C21.20979492 129.19287109 37.37979492 129.19287109 54.03979492 129.19287109 C53.40041992 122.11849609 52.76104492 115.04412109 52.10229492 107.75537109 C51.9025708 105.51957275 51.70284668 103.28377441 51.49707031 100.98022461 C51.33588703 99.21904286 51.1743705 97.45789157 51.01245117 95.69677734 C50.89057434 94.3117804 50.89057434 94.3117804 50.76623535 92.89880371 C50.68514526 92.02590698 50.60405518 91.15301025 50.52050781 90.25366211 C50.45166885 89.49199234 50.3828299 88.73032257 50.31190491 87.9455719 C50.2126672 86.16899137 50.2126672 86.16899137 49.03979492 85.19287109 C46.08274172 85.10418811 43.14914436 85.07766813 40.19213867 85.09521484 C39.30571182 85.09662979 38.41928497 85.09804474 37.5059967 85.09950256 C34.66306238 85.10511894 31.82020561 85.11767418 28.97729492 85.13037109 C27.05477001 85.13538399 25.13224388 85.13994726 23.2097168 85.14404297 C18.48637943 85.15509369 13.76310034 85.17236927 9.03979492 85.19287109 Z M90.03979492 85.19287109 C90.03979492 90.76871834 90.08743355 95.74463382 90.69604492 101.19677734 C90.83139648 102.43105469 90.96674805 103.66533203 91.10620117 104.93701172 C91.24928711 106.19707031 91.39237305 107.45712891 91.53979492 108.75537109 C91.68288086 110.05023438 91.8259668 111.34509766 91.97338867 112.67919922 C92.32450329 115.85093459 92.68008173 119.02210137 93.03979492 122.19287109 C97.31973713 118.55860307 101.53431715 114.8725647 105.66479492 111.06787109 C106.16914063 110.60413086 106.67348633 110.14039062 107.19311523 109.66259766 C109.94138248 107.13392152 112.68295255 104.59805974 115.42260742 102.06005859 C116.54495493 101.0209439 117.66735027 99.98188086 118.78979492 98.94287109 C119.33289307 98.43957275 119.87599121 97.93627441 120.43554688 97.41772461 C124.13773335 93.99680264 127.90074342 90.6591601 131.74682617 87.39990234 C132.17350586 87.00158203 132.60018555 86.60326172 133.03979492 86.19287109 C133.03979492 85.86287109 133.03979492 85.53287109 133.03979492 85.19287109 C118.84979492 85.19287109 104.65979492 85.19287109 90.03979492 85.19287109 Z M3.03979492 150.19287109 C1.36897453 153.16183388 1.36897453 153.16183388 2.03979492 161.19287109 C20.18979492 161.19287109 38.33979492 161.19287109 57.03979492 161.19287109 C56.54479492 155.74787109 56.54479492 155.74787109 56.03979492 150.19287109 C38.54979492 150.19287109 21.05979492 150.19287109 3.03979492 150.19287109 Z M-94.96020508 181.19287109 C-90.87062607 185.28936312 -90.87062607 185.28936312 -86.69067383 189.27880859 C-86.11615479 189.8133667 -85.54163574 190.3479248 -84.94970703 190.89868164 C-84.35504639 191.44951416 -83.76038574 192.00034668 -83.14770508 192.56787109 C-82.52532959 193.14512939 -81.9029541 193.7223877 -81.26171875 194.31713867 C-77.54172991 197.75765528 -73.78489045 201.1439456 -69.94848633 204.45458984 C-67.4196758 206.66543598 -64.94147944 208.92883553 -62.46020508 211.19287109 C-59.31936951 214.05758925 -56.16919752 216.90473012 -52.96020508 219.69287109 C-49.75121263 222.48101207 -46.60104064 225.32815294 -43.46020508 228.19287109 C-35.55019075 235.61683963 -35.55019075 235.61683963 -26.96020508 242.19287109 C-26.26388782 235.59523749 -25.57044945 228.99730562 -24.87890625 222.39916992 C-24.64387452 220.15984428 -24.40821093 217.92058486 -24.171875 215.68139648 C-23.83007762 212.44190884 -23.4906389 209.2021809 -23.15161133 205.96240234 C-23.04740372 204.97955765 -22.94319611 203.99671295 -22.83583069 202.98408508 C-22.07914286 195.7218246 -21.52078147 188.48036424 -20.96020508 181.19287109 C-45.38020508 181.19287109 -69.80020508 181.19287109 -94.96020508 181.19287109 Z M-0.96020508 182.19287109 C-1.23145683 184.08434338 -1.44038764 185.98478729 -1.62451172 187.88671875 C-1.80458519 189.71464462 -1.80458519 189.71464462 -1.98829651 191.57949829 C-2.11584461 192.92195839 -2.24319455 194.26443732 -2.37036133 195.60693359 C-2.5031594 196.97881879 -2.63625571 198.35067515 -2.76963806 199.72250366 C-3.04897552 202.60575281 -3.32517807 205.48928032 -3.59912109 208.37304688 C-3.9490991 212.05535379 -4.30595523 215.73695301 -4.66510868 219.41837502 C-4.94130861 222.25613477 -5.21418606 225.09420649 -5.48605156 227.93238449 C-5.61629675 229.28873944 -5.74746397 230.64500619 -5.8795948 232.00117874 C-6.06479151 233.90802055 -6.2451276 235.81533249 -6.42529297 237.72265625 C-6.52886612 238.8055191 -6.63243927 239.88838196 -6.739151 241.00405884 C-6.97407807 244.3929958 -6.96020508 247.79580111 -6.96020508 251.19287109 C17.12979492 251.19287109 41.21979492 251.19287109 66.03979492 251.19287109 C65.07041992 240.94224609 64.10104492 230.69162109 63.10229492 220.13037109 C62.79815674 216.90505615 62.49401855 213.67974121 62.18066406 210.35668945 C61.93722484 207.79035208 61.6936622 205.22402642 61.44995117 202.65771484 C61.35707069 201.66874962 61.35707069 201.66874962 61.26231384 200.6598053 C61.07780777 198.69663983 60.89098641 196.7336924 60.70410156 194.77075195 C60.59973282 193.667108 60.49536407 192.56346405 60.38783264 191.42637634 C60.01916043 188.00116276 59.5455591 184.60031142 59.03979492 181.19287109 C51.36442865 181.16974288 43.68906597 181.15195356 36.01367283 181.14105892 C32.4500207 181.13583114 28.88639235 181.1287354 25.32275391 181.11743164 C21.22973395 181.10452934 17.13673913 181.09964203 13.04370117 181.09521484 C11.75830948 181.09005356 10.47291779 181.08489227 9.14857483 181.07957458 C7.96742599 181.07949905 6.78627716 181.07942352 5.56933594 181.0793457 C4.52342789 181.07712509 3.47751984 181.07490448 2.3999176 181.07261658 C0.08290197 180.92636125 0.08290197 180.92636125 -0.96020508 182.19287109 Z M99.03979492 181.19287109 C100.6990067 202.17001554 100.6990067 202.17001554 102.53979492 223.13037109 C102.59828613 223.80366455 102.65677734 224.47695801 102.71704102 225.1706543 C102.88899757 227.14627017 103.07353478 229.12077863 103.25854492 231.09521484 C103.36102539 232.22435303 103.46350586 233.35349121 103.5690918 234.5168457 C103.80124536 237.33693388 103.80124536 237.33693388 106.03979492 239.19287109 C116.24512372 230.40897497 116.24512372 230.40897497 126.28979492 221.44287109 C129.60418778 218.43526501 132.99638575 215.56857413 136.47729492 212.75537109 C140.28066995 209.67950521 143.94062144 206.50533943 147.53979492 203.19287109 C152.04174752 199.05056093 156.69068295 195.1528029 161.44604492 191.30615234 C166.8696157 186.89439963 166.8696157 186.89439963 172.03979492 182.19287109 C172.03979492 181.86287109 172.03979492 181.53287109 172.03979492 181.19287109 C147.94979492 181.19287109 123.85979492 181.19287109 99.03979492 181.19287109 Z M-125.21020508 226.44287109 C-127.90828656 230.68271342 -127.79016882 235.2953373 -126.96020508 240.19287109 C-125.71431391 242.09667452 -125.71431391 242.09667452 -123.96020508 243.19287109 C-120.64201522 242.9508176 -120.64201522 242.9508176 -117.96020508 241.19287109 C-117.86102938 239.0489259 -117.83050358 236.90160377 -117.83520508 234.75537109 C-117.83262695 233.58103516 -117.83004883 232.40669922 -117.82739258 231.19677734 C-117.75254962 228.26879019 -117.75254962 228.26879019 -118.96020508 226.19287109 C-121.66935933 224.88500352 -122.55828575 224.96958258 -125.21020508 226.44287109 Z M197.03979492 226.19287109 C194.58671965 230.49308272 194.42469505 234.33447357 195.03979492 239.19287109 C196.35742821 241.7117978 196.35742821 241.7117978 198.03979492 243.19287109 C201.33055489 242.81382902 201.33055489 242.81382902 204.03979492 241.19287109 C204.13888795 238.86127054 204.16949996 236.52657168 204.16479492 234.19287109 C204.16737305 232.91412109 204.16995117 231.63537109 204.17260742 230.31787109 C204.39840385 227.32599865 204.39840385 227.32599865 203.03979492 226.19287109 C201.04021128 226.15206326 199.03934238 226.15032753 197.03979492 226.19287109 Z M-1.96020508 271.19287109 C3.64519213 280.02273325 3.64519213 280.02273325 9.42260742 288.72412109 C9.7997438 289.27936462 10.17688019 289.83460815 10.56544495 290.40667725 C11.76364065 292.16982789 12.96414461 293.93139129 14.16479492 295.69287109 C15.0006033 296.92163401 15.8362954 298.15047603 16.671875 299.37939453 C23.44106566 309.33095202 30.23166602 319.26791478 37.03979492 329.19287109 C40.5170383 328.03378997 40.88900234 327.3396266 42.82714844 324.36328125 C43.36102676 323.55218903 43.89490509 322.7410968 44.44496155 321.90542603 C45.01379562 321.02317352 45.5826297 320.14092102 46.16870117 319.23193359 C46.7590062 318.33042572 47.34931122 317.42891785 47.95750427 316.50009155 C49.84680987 313.61096588 51.72465816 310.71459071 53.60229492 307.81787109 C54.87172586 305.87206821 56.14189911 303.92674939 57.4128418 301.98193359 C60.21363247 297.69356961 63.00716614 293.400579 65.79444885 289.10342407 C66.86583623 287.45975056 67.95146048 285.82537275 69.03979492 284.19287109 C68.70979492 279.90287109 68.37979492 275.61287109 68.03979492 271.19287109 C44.93979492 271.19287109 21.83979492 271.19287109 -1.96020508 271.19287109 Z M-11.96020508 295.19287109 C-13.52837784 310.99571968 -15.09319186 326.79889703 -16.65402222 342.60247231 C-17.37884113 349.9405437 -18.10475341 357.27850385 -18.83325195 364.61621094 C-19.46830192 371.01269771 -20.10128793 377.40938481 -20.73180962 383.80631959 C-21.06565102 387.1925607 -21.40051606 390.57869344 -21.737854 393.96458817 C-22.1141693 397.74696264 -22.48683569 401.52968007 -22.85864258 405.3125 C-22.97085144 406.43171844 -23.0830603 407.55093689 -23.19866943 408.70407104 C-23.67167147 413.55156344 -24.10897183 418.31489114 -23.96020508 423.19287109 C-20.31025695 418.82135168 -17.18693892 414.16892876 -14.04223633 409.43115234 C-13.4715744 408.57536087 -12.90091248 407.7195694 -12.31295776 406.83784485 C-10.46337902 404.06222327 -8.61754779 401.28414249 -6.77270508 398.50537109 C-5.83486679 397.09333405 -5.83486679 397.09333405 -4.87808228 395.652771 C-2.35134822 391.84780392 0.17492701 388.0425371 2.69850159 384.23547363 C5.91743066 379.38088881 9.14761409 374.53453938 12.40391541 369.7049408 C14.02890339 367.29230296 15.64453567 364.87351354 17.25772095 362.45297241 C18.33124225 360.84932009 19.41721727 359.25402701 20.50341797 357.65893555 C21.13030518 356.7136499 21.75719238 355.76836426 22.40307617 354.79443359 C22.94230713 353.99344238 23.48153809 353.19245117 24.03710938 352.3671875 C25.18613554 350.30674991 25.18613554 350.30674991 24.96923828 348.31176758 C23.6032845 345.1977374 21.73159079 342.47447354 19.80541992 339.68896484 C19.37540176 339.05713791 18.94538361 338.42531097 18.50233459 337.77433777 C17.10381185 335.72241881 15.6970513 333.67630789 14.28979492 331.63037109 C13.32993644 330.22688191 12.37054644 328.82307222 11.41162109 327.41894531 C9.50781288 324.63280185 7.60085447 321.84885453 5.69165039 319.06640625 C3.387742 315.70584831 1.1022705 312.33324034 -1.17504883 308.95458984 C-1.77285156 308.07037354 -2.3706543 307.18615723 -2.98657227 306.27514648 C-4.06940976 304.67332999 -5.14961951 303.06973302 -6.22680664 301.46411133 C-8.55131884 297.75774656 -8.55131884 297.75774656 -11.96020508 295.19287109 Z M71.03979492 317.19287109 C70.43393555 318.17384766 69.82807617 319.15482422 69.20385742 320.16552734 C68.35767527 321.52891537 67.5113067 322.8921877 66.66479492 324.25537109 C66.00108887 325.33008667 66.00108887 325.33008667 65.32397461 326.42651367 C63.00006288 330.16172275 60.62462532 333.83106492 58.07885742 337.41943359 C57.61141113 338.08579834 57.14396484 338.75216309 56.66235352 339.4387207 C55.76123886 340.71345654 54.8452352 341.97782215 53.91333008 343.23022461 C52.49821387 345.15885832 52.49821387 345.15885832 51.03979492 348.19287109 C52.08651174 351.74535372 53.80394975 354.53459065 55.94604492 357.52880859 C56.80794434 358.74443481 56.80794434 358.74443481 57.68725586 359.98461914 C58.29859375 360.83709229 58.90993164 361.68956543 59.53979492 362.56787109 C64.50300504 369.55595307 69.37393005 376.58143605 74.01831055 383.78613281 C76.01956861 387.02075593 76.01956861 387.02075593 79.03979492 389.19287109 C78.40528098 375.87040681 77.2334126 362.61370764 75.93798828 349.34057617 C75.59859129 345.84219545 75.27126794 342.34280399 74.9440918 338.84326172 C74.72802963 336.60946657 74.5112593 334.37573979 74.29370117 332.14208984 C74.1977919 331.10050217 74.10188263 330.05891449 74.00306702 328.98576355 C73.85797951 327.53693535 73.85797951 327.53693535 73.70996094 326.05883789 C73.6285939 325.2129863 73.54722687 324.3671347 73.46339417 323.49565125 C73.02055304 321.0882679 72.23870856 319.31496599 71.03979492 317.19287109 Z M38.03979492 368.19287109 C31.43343659 376.46052155 25.80385416 385.51918767 20.03979492 394.38037109 C18.19371636 397.21082995 16.34562575 400.03997019 14.49682617 402.86865234 C13.80892754 403.92173584 13.80892754 403.92173584 13.10713196 404.99609375 C10.13876165 409.53350536 7.14050481 414.04950907 4.11401367 418.54833984 C3.73632843 419.11048691 3.35864319 419.67263397 2.96951294 420.2518158 C1.20646794 422.87445235 -0.56170561 425.49340865 -2.3371582 428.10766602 C-2.95139648 429.02008057 -3.56563477 429.93249512 -4.19848633 430.87255859 C-4.73513916 431.66388184 -5.27179199 432.45520508 -5.82470703 433.27050781 C-7.12973239 435.10776317 -7.12973239 435.10776317 -6.96020508 437.19287109 C23.06979492 437.19287109 53.09979492 437.19287109 84.03979492 437.19287109 C83.03460669 433.17211816 81.84930101 431.14104309 79.53588867 427.76708984 C78.81127441 426.70280762 78.08666016 425.63852539 77.34008789 424.54199219 C76.95987488 423.9888031 76.57966187 423.43561401 76.18792725 422.86566162 C74.34377373 420.17879141 72.5243201 417.47523033 70.69995117 414.77490234 C69.16880471 412.5174364 67.63563861 410.26134503 66.10229492 408.00537109 C65.69948303 407.41268433 65.29667114 406.81999756 64.88165283 406.20935059 C64.47122742 405.60546509 64.060802 405.00157959 63.63793945 404.37939453 C62.7966282 403.14144061 61.95531962 401.90348487 61.11401367 400.66552734 C60.6955719 400.04994965 60.27713013 399.43437195 59.8460083 398.80014038 C57.31812892 395.07977908 54.79693395 391.35500074 52.28178406 387.62602234 C50.70368374 385.28679369 49.1230931 382.94925374 47.54220581 380.61190796 C46.42848307 378.96313524 45.31822305 377.31202523 44.20800781 375.66088867 C43.20821899 374.1839856 43.20821899 374.1839856 42.18823242 372.67724609 C41.60219238 371.8080957 41.01615234 370.93894531 40.41235352 370.04345703 C39.95940918 369.43276367 39.50646484 368.82207031 39.03979492 368.19287109 C38.70979492 368.19287109 38.37979492 368.19287109 38.03979492 368.19287109 Z M-111.96020508 457.19287109 C-111.96020508 462.14287109 -111.96020508 467.09287109 -111.96020508 472.19287109 C-34.41020508 472.19287109 43.13979492 472.19287109 123.03979492 472.19287109 C123.03979492 467.24287109 123.03979492 462.29287109 123.03979492 457.19287109 C45.48979492 457.19287109 -32.06020508 457.19287109 -111.96020508 457.19287109 Z " fill="#005183" transform="translate(214.960205078125,9.80712890625)"/>
<path d="M0 0 C0.99 0.495 0.99 0.495 2 1 C3.55987126 1.09584244 5.1237885 1.12902199 6.68659973 1.13130188 C8.16919029 1.13731415 8.16919029 1.13731415 9.68173218 1.14344788 C10.77007355 1.14291916 11.85841492 1.14239044 12.97973633 1.1418457 C14.12291824 1.14532013 15.26610016 1.14879456 16.44392395 1.15237427 C18.93319522 1.15974089 21.42247311 1.16508142 23.9117527 1.16866493 C27.84931945 1.17581263 31.78676029 1.1914663 35.72428894 1.21000671 C37.07219023 1.21634426 38.42009157 1.22266988 39.76799297 1.22898388 C40.78061657 1.2337326 40.78061657 1.2337326 41.81369722 1.23857725 C50.98165769 1.280655 60.14957636 1.31362473 69.31762695 1.32592773 C76.16057232 1.33520498 83.0031928 1.36528802 89.84601402 1.40724754 C92.45710558 1.41958168 95.0682416 1.42467443 97.67936134 1.42244911 C101.330611 1.42010306 104.98095285 1.44221181 108.63208008 1.4699707 C109.71434875 1.46336929 110.79661743 1.45676788 111.91168213 1.44996643 C119.24385498 1.54166998 119.24385498 1.54166998 123.147995 3.90812683 C125.69679329 6.78704063 126.12742838 8.34647312 126.17700195 12.0949707 C126.18983719 12.93957352 126.20267242 13.78417633 126.21589661 14.65437317 C126.22697701 16.02622017 126.22697701 16.02622017 126.23828125 17.42578125 C126.246353 18.36552292 126.25442474 19.30526459 126.26274109 20.27348328 C126.27658553 22.2649043 126.28730607 24.2563491 126.29516602 26.24780273 C126.31237279 29.29000968 126.35625482 32.33112825 126.40039062 35.37304688 C126.41051804 37.30728367 126.41903399 39.24152971 126.42578125 41.17578125 C126.44328934 42.08427322 126.46079742 42.9927652 126.47883606 43.92878723 C126.46437555 48.1502354 126.37662035 50.39563772 124.09838867 54.05151367 C120.83291407 57.08371295 118.98328612 57.12682218 114.61693192 57.13701439 C113.46712947 57.14208893 112.31732703 57.14716347 111.13268209 57.15239179 C109.22154028 57.15313843 109.22154028 57.15313843 107.27178955 57.15390015 C105.91315419 57.15791346 104.55452003 57.16235146 103.19588733 57.1671797 C99.44947121 57.17916567 95.70306798 57.18479832 91.95663643 57.18936086 C87.92106401 57.19530928 83.88550707 57.20692099 79.84994507 57.21765137 C70.097613 57.24219246 60.34527579 57.25680483 50.59292233 57.26971143 C47.83958123 57.27342206 45.08624064 57.2773954 42.33290005 57.2814641 C25.24415145 57.30669881 8.15540207 57.32875736 -8.93336105 57.34119225 C-12.89307407 57.34412206 -16.85278705 57.34708371 -20.8125 57.35009766 C-21.79669801 57.35084371 -22.78089602 57.35158976 -23.79491821 57.35235842 C-39.74371292 57.36501611 -55.69239626 57.39824373 -71.64113888 57.43989949 C-88.00607152 57.48229278 -104.37094708 57.50588425 -120.7359345 57.51111281 C-129.92806422 57.51452985 -139.12001988 57.52631938 -148.31209564 57.55921555 C-156.13946805 57.58718145 -163.96663073 57.59823066 -171.79404923 57.58702008 C-175.78879971 57.58182453 -179.78311073 57.5847777 -183.7777977 57.60948563 C-187.43471552 57.63191588 -191.09087665 57.63128775 -194.74780717 57.61228175 C-196.69781056 57.60814192 -198.64781806 57.62867348 -200.59770846 57.65006864 C-210.06140565 57.5638363 -210.06140565 57.5638363 -213.773139 54.59179974 C-217.7327914 49.98323815 -217.15952247 45.5584386 -217.16796875 39.69140625 C-217.17129715 38.88767075 -217.17462555 38.08393524 -217.17805481 37.25584412 C-217.1831089 35.55883352 -217.1854636 33.86181303 -217.18530273 32.16479492 C-217.18748928 29.57519092 -217.205661 26.98601307 -217.22460938 24.39648438 C-217.22754364 22.74479312 -217.22952821 21.09309985 -217.23046875 19.44140625 C-217.23765427 18.67043106 -217.24483978 17.89945587 -217.25224304 17.1051178 C-217.22881502 11.56548331 -216.87134291 7.929499 -212.95472431 3.89116287 C-209.10353783 1.42622194 -205.85119955 1.45474056 -201.42631531 1.51898193 C-200.56449719 1.51556423 -199.70267907 1.51214653 -198.81474525 1.50862527 C-195.92783456 1.50203825 -193.04185428 1.524036 -190.1550293 1.54589844 C-188.0853528 1.54702674 -186.01567471 1.5463934 -183.94599915 1.54412842 C-178.32649972 1.54297967 -172.70734106 1.56651533 -167.0879209 1.59442425 C-161.21559862 1.61941089 -155.34326873 1.62177775 -149.47090149 1.62652588 C-138.35037884 1.63896367 -127.23001328 1.67179628 -116.10955983 1.71192384 C-103.44948925 1.75661643 -90.78941122 1.77862229 -78.1292814 1.79870558 C-52.08610047 1.84052811 -26.04305903 1.91089591 0 2 C0 1.34 0 0.68 0 0 Z M-196 22 C-196 26.95 -196 31.9 -196 37 C-118.45 37 -40.9 37 39 37 C39 32.05 39 27.1 39 22 C-38.55 22 -116.1 22 -196 22 Z " fill="#96C53D" transform="translate(299,445)"/>
<path d="M0 0 C0.92860336 -0.00817749 1.85720673 -0.01635498 2.81394958 -0.02478027 C5.89573517 -0.04965106 8.97747466 -0.06615404 12.05932617 -0.08056641 C13.11037725 -0.08589008 14.16142834 -0.09121376 15.24432945 -0.09669876 C20.8067591 -0.12343683 26.36916624 -0.14281021 31.93164062 -0.15722656 C37.68209843 -0.1738819 43.43198396 -0.21866557 49.18222523 -0.26959801 C53.59942802 -0.30322382 58.01649417 -0.31479887 62.4338131 -0.32045364 C64.55374211 -0.32717831 66.67366176 -0.34243176 68.79346657 -0.36634445 C71.75992353 -0.39790019 74.7248261 -0.39804709 77.69140625 -0.390625 C78.56795868 -0.40703033 79.44451111 -0.42343567 80.34762573 -0.44033813 C84.73050328 -0.39542375 86.49263578 -0.23246166 90.06156921 2.5418396 C93.46603052 7.10417752 93.21452489 11.33563327 93.24291992 16.80615234 C93.24862 17.65332321 93.25432007 18.50049408 93.26019287 19.37333679 C93.26963694 21.1662776 93.2761745 22.95923573 93.2800293 24.75219727 C93.28972155 27.48468618 93.32074454 30.21641848 93.35229492 32.94873047 C93.3588267 34.69286664 93.36407649 36.43700818 93.36791992 38.18115234 C93.38026672 38.99385086 93.39261353 39.80654938 93.40533447 40.64387512 C93.38622326 45.55157714 92.79055335 48.95246478 90.03979492 53.19287109 C87.85229492 54.06787109 87.85229492 54.06787109 86.03979492 54.19287109 C85.94182617 53.30083984 85.84385742 52.40880859 85.74291992 51.48974609 C85.59338867 50.31927734 85.44385742 49.14880859 85.28979492 47.94287109 C85.0809668 46.20263672 85.0809668 46.20263672 84.86791992 44.42724609 C83.94190181 40.81053385 82.91566489 39.49795771 80.03979492 37.19287109 C77.24859401 35.79727064 74.837738 35.97478822 71.71948242 35.87646484 C69.83422852 35.81362305 69.83422852 35.81362305 67.91088867 35.74951172 C65.93282227 35.69053711 65.93282227 35.69053711 63.91479492 35.63037109 C62.57493741 35.58717598 61.23509336 35.54356136 59.89526367 35.49951172 C56.61023872 35.39316199 53.32503094 35.29248793 50.03979492 35.19287109 C50.03979492 30.24287109 50.03979492 25.29287109 50.03979492 20.19287109 C35.51979492 20.19287109 20.99979492 20.19287109 6.03979492 20.19287109 C6.03979492 25.14287109 6.03979492 30.09287109 6.03979492 35.19287109 C3.79370117 35.58349609 1.54760742 35.97412109 -0.69848633 36.36474609 C-3.64859917 37.44492558 -4.45651617 38.44222065 -5.96020508 41.19287109 C-6.74959666 44.45557023 -6.74959666 44.45557023 -7.14770508 47.94287109 C-7.30625977 49.11333984 -7.46481445 50.28380859 -7.62817383 51.48974609 C-7.73774414 52.38177734 -7.84731445 53.27380859 -7.96020508 54.19287109 C-10.77750914 53.90142585 -11.75491676 53.44449174 -13.56982422 51.2199707 C-15.47651023 47.06878549 -15.40936055 43.46424069 -15.39379883 38.94677734 C-15.39904068 38.05804428 -15.40428253 37.16931122 -15.40968323 36.25364685 C-15.41609189 34.37849978 -15.41478141 32.50331244 -15.40625 30.62817383 C-15.39774308 27.76814763 -15.42651162 24.9101219 -15.45825195 22.05029297 C-15.45986429 20.22412169 -15.45928582 18.39794689 -15.45629883 16.57177734 C-15.46753281 15.72160538 -15.47876678 14.87143341 -15.49034119 13.99549866 C-15.42574368 8.45734594 -14.56330998 5.45383566 -10.96020508 1.19287109 C-7.57483745 -0.49981272 -3.7253982 0.01798046 0 0 Z " fill="#95C53D" transform="translate(214.960205078125,9.80712890625)"/>
<path d="M0 0 C2.44105996 2.44105996 2.36304939 3.3943906 2.69607544 6.7668457 C2.79979462 7.77325607 2.90351379 8.77966644 3.01037598 9.8165741 C3.11539429 10.92511246 3.2204126 12.03365082 3.32861328 13.17578125 C3.44594818 14.34019241 3.56328308 15.50460358 3.68417358 16.70429993 C4.00471081 19.90455778 4.31722317 23.10547599 4.62593699 26.3068924 C4.95110442 29.66203867 5.285607 33.01625508 5.61886597 36.37060547 C6.177974 42.01259542 6.73009924 47.65523484 7.27783203 53.29833984 C7.90925072 59.80303841 8.55024073 66.30673582 9.196787 72.80994701 C9.81982358 79.0778629 10.43722567 85.34632035 11.05169296 91.61508179 C11.31246683 94.27525871 11.57516484 96.93522386 11.83877945 99.59512329 C12.2074801 103.32597736 12.56971675 107.05740429 12.93017578 110.7890625 C13.03924255 111.88140701 13.14830933 112.97375153 13.26068115 114.09919739 C13.86339467 120.42236713 14.13586556 126.64866557 14 133 C9.48727366 128.86886449 6.31339024 124.24645852 3 119.125 C1.98028623 117.56437207 0.95946634 116.00446628 -0.0625 114.4453125 C-0.55363281 113.68379883 -1.04476563 112.92228516 -1.55078125 112.13769531 C-2.93266732 110.02494165 -2.93266732 110.02494165 -4.41796875 108.29199219 C-11.24953294 100.02299477 -10.52027471 86.93282325 -11.5078125 76.6953125 C-11.63920502 75.35917544 -11.77087361 74.0230655 -11.90280151 72.6869812 C-12.17588886 69.91233306 -12.4462014 67.13743384 -12.71435547 64.36230469 C-13.05697238 60.81814354 -13.40586644 57.27463395 -13.75671577 53.73127937 C-14.02830441 50.9827707 -14.29699736 48.23398498 -14.564785 45.48510361 C-14.75394832 43.5473955 -14.94520494 41.60989211 -15.13650513 39.6723938 C-15.25017426 38.49031342 -15.36384338 37.30823303 -15.48095703 36.09033203 C-15.58151398 35.05619171 -15.68207092 34.02205139 -15.78567505 32.95657349 C-16.2406397 26.68041936 -16.13694756 23.44900192 -12.5 18.1640625 C-11.778125 17.10058594 -11.05625 16.03710938 -10.3125 14.94140625 C-9.5419658 13.83572898 -8.77112862 12.73026279 -8 11.625 C-7.22789535 10.49696288 -6.45704799 9.36806408 -5.6875 8.23828125 C-3.80386156 5.48346003 -1.90784477 2.73808706 0 0 Z " fill="#D0D6E0" transform="translate(303,301)"/>
<path d="M0 0 C6.6 0 13.2 0 20 0 C20.78704213 7.79750823 21.5702555 15.59537885 22.34690857 23.39392757 C22.70776657 27.01587004 23.07023856 30.6376352 23.43652344 34.2590332 C23.79056261 37.75997341 24.14019967 41.26132887 24.48690796 44.7630024 C24.68334385 46.73560775 24.88422659 48.70776867 25.08520508 50.67991638 C25.26539185 52.51079552 25.26539185 52.51079552 25.44921875 54.37866211 C25.60910278 55.97417152 25.60910278 55.97417152 25.7722168 57.60191345 C26.04866923 61.7260511 26 65.86660705 26 70 C19.73 70 13.46 70 7 70 C5.702573 67.405146 5.62110913 65.17800572 5.33569336 62.28442383 C5.21564438 61.08590286 5.0955954 59.8873819 4.97190857 58.65254211 C4.84582718 57.35052353 4.71974579 56.04850494 4.58984375 54.70703125 C4.45700073 53.35899946 4.32390487 52.01099257 4.19056702 50.66300964 C3.91151788 47.83279357 3.63529533 45.00231964 3.36108398 42.17163086 C3.01081499 38.55775409 2.65401023 34.94455971 2.2950964 31.33153248 C2.01889948 28.54439123 1.74602971 25.75693182 1.47415352 22.96936607 C1.28090736 20.9934683 1.08505059 19.01782641 0.8891449 17.04219055 C0.77224808 15.82790878 0.65535126 14.61362701 0.53491211 13.36254883 C0.43133896 12.30046707 0.32776581 11.23838531 0.22105408 10.14411926 C-0.01615154 6.77027177 0 3.38217584 0 0 Z " fill="#D1D7E0" transform="translate(274,191)"/>
<path d="M0 0 C22.11 0 44.22 0 67 0 C67 4.95 67 9.9 67 15 C44.89 15 22.78 15 0 15 C0 10.05 0 5.1 0 0 Z " fill="#D1D8E1" transform="translate(338,467)"/>
<path d="M0 0 C6.6 0 13.2 0 20 0 C21.47306842 9.51828827 22.59417227 19.04961981 23.625 28.625 C23.76010986 29.87055664 23.89521973 31.11611328 24.03442383 32.39941406 C24.15970459 33.57987305 24.28498535 34.76033203 24.4140625 35.9765625 C24.5270166 37.03955566 24.6399707 38.10254883 24.75634766 39.19775391 C25 42 25 42 25 46 C18.4 46 11.8 46 5 46 C3.32692773 35.91064679 2.25244062 25.87048791 1.375 15.6875 C1.23996802 14.15686706 1.10455354 12.62626781 0.96875 11.09570312 C0.64073635 7.39754921 0.32052345 3.69884063 0 0 Z " fill="#CFD6DF" transform="translate(264,94)"/>
<path d="M0 0 C7.59 0 15.18 0 23 0 C23 4.95 23 9.9 23 15 C15.41 15 7.82 15 0 15 C0 10.05 0 5.1 0 0 Z " fill="#D0D7DD" transform="translate(265,30)"/>
<path d="M0 0 C6.6 0 13.2 0 20 0 C20 3.63 20 7.26 20 11 C13.73 11 7.46 11 1 11 C0 8 0 8 0 0 Z " fill="#D1D7E0" transform="translate(271,160)"/>
<path d="M0 0 C6.93 0 13.86 0 21 0 C21 2.97 21 5.94 21 9 C14.4 9 7.8 9 1 9 C0.67 6.03 0.34 3.06 0 0 Z " fill="#CFD6DF" transform="translate(261,65)"/>
<path d="M0 0 C2.97 0 5.94 0 9 0 C7.44298069 4.67105792 4.91552627 8.08705685 2 12 C-0.80163026 7.7975546 -0.14489712 4.99895065 0 0 Z " fill="#CCD4DE" transform="translate(283,281)"/>
</svg>
