<?xml version="1.0" encoding="UTF-8"?>
<svg version="1.1" xmlns="http://www.w3.org/2000/svg" width="80" height="80">
<path d="M0 0 C4.26290337 3.51714723 6.65358227 7.77685839 7.46875 13.2421875 C7.66861876 18.18893933 6.9876826 21.781993 4.125 25.9375 C-0.60960552 30.70568428 -4.20398039 33.0609887 -11.0625 33.3125 C-16.83954274 33.23608409 -20.69779443 31.98693223 -24.875 27.9375 C-28.32323219 23.44405296 -29.55468252 18.79930207 -29.25390625 13.171875 C-28.29741098 7.53151115 -25.95513781 3.4375658 -21.375 0 C-14.99610857 -4.27675676 -6.47340938 -4.15248939 0 0 Z M-18.875 5.9375 C-21.66445399 9.16739409 -22.77019026 11.2038318 -23.375 15.4375 C-22.69509988 20.19680086 -20.92795527 23.32446372 -17.125 26.3125 C-12.70414696 27.54051473 -8.94678554 28.01705108 -4.8359375 25.875 C-1.49221661 23.34312904 0.5001685 21.13010621 1.25 16.9375 C1.41022778 12.94706528 0.37360397 10.27163692 -1.875 6.9375 C-6.84919438 1.78565582 -13.23272124 2.05059685 -18.875 5.9375 Z " fill="#776F86" transform="translate(49.875,7.0625)"/>
<path d="M0 0 C0.79019531 -0.00128906 1.58039062 -0.00257812 2.39453125 -0.00390625 C3.21050781 -0.00003906 4.02648437 0.00382812 4.8671875 0.0078125 C5.69089844 0.00394531 6.51460937 0.00007813 7.36328125 -0.00390625 C13.4888008 0.00611915 13.4888008 0.00611915 15.7421875 1.1328125 C15.4121875 2.7828125 15.0821875 4.4328125 14.7421875 6.1328125 C13.54722656 6.15859375 12.35226563 6.184375 11.12109375 6.2109375 C-1.22694236 6.26446581 -1.22694236 6.26446581 -12.2578125 11.1328125 C-15.12775371 14.37069489 -16.37381959 17.20536182 -17.35546875 21.3359375 C-17.65324219 22.58890625 -17.95101563 23.841875 -18.2578125 25.1328125 C-16.81946045 25.12495728 -16.81946045 25.12495728 -15.35205078 25.11694336 C-11.79997691 25.09886571 -8.24790713 25.08737035 -4.69580078 25.07788086 C-3.15738237 25.07284698 -1.61896875 25.06601942 -0.08056641 25.05737305 C2.12859276 25.04526611 4.33768876 25.03957481 6.546875 25.03515625 C7.23651337 25.02999496 7.92615173 25.02483368 8.63668823 25.01951599 C13.51444409 25.01894079 13.51444409 25.01894079 15.7421875 26.1328125 C15.2471875 28.6078125 15.2471875 28.6078125 14.7421875 31.1328125 C2.2021875 31.1328125 -10.3378125 31.1328125 -23.2578125 31.1328125 C-25.54769969 26.55303813 -24.47103111 21.20760705 -23.0078125 16.5078125 C-20.32454634 9.34423037 -17.20506978 5.67339897 -10.4765625 2.11328125 C-6.95899475 0.55886311 -3.83544272 0.00600494 0 0 Z " fill="#776F86" transform="translate(27.2578125,43.8671875)"/>
<path d="M0 0 C0.97710937 -0.00128906 1.95421875 -0.00257812 2.9609375 -0.00390625 C3.98445313 -0.00003906 5.00796875 0.00382812 6.0625 0.0078125 C7.59777344 0.00201172 7.59777344 0.00201172 9.1640625 -0.00390625 C10.14117187 -0.00261719 11.11828125 -0.00132813 12.125 0 C13.02347656 0.00112793 13.92195313 0.00225586 14.84765625 0.00341797 C17.0625 0.1328125 17.0625 0.1328125 19.0625 1.1328125 C19.0625 2.7828125 19.0625 4.4328125 19.0625 6.1328125 C10.4825 6.1328125 1.9025 6.1328125 -6.9375 6.1328125 C-6.9375 4.4828125 -6.9375 2.8328125 -6.9375 1.1328125 C-4.45581386 -0.10803057 -2.77323801 0.00348147 0 0 Z " fill="#797185" transform="translate(56.9375,68.8671875)"/>
<path d="M0 0 C1.00023193 0.00523682 2.00046387 0.01047363 3.03100586 0.01586914 C4.1105957 0.0190918 5.19018555 0.02231445 6.30249023 0.02563477 C8.00695312 0.03820313 8.00695312 0.03820313 9.74584961 0.05102539 C11.45611328 0.05779297 11.45611328 0.05779297 13.20092773 0.06469727 C16.02845312 0.07652792 18.85587601 0.09301129 21.68334961 0.11352539 C22.06553728 1.76967196 22.39730063 3.43809563 22.68334961 5.11352539 C21.68334961 6.11352539 21.68334961 6.11352539 19.36669922 6.22705078 C18.36646729 6.22181396 17.36623535 6.21657715 16.33569336 6.21118164 C15.25610352 6.20795898 14.17651367 6.20473633 13.06420898 6.20141602 C11.92790039 6.19303711 10.7915918 6.1846582 9.62084961 6.17602539 C8.48067383 6.17151367 7.34049805 6.16700195 6.16577148 6.16235352 C3.3382461 6.15052287 0.51082321 6.13403949 -2.31665039 6.11352539 C-2.69883806 4.45737882 -3.03060141 2.78895515 -3.31665039 1.11352539 C-2.31665039 0.11352539 -2.31665039 0.11352539 0 0 Z " fill="#766E85" transform="translate(53.316650390625,56.886474609375)"/>
<path d="M0 0 C8.58 0 17.16 0 26 0 C26 1.65 26 3.3 26 5 C17.42 5 8.84 5 0 5 C0 3.35 0 1.7 0 0 Z " fill="#766E85" transform="translate(50,45)"/>
</svg>
