<?xml version="1.0" encoding="UTF-8"?>
<svg version="1.1" xmlns="http://www.w3.org/2000/svg" width="72" height="80">
<path d="M0 0 C3.66163308 1.46465323 6.92045674 2.94594451 10.3671875 4.80078125 C11.40617188 5.35926758 12.44515625 5.91775391 13.515625 6.49316406 C14.62421875 7.09354492 15.7328125 7.69392578 16.875 8.3125 C18.02742188 8.93479492 19.17984375 9.55708984 20.3671875 10.19824219 C29.84332084 15.32727877 39.23244511 20.60512576 48.59765625 25.93359375 C56.36363791 30.35151849 64.18150674 34.67591446 72 39 C72 39.66 72 40.32 72 41 C69.25692116 42.52393269 66.51384045 44.04786203 63.77075195 45.57177734 C61.35388216 46.91447814 58.93705798 48.257261 56.52026367 49.60009766 C50.85848685 52.74585167 45.19655991 55.89133177 39.53320312 59.03424072 C37.7723782 60.01144771 36.01166389 60.98885371 34.25097656 61.96630859 C31.97192774 63.231404 29.69263368 64.49605772 27.41308594 65.76025391 C22.5370522 68.46699441 17.66616394 71.18093008 12.8203125 73.94140625 C12.06645264 74.37018066 11.31259277 74.79895508 10.53588867 75.24072266 C9.18486977 76.01125141 7.83589831 76.78538698 6.48950195 77.56396484 C2.21956404 80 2.21956404 80 0 80 C0 53.6 0 27.2 0 0 Z " fill="#9CD9A3" transform="translate(0,0)"/>
</svg>
