<?xml version="1.0" encoding="UTF-8"?>
<svg version="1.1" xmlns="http://www.w3.org/2000/svg" width="80" height="80">
<path d="M0 0 C3.45411219 1.72774076 5.9856378 4.16360858 8.67431641 6.87670898 C9.53290756 7.72600227 9.53290756 7.72600227 10.40884399 8.592453 C11.6121998 9.78872129 12.81046419 10.99013026 14.00390625 12.19628906 C15.83745452 14.04374634 17.69378985 15.86589598 19.55322266 17.68725586 C20.7200395 18.85312193 21.88545447 20.02039308 23.04931641 21.18920898 C23.60751068 21.73414505 24.16570496 22.27908112 24.74081421 22.8405304 C26.26953125 24.40722656 26.26953125 24.40722656 28.46337891 27.23217773 C28.30175781 29.60986328 28.30175781 29.60986328 27.46337891 31.23217773 C23.17837683 30.76929171 20.89252477 28.0457933 18.04150391 25.10327148 C17.53665466 24.5941774 17.03180542 24.08508331 16.51165771 23.56056213 C14.90503912 21.93718653 13.30918069 20.30368074 11.71337891 18.66967773 C10.62422906 17.56547723 9.53439285 16.46195329 8.44384766 15.35913086 C5.77567131 12.65792483 3.117096 9.94758711 0.46337891 7.23217773 C-3.20414114 8.77135784 -5.52242682 10.98703225 -8.30224609 13.80249023 C-9.19169922 14.69838867 -10.08115234 15.59428711 -10.99755859 16.51733398 C-12.37814453 17.92305664 -12.37814453 17.92305664 -13.78662109 19.35717773 C-14.73146966 20.3120641 -15.67677743 21.26649632 -16.62255859 22.22045898 C-18.93180448 24.5532686 -21.23625312 26.8906186 -23.53662109 29.23217773 C-22.87662109 29.56217773 -22.21662109 29.89217773 -21.53662109 30.23217773 C-21.52203857 31.03961426 -21.50745605 31.84705078 -21.49243164 32.67895508 C-21.41816024 36.32219044 -21.32143085 39.96448807 -21.22412109 43.60717773 C-21.2015625 44.87819336 -21.17900391 46.14920898 -21.15576172 47.45874023 C-21.1203125 48.67045898 -21.08486328 49.88217773 -21.04833984 51.13061523 C-21.02215576 52.25129395 -20.99597168 53.37197266 -20.96899414 54.52661133 C-20.82631104 55.41944824 -20.68362793 56.31228516 -20.53662109 57.23217773 C-17.61897109 59.17727774 -15.91124824 59.6849409 -12.53662109 60.23217773 C-12.57589722 59.27178589 -12.57589722 59.27178589 -12.6159668 58.29199219 C-12.7202339 55.37647271 -12.78503862 52.46134575 -12.84912109 49.54467773 C-12.89101563 48.53727539 -12.93291016 47.52987305 -12.97607422 46.49194336 C-13.05376686 41.78376946 -13.07792636 39.06874042 -10.47412109 35.04467773 C-6.78322678 32.76731741 -4.52924396 32.71850377 -0.22412109 32.91967773 C1.03013672 32.96479492 2.28439453 33.00991211 3.57666016 33.05639648 C5.00558594 33.1434082 5.00558594 33.1434082 6.46337891 33.23217773 C7.12337891 34.55217773 7.78337891 35.87217773 8.46337891 37.23217773 C6.05404232 39.64151432 -0.14878742 38.69868158 -3.41162109 38.85327148 C-4.44287109 38.97831055 -5.47412109 39.10334961 -6.53662109 39.23217773 C-7.68316591 41.52526737 -7.73391227 43.0312743 -7.85302734 45.58374023 C-7.89492188 46.43452148 -7.93681641 47.28530273 -7.97998047 48.16186523 C-8.01929687 49.05131836 -8.05861328 49.94077148 -8.09912109 50.85717773 C-8.14230469 51.75436523 -8.18548828 52.65155273 -8.22998047 53.57592773 C-8.33618824 55.79449012 -8.43692069 58.01331339 -8.53662109 60.23217773 C-5.23662109 60.23217773 -1.93662109 60.23217773 1.46337891 60.23217773 C1.46337891 61.55217773 1.46337891 62.87217773 1.46337891 64.23217773 C-2.26519315 64.40689155 -5.99271068 64.51316499 -9.72412109 64.60717773 C-10.77921875 64.65745117 -11.83431641 64.70772461 -12.92138672 64.75952148 C-17.85711316 64.85294217 -20.63562119 64.86200291 -24.75537109 61.98217773 C-27.82781763 57.20281645 -27.05759 51.30302697 -26.84912109 45.85717773 C-26.8265625 44.73956055 -26.80400391 43.62194336 -26.78076172 42.47045898 C-26.72205488 39.72297884 -26.63998955 36.97828012 -26.53662109 34.23217773 C-28.51662109 34.23217773 -30.49662109 34.23217773 -32.53662109 34.23217773 C-32.24929698 28.74325183 -28.95134989 26.03440894 -25.27099609 22.36499023 C-24.64058411 21.726008 -24.01017212 21.08702576 -23.36065674 20.42868042 C-22.02744849 19.08400561 -20.68899346 17.7445153 -19.34570312 16.40991211 C-17.29015959 14.36070533 -15.26272011 12.28625564 -13.23583984 10.20874023 C-11.93668161 8.90503753 -10.63595186 7.60289857 -9.33349609 6.30249023 C-8.72809998 5.67867462 -8.12270386 5.05485901 -7.4989624 4.41213989 C-3.29798767 0.30186586 -3.29798767 0.30186586 0 0 Z " fill="#776F85" transform="translate(40.53662109375,7.767822265625)"/>
<path d="M0 0 C1.18335938 0.0009668 1.18335938 0.0009668 2.390625 0.00195312 C8.2346388 0.0471388 8.2346388 0.0471388 9.375 1.1875 C10.0180876 9.05214511 10.52829684 15.88902608 5.375 22.1875 C2.28223038 24.15864287 -0.11599211 24.43466282 -3.75 24.375 C-4.61882813 24.36855469 -5.48765625 24.36210938 -6.3828125 24.35546875 C-8.625 24.1875 -8.625 24.1875 -10.625 23.1875 C-10.955 24.8375 -11.285 26.4875 -11.625 28.1875 C-12.945 27.8575 -14.265 27.5275 -15.625 27.1875 C-15.54121094 26.56101562 -15.45742188 25.93453125 -15.37109375 25.2890625 C-15.26925781 24.47179687 -15.16742188 23.65453125 -15.0625 22.8125 C-14.95808594 22.00039062 -14.85367188 21.18828125 -14.74609375 20.3515625 C-14.44262672 18.13850814 -14.44262672 18.13850814 -15.625 16.1875 C-16.13372093 10.08284886 -15.69205978 7.06797174 -11.625 2.1875 C-7.74243359 -0.40087761 -4.49276783 -0.07043118 0 0 Z M-9.625 7.1875 C-10.60373538 10.78135054 -10.60373538 10.78135054 -10.625 14.1875 C-9.8825 13.6925 -9.14 13.1975 -8.375 12.6875 C-5.625 11.1875 -5.625 11.1875 -1.625 11.1875 C-2.99483503 14.34865776 -3.6140638 15.1802092 -6.625 17.1875 C-6.625 17.8475 -6.625 18.5075 -6.625 19.1875 C-4.87828412 19.98106801 -4.87828412 19.98106801 -2.625 20.1875 C0.82060634 18.54673508 2.23174962 17.40237558 4.375 14.1875 C4.61650773 11.67165109 4.61650773 11.67165109 4.5 9 C4.48195313 8.09894531 4.46390625 7.19789062 4.4453125 6.26953125 C4.42210937 5.58246094 4.39890625 4.89539062 4.375 4.1875 C-1.06614142 3.90606165 -5.08835253 3.75735191 -9.625 7.1875 Z " fill="#766E85" transform="translate(66.625,47.8125)"/>
</svg>
