<svg width="40" height="40" viewBox="0 0 40 40" fill="none" xmlns="http://www.w3.org/2000/svg">
<circle cx="20" cy="20" r="20" fill="#3CB64A" fill-opacity="0.1"/>
<path d="M29.6 20H10.4L8 32H32L29.6 20ZM27.632 22.4L28.112 24.8H21.2V22.4H27.632ZM18.8 22.4V24.8H11.888L12.368 22.4H18.8ZM11.408 27.2H18.8V29.6H10.928L11.408 27.2ZM21.2 29.6V27.2H28.592L29.072 29.6H21.2ZM18.8 15.2H21.2V18.8H18.8V15.2ZM24.5168 14.246L26.2148 12.5492L28.76 15.0944L27.0632 16.7912L24.5168 14.246ZM11.246 15.0956L13.7912 12.548L15.488 14.2472L12.944 16.7924L11.246 15.0956ZM9.2 8H12.8V10.4H9.2V8ZM27.2 8H30.8V10.4H27.2V8ZM20 14C23.312 14 26 11.312 26 8H23.6C23.6 9.98 21.98 11.6 20 11.6C18.02 11.6 16.4 9.98 16.4 8H14C14 11.312 16.688 14 20 14Z" fill="#3CB64A"/>
</svg>
