<svg width="40" height="40" viewBox="0 0 40 40" fill="none" xmlns="http://www.w3.org/2000/svg">
<circle cx="20" cy="20" r="20" fill="#3CB64A" fill-opacity="0.1"/>
<path d="M13.3334 13.9997C13.3334 12.8955 14.2292 11.9997 15.3334 11.9997C16.4375 11.9997 17.3334 12.8955 17.3334 13.9997V20.8538C17.3334 21.5747 17.6292 22.183 17.9709 22.6247C18.4084 23.1913 18.6667 23.8955 18.6667 24.6663C18.6667 26.508 17.175 27.9997 15.3334 27.9997C13.4917 27.9997 12 26.508 12 24.6663C12 23.8955 12.2584 23.1913 12.6959 22.6288C13.0375 22.1872 13.3334 21.5788 13.3334 20.858V13.9997ZM15.3334 9.33301C12.7542 9.33301 10.6667 11.4205 10.6667 13.9997V20.8497C10.6667 20.8538 10.6625 20.8622 10.6584 20.8747C10.65 20.8997 10.625 20.9413 10.5875 20.9913C9.80004 22.008 9.33337 23.283 9.33337 24.6663C9.33337 27.9788 12.0209 30.6663 15.3334 30.6663C18.6459 30.6663 21.3334 27.9788 21.3334 24.6663C21.3334 23.283 20.8667 22.008 20.0792 20.9955C20.0417 20.9455 20.0167 20.9038 20.0084 20.8788C20.0042 20.8663 20 20.858 20 20.8538V13.9997C20 11.4205 17.9125 9.33301 15.3334 9.33301ZM15.3334 26.6663C16.4375 26.6663 17.3334 25.7705 17.3334 24.6663C17.3334 23.7955 16.775 23.0538 16 22.7788V20.6663C16 20.2997 15.7 19.9997 15.3334 19.9997C14.9667 19.9997 14.6667 20.2997 14.6667 20.6663V22.7788C13.8917 23.0538 13.3334 23.7955 13.3334 24.6663C13.3334 25.7705 14.2292 26.6663 15.3334 26.6663ZM29.3334 23.9997H28V11.9997C28 11.2622 27.4042 10.6663 26.6667 10.6663C25.9292 10.6663 25.3334 11.2622 25.3334 11.9997V23.9997H24C23.4625 23.9997 22.975 24.3247 22.7667 24.8247C22.5584 25.3247 22.675 25.8955 23.0542 26.2788L25.7209 28.9455C25.9709 29.1955 26.3084 29.3372 26.6625 29.3372C27.0167 29.3372 27.3542 29.1955 27.6042 28.9455L30.2709 26.2788C30.6542 25.8955 30.7667 25.3247 30.5584 24.8247C30.35 24.3247 29.8667 23.9997 29.325 23.9997H29.3334Z" fill="#3CB64A"/>
</svg>
