<?xml version="1.0" encoding="UTF-8"?>
<svg version="1.1" xmlns="http://www.w3.org/2000/svg" width="512" height="512">
<path d="M0 0 C1.11132168 -0.0055344 2.22264336 -0.01106879 3.36764145 -0.0167709 C7.10501983 -0.03042351 10.84173574 -0.01538246 14.57910156 -0.00050354 C17.25298913 -0.00428504 19.92683189 -0.00963072 22.60070801 -0.01687622 C29.11742198 -0.0308208 35.63394239 -0.02324363 42.15064716 -0.00820064 C49.73695015 0.00864586 57.32320472 0.00545092 64.90952063 0.00170528 C78.44395135 -0.00417553 91.97828909 0.0100069 105.51269531 0.03465271 C118.6507516 0.05857415 131.78868365 0.06565726 144.92675781 0.05516052 C159.22755465 0.04375532 173.52829399 0.04181633 187.82909012 0.05625862 C189.35354868 0.05778448 190.87800725 0.05930484 192.40246582 0.06081963 C193.52760861 0.06195635 193.52760861 0.06195635 194.67548156 0.06311603 C199.9655885 0.06786194 205.25566981 0.06600525 210.54577637 0.06175423 C216.9912181 0.05683128 223.43654227 0.06279523 229.88195705 0.08264852 C233.17158042 0.09253108 236.46098767 0.0960107 239.75062561 0.08975601 C243.31376164 0.08382945 246.87636518 0.09625843 250.43945312 0.11352539 C251.48341122 0.10751535 252.52736931 0.1015053 253.60296249 0.09531313 C254.55594349 0.10375307 255.50892448 0.11219301 256.49078369 0.12088871 C257.72466009 0.1224324 257.72466009 0.1224324 258.98346329 0.12400728 C261.77804871 0.59537955 263.16430685 1.57813886 265.21972656 3.50120544 C265.77476501 5.91583252 265.77476501 5.91583252 265.84838867 8.81687927 C265.88359116 9.90684708 265.91879364 10.99681488 265.95506287 12.11981201 C265.96892532 13.30399216 265.98278778 14.4881723 265.99707031 15.70823669 C266.01749893 16.93918564 266.03792755 18.17013458 266.05897522 19.43838501 C266.0924419 22.05857115 266.11435273 24.67892599 266.12573242 27.29930115 C266.14494898 31.23416062 266.26747307 35.16366939 266.38183594 39.09690857 C266.62285861 55.43866051 264.2507528 67.20632119 255.63891602 81.15919495 C253.30825896 85.00535042 251.28357427 89.00777868 249.21972656 93.00120544 C248.40609858 94.538446 247.59116663 96.07499774 246.77441406 97.61058044 C243.39652137 104.02778301 240.18186884 110.52719767 236.97363281 117.03050232 C236.54179687 117.9025531 236.10996094 118.77460388 235.66503906 119.67308044 C235.28879395 120.43717224 234.91254883 121.20126404 234.52490234 121.98851013 C233.21972656 124.50120544 233.21972656 124.50120544 231.17028809 127.34495544 C228.12505064 132.70806645 228.66533296 138.50825983 228.70556641 144.51390076 C228.69844131 145.81398575 228.69131622 147.11407074 228.68397522 148.45355225 C228.66868543 151.2713279 228.66581642 154.0887397 228.67274094 156.90654755 C228.68357334 161.37132858 228.66608949 165.83573318 228.64492798 170.30046082 C228.61470619 177.3703344 228.60297763 184.44009578 228.59935153 191.5100286 C228.59270487 204.15056902 228.56346607 216.79103015 228.51425517 229.4314754 C228.49785777 233.859961 228.49232091 238.28828342 228.49584556 242.7167964 C228.49617941 244.81456835 228.49205527 246.91227754 228.48606873 249.01004028 C228.47902131 251.55437261 228.47893579 254.09873905 228.4875946 256.64306641 C228.44534888 265.59722284 228.37911058 275.20453519 223.34472656 282.93870544 C222.85230469 283.72116638 222.35988281 284.50362732 221.85253906 285.30979919 C220.21972656 287.50120544 220.21972656 287.50120544 218.14885044 289.13719082 C215.45292522 292.44087013 215.66833348 295.43737124 215.72093201 299.5168457 C215.71554745 300.33077362 215.7101629 301.14470155 215.70461518 301.98329395 C215.69132636 304.71426029 215.70649997 307.44433069 215.72143555 310.17527771 C215.71761325 312.13157057 215.71199498 314.08786064 215.70471191 316.04414368 C215.6927496 320.25831683 215.69325963 324.4722409 215.7033062 328.68641853 C215.7188393 335.34563324 215.70520882 342.00459095 215.68727112 348.66378784 C215.65642876 361.59425434 215.65495125 374.52464268 215.65692139 387.45513916 C215.65831366 403.91814866 215.64804691 420.38109828 215.60834366 436.84406322 C215.59337287 443.46838652 215.59370748 450.09248345 215.60582149 456.71681035 C215.61051882 460.83163031 215.60303394 464.94636289 215.59227753 469.06116867 C215.58986316 470.97401809 215.59263556 472.88688189 215.60088539 474.79971504 C215.61144954 477.40422563 215.6037992 480.00806071 215.59153748 482.61254883 C215.59911353 483.37538054 215.60668959 484.13821224 215.61449522 484.92416006 C215.56383882 489.9733303 215.56383882 489.9733303 214.11619192 492.19404984 C211.26855827 494.15680665 208.93768663 493.87865655 205.50269318 493.88152218 C204.81296234 493.8861821 204.12323151 493.89084202 203.41259974 493.89564314 C201.08416191 493.90766491 198.75629991 493.89817055 196.42785645 493.8888855 C194.74860797 493.89305528 193.06936232 493.89853084 191.39012194 493.90520531 C186.76219559 493.91972521 182.13444633 493.91539489 177.50651002 493.9080385 C172.52075647 493.90332527 167.53504226 493.91580021 162.54930115 493.92605591 C152.77691472 493.94328521 143.00459246 493.94407543 133.23219478 493.938843 C125.29273441 493.93480799 117.35329307 493.93623689 109.41383362 493.94159126 C107.72138454 493.9427139 107.72138454 493.9427139 105.99474457 493.94385921 C103.70290736 493.94539062 101.41107015 493.94692897 99.11923295 493.94847418 C77.60885747 493.96221399 56.09851831 493.95675097 34.58814365 493.94528896 C14.8900521 493.93535347 -4.80794557 493.94830011 -24.50602263 493.97222316 C-44.71189362 493.99657883 -64.91772082 494.00623083 -85.1236062 493.99957043 C-96.47577806 493.99607054 -107.82787766 493.99836094 -119.18003845 494.01582146 C-128.8432055 494.0304993 -138.50624941 494.03123692 -148.16941392 494.01375055 C-153.10343282 494.00520187 -158.03723134 494.00318472 -162.97123909 494.0184021 C-167.48275264 494.03214466 -171.99385486 494.02762199 -176.50534397 494.00816286 C-178.14257689 494.00437023 -179.77984194 494.00741754 -181.41704649 494.01777451 C-183.63294923 494.03080202 -185.84740189 494.01949158 -188.06324005 494.0017767 C-189.29684407 494.00166936 -190.53044808 494.00156202 -191.80143404 494.00145143 C-194.78027344 493.50120544 -194.78027344 493.50120544 -196.67518568 491.6818338 C-199.57217642 485.96531028 -198.6563161 476.0960649 -196.71777344 470.06370544 C-194.11339026 464.437255 -189.9205493 459.85525752 -184.71777344 456.56370544 C-179.69518539 454.74702466 -174.85632403 454.37626735 -169.54467201 454.37815762 C-168.30657048 454.37616657 -167.06846895 454.37417552 -165.79284918 454.37212414 C-164.42705429 454.3749768 -163.0612596 454.37792239 -161.69546509 454.38095093 C-160.23835684 454.38051471 -158.78124866 454.37963888 -157.32414091 454.37836176 C-153.32433298 454.37612667 -149.32455184 454.38012462 -145.32474732 454.38513982 C-141.00988405 454.38945826 -136.69502229 454.38799691 -132.38015747 454.38723755 C-124.90574409 454.3867132 -117.43133944 454.38985073 -109.95692825 454.39547539 C-99.15018411 454.40360241 -88.34344418 454.40620684 -77.53669731 454.40746338 C-60.00346639 454.409652 -42.47024012 454.41630697 -24.93701172 454.42576599 C-7.90511091 454.434945 9.12678863 454.44202345 26.15869141 454.4462738 C27.20853751 454.44653653 28.25838361 454.44679925 29.34004323 454.44706994 C34.6068125 454.44837497 39.87358178 454.44963868 45.14035106 454.45088184 C88.83347945 454.46124855 132.52660277 454.47886173 176.21972656 454.50120544 C176.27603664 433.64745106 176.28665107 412.7941173 176.24307251 391.94032288 C176.22389939 382.25718193 176.21960126 372.57446351 176.25048828 362.89134216 C176.27737602 354.45011195 176.27618366 346.00942909 176.24146748 337.56821918 C176.22406512 333.09966688 176.22059186 328.63209485 176.25076294 324.16358948 C176.27874161 319.9540157 176.2690604 315.74617776 176.23098946 311.5366993 C176.22359533 309.99523339 176.22974294 308.45363112 176.25074577 306.91229057 C176.5169296 298.47932008 176.5169296 298.47932008 173.43551636 290.85079956 C171.45983409 288.87621707 169.42802392 287.20319485 167.21972656 285.50120544 C165.41503906 282.84886169 165.41503906 282.84886169 164.34472656 280.56370544 C163.97605469 279.81218201 163.60738281 279.06065857 163.22753906 278.28636169 C161.83504101 274.43810156 161.03122196 270.50680352 160.21972656 266.50120544 C159.93887207 267.06815125 159.65801758 267.63509705 159.36865234 268.21922302 C154.41818189 278.19949195 149.44692776 288.1624512 144.21972656 298.00120544 C140.61614586 304.78496404 137.13582455 311.62116495 133.71972656 318.50120544 C129.91433278 326.16528985 126.00330335 333.76101168 121.98925781 341.31761169 C118.80565969 347.33330657 115.74649247 353.40528195 112.71972656 359.50120544 C108.91433278 367.16528985 105.00330335 374.76101168 100.98925781 382.31761169 C97.80565663 388.33331236 94.7466965 394.40537896 91.71972656 400.50120544 C87.07987414 409.83885743 82.29085681 419.08644774 77.38964844 428.28929138 C76.21972372 430.50121082 75.06903305 432.72221566 73.92285156 434.94651794 C73.5608667 435.64269226 73.19888184 436.33886658 72.82592773 437.05613708 C72.15098724 438.35439104 71.4814925 439.65549706 70.81860352 440.95994568 C69.18590107 444.0773224 68.22056837 445.50064424 65.21972656 447.50120544 C63.18920881 447.75765711 63.18920881 447.75765711 60.81241322 447.76685429 C59.90569081 447.77515328 58.99896841 447.78345226 58.06476957 447.79200274 C57.06731849 447.79095189 56.06986742 447.78990105 55.04219055 447.78881836 C53.45422701 447.79879007 53.45422701 447.79879007 51.83418339 447.80896324 C48.26906878 447.8287266 44.70407942 447.83404415 41.13891602 447.83934021 C38.5899065 447.85023017 36.04090022 447.86190131 33.49189758 447.8742981 C25.82972124 447.90805062 18.16757295 447.92463875 10.5053387 447.9384214 C6.89664944 447.94538234 3.28796591 447.95453927 -0.32071877 447.96352959 C-12.31765083 447.99273567 -24.31457728 448.01752812 -36.31154156 448.02815342 C-37.46348316 448.02918946 -37.46348316 448.02918946 -38.6386963 448.03024643 C-39.4084948 448.03093845 -40.17829331 448.03163046 -40.97141904 448.03234345 C-42.53132038 448.03375544 -44.09122172 448.03517625 -45.65112305 448.03660583 C-46.4248879 448.037311 -47.19865275 448.03801617 -47.99586502 448.03874271 C-60.52900736 448.05098878 -73.06184694 448.09377318 -85.59486368 448.14954603 C-98.46358727 448.20634757 -111.33215789 448.23680516 -124.20100814 448.24116558 C-131.42591559 448.24424638 -138.65040262 448.25872562 -145.87518883 448.30244637 C-152.67235368 448.3434636 -159.46861188 448.34862134 -166.26591682 448.32954597 C-168.76043426 448.32827814 -171.25499091 448.33898608 -173.74939728 448.36256027 C-177.15646595 448.39292129 -180.56075837 448.38006155 -183.96781921 448.35644531 C-185.44726541 448.38498379 -185.44726541 448.38498379 -186.95659941 448.4140988 C-193.37273945 448.30826961 -196.59376727 446.79630187 -201.14794761 442.25873607 C-201.68661513 441.67875097 -202.22528266 441.09876586 -202.78027344 440.50120544 C-203.66714844 439.63495544 -204.55402344 438.76870544 -205.46777344 437.87620544 C-206.61246094 436.70058044 -206.61246094 436.70058044 -207.78027344 435.50120544 C-210.82308107 432.41151326 -213.90129714 429.48184786 -217.21777344 426.68870544 C-222.74464748 421.84707391 -222.74464748 421.84707391 -223.78027344 418.50120544 C-221.62491349 410.56040562 -217.93790014 403.43225019 -214.21777344 396.12620544 C-213.57972314 394.86206164 -212.94203222 393.59773638 -212.3046875 392.33323669 C-208.58316625 384.96675848 -204.77686888 377.64820167 -200.89135742 370.3669281 C-196.36464709 361.8242225 -192.08889561 353.15517473 -187.78027344 344.50120544 C-182.84946322 334.59765891 -177.90858533 324.7123023 -172.68652344 314.95823669 C-168.22121801 306.55561803 -164.02094294 298.01856956 -159.78027344 289.50120544 C-154.84944804 279.59766656 -149.90858553 269.71230268 -144.68652344 259.95823669 C-140.22121801 251.55561803 -136.02094294 243.01856956 -131.78027344 234.50120544 C-126.84944804 224.59766656 -121.90858553 214.71230268 -116.68652344 204.95823669 C-112.22121801 196.55561803 -108.02094294 188.01856956 -103.78027344 179.50120544 C-98.84944804 169.59766656 -93.90858553 159.71230268 -88.68652344 149.95823669 C-83.79818752 140.75957755 -79.21664263 131.40316067 -74.57424927 122.0789032 C-70.02067686 112.93649625 -65.43537735 103.82364255 -60.61621094 94.81761169 C-55.95210599 86.04277017 -51.57546849 77.12142998 -47.1477356 68.22587585 C-42.71231336 59.31845555 -38.24300971 50.44072421 -33.53955078 41.67088318 C-30.9276279 36.76923003 -28.43716529 31.81531126 -25.98339844 26.83323669 C-25.64805084 26.15427338 -25.31270325 25.47531006 -24.9671936 24.77577209 C-23.28660151 21.37229844 -21.61430962 17.96518563 -19.95556641 14.55101013 C-19.33758947 13.29595498 -18.71927754 12.0410647 -18.10058594 10.78636169 C-17.5567627 9.6714032 -17.01293945 8.5564447 -16.45263672 7.40769958 C-12.09523847 -0.16526774 -8.26517942 -0.07604434 0 0 Z M189.21972656 298.50120544 C189.21972656 349.98120544 189.21972656 401.46120544 189.21972656 454.50120544 C193.50972656 454.50120544 197.79972656 454.50120544 202.21972656 454.50120544 C202.21972656 403.02120544 202.21972656 351.54120544 202.21972656 298.50120544 C197.92972656 298.50120544 193.63972656 298.50120544 189.21972656 298.50120544 Z " fill="#010202" transform="translate(246.7802734375,15.498794555664063)"/>
<path d="M0 0 C13.39384281 9.36850186 20.74344793 21.32661467 23.93359375 37.27734375 C25.14534013 53.03004669 21.31845227 67.67524799 10.93359375 79.83984375 C0.76416756 90.45215952 -11.14793087 96.34382373 -25.81640625 97.52734375 C-41.93930052 97.86246164 -54.94612767 92.46682985 -66.8046875 81.7265625 C-76.17608954 72.02269387 -81.23491905 58.57706583 -81.12890625 45.21484375 C-81.12153442 44.10290649 -81.12153442 44.10290649 -81.11401367 42.96850586 C-80.79402427 27.87321078 -74.5338353 15.94706644 -63.81640625 5.52734375 C-46.17375478 -10.38146094 -20.35399734 -12.28709197 0 0 Z " fill="#E39922" transform="translate(117.81640625,52.47265625)"/>
<path d="M0 0 C0.33 0 0.66 0 1 0 C2.71014842 18.49637183 -0.70927576 30.56752803 -9.75 46.5625 C-10.85632406 48.60728186 -11.95747603 50.65486965 -13.05371094 52.70507812 C-15.27553879 56.84852299 -17.52017514 60.97813903 -19.78515625 65.09814453 C-24.03364589 72.85441243 -28.0417317 80.72857622 -32.03939819 88.61611938 C-34.06113472 92.59726207 -36.10371138 96.56767872 -38.14453125 100.5390625 C-38.95272868 102.11355957 -39.76083426 103.68810379 -40.56884766 105.26269531 C-40.9691217 106.04261841 -41.36939575 106.8225415 -41.78179932 107.62609863 C-45.50169931 114.8750485 -49.21950671 122.12507206 -52.9375 129.375 C-53.34908356 130.17754211 -53.76066711 130.98008423 -54.1847229 131.8069458 C-63.24930791 149.48221058 -72.30459407 167.16223471 -81.35888672 184.84277344 C-85.30168654 192.54189545 -89.24512087 200.24069247 -93.18850708 207.93951416 C-95.37569735 212.20966281 -97.5628466 216.47983247 -99.75 220.75 C-100.6249998 222.45833343 -101.4999998 224.16666677 -102.375 225.875 C-102.808125 226.720625 -103.24125 227.56625 -103.6875 228.4375 C-128.62500025 277.12500048 -128.62500025 277.12500048 -129.93748474 279.68746948 C-130.81253639 281.39590414 -131.68758725 283.1043392 -132.56263733 284.81277466 C-134.74934066 289.08206106 -136.93605762 293.35134047 -139.12280273 297.62060547 C-143.06973953 305.32639194 -147.01657952 313.03222791 -150.96290588 320.73832703 C-152.72498899 324.17918292 -154.48713284 327.62000771 -156.2492981 331.06082153 C-157.12046901 332.76188342 -157.99162396 334.46295349 -158.86276245 336.16403198 C-163.78014634 345.76602899 -168.7001661 355.36666545 -173.625 364.96484375 C-174.08406235 365.85961426 -174.54312469 366.75438477 -175.01609802 367.67626953 C-177.21210045 371.95649281 -179.40851414 376.236504 -181.60571289 380.51611328 C-182.39470995 382.05370276 -183.18369188 383.5913 -183.97265625 385.12890625 C-184.32275757 385.81041245 -184.67285889 386.49191864 -185.03356934 387.19407654 C-186.74694821 390.5342694 -188.44514468 393.88130524 -190.12229919 397.23985291 C-190.47589225 397.94772414 -190.8294853 398.65559538 -191.1937933 399.38491726 C-191.45984151 399.91789456 -191.72588972 400.45087187 -192 401 C-223.85669989 401.15970127 -255.71328586 401.28357416 -287.57029254 401.35745731 C-291.3316117 401.36621221 -295.09293007 401.37527247 -298.85424805 401.38452148 C-299.97746025 401.38727574 -299.97746025 401.38727574 -301.12336361 401.39008565 C-313.24672845 401.42054181 -325.36986086 401.47573196 -337.49308784 401.54006957 C-349.93341365 401.6055392 -362.37361777 401.64441329 -374.81410879 401.65861946 C-382.49020574 401.66822267 -390.16564569 401.6985477 -397.84154039 401.75541527 C-403.7282506 401.79680489 -409.61462394 401.80118412 -415.50148392 401.79175377 C-417.91580819 401.79368108 -420.33015711 401.80762593 -422.74433327 401.83443832 C-426.04023468 401.8692508 -429.33332169 401.86090285 -432.62928772 401.84178162 C-433.58552585 401.86217151 -434.54176398 401.8825614 -435.52697903 401.90356916 C-440.53447143 401.82499941 -443.27715283 401.28785409 -446.89816952 397.69738865 C-447.94926646 396.47952202 -448.98492403 395.24804835 -450 394 C-450.804375 393.195625 -451.60875 392.39125 -452.4375 391.5625 C-452.953125 391.046875 -453.46875 390.53125 -454 390 C-452.69463917 389.99853344 -451.38927834 389.99706688 -450.04436111 389.99555588 C-419.07282808 389.95987062 -388.10140825 389.90365375 -357.12996466 389.82207905 C-353.31971641 389.81206133 -349.50946773 389.80221724 -345.69921875 389.79248047 C-344.56136838 389.78956841 -344.56136838 389.78956841 -343.40053114 389.78659752 C-331.11037099 389.75555804 -318.82022952 389.73859144 -306.53003755 389.72680578 C-293.9235465 389.71440429 -281.31715366 389.68692564 -268.71072459 389.64538693 C-260.92891717 389.62022269 -253.14727258 389.60688484 -245.36542389 389.60857043 C-239.40299621 389.60860364 -233.4407591 389.58768197 -227.47839737 389.55883217 C-225.02900484 389.55028828 -222.57957761 389.5486134 -220.13017654 389.55419731 C-216.79436312 389.56079109 -213.45955268 389.54302677 -210.12384033 389.51898193 C-209.14719083 389.52674235 -208.17054133 389.53450277 -207.16429639 389.54249835 C-201.93279203 389.53917796 -201.93279203 389.53917796 -197.44769096 387.09878254 C-195.98833548 384.98308942 -194.72841823 382.93161849 -193.59326172 380.62475586 C-193.16536346 379.76542953 -192.73746521 378.90610321 -192.29660034 378.02073669 C-191.8455191 377.09479202 -191.39443787 376.16884735 -190.9296875 375.21484375 C-190.44855499 374.24454727 -189.96742249 373.27425079 -189.47171021 372.27455139 C-187.93185517 369.16589808 -186.40294296 366.05202303 -184.875 362.9375 C-182.87595919 358.88234898 -180.87241058 354.82944082 -178.8671875 350.77734375 C-178.37232849 349.77585297 -177.87746948 348.77436218 -177.36761475 347.74252319 C-173.87897297 340.70569354 -170.27000808 333.74175337 -166.58639526 326.80540466 C-162.63781789 319.35724721 -158.8707953 311.8236591 -155.12646484 304.27124023 C-149.83566494 293.60363913 -144.52684317 282.95549635 -138.90625 272.45703125 C-134.0182663 263.2590349 -129.43702866 253.90330419 -124.79498291 244.57971191 C-120.21776653 235.38979866 -115.6079727 226.2296074 -110.765625 217.17578125 C-106.69762335 209.52406386 -102.86030962 201.7578089 -99 194 C-90.5990333 177.11718854 -90.5990333 177.11718854 -86.1875 168.875 C-81.09329773 159.35027675 -76.31460514 149.66789383 -71.5 140 C-66.36209981 129.68294219 -61.22661107 119.37612676 -55.78515625 109.21484375 C-51.1345492 100.47298102 -46.77613875 91.58185332 -42.36416626 82.71807861 C-37.99655737 73.94695718 -33.58746547 65.21130517 -28.96362305 56.57177734 C-23.60382754 46.48024356 -18.58236212 36.2112216 -13.50610352 25.97509766 C-9.16024229 17.22642274 -4.70262435 8.56304374 0 0 Z " fill="#CED0D1" transform="translate(499,49)"/>
<path d="M0 0 C18.48 0 36.96 0 56 0 C54.69520727 3.91437819 53.66056346 6.91222031 51.77734375 10.421875 C51.10614502 11.68692871 51.10614502 11.68692871 50.42138672 12.97753906 C49.9317041 13.89245117 49.44202148 14.80736328 48.9375 15.75 C43.59825986 25.84390407 38.45890199 36.02587945 33.375 46.25 C28.49078522 56.06586473 23.57549432 65.85394071 18.41381836 75.52783203 C14.85618371 82.21065606 11.48054393 88.98079074 8.13305664 95.77099609 C7.73723389 96.57102051 7.34141113 97.37104492 6.93359375 98.1953125 C6.58353271 98.90703613 6.23347168 99.61875977 5.87280273 100.35205078 C5 102 5 102 4 103 C2.2507128 103.09365006 0.49763746 103.11744438 -1.25415039 103.11352539 C-2.37523697 103.11344986 -3.49632355 103.11337433 -4.65138245 103.11329651 C-6.48103798 103.10555458 -6.48103798 103.10555458 -8.34765625 103.09765625 C-9.58921982 103.0962413 -10.83078339 103.09482635 -12.10997009 103.09336853 C-15.41605491 103.08870591 -18.72207146 103.07971497 -22.02813721 103.06866455 C-25.3996115 103.05844827 -28.77109283 103.05387045 -32.14257812 103.04882812 C-38.76173775 103.03777395 -45.38086493 103.02101736 -52 103 C-50.57797088 98.31233765 -48.62892506 94.06571476 -46.359375 89.7421875 C-46.00059265 89.04964874 -45.6418103 88.35710999 -45.27215576 87.64358521 C-44.50202256 86.15776745 -43.7300139 84.67292055 -42.95629883 83.18896484 C-40.90447488 79.25308397 -38.86656491 75.31001229 -36.828125 71.3671875 C-36.41731689 70.57326599 -36.00650879 69.77934448 -35.58325195 68.96136475 C-31.81901985 61.67521785 -28.14765991 54.34502802 -24.5 47 C-19.15221659 36.24896456 -13.65696726 25.59119896 -8 15 C-5.36 10.05 -2.72 5.1 0 0 Z " fill="#3E8ED3" transform="translate(228,324)"/>
<path d="M0 0 C18.15 0 36.3 0 55 0 C54.12311725 4.38441373 53.18830276 6.92028555 51.1484375 10.77734375 C50.55184326 11.91574707 49.95524902 13.05415039 49.34057617 14.22705078 C49.02075775 14.83067444 48.70093933 15.4342981 48.37142944 16.05621338 C46.65474495 19.29736165 44.95899742 22.54944066 43.26171875 25.80078125 C42.73337181 26.81129547 42.73337181 26.81129547 42.1943512 27.84222412 C38.43130951 35.05640379 34.80592298 42.33753126 31.1875 49.625 C27.10518682 57.83707839 22.98682724 66.02383911 18.6875 74.125 C13.64423772 83.67357658 8.82928171 93.34143659 4 103 C-14.48 103 -32.96 103 -52 103 C-41.48735955 80.80664794 -41.48735955 80.80664794 -37.5625 73 C-36.8674939 71.61288818 -36.8674939 71.61288818 -36.15844727 70.19775391 C-32.94832851 63.8169245 -29.63480137 57.49730537 -26.27514648 51.19433594 C-20.73284941 40.71537487 -15.51135053 30.06958516 -10.24389648 19.45068359 C-9.6718322 18.30021042 -9.6718322 18.30021042 -9.08821106 17.12649536 C-8.37106519 15.68409238 -7.6555971 14.24085342 -6.94218445 12.79660034 C-6.61402237 12.13701324 -6.28586029 11.47742615 -5.94775391 10.79785156 C-5.66703033 10.2311676 -5.38630676 9.66448364 -5.09707642 9.08062744 C-3.47809373 6.01019428 -1.72215713 3.01377497 0 0 Z " fill="#2C7BAB" transform="translate(159,324)"/>
<path d="M0 0 C2.26421965 0.00094938 4.528578 0.03481811 6.79199219 0.09521484 C8.58138214 0.10794937 8.58138214 0.10794937 10.40692139 0.12094116 C14.21848717 0.15453794 18.02794043 0.22983782 21.83886719 0.30615234 C24.42216998 0.33624342 27.00550592 0.3636207 29.58886719 0.38818359 C35.92292175 0.45435037 42.25574357 0.554765 48.58886719 0.68115234 C41.97153229 14.91315424 34.95212553 28.91118141 27.77636719 42.86865234 C25.64456497 47.02538853 23.51492549 51.18323042 21.38574219 55.34130859 C20.87385849 56.34047302 20.36197479 57.33963745 19.83457947 58.36907959 C15.58006479 66.68070842 11.37903885 75.01721224 7.25170898 83.39282227 C3.8549779 90.25758326 0.22902388 96.92086134 -3.41113281 103.68115234 C-21.23113281 103.68115234 -39.05113281 103.68115234 -57.41113281 103.68115234 C-55.16086396 96.9303458 -55.16086396 96.9303458 -53.59863281 93.81323242 C-53.25027374 93.11347794 -52.90191467 92.41372345 -52.54299927 91.69276428 C-52.16948334 90.95287766 -51.79596741 90.21299103 -51.41113281 89.45068359 C-50.82366776 88.27589699 -50.82366776 88.27589699 -50.22433472 87.07737732 C-48.95746204 84.54733994 -47.68453764 82.02040745 -46.41113281 79.49365234 C-45.53225512 77.74274314 -44.65351203 75.99176636 -43.77490234 74.24072266 C-38.98188927 64.7067776 -34.11670307 55.21957291 -29.08300781 45.81005859 C-26.71036549 41.31104579 -24.44179624 36.76228141 -22.17675781 32.20849609 C-21.79709869 31.44564301 -21.41743958 30.68278992 -21.02627563 29.89682007 C-19.1102892 26.04385546 -17.20023145 22.18807271 -15.29736328 18.32861328 C-14.58798672 16.89790157 -13.87851797 15.46723556 -13.16894531 14.03662109 C-12.84951965 13.38426987 -12.53009399 12.73191864 -12.20098877 12.05979919 C-11.30164499 10.25136939 -10.35717757 8.46559536 -9.41113281 6.68115234 C-8.92531738 5.55153076 -8.43950195 4.42190918 -7.93896484 3.25805664 C-4.95527593 0.216446 -4.12252559 0.24075475 0 0 Z " fill="#3E8DD3" transform="translate(97.4111328125,323.31884765625)"/>
<path d="M0 0 C0.64842028 -0.00230769 1.29684056 -0.00461538 1.96490994 -0.006993 C4.15270225 -0.01231587 6.34020425 -0.00329016 8.52798176 0.00558662 C10.10624537 0.00471502 11.6845087 0.00296488 13.26277047 0.00040829 C17.61143041 -0.0040782 21.95999243 0.00395625 26.30863988 0.01396441 C30.99370253 0.02257793 35.67875937 0.01968025 40.36382771 0.01815987 C48.48491639 0.01710968 56.60597302 0.0234002 64.72705364 0.03463554 C76.46885982 0.05086954 88.21065046 0.05609639 99.95246664 0.05861153 C119.0014356 0.06299193 138.05038745 0.0763104 157.09934711 0.09521675 C175.60683322 0.11356661 194.11431469 0.12772749 212.62180805 0.13623238 C213.76205219 0.13675782 214.90229633 0.13728327 216.07709333 0.13782464 C221.79719661 0.14043466 227.51729993 0.14296209 233.23740327 0.14544845 C280.71328776 0.16619171 328.18915326 0.201575 375.66502094 0.24609566 C375.66502094 4.86609566 375.66502094 9.48609566 375.66502094 14.24609566 C247.29502094 14.24609566 118.92502094 14.24609566 -13.33497906 14.24609566 C-13.33497906 8.05115274 -12.98621055 6.83621525 -9.33497906 2.24609566 C-5.76308127 -0.13516954 -4.24020051 -0.00277773 0 0 Z " fill="#B3B6B7" transform="translate(74.33497905731201,482.75390434265137)"/>
<path d="M0 0 C18.48 0 36.96 0 56 0 C54.71355223 3.85934331 53.59815494 7.05338419 51.8203125 10.60229492 C51.39226318 11.46147018 50.96421387 12.32064545 50.52319336 13.20585632 C50.06178955 14.12147842 49.60038574 15.03710052 49.125 15.98046875 C48.3990564 17.43166862 48.3990564 17.43166862 47.65844727 18.91218567 C46.631452 20.96315891 45.60251557 23.01316113 44.57177734 25.06225586 C43.02903458 28.12976908 41.49248978 31.20031973 39.95703125 34.27148438 C34.86787722 44.43099147 29.70142371 54.54235626 24.38246155 64.58351135 C21.13612752 70.71642483 18.00451722 76.90035945 14.9375 83.125 C14.01092605 85.00349876 13.08264118 86.88115495 12.15234375 88.7578125 C11.76038818 89.5533252 11.36843262 90.34883789 10.96459961 91.16845703 C10 93 10 93 9 94 C7.2507128 94.09365006 5.49763746 94.11744438 3.74584961 94.11352539 C2.62476303 94.11344986 1.50367645 94.11337433 0.34861755 94.11329651 C-1.48103798 94.10555458 -1.48103798 94.10555458 -3.34765625 94.09765625 C-4.58921982 94.0962413 -5.83078339 94.09482635 -7.10997009 94.09336853 C-10.41605491 94.08870591 -13.72207146 94.07971497 -17.02813721 94.06866455 C-20.3996115 94.05844827 -23.77109283 94.05387045 -27.14257812 94.04882812 C-33.76173775 94.03777395 -40.38086493 94.02101736 -47 94 C-45.86047259 90.43451562 -44.65080552 87.0510991 -42.96875 83.70703125 C-42.5761499 82.92312012 -42.1835498 82.13920898 -41.77905273 81.33154297 C-41.35696533 80.50025879 -40.93487793 79.66897461 -40.5 78.8125 C-39.82916382 77.48049561 -39.82916382 77.48049561 -39.14477539 76.12158203 C-35.92398053 69.75235702 -32.60144778 63.44117786 -29.24853516 57.14086914 C-24.06567013 47.33349213 -19.16540257 37.38126623 -14.23999023 27.44287109 C-13.88876602 26.73619293 -13.53754181 26.02951477 -13.17567444 25.30142212 C-12.52953277 24.0012301 -11.88503448 22.7002188 -11.24290466 21.39804077 C-7.65091785 14.1759939 -3.80119218 7.12723533 0 0 Z " fill="#2C7BAC" transform="translate(330,123)"/>
<path d="M0 0 C0.97262787 0.00444122 1.94525574 0.00888245 2.94735718 0.01345825 C4.59884262 0.01368484 4.59884262 0.01368484 6.28369141 0.01391602 C7.4764267 0.02423859 8.66916199 0.03456116 9.89804077 0.04519653 C11.11599335 0.04802643 12.33394592 0.05085632 13.58880615 0.05377197 C17.4914621 0.06499647 21.3938913 0.09010531 25.29647827 0.11550903 C27.93709997 0.12553589 30.57772524 0.13466225 33.21835327 0.14285278 C39.70280607 0.16494322 46.18712598 0.19844311 52.67147827 0.24050903 C47.78221398 10.6189711 42.8852111 20.98872311 37.73397827 31.24050903 C37.22512085 32.25629028 36.71626343 33.27207153 36.19198608 34.31863403 C32.80051676 41.06344247 29.312927 47.75067879 25.76400757 54.41360474 C18.8091975 67.5541634 12.296848 80.93362237 5.67147827 94.24050903 C-12.80852173 94.24050903 -31.28852173 94.24050903 -50.32852173 94.24050903 C-39.82037118 72.05663565 -39.82037118 72.05663565 -36.39102173 65.24050903 C-35.97537964 64.41115845 -35.55973755 63.58180786 -35.13150024 62.72732544 C-32.0342804 56.57492153 -28.82873474 50.4847532 -25.58853149 44.4067688 C-22.63845604 38.83085836 -19.79799103 33.2046126 -16.98867798 27.55691528 C-16.6065062 26.78903687 -16.22433441 26.02115845 -15.83058167 25.23001099 C-13.89448579 21.3366863 -11.96445577 17.44046908 -10.04116821 13.540802 C-9.32454518 12.09560641 -8.60783359 10.65045472 -7.89102173 9.20535278 C-7.39633141 8.19572227 -7.39633141 8.19572227 -6.89164734 7.16569519 C-3.50830197 0.36236652 -3.50830197 0.36236652 0 0 Z " fill="#3E8ED3" transform="translate(264.3285217285156,122.75949096679688)"/>
<path d="M0 0 C0.95708359 0.00222061 1.91416718 0.00444122 2.9002533 0.00672913 C3.98129837 0.00680466 5.06234344 0.00688019 6.17614746 0.00695801 C7.94018166 0.01469994 7.94018166 0.01469994 9.73985291 0.02259827 C10.93702438 0.02401321 12.13419586 0.02542816 13.36764526 0.02688599 C17.20918732 0.03250472 21.05067208 0.04506041 24.89219666 0.05775452 C27.48920102 0.0627671 30.0862063 0.06733043 32.68321228 0.07142639 C39.06539344 0.08248024 45.44754096 0.0992366 51.82969666 0.12025452 C50.17933498 5.83015352 47.52539226 10.88911647 44.80625916 16.14369202 C44.30851486 17.11415466 43.81077057 18.08461731 43.29794312 19.08448792 C41.6872562 22.22334111 40.07095112 25.35926514 38.45469666 28.49525452 C36.2562462 32.77556326 34.06060354 37.05731032 31.86485291 41.33900452 C31.33091415 42.37918732 30.7969754 43.41937012 30.24685669 44.49107361 C25.99057354 52.78835882 21.78971824 61.11107466 17.67002869 69.47718811 C13.55688254 77.79027 9.17703097 85.90862303 4.82969666 94.12025452 C-12.99030334 94.12025452 -30.81030334 94.12025452 -49.17030334 94.12025452 C-47.92701952 90.39040304 -46.88695628 87.30342928 -45.17420959 83.88514709 C-44.59219788 82.71650871 -44.59219788 82.71650871 -43.99842834 81.52426147 C-43.58077209 80.69613449 -43.16311584 79.86800751 -42.73280334 79.01478577 C-42.29323303 78.13610336 -41.85366272 77.25742096 -41.40077209 76.35211182 C-40.46793415 74.48945192 -39.53315611 72.62776254 -38.59657288 70.76698303 C-37.19869664 67.98917659 -35.80699993 65.20834851 -34.41639709 62.42689514 C-29.60358335 52.82085391 -24.70016464 43.27002891 -19.67190552 33.77502441 C-16.03779927 26.90242325 -12.55109733 19.96531628 -9.10780334 12.99525452 C-7.99372779 10.7417547 -6.87794332 8.48909861 -5.76014709 6.23744202 C-5.28440247 5.2743512 -4.80865784 4.31126038 -4.3184967 3.31898499 C-2.66233282 0.14751742 -2.66233282 0.14751742 0 0 Z " fill="#3E8ED3" transform="translate(196.17030334472656,122.87974548339844)"/>
<path d="M0 0 C15.84 0 31.68 0 48 0 C47.15361739 4.23191307 46.36313515 6.58353337 44.40234375 10.26953125 C43.85610352 11.30722656 43.30986328 12.34492188 42.74707031 13.4140625 C42.14991211 14.53554688 41.55275391 15.65703125 40.9375 16.8125 C39.65594863 19.24389382 38.38016228 21.67828623 37.10546875 24.11328125 C36.77229645 24.74883942 36.43912415 25.38439758 36.09585571 26.03921509 C32.2098679 33.47408934 28.48225935 40.98715467 24.75 48.5 C20.45886675 57.12842412 16.1447337 65.73824204 11.625 74.25 C6.60050297 83.75580519 1.80844887 93.38310226 -3 103 C-19.17 103 -35.34 103 -52 103 C-46.76152166 91.94099017 -41.55581184 81.00142385 -35.875 70.1875 C-34.57374671 67.69560604 -33.27630035 65.20174845 -31.98046875 62.70703125 C-31.65297134 62.0766394 -31.32547394 61.44624756 -30.98805237 60.79675293 C-27.30893614 53.69561656 -23.7472588 46.53649214 -20.1875 39.375 C-14.940594 28.82292658 -9.59217587 18.3341079 -4.02050781 7.94921875 C-2.64323992 5.31857117 -1.32794379 2.65588758 0 0 Z " fill="#2C7AAB" transform="translate(297,324)"/>
<path d="M0 0 C1.48558914 0.00666183 1.48558914 0.00666183 3.00119019 0.01345825 C4.68270676 0.01368484 4.68270676 0.01368484 6.39819336 0.01391602 C7.61280243 0.02423859 8.8274115 0.03456116 10.0788269 0.04519653 C11.31897552 0.04802643 12.55912415 0.05085632 13.83685303 0.05377197 C17.13476073 0.06308729 20.43247413 0.08106014 23.73031616 0.10317993 C27.0951601 0.12363429 30.46003247 0.1327728 33.82492065 0.14285278 C40.42786163 0.16494385 47.03067212 0.19844421 53.6335144 0.24050903 C52.04310805 4.28680992 50.2381496 8.17660554 48.2897644 12.06082153 C47.80211357 13.03810211 47.80211357 13.03810211 47.30461121 14.03512573 C46.24991422 16.14643093 45.19193166 18.25606667 44.1335144 20.36550903 C43.77147919 21.08869324 43.40944397 21.81187744 43.03643799 22.55697632 C38.55682083 31.50332499 34.02389303 40.41401225 29.31149292 49.24050903 C24.98988209 57.37014531 20.9161742 65.62508904 16.83395386 73.8767395 C16.30245728 74.94811157 15.77096069 76.01948364 15.22335815 77.12332153 C14.74761353 78.08641235 14.2718689 79.04950317 13.78170776 80.04177856 C12.6335144 82.24050903 12.6335144 82.24050903 11.6335144 83.24050903 C9.88422721 83.3341591 8.13115187 83.35795341 6.37936401 83.35403442 C5.25827744 83.35395889 4.13719086 83.35388336 2.98213196 83.35380554 C1.15247643 83.34606361 1.15247643 83.34606361 -0.71414185 83.33816528 C-1.95570541 83.33675034 -3.19726898 83.33533539 -4.47645569 83.33387756 C-7.7825405 83.32921494 -11.08855706 83.320224 -14.3946228 83.30917358 C-17.76609709 83.2989573 -21.13757842 83.29437948 -24.50906372 83.28933716 C-31.12822334 83.27828299 -37.74735052 83.2615264 -44.3664856 83.24050903 C-43.22695819 79.67502465 -42.01729111 76.29160813 -40.3352356 72.94754028 C-39.7464563 71.77191528 -39.7464563 71.77191528 -39.14578247 70.57254028 C-38.7236145 69.74109497 -38.30144653 68.90964966 -37.8664856 68.05300903 C-37.41853638 67.16355591 -36.97058716 66.27410278 -36.50906372 65.35769653 C-33.31739022 59.04597193 -30.02675484 52.79101386 -26.69851685 46.55056763 C-23.64615453 40.78042887 -20.71169391 34.9555135 -17.8039856 29.11160278 C-17.19786438 27.89405807 -17.19786438 27.89405807 -16.57949829 26.6519165 C-14.52500912 22.52175944 -12.4765825 18.38870273 -10.43484497 14.25222778 C-9.672569 12.7157229 -8.91020311 11.17926262 -8.1477356 9.64285278 C-7.79606323 8.92600815 -7.44439087 8.20916351 -7.08206177 7.47059631 C-3.54488346 0.36027115 -3.54488346 0.36027115 0 0 Z " fill="#2C7AAB" transform="translate(381.3664855957031,27.759490966796875)"/>
<path d="M0 0 C18.48 0 36.96 0 56 0 C54.75671618 3.72985147 53.71665294 6.81682523 52.00390625 10.23510742 C51.61589844 11.01419968 51.22789062 11.79329193 50.828125 12.59599304 C50.41046875 13.42412003 49.9928125 14.25224701 49.5625 15.10546875 C49.12292969 15.98415115 48.68335938 16.86283356 48.23046875 17.7681427 C47.2976308 19.6308026 46.36285277 21.49249198 45.42626953 23.35327148 C44.0283933 26.13107792 42.63669658 28.911906 41.24609375 31.69335938 C36.4998344 41.16655945 31.69095805 50.60121939 26.69921875 59.94779968 C22.64796072 67.56410503 18.86367149 75.27265701 15 83 C-3.81 83 -22.62 83 -42 83 C-39.36 77.72 -36.72 72.44 -34 67 C-31.9973572 62.98334556 -31.9973572 62.98334556 -29.99588013 58.96611023 C-28.18105273 55.32252069 -26.36366158 51.68021112 -24.54638672 48.0378418 C-23.60165362 46.14334524 -22.65763868 44.24849037 -21.71435547 42.35327148 C-15.61590092 30.1023469 -9.40294358 17.92432704 -2.96847534 5.84614563 C-1.95317962 3.91074915 -0.97740319 1.95480637 0 0 Z " fill="#3E8DD3" transform="translate(276,229)"/>
<path d="M0 0 C0.97262787 0.00444122 1.94525574 0.00888245 2.94735718 0.01345825 C4.59884262 0.01368484 4.59884262 0.01368484 6.28369141 0.01391602 C7.4764267 0.02423859 8.66916199 0.03456116 9.89804077 0.04519653 C11.11599335 0.04802643 12.33394592 0.05085632 13.58880615 0.05377197 C17.4914621 0.06499647 21.3938913 0.09010531 25.29647827 0.11550903 C27.93709997 0.12553589 30.57772524 0.13466225 33.21835327 0.14285278 C39.70280607 0.16494322 46.18712598 0.19844311 52.67147827 0.24050903 C51.38623759 3.54782331 49.98531606 6.73900844 48.3999939 9.91287231 C47.95192383 10.81216461 47.50385376 11.71145691 47.04220581 12.63800049 C46.31728943 14.08479691 46.31728943 14.08479691 45.57772827 15.56082153 C45.07156982 16.57409515 44.56541138 17.58736877 44.04391479 18.63134766 C42.96893054 20.78199653 41.89293625 22.93214079 40.81600952 25.08181763 C39.20237403 28.30381843 37.5929294 31.52788576 35.98397827 34.75222778 C27.82571474 51.07473782 19.40995406 67.21997009 10.67147827 83.24050903 C-7.47852173 83.24050903 -25.62852173 83.24050903 -44.32852173 83.24050903 C-42.87745098 78.8872968 -41.45313555 75.2429827 -39.42227173 71.19754028 C-38.84863892 70.05156372 -38.2750061 68.90558716 -37.68399048 67.72488403 C-37.06570189 66.50082415 -36.44720761 65.27686815 -35.82852173 64.05300903 C-35.18905555 62.78094562 -34.549734 61.5088095 -33.91055298 60.23660278 C-30.0853439 52.63886845 -26.18202085 45.08598344 -22.17617798 37.58181763 C-19.60091287 32.73208682 -17.11576498 27.84140039 -14.67227173 22.92410278 C-14.35484009 22.28570465 -14.03740845 21.64730652 -13.71035767 20.98956299 C-12.12487792 17.79767058 -10.54542965 14.60293814 -8.97305298 11.40457153 C-8.11260376 9.66627075 -8.11260376 9.66627075 -7.23477173 7.89285278 C-6.72236938 6.85120972 -6.20996704 5.80956665 -5.68203735 4.73635864 C-3.29822551 0.34066808 -3.29822551 0.34066808 0 0 Z " fill="#2C7AAB" transform="translate(210.32852172851563,228.75949096679688)"/>
<path d="M0 0 C0.97484848 0.00222061 1.94969696 0.00444122 2.9540863 0.00672913 C4.05515213 0.00680466 5.15621796 0.00688019 6.29064941 0.00695801 C7.48854599 0.01211929 8.68644257 0.01728058 9.92063904 0.02259827 C11.14000656 0.02401321 12.35937408 0.02542816 13.61569214 0.02688599 C17.52856349 0.03250485 21.4413786 0.04506055 25.35423279 0.05775452 C27.99941426 0.06276709 30.64459662 0.06733041 33.28977966 0.07142639 C39.79045005 0.08248041 46.2910874 0.09923688 52.79173279 0.12025452 C51.5168254 4.18028088 50.01325501 7.92435007 48.10423279 11.72572327 C47.3118219 13.30861145 47.3118219 13.30861145 46.50340271 14.92347717 C45.6561261 16.59869446 45.6561261 16.59869446 44.79173279 18.30775452 C44.20432312 19.47612854 43.61691345 20.64450256 43.01170349 21.84828186 C39.36716855 29.07387366 35.6414284 36.25037107 31.83518982 43.39173889 C24.89340859 56.49746371 18.4005963 69.84652018 11.79173279 83.12025452 C-6.68826721 83.12025452 -25.16826721 83.12025452 -44.20826721 83.12025452 C-33.69973428 60.93557388 -33.69973428 60.93557388 -30.27076721 54.12025452 C-29.65274231 52.8871051 -29.65274231 52.8871051 -29.02223206 51.62904358 C-25.80405969 45.23666628 -22.47777862 38.90490224 -19.11891174 32.58558655 C-14.95611695 24.71962185 -10.99746793 16.7534977 -7.05445862 8.77552795 C-6.56767639 7.79358459 -6.08089417 6.81164124 -5.57936096 5.79994202 C-5.14551086 4.92064026 -4.71166077 4.0413385 -4.2646637 3.13539124 C-2.69801782 0.14692462 -2.69801782 0.14692462 0 0 Z " fill="#3E8DD2" transform="translate(312.20826721191406,27.879745483398438)"/>
<path d="M0 0 C15.84 0 31.68 0 48 0 C37.67369845 21.79996993 37.67369845 21.79996993 33.36328125 30.15234375 C32.63911263 31.56519653 32.63911263 31.56519653 31.90031433 33.0065918 C30.88820722 34.98075582 29.87488486 36.95429728 28.86035156 38.92721558 C26.21966566 44.06286026 23.58849057 49.20337319 20.95703125 54.34375 C20.44210114 55.34921371 19.92717102 56.35467743 19.39663696 57.39060974 C13.1748556 69.54975495 7.08064724 81.76960726 1 94 C-14.84 94 -30.68 94 -47 94 C-46.22931953 90.14659766 -45.69390449 88.02510216 -43.98144531 84.71411133 C-43.35309532 83.48778992 -43.35309532 83.48778992 -42.71205139 82.23669434 C-42.25535568 81.36065552 -41.79865997 80.4846167 -41.328125 79.58203125 C-40.85398666 78.66015015 -40.37984833 77.73826904 -39.89134216 76.78845215 C-38.34976528 73.79357693 -36.79990279 70.80307354 -35.25 67.8125 C-33.13432151 63.70956664 -31.02246061 59.60467121 -28.91015625 55.5 C-28.3919783 54.49463699 -27.87380035 53.48927399 -27.33992004 52.45344543 C-22.91510499 43.86085247 -18.57781018 35.22824497 -14.33496094 26.54418945 C-9.86577723 17.4895573 -4.92860207 8.87148372 0 0 Z " fill="#3E8ED3" transform="translate(400,123)"/>
<path d="M0 0 C0.95708359 0.00222061 1.91416718 0.00444122 2.9002533 0.00672913 C3.98129837 0.00680466 5.06234344 0.00688019 6.17614746 0.00695801 C7.94018166 0.01469994 7.94018166 0.01469994 9.73985291 0.02259827 C10.93702438 0.02401321 12.13419586 0.02542816 13.36764526 0.02688599 C17.20918732 0.03250472 21.05067208 0.04506041 24.89219666 0.05775452 C27.48920102 0.0627671 30.0862063 0.06733043 32.68321228 0.07142639 C39.06539344 0.08248024 45.44754096 0.0992366 51.82969666 0.12025452 C50.51184045 4.34313443 48.90731312 8.2113987 46.92344666 12.16322327 C46.34989441 13.3090387 45.77634216 14.45485413 45.18540955 15.63539124 C44.56703875 16.85961346 43.94846304 18.08373219 43.32969666 19.30775452 C42.68949781 20.58128265 42.04944386 21.85488362 41.40953064 23.1285553 C37.60946911 30.67639304 33.72743598 38.17690408 29.75205994 45.63392639 C23.19604111 57.99931381 17.06515479 70.59265227 10.82969666 83.12025452 C-7.32030334 83.12025452 -25.47030334 83.12025452 -44.17030334 83.12025452 C-33.65346166 60.91803319 -33.65346166 60.91803319 -29.23280334 52.12025452 C-28.72829651 51.11317444 -28.22378967 50.10609436 -27.70399475 49.0684967 C-24.16660938 42.03375925 -20.53547992 35.05331827 -16.83876038 28.10121155 C-13.20385527 21.24576576 -9.73548692 14.31120763 -6.30458069 7.35169983 C-5.9083551 6.55086975 -5.51212952 5.75003967 -5.10389709 4.92494202 C-4.57880554 3.85735657 -4.57880554 3.85735657 -4.04310608 2.76820374 C-2.65489467 0.14710528 -2.65489467 0.14710528 0 0 Z " fill="#2C7AAB" transform="translate(142.17030334472656,228.87974548339844)"/>
<path d="M0 0 C18.15 0 36.3 0 55 0 C44.8325845 21.46454384 44.8325845 21.46454384 40.4375 29.6875 C34.61711545 40.70227587 29.04917099 51.83627526 23.51928711 62.9987793 C23.0259639 63.99171745 23.0259639 63.99171745 22.52267456 65.00471497 C21.62873406 66.80422133 20.73724832 68.60494657 19.84594727 70.40576172 C17.6629966 74.65617829 15.32050512 78.82309078 13 83 C-4.82 83 -22.64 83 -41 83 C-39.69228757 79.0768627 -38.53855401 75.82760403 -36.72851562 72.21411133 C-36.28044556 71.31489456 -35.83237549 70.4156778 -35.37072754 69.48921204 C-34.64581116 68.05015755 -34.64581116 68.05015755 -33.90625 66.58203125 C-33.40009155 65.57017258 -32.89393311 64.5583139 -32.37243652 63.51579285 C-31.29836262 61.37066291 -30.2223471 59.2265042 -29.14453125 57.08325195 C-27.52935587 53.87088488 -25.92038646 50.65547356 -24.3125 47.43945312 C-19.09775829 37.02838391 -13.8300366 26.65089478 -8.35900879 16.3717804 C-5.47802966 10.95389035 -2.74723368 5.49446735 0 0 Z " fill="#2C7AAB" transform="translate(242,28)"/>
<path d="M0 0 C15.84 0 31.68 0 48 0 C46.25837968 4.35405079 44.316824 8.51100088 42.21875 12.6953125 C41.66423912 13.80631317 41.66423912 13.80631317 41.098526 14.9397583 C39.9013527 17.33601518 38.70089685 19.73060728 37.5 22.125 C37.09127655 22.94156067 36.6825531 23.75812134 36.26144409 24.59942627 C31.41532691 34.27927835 26.53630528 43.93541656 21.43579102 53.484375 C17.64264944 60.60409094 14.05943662 67.82678231 10.48852539 75.06005859 C10.04758545 75.95031738 9.60664551 76.84057617 9.15234375 77.7578125 C8.76038818 78.5533252 8.36843262 79.34883789 7.96459961 80.16845703 C7 82 7 82 6 83 C4.49581261 83.09311889 2.98728644 83.11746028 1.48022461 83.11352539 C0.03884377 83.11341209 0.03884377 83.11341209 -1.43165588 83.11329651 C-2.476436 83.10813522 -3.52121613 83.10297394 -4.59765625 83.09765625 C-5.66165146 83.0962413 -6.72564667 83.09482635 -7.82188416 83.09336853 C-11.23545083 83.08775064 -14.648953 83.07519511 -18.0625 83.0625 C-20.37044176 83.05748731 -22.67838455 83.052924 -24.98632812 83.04882812 C-30.65757426 83.0377754 -36.32878253 83.02101987 -42 83 C-40.74015112 78.9589893 -39.24720644 75.30234512 -37.26953125 71.5625 C-36.72143799 70.51779541 -36.17334473 69.47309082 -35.60864258 68.39672852 C-35.01591553 67.27580811 -34.42318848 66.1548877 -33.8125 65 C-32.53813327 62.57345574 -31.26820836 60.14461167 -30 57.71484375 C-29.67195877 57.08666245 -29.34391754 56.45848114 -29.00593567 55.81126404 C-26.66550897 51.31498891 -24.3795057 46.79381843 -22.125 42.25390625 C-21.80512619 41.61013031 -21.48525238 40.96635437 -21.15568542 40.30307007 C-19.62776625 37.22400334 -18.1060729 34.14209251 -16.59106445 31.05664062 C-11.36435674 20.4983513 -5.69850574 10.36091952 0 0 Z " fill="#3E8DD2" transform="translate(346,229)"/>
<path d="M0 0 C15.84 0 31.68 0 48 0 C46.72196473 3.83410582 45.66548735 6.91365862 43.86791992 10.39941406 C43.44912567 11.21682571 43.03033142 12.03423737 42.59884644 12.87641907 C41.92149948 14.182826 41.92149948 14.182826 41.23046875 15.515625 C40.75747345 16.43663498 40.28447815 17.35764496 39.79714966 18.30656433 C38.26437879 21.28967056 36.725971 24.26983013 35.1875 27.25 C33.08911123 31.32838272 30.99358096 35.40823058 28.8984375 39.48828125 C28.38459 40.4880751 27.87074249 41.48786896 27.34132385 42.51795959 C24.43636865 48.17664963 21.55563638 53.84595255 18.7265625 59.54296875 C18.27145042 60.45923538 18.27145042 60.45923538 17.80714417 61.39401245 C16.46720123 64.0963488 15.13405029 66.80186739 13.80737305 69.51074219 C13.12348511 70.89567871 13.12348511 70.89567871 12.42578125 72.30859375 C12.04848877 73.08001709 11.67119629 73.85144043 11.2824707 74.64624023 C10.85925537 75.42298096 10.43604004 76.19972168 10 77 C9.2718811 78.61201294 9.2718811 78.61201294 8.52905273 80.2565918 C5.66230387 83.36631831 5.15638449 83.43374611 1.13964844 83.68115234 C-0.87069303 83.68020401 -2.88119255 83.64639388 -4.890625 83.5859375 C-6.48025055 83.57320297 -6.48025055 83.57320297 -8.10198975 83.56021118 C-11.48569544 83.5266329 -14.86701509 83.45134042 -18.25 83.375 C-20.54423641 83.34490635 -22.83851019 83.31752951 -25.1328125 83.29296875 C-30.75602196 83.22682738 -36.37784055 83.12643408 -42 83 C-36.98653149 72.28651466 -31.89638596 61.64995107 -26.375 51.1875 C-20.43027362 39.8320343 -14.66060373 28.3976132 -8.97412109 16.91088867 C-8.67123169 16.30091537 -8.36834229 15.69094208 -8.05627441 15.06248474 C-7.23876914 13.41587645 -6.42373142 11.76804371 -5.60888672 10.12011719 C-3.84127628 6.69218678 -1.91352457 3.34866799 0 0 Z " fill="#3E8DD2" transform="translate(448,28)"/>
<path d="M0 0 C13.39384281 9.36850186 20.74344793 21.32661467 23.93359375 37.27734375 C25.14534013 53.03004669 21.31845227 67.67524799 10.93359375 79.83984375 C0.76416756 90.45215952 -11.14793087 96.34382373 -25.81640625 97.52734375 C-41.93930052 97.86246164 -54.94612767 92.46682985 -66.8046875 81.7265625 C-76.17608954 72.02269387 -81.23491905 58.57706583 -81.12890625 45.21484375 C-81.12153442 44.10290649 -81.12153442 44.10290649 -81.11401367 42.96850586 C-80.79402427 27.87321078 -74.5338353 15.94706644 -63.81640625 5.52734375 C-46.17375478 -10.38146094 -20.35399734 -12.28709197 0 0 Z M-59.12890625 17.71484375 C-66.62603187 26.66890066 -69.25546681 36.26956861 -69.16015625 47.71875 C-68.1554502 58.85043635 -62.62976423 68.21932788 -54.56640625 75.71484375 C-44.14757719 84.22665499 -32.80645449 85.60886546 -19.81640625 84.52734375 C-16.09499776 83.70506283 -13.10369259 82.43207103 -9.81640625 80.52734375 C-8.65238281 79.89119141 -8.65238281 79.89119141 -7.46484375 79.2421875 C2.10731323 73.49569192 8.45191827 64.32167371 11.18359375 53.52734375 C12.81831378 41.53846856 11.52190333 30.62180751 4.09375 20.75 C-4.31117744 10.96580242 -13.30394465 5.36704882 -26.359375 4.32421875 C-39.17746009 4.09701488 -50.19059538 8.34051771 -59.12890625 17.71484375 Z " fill="#010100" transform="translate(117.81640625,52.47265625)"/>
<path d="M0 0 C0.33 0 0.66 0 1 0 C1.11698889 14.59510073 1.20506399 29.1901391 1.25906086 43.78561401 C1.28480309 50.56312773 1.31987642 57.3403495 1.37719727 64.11767578 C1.43250322 70.65991109 1.46143452 77.20195721 1.47438622 83.74441528 C1.48361452 86.23866546 1.50163534 88.73289932 1.52865028 91.22702026 C1.56502286 94.7246262 1.56994163 98.22098493 1.56762695 101.71875 C1.58560333 102.74662125 1.60357971 103.77449249 1.62210083 104.83351135 C1.56878117 112.29463146 -0.29914642 117.09651591 -5.44285107 122.52185059 C-10.45657476 127.06092135 -15.92302117 128.60250034 -22.55859375 128.4453125 C-28.46271695 127.36840043 -34.13989889 123.76039074 -37.5625 118.8125 C-43.29256319 107.60150681 -42.79511095 87.64697331 -39.31591797 75.63897705 C-35.53851524 65.07645646 -29.68283335 55.3544011 -24.00292969 45.72729492 C-21.7303678 41.81337687 -19.69497761 37.77316491 -17.625 33.75 C-16.86864881 32.32734714 -16.11085002 30.90546288 -15.3515625 29.484375 C-11.9685857 23.09203747 -8.77742144 16.60118389 -5.57666016 10.11621094 C-5.1388623 9.23223633 -4.70106445 8.34826172 -4.25 7.4375 C-3.86328125 6.65246094 -3.4765625 5.86742187 -3.078125 5.05859375 C-2 3 -2 3 0 0 Z " fill="#B5B8B9" transform="translate(461,174)"/>
<path d="M0 0 C10.74306389 4.30498228 18.26850853 11.96561355 23.375 22.375 C26.77429249 31.66926807 26.50523832 43.30320522 23 52.5 C17.03761815 64.5583745 8.71452116 71.81922358 -3.84082031 76.39135742 C-7.51266062 77.42639789 -11.08009952 77.48912853 -14.875 77.4375 C-15.66511475 77.42920166 -16.45522949 77.42090332 -17.26928711 77.41235352 C-27.79051264 77.10847189 -35.32634318 73.15580268 -43 66 C-44.03356127 64.69251047 -45.04463147 63.36566787 -46 62 C-45.26136719 61.78085938 -44.52273437 61.56171875 -43.76171875 61.3359375 C-26.54393843 55.95401379 -13.01019019 47.25499981 -4.42578125 31.0234375 C-0.80034462 23.31548914 0.14905866 17.12363991 0.0625 8.6875 C0.05798828 7.85154297 0.05347656 7.01558594 0.04882812 6.15429688 C0.03710548 4.10283351 0.01917203 2.05140727 0 0 Z " fill="#E38322" transform="translate(104,60)"/>
<path d="M0 0 C4.29378813 1.92287034 6.77153701 4.62478869 10 8 C8.67879172 10.93230193 7.25361803 12.98664899 4.9609375 15.234375 C4.09082031 16.09482422 4.09082031 16.09482422 3.203125 16.97265625 C2.59984375 17.55917969 1.9965625 18.14570312 1.375 18.75 C0.76398438 19.35199219 0.15296875 19.95398438 -0.4765625 20.57421875 C-1.97988624 22.05405305 -3.48934856 23.52764676 -5 25 C-9.29378813 23.07712966 -11.77153701 20.37521131 -15 17 C-13.67879172 14.06769807 -12.25361803 12.01335101 -9.9609375 9.765625 C-9.38085938 9.19199219 -8.80078125 8.61835937 -8.203125 8.02734375 C-7.59984375 7.44082031 -6.9965625 6.85429687 -6.375 6.25 C-5.76398438 5.64800781 -5.15296875 5.04601562 -4.5234375 4.42578125 C-3.02011376 2.94594695 -1.51065144 1.47235324 0 0 Z " fill="#000000" transform="translate(147,25)"/>
<path d="M0 0 C6.32532275 4.39497902 11.67248457 9.45050476 17 15 C15.07712966 19.29378813 12.37521131 21.77153701 9 25 C6.06769807 23.67879172 4.01335101 22.25361803 1.765625 19.9609375 C1.19199219 19.38085938 0.61835938 18.80078125 0.02734375 18.203125 C-0.55917969 17.59984375 -1.14570313 16.9965625 -1.75 16.375 C-2.35199219 15.76398437 -2.95398438 15.15296875 -3.57421875 14.5234375 C-5.05405305 13.02011376 -6.52764676 11.51065144 -8 10 C-6.07712966 5.70621187 -3.37521131 3.22846299 0 0 Z " fill="#000000" transform="translate(29,25)"/>
<path d="M0 0 C4.29 0 8.58 0 13 0 C13 7.59 13 15.18 13 23 C8.71 23 4.42 23 0 23 C0 15.41 0 7.82 0 0 Z " fill="#000000" transform="translate(83,159)"/>
<path d="M0 0 C7.59 0 15.18 0 23 0 C23 4.29 23 8.58 23 13 C15.41 13 7.82 13 0 13 C0 8.71 0 4.42 0 0 Z " fill="#000000" transform="translate(156,86)"/>
<path d="M0 0 C4.29 0 8.58 0 13 0 C13 7.59 13 15.18 13 23 C8.71 23 4.42 23 0 23 C0 15.41 0 7.82 0 0 Z " fill="#000000" transform="translate(82,3)"/>
<path d="M0 0 C5.66129431 4.69766975 10.85228904 9.74723372 16 15 C14.17495091 18.92300272 11.81729174 21.73787272 9 25 C5.96291295 23.65018353 3.96258753 22.16083261 1.6875 19.75 C-1.69808043 16.25449813 -5.26855998 13.12222532 -9 10 C-8.06409496 8.8944811 -7.12620142 7.79064547 -6.1875 6.6875 C-5.66542969 6.07261719 -5.14335937 5.45773438 -4.60546875 4.82421875 C-3.12827531 3.14575321 -1.59960869 1.56117966 0 0 Z " fill="#000000" transform="translate(141,135)"/>
<path d="M0 0 C7 6 7 6 9 10 C4.05 14.95 -0.9 19.9 -6 25 C-10 23 -10 23 -16 16 C-10.72 10.72 -5.44 5.44 0 0 Z " fill="#000000" transform="translate(37,135)"/>
<path d="M0 0 C7.26 0 14.52 0 22 0 C22 4.29 22 8.58 22 13 C14.74 13 7.48 13 0 13 C0 8.71 0 4.42 0 0 Z " fill="#000000" transform="translate(0,86)"/>
</svg>
