<?xml version="1.0" encoding="UTF-8"?>
<svg version="1.1" xmlns="http://www.w3.org/2000/svg" width="80" height="80">
<path d="M0 0 C1.28145905 0.03870964 1.28145905 0.03870964 2.58880615 0.07820129 C3.47098816 0.08527603 4.35317017 0.09235077 5.26208496 0.09963989 C8.07498596 0.12759076 10.88588367 0.19032873 13.69818115 0.25398254 C15.60700654 0.2790646 17.51586317 0.30187793 19.42474365 0.32234192 C24.09999267 0.37741956 28.77374749 0.46369561 33.44818115 0.56648254 C32.90977844 4.40140657 31.98242286 6.57406916 29.5067749 9.53523254 C20.38457032 20.5409476 20.38457032 20.5409476 18.89349365 34.25788879 C19.22343284 36.51584883 19.22343284 36.51584883 20.44818115 37.56648254 C20.53469726 38.98218378 20.55523019 40.40207755 20.5458374 41.82038879 C20.54100342 43.10139465 20.54100342 43.10139465 20.53607178 44.40827942 C20.52350342 45.75502747 20.52350342 45.75502747 20.51068115 47.12898254 C20.50616943 48.03068176 20.50165771 48.93238098 20.49700928 49.86140442 C20.4851834 52.09649568 20.46870335 54.33145691 20.44818115 56.56648254 C21.43818115 56.56648254 22.42818115 56.56648254 23.44818115 56.56648254 C23.44818115 58.21648254 23.44818115 59.86648254 23.44818115 61.56648254 C25.09818115 61.56648254 26.74818115 61.56648254 28.44818115 61.56648254 C28.44818115 63.87648254 28.44818115 66.18648254 28.44818115 68.56648254 C19.20818115 68.56648254 9.96818115 68.56648254 0.44818115 68.56648254 C0.44818115 66.25648254 0.44818115 63.94648254 0.44818115 61.56648254 C2.09818115 61.56648254 3.74818115 61.56648254 5.44818115 61.56648254 C5.44818115 59.91648254 5.44818115 58.26648254 5.44818115 56.56648254 C2.14818115 56.56648254 -1.15181885 56.56648254 -4.55181885 56.56648254 C-4.55181885 58.87648254 -4.55181885 61.18648254 -4.55181885 63.56648254 C-7.19181885 63.56648254 -9.83181885 63.56648254 -12.55181885 63.56648254 C-12.55181885 64.88648254 -12.55181885 66.20648254 -12.55181885 67.56648254 C-16.22191944 68.7244073 -19.67457489 68.68036917 -23.50494385 68.66413879 C-24.16516541 68.66272385 -24.82538696 68.6613089 -25.50561523 68.65985107 C-27.60439679 68.65427499 -29.70306979 68.64172701 -31.80181885 68.62898254 C-33.22890064 68.62396445 -34.6559841 68.61940208 -36.08306885 68.61531067 C-39.57272717 68.60516631 -43.06215217 68.58558656 -46.55181885 68.56648254 C-46.55181885 61.96648254 -46.55181885 55.36648254 -46.55181885 48.56648254 C-45.56181885 48.56648254 -44.57181885 48.56648254 -43.55181885 48.56648254 C-43.55181885 47.24648254 -43.55181885 45.92648254 -43.55181885 44.56648254 C-41.24181885 44.56648254 -38.93181885 44.56648254 -36.55181885 44.56648254 C-36.55181885 45.88648254 -36.55181885 47.20648254 -36.55181885 48.56648254 C-33.25181885 48.56648254 -29.95181885 48.56648254 -26.55181885 48.56648254 C-26.55181885 47.24648254 -26.55181885 45.92648254 -26.55181885 44.56648254 C-24.24181885 44.56648254 -21.93181885 44.56648254 -19.55181885 44.56648254 C-19.55181885 45.88648254 -19.55181885 47.20648254 -19.55181885 48.56648254 C-18.56181885 48.56648254 -17.57181885 48.56648254 -16.55181885 48.56648254 C-16.55181885 51.86648254 -16.55181885 55.16648254 -16.55181885 58.56648254 C-15.23181885 58.56648254 -13.91181885 58.56648254 -12.55181885 58.56648254 C-12.55181885 59.22648254 -12.55181885 59.88648254 -12.55181885 60.56648254 C-11.23181885 60.56648254 -9.91181885 60.56648254 -8.55181885 60.56648254 C-8.55181885 58.25648254 -8.55181885 55.94648254 -8.55181885 53.56648254 C-2.61181885 53.56648254 3.32818115 53.56648254 9.44818115 53.56648254 C8.95318115 46.14148254 8.95318115 46.14148254 8.44818115 38.56648254 C7.78818115 39.55648254 7.12818115 40.54648254 6.44818115 41.56648254 C4.65115356 41.92724609 4.65115356 41.92724609 2.4574585 41.90705872 C1.22640884 41.90671883 1.22640884 41.90671883 -0.0295105 41.90637207 C-0.91601288 41.89088821 -1.80251526 41.87540436 -2.71588135 41.85945129 C-3.62308929 41.85520645 -4.53029724 41.85096161 -5.46499634 41.84658813 C-8.36923616 41.82976387 -11.27278794 41.79210514 -14.17681885 41.75398254 C-16.14295468 41.73894054 -18.10910136 41.72525129 -20.07525635 41.71296692 C-24.90104323 41.67984811 -29.7263143 41.6280404 -34.55181885 41.56648254 C-33.78161836 36.91164429 -32.29395599 34.5708937 -29.30181885 30.87898254 C-28.3954929 29.74179048 -27.49200536 28.60233233 -26.59088135 27.46101379 C-25.86046631 26.53603088 -25.86046631 26.53603088 -25.11529541 25.59236145 C-21.6252728 21.07015539 -18.34034702 16.39439269 -15.01959229 11.74739075 C-14.49655518 11.01737854 -13.97351807 10.28736633 -13.43463135 9.53523254 C-12.97459717 8.89005676 -12.51456299 8.24488098 -12.04058838 7.58015442 C-11.54929443 6.9156427 -11.05800049 6.25113098 -10.55181885 5.56648254 C-10.02088623 4.66969788 -9.48995361 3.77291321 -8.94293213 2.84895325 C-5.86678216 -0.08742883 -4.12628967 -0.00194661 0 0 Z M-6.55181885 6.06648254 C-6.88181885 6.89148254 -7.21181885 7.71648254 -7.55181885 8.56648254 C-3.51979549 8.91779457 -3.51979549 8.91779457 0.44818115 8.56648254 C2.53034991 6.21148624 2.53034991 6.21148624 3.44818115 3.56648254 C-2.37200062 2.73584979 -2.37200062 2.73584979 -6.55181885 6.06648254 Z M6.44818115 6.06648254 C6.11818115 6.89148254 5.78818115 7.71648254 5.44818115 8.56648254 C9.48020451 8.91779457 9.48020451 8.91779457 13.44818115 8.56648254 C15.53034991 6.21148624 15.53034991 6.21148624 16.44818115 3.56648254 C10.62799938 2.73584979 10.62799938 2.73584979 6.44818115 6.06648254 Z M18.44818115 6.06648254 C18.11818115 6.89148254 17.78818115 7.71648254 17.44818115 8.56648254 C21.48020451 8.91779457 21.48020451 8.91779457 25.44818115 8.56648254 C27.53034991 6.21148624 27.53034991 6.21148624 28.44818115 3.56648254 C22.62799938 2.73584979 22.62799938 2.73584979 18.44818115 6.06648254 Z M-10.55181885 11.56648254 C-11.21181885 12.88648254 -11.87181885 14.20648254 -12.55181885 15.56648254 C-9.91181885 15.56648254 -7.27181885 15.56648254 -4.55181885 15.56648254 C-3.89181885 14.24648254 -3.23181885 12.92648254 -2.55181885 11.56648254 C-5.19181885 11.56648254 -7.83181885 11.56648254 -10.55181885 11.56648254 Z M2.44818115 11.56648254 C1.78818115 12.88648254 1.12818115 14.20648254 0.44818115 15.56648254 C3.08818115 15.56648254 5.72818115 15.56648254 8.44818115 15.56648254 C9.10818115 14.24648254 9.76818115 12.92648254 10.44818115 11.56648254 C7.80818115 11.56648254 5.16818115 11.56648254 2.44818115 11.56648254 Z M14.44818115 11.56648254 C13.78818115 12.88648254 13.12818115 14.20648254 12.44818115 15.56648254 C15.08818115 15.56648254 17.72818115 15.56648254 20.44818115 15.56648254 C21.10818115 14.24648254 21.76818115 12.92648254 22.44818115 11.56648254 C19.80818115 11.56648254 17.16818115 11.56648254 14.44818115 11.56648254 Z M-17.55181885 21.06648254 C-17.88181885 21.89148254 -18.21181885 22.71648254 -18.55181885 23.56648254 C-14.51979549 23.91779457 -14.51979549 23.91779457 -10.55181885 23.56648254 C-8.46965009 21.21148624 -8.46965009 21.21148624 -7.55181885 18.56648254 C-13.37200062 17.73584979 -13.37200062 17.73584979 -17.55181885 21.06648254 Z M-4.55181885 21.06648254 C-4.88181885 21.89148254 -5.21181885 22.71648254 -5.55181885 23.56648254 C-1.51979549 23.91779457 -1.51979549 23.91779457 2.44818115 23.56648254 C4.53034991 21.21148624 4.53034991 21.21148624 5.44818115 18.56648254 C-0.37200062 17.73584979 -0.37200062 17.73584979 -4.55181885 21.06648254 Z M7.44818115 21.06648254 C7.11818115 21.89148254 6.78818115 22.71648254 6.44818115 23.56648254 C10.48020451 23.91779457 10.48020451 23.91779457 14.44818115 23.56648254 C16.53034991 21.21148624 16.53034991 21.21148624 17.44818115 18.56648254 C11.62799938 17.73584979 11.62799938 17.73584979 7.44818115 21.06648254 Z M-21.55181885 26.56648254 C-22.21181885 27.88648254 -22.87181885 29.20648254 -23.55181885 30.56648254 C-20.91181885 30.56648254 -18.27181885 30.56648254 -15.55181885 30.56648254 C-14.89181885 29.24648254 -14.23181885 27.92648254 -13.55181885 26.56648254 C-16.19181885 26.56648254 -18.83181885 26.56648254 -21.55181885 26.56648254 Z M-8.55181885 26.56648254 C-9.21181885 27.88648254 -9.87181885 29.20648254 -10.55181885 30.56648254 C-7.91181885 30.56648254 -5.27181885 30.56648254 -2.55181885 30.56648254 C-1.89181885 29.24648254 -1.23181885 27.92648254 -0.55181885 26.56648254 C-3.19181885 26.56648254 -5.83181885 26.56648254 -8.55181885 26.56648254 Z M3.44818115 26.56648254 C2.78818115 27.88648254 2.12818115 29.20648254 1.44818115 30.56648254 C4.08818115 30.56648254 6.72818115 30.56648254 9.44818115 30.56648254 C10.10818115 29.24648254 10.76818115 27.92648254 11.44818115 26.56648254 C8.80818115 26.56648254 6.16818115 26.56648254 3.44818115 26.56648254 Z M14.44818115 28.56648254 C13.09378448 31.2752759 13.38316665 33.57581522 13.44818115 36.56648254 C14.10818115 36.56648254 14.76818115 36.56648254 15.44818115 36.56648254 C15.44818115 33.92648254 15.44818115 31.28648254 15.44818115 28.56648254 C15.11818115 28.56648254 14.78818115 28.56648254 14.44818115 28.56648254 Z M-28.55181885 36.06648254 C-28.88181885 36.89148254 -29.21181885 37.71648254 -29.55181885 38.56648254 C-25.51979549 38.91779457 -25.51979549 38.91779457 -21.55181885 38.56648254 C-19.46965009 36.21148624 -19.46965009 36.21148624 -18.55181885 33.56648254 C-24.37200062 32.73584979 -24.37200062 32.73584979 -28.55181885 36.06648254 Z M-15.55181885 36.06648254 C-15.88181885 36.89148254 -16.21181885 37.71648254 -16.55181885 38.56648254 C-12.51979549 38.91779457 -12.51979549 38.91779457 -8.55181885 38.56648254 C-6.46965009 36.21148624 -6.46965009 36.21148624 -5.55181885 33.56648254 C-11.37200062 32.73584979 -11.37200062 32.73584979 -15.55181885 36.06648254 Z M-3.55181885 36.06648254 C-3.88181885 36.89148254 -4.21181885 37.71648254 -4.55181885 38.56648254 C-0.51979549 38.91779457 -0.51979549 38.91779457 3.44818115 38.56648254 C5.53034991 36.21148624 5.53034991 36.21148624 6.44818115 33.56648254 C0.62799938 32.73584979 0.62799938 32.73584979 -3.55181885 36.06648254 Z M12.44818115 40.56648254 C12.44818115 45.84648254 12.44818115 51.12648254 12.44818115 56.56648254 C13.76818115 56.56648254 15.08818115 56.56648254 16.44818115 56.56648254 C16.44818115 51.28648254 16.44818115 46.00648254 16.44818115 40.56648254 C15.12818115 40.56648254 13.80818115 40.56648254 12.44818115 40.56648254 Z M-40.55181885 51.56648254 C-40.55181885 56.18648254 -40.55181885 60.80648254 -40.55181885 65.56648254 C-34.61181885 65.56648254 -28.67181885 65.56648254 -22.55181885 65.56648254 C-22.55181885 60.94648254 -22.55181885 56.32648254 -22.55181885 51.56648254 C-28.49181885 51.56648254 -34.43181885 51.56648254 -40.55181885 51.56648254 Z M8.44818115 60.56648254 C8.44818115 60.89648254 8.44818115 61.22648254 8.44818115 61.56648254 C12.40818115 61.56648254 16.36818115 61.56648254 20.44818115 61.56648254 C20.44818115 61.23648254 20.44818115 60.90648254 20.44818115 60.56648254 C16.48818115 60.56648254 12.52818115 60.56648254 8.44818115 60.56648254 Z M-16.55181885 61.56648254 C-15.55181885 64.56648254 -15.55181885 64.56648254 -15.55181885 64.56648254 Z " fill="#16301F" transform="translate(46.55181884765625,11.433517456054688)"/>
<path d="M0 0 C1.9375 1.0625 1.9375 1.0625 3 3 C3.36528977 6.4093712 3.6140629 8.88023824 1.9375 11.9375 C-1.11976176 13.6140629 -3.5906288 13.36528977 -7 13 C-8.9375 11.9375 -8.9375 11.9375 -10 10 C-10.36528977 6.5906288 -10.6140629 4.11976176 -8.9375 1.0625 C-5.88023824 -0.6140629 -3.4093712 -0.36528977 0 0 Z M-5 3 C-5.66 4.65 -6.32 6.3 -7 8 C-5.02 8.99 -5.02 8.99 -3 10 C-2.01 9.01 -1.02 8.02 0 7 C-0.33 6.01 -0.66 5.02 -1 4 C-3.01508358 3.26676204 -3.01508358 3.26676204 -5 3 Z " fill="#15301F" transform="translate(16,6)"/>
<path d="M0 0 C1.32 0 2.64 0 4 0 C5.33898305 5.3559322 5.33898305 5.3559322 3.75 8.375 C2 10 2 10 -1 10 C-1.125 3.375 -1.125 3.375 0 0 Z " fill="#153020" transform="translate(13,65)"/>
<path d="M0 0 C1.32 0.66 2.64 1.32 4 2 C4 2.99 4 3.98 4 5 C2.68 4.67 1.36 4.34 0 4 C0 2.68 0 1.36 0 0 Z " fill="#183020" transform="translate(18,17)"/>
<path d="M0 0 C0.99 0.33 1.98 0.66 3 1 C2.34 2.32 1.68 3.64 1 5 C0.01 5 -0.98 5 -2 5 C-1.125 1.125 -1.125 1.125 0 0 Z " fill="#192E20" transform="translate(5,17)"/>
<path d="M0 0 C0.99 0 1.98 0 3 0 C2.67 1.32 2.34 2.64 2 4 C0.68 4 -0.64 4 -2 4 C-1.34 2.68 -0.68 1.36 0 0 Z " fill="#172E1E" transform="translate(19,3)"/>
<path d="M0 0 C1.32 0.33 2.64 0.66 4 1 C4 2.32 4 3.64 4 5 C2.68 4.34 1.36 3.68 0 3 C0 2.01 0 1.02 0 0 Z " fill="#172C1F" transform="translate(3,3)"/>
<path d="M0 0 C0.99 0 1.98 0 3 0 C3 1.65 3 3.3 3 5 C2.01 5 1.02 5 0 5 C0 3.35 0 1.7 0 0 Z " fill="#173020" transform="translate(11,20)"/>
<path d="M0 0 C1.65 0 3.3 0 5 0 C5 0.99 5 1.98 5 3 C3.35 3 1.7 3 0 3 C0 2.01 0 1.02 0 0 Z " fill="#173020" transform="translate(20,11)"/>
<path d="M0 0 C1.65 0 3.3 0 5 0 C5 0.99 5 1.98 5 3 C3.35 3 1.7 3 0 3 C0 2.01 0 1.02 0 0 Z " fill="#16301F" transform="translate(0,11)"/>
<path d="M0 0 C0.99 0 1.98 0 3 0 C3 1.65 3 3.3 3 5 C2.01 5 1.02 5 0 5 C0 3.35 0 1.7 0 0 Z " fill="#17301E" transform="translate(11,0)"/>
</svg>
