<?xml version="1.0" encoding="UTF-8"?>
<svg version="1.1" xmlns="http://www.w3.org/2000/svg" width="80" height="80">
<path d="M0 0 C6.82793692 0.35015061 12.22943851 4.03753814 16.8046875 8.9296875 C22.10022014 15.70059241 24.55855473 21.82911248 24.4375 30.375 C24.42992676 31.12450928 24.42235352 31.87401855 24.41455078 32.64624023 C24.24018646 38.50653599 23.25383215 43.03841122 20 48 C19.56429687 48.70511719 19.12859375 49.41023438 18.6796875 50.13671875 C15.32760352 55.09157513 11.43570706 58.45354264 6 61 C5.34 61 4.68 61 4 61 C3.67 62.32 3.34 63.64 3 65 C1.39566191 64.52140759 -0.20846416 64.04210442 -1.8125 63.5625 C-2.70582031 63.29566406 -3.59914063 63.02882812 -4.51953125 62.75390625 C-6.35473055 62.19612127 -8.18033726 61.60655425 -10 61 C-9.44429145 57.259335 -7.990215 55.6574251 -5.1875 53.1875 C-4.50042969 52.56230469 -3.81335937 51.93710937 -3.10546875 51.29296875 C-2.06326172 50.65294922 -2.06326172 50.65294922 -1 50 C0.33544551 50.32476788 1.66884389 50.65807559 3 51 C7.26728987 48.51006503 10.39727755 44.96058891 13 40.8125 C14.75345208 34.12746394 15.31063401 27.07716732 12.4375 20.625 C9.0839305 14.9049045 3.73830686 11.12998556 -2 8 C-1.125 2.25 -1.125 2.25 0 0 Z M2 4 C3.21001532 7.63004596 4.02587869 7.79942138 7.25 9.625 C12.81431233 13.16914798 15.69175856 17.71234417 17.60546875 23.984375 C19.16434739 31.94854705 17.88032335 38.90924626 14 46 C9.32553646 51.65856112 3.91978861 54.79824908 -3 57 C-3.66 57.66 -4.32 58.32 -5 59 C-2.05212573 59.87596976 -0.48175347 60.18511106 2.4296875 59.06640625 C10.72279234 53.9660143 17.72335742 47.78256541 20.55078125 38.1171875 C22.23808088 30.164871 20.9331257 23.05886488 17 16 C13.40962508 10.95782699 9.4070483 7.01788743 4 4 C3.34 4 2.68 4 2 4 Z " fill="#16301F" transform="translate(48,9)"/>
<path d="M0 0 C1.60433809 0.47859241 3.20846416 0.95789558 4.8125 1.4375 C5.70582031 1.70433594 6.59914063 1.97117187 7.51953125 2.24609375 C9.35473055 2.80387873 11.18033726 3.39344575 13 4 C12.44429145 7.740665 10.990215 9.3425749 8.1875 11.8125 C7.50042969 12.43769531 6.81335938 13.06289063 6.10546875 13.70703125 C5.41066406 14.13371094 4.71585938 14.56039063 4 15 C2.66455449 14.67523212 1.33115611 14.34192441 0 14 C-4.26728987 16.48993497 -7.39727755 20.03941109 -10 24.1875 C-11.75345208 30.87253606 -12.31063401 37.92283268 -9.4375 44.375 C-6.15875772 49.95583793 -1.22062944 54.11496078 5 56 C4.125 62.75 4.125 62.75 3 65 C-3.73601485 64.19832624 -8.01441512 61.51376297 -13 57 C-20.67121533 47.05788338 -22.06276999 38.2348861 -21 26 C-19.07679595 17.28513823 -14.16286326 10.87011784 -6.75 6.0625 C-3.32797428 4 -3.32797428 4 -1 4 C-0.67 2.68 -0.34 1.36 0 0 Z M-7 11 C-13.69777954 17.29865674 -18.02397323 24.30102968 -18.3125 33.625 C-18.18422504 42.34769739 -14.71587691 49.02899313 -8.80859375 55.3046875 C-4.5055924 59.45274181 -4.5055924 59.45274181 1 61 C-0.17112579 57.48662263 -0.56069576 57.50388003 -3.6875 55.9375 C-9.29544123 52.62921813 -12.68585353 47.14276661 -14.640625 40.98046875 C-16.3303419 31.66865931 -14.17837523 24.04156071 -9.1875 16.125 C-4.74983935 11.81412966 0.17458104 9.89664804 6 8 C6.66 7.34 7.32 6.68 8 6 C1.66925708 4.11880059 -2.00954305 7.25521093 -7 11 Z " fill="#16311F" transform="translate(29,6)"/>
<path d="M0 0 C2.2047708 0.99793648 3.42783729 1.83875644 4.8269043 3.8269043 C4.32033119 9.24953917 -0.46911076 12.29929959 -4.1730957 15.8269043 C1.2719043 17.3119043 1.2719043 17.3119043 6.8269043 18.8269043 C5.78452778 22.99641035 5.5423862 23.45228088 2.4050293 25.9206543 C1.70893555 26.47624023 1.0128418 27.03182617 0.2956543 27.60424805 C-0.80262695 28.45696289 -0.80262695 28.45696289 -1.9230957 29.3269043 C-2.99817383 30.17961914 -2.99817383 30.17961914 -4.0949707 31.04956055 C-5.48800917 32.15323625 -6.88565925 33.25112159 -8.28833008 34.3425293 C-9.88870614 35.6029291 -11.44970229 36.91307785 -13.0012207 38.2331543 C-15.1730957 39.8269043 -15.1730957 39.8269043 -18.1730957 39.8269043 C-17.64184929 35.60686237 -16.31113958 33.32846824 -13.6105957 30.0769043 C-11.29419515 27.72370793 -11.29419515 27.72370793 -10.1730957 24.8269043 C-13.4730957 24.1669043 -16.7730957 23.5069043 -20.1730957 22.8269043 C-20.5030957 21.5069043 -20.8330957 20.1869043 -21.1730957 18.8269043 C-19.60595703 16.61279297 -19.60595703 16.61279297 -17.25512695 14.24487305 C-16.41272461 13.39602539 -15.57032227 12.54717773 -14.70239258 11.67260742 C-13.35757813 10.35679688 -13.35757813 10.35679688 -11.9855957 9.0144043 C-11.10838867 8.11786133 -10.23118164 7.22131836 -9.32739258 6.29760742 C-8.47854492 5.45520508 -7.62969727 4.61280273 -6.75512695 3.74487305 C-5.97371338 2.96909912 -5.1922998 2.1933252 -4.38720703 1.39404297 C-2.1730957 -0.1730957 -2.1730957 -0.1730957 0 0 Z M-1.1730957 4.8269043 C-5.7930957 9.4469043 -10.4130957 14.0669043 -15.1730957 18.8269043 C-11.26876701 20.77906864 -8.45096318 21.3333042 -4.1730957 21.8269043 C-3.8430957 22.8169043 -3.5130957 23.8069043 -3.1730957 24.8269043 C-1.8530957 23.5069043 -0.5330957 22.1869043 0.8269043 20.8269043 C-2.8030957 20.1669043 -6.4330957 19.5069043 -10.1730957 18.8269043 C-7.53827307 13.55725903 -3.37365659 9.84786876 0.8269043 5.8269043 C0.1669043 5.4969043 -0.4930957 5.1669043 -1.1730957 4.8269043 Z " fill="#163220" transform="translate(47.173095703125,20.173095703125)"/>
</svg>
