<?xml version="1.0" encoding="UTF-8"?>
<svg version="1.1" xmlns="http://www.w3.org/2000/svg" width="80" height="80">
<path d="M0 0 C2.31 0 4.62 0 7 0 C7.495 8.91 7.495 8.91 8 18 C9.485 17.95875 10.97 17.9175 12.5 17.875 C17.34153611 17.86120645 21.37051846 18.62830177 26 20 C26 22.31 26 24.62 26 27 C20.06 27.33 14.12 27.66 8 28 C8 33.94 8 39.88 8 46 C11.3 46 14.6 46 18 46 C19.96503551 51.89510652 20.86004648 57.7774513 21 64 C20 65 20 65 17.93359375 65.09765625 C17.10988281 65.08605469 16.28617187 65.07445313 15.4375 65.0625 C14.19806641 65.04896484 14.19806641 65.04896484 12.93359375 65.03515625 C11.97646484 65.01775391 11.97646484 65.01775391 11 65 C11 65.99 11 66.98 11 68 C12.32 68 13.64 68 15 68 C15.04241723 70.33294775 15.04092937 72.66702567 15 75 C14 76 14 76 10.62109375 76.09765625 C9.22652923 76.09098369 7.83198257 76.07902532 6.4375 76.0625 C5.37112305 76.05573242 5.37112305 76.05573242 4.28320312 76.04882812 C2.52209987 76.03700864 0.76103964 76.01907263 -1 76 C-1 73.36 -1 70.72 -1 68 C0.32 68 1.64 68 3 68 C3 67.01 3 66.02 3 65 C-0.3 65 -3.6 65 -7 65 C-7.33 64.34 -7.66 63.68 -8 63 C-8.33 67.29 -8.66 71.58 -9 76 C-22.53 76 -36.06 76 -50 76 C-50 65.11 -50 54.22 -50 43 C-49.01 43 -48.02 43 -47 43 C-47 36.4 -47 29.8 -47 23 C-44.36 23 -41.72 23 -39 23 C-39 29.6 -39 36.2 -39 43 C-38.34 43 -37.68 43 -37 43 C-37 36.4 -37 29.8 -37 23 C-34.36 23 -31.72 23 -29 23 C-29 29.6 -29 36.2 -29 43 C-28.34 43 -27.68 43 -27 43 C-27 36.4 -27 29.8 -27 23 C-24.69 23 -22.38 23 -20 23 C-20 21.68 -20 20.36 -20 19 C-14.06 18.67 -8.12 18.34 -2 18 C-2.04125 16.515 -2.0825 15.03 -2.125 13.5 C-2.13879355 8.65846389 -1.37169823 4.62948154 0 0 Z M3 3 C2.58184918 4.74480197 2.19126018 6.49622557 1.8125 8.25 C1.59207031 9.22453125 1.37164062 10.1990625 1.14453125 11.203125 C0.67693338 14.45880863 0.67693338 14.45880863 4 18 C4 13.05 4 8.1 4 3 C3.67 3 3.34 3 3 3 Z M1 21 C1 22.32 1 23.64 1 25 C2.32 25 3.64 25 5 25 C5 23.68 5 22.36 5 21 C3.68 21 2.36 21 1 21 Z M8 24 C12.95 24 17.9 24 23 24 C16.86976202 20.93488101 13.66687583 19.74984313 8 24 Z M-17 22 C-13.02093353 23.98953324 -10.4047475 24.76403138 -6 25 C-4.68 24.01 -3.36 23.02 -2 22 C-6.95 22 -11.9 22 -17 22 Z M-44 26 C-44 26.66 -44 27.32 -44 28 C-43.34 28 -42.68 28 -42 28 C-42 27.34 -42 26.68 -42 26 C-42.66 26 -43.32 26 -44 26 Z M-34 26 C-34 26.66 -34 27.32 -34 28 C-33.34 28 -32.68 28 -32 28 C-32 27.34 -32 26.68 -32 26 C-32.66 26 -33.32 26 -34 26 Z M-24 26 C-24 26.66 -24 27.32 -24 28 C-23.34 28 -22.68 28 -22 28 C-22 27.34 -22 26.68 -22 26 C-22.66 26 -23.32 26 -24 26 Z M-19 26 C-19 31.61 -19 37.22 -19 43 C-17.35 43 -15.7 43 -14 43 C-14 46.3 -14 49.6 -14 53 C-12.35 53 -10.7 53 -9 53 C-9.33 50.69 -9.66 48.38 -10 46 C-7.36 46 -4.72 46 -2 46 C-1.67 40.06 -1.34 34.12 -1 28 C-4.05640654 26.98119782 -6.47675852 26.95859377 -9.671875 27.0625 C-12.80022821 26.97851736 -15.90197257 26.44257535 -19 26 Z M2 28 C1.67 33.94 1.34 39.88 1 46 C2.32 46 3.64 46 5 46 C4.67 40.06 4.34 34.12 4 28 C3.34 28 2.68 28 2 28 Z M-44 31 C-44 31.66 -44 32.32 -44 33 C-43.34 33 -42.68 33 -42 33 C-42 32.34 -42 31.68 -42 31 C-42.66 31 -43.32 31 -44 31 Z M-34 31 C-34 31.66 -34 32.32 -34 33 C-33.34 33 -32.68 33 -32 33 C-32 32.34 -32 31.68 -32 31 C-32.66 31 -33.32 31 -34 31 Z M-24 31 C-24 31.66 -24 32.32 -24 33 C-23.34 33 -22.68 33 -22 33 C-22 32.34 -22 31.68 -22 31 C-22.66 31 -23.32 31 -24 31 Z M-44 36 C-44 38.31 -44 40.62 -44 43 C-43.34 43 -42.68 43 -42 43 C-42 40.69 -42 38.38 -42 36 C-42.66 36 -43.32 36 -44 36 Z M-34 36 C-34 38.31 -34 40.62 -34 43 C-33.34 43 -32.68 43 -32 43 C-32 40.69 -32 38.38 -32 36 C-32.66 36 -33.32 36 -34 36 Z M-24 36 C-24 38.31 -24 40.62 -24 43 C-23.34 43 -22.68 43 -22 43 C-22 40.69 -22 38.38 -22 36 C-22.66 36 -23.32 36 -24 36 Z M-47 46 C-47 48.31 -47 50.62 -47 53 C-37.1 53 -27.2 53 -17 53 C-17 50.69 -17 48.38 -17 46 C-26.9 46 -36.8 46 -47 46 Z M-6 50 C-5.85957123 51.64630328 -5.71250671 53.29204179 -5.5625 54.9375 C-5.48128906 55.85402344 -5.40007813 56.77054688 -5.31640625 57.71484375 C-5.23955024 59.96159732 -5.23955024 59.96159732 -4 61 C-2.43827255 61.08685603 -0.87270656 61.10702219 0.69140625 61.09765625 C1.63564453 61.09443359 2.57988281 61.09121094 3.55273438 61.08789062 C5.04256836 61.07532227 5.04256836 61.07532227 6.5625 61.0625 C7.55958984 61.05798828 8.55667969 61.05347656 9.58398438 61.04882812 C12.05604849 61.03700007 14.52799518 61.02051849 17 61 C16.85957123 59.35369672 16.71250671 57.70795821 16.5625 56.0625 C16.48128906 55.14597656 16.40007812 54.22945312 16.31640625 53.28515625 C16.23955024 51.03840268 16.23955024 51.03840268 15 50 C13.43827255 49.91314397 11.87270656 49.89297781 10.30859375 49.90234375 C9.36435547 49.90556641 8.42011719 49.90878906 7.44726562 49.91210938 C5.95743164 49.92467773 5.95743164 49.92467773 4.4375 49.9375 C3.44041016 49.94201172 2.44332031 49.94652344 1.41601562 49.95117188 C-1.05604849 49.96299993 -3.52799518 49.97948151 -6 50 Z M-47 56 C-47 61.61 -47 67.22 -47 73 C-43.04 73 -39.08 73 -35 73 C-35 68.71 -35 64.42 -35 60 C-31.37 60 -27.74 60 -24 60 C-24 64.29 -24 68.58 -24 73 C-20.04 73 -16.08 73 -12 73 C-12 67.39 -12 61.78 -12 56 C-23.55 56 -35.1 56 -47 56 Z M-32 63 C-32 66.3 -32 69.6 -32 73 C-30.35 73 -28.7 73 -27 73 C-27 69.7 -27 66.4 -27 63 C-28.65 63 -30.3 63 -32 63 Z M6 65 C6 65.99 6 66.98 6 68 C6.66 68 7.32 68 8 68 C8 67.01 8 66.02 8 65 C7.34 65 6.68 65 6 65 Z M2 71 C2 71.66 2 72.32 2 73 C4.97 73 7.94 73 11 73 C11 72.34 11 71.68 11 71 C8.03 71 5.06 71 2 71 Z " fill="#766E85" transform="translate(52,2)"/>
<path d="M0 0 C2.64 0 5.28 0 8 0 C8 2.64 8 5.28 8 8 C5.36 8 2.72 8 0 8 C0 5.36 0 2.72 0 0 Z M3 3 C3 3.66 3 4.32 3 5 C3.66 5 4.32 5 5 5 C5 4.34 5 3.68 5 3 C4.34 3 3.68 3 3 3 Z " fill="#766E85" transform="translate(30,60)"/>
<path d="M0 0 C2.64 0 5.28 0 8 0 C8 2.64 8 5.28 8 8 C5.36 8 2.72 8 0 8 C0 5.36 0 2.72 0 0 Z M3 3 C3 3.66 3 4.32 3 5 C3.66 5 4.32 5 5 5 C5 4.34 5 3.68 5 3 C4.34 3 3.68 3 3 3 Z " fill="#766E85" transform="translate(7,60)"/>
<path d="M0 0 C1.32 0 2.64 0 4 0 C4 1.32 4 2.64 4 4 C2.68 4 1.36 4 0 4 C0 2.68 0 1.36 0 0 Z " fill="#756E84" transform="translate(48,53)"/>
<path d="M0 0 C0.99 0 1.98 0 3 0 C3 1.32 3 2.64 3 4 C2.01 4 1.02 4 0 4 C0 2.68 0 1.36 0 0 Z " fill="#766E85" transform="translate(62,58)"/>
<path d="M0 0 C0.99 0 1.98 0 3 0 C3 1.32 3 2.64 3 4 C2.01 4 1.02 4 0 4 C0 2.68 0 1.36 0 0 Z " fill="#766E85" transform="translate(56,58)"/>
<path d="M0 0 C0.99 0 1.98 0 3 0 C3 1.32 3 2.64 3 4 C2.01 4 1.02 4 0 4 C0 2.68 0 1.36 0 0 Z " fill="#766E85" transform="translate(50,58)"/>
<path d="M0 0 C0.99 0 1.98 0 3 0 C3 1.32 3 2.64 3 4 C2.01 4 1.02 4 0 4 C0 2.68 0 1.36 0 0 Z " fill="#766E85" transform="translate(61,53)"/>
<path d="M0 0 C0.99 0 1.98 0 3 0 C3 1.32 3 2.64 3 4 C2.01 4 1.02 4 0 4 C0 2.68 0 1.36 0 0 Z " fill="#766E85" transform="translate(55,53)"/>
<path d="M0 0 C1.32 0 2.64 0 4 0 C4 0.99 4 1.98 4 3 C2.68 3 1.36 3 0 3 C0 2.01 0 1.02 0 0 Z " fill="#766E85" transform="translate(28,50)"/>
<path d="M0 0 C1.32 0 2.64 0 4 0 C4 0.99 4 1.98 4 3 C2.68 3 1.36 3 0 3 C0 2.01 0 1.02 0 0 Z " fill="#766E85" transform="translate(23,50)"/>
<path d="M0 0 C1.32 0 2.64 0 4 0 C4 0.99 4 1.98 4 3 C2.68 3 1.36 3 0 3 C0 2.01 0 1.02 0 0 Z " fill="#766E85" transform="translate(18,50)"/>
<path d="M0 0 C1.32 0 2.64 0 4 0 C4 0.99 4 1.98 4 3 C2.68 3 1.36 3 0 3 C0 2.01 0 1.02 0 0 Z " fill="#766E85" transform="translate(13,50)"/>
<path d="M0 0 C1.32 0 2.64 0 4 0 C4 0.99 4 1.98 4 3 C2.68 3 1.36 3 0 3 C0 2.01 0 1.02 0 0 Z " fill="#766E85" transform="translate(8,50)"/>
</svg>
