<svg width="20" height="20" viewBox="0 0 20 20" fill="none" xmlns="http://www.w3.org/2000/svg">
<path d="M17.3438 15.4688H3.90625V3.28125C3.90625 3.19531 3.83594 3.125 3.75 3.125H2.65625C2.57031 3.125 2.5 3.19531 2.5 3.28125V16.7188C2.5 16.8047 2.57031 16.875 2.65625 16.875H17.3438C17.4297 16.875 17.5 16.8047 17.5 16.7188V15.625C17.5 15.5391 17.4297 15.4688 17.3438 15.4688ZM5.625 13.9062H6.71875C6.80469 13.9062 6.875 13.8359 6.875 13.75V10.9375C6.875 10.8516 6.80469 10.7812 6.71875 10.7812H5.625C5.53906 10.7812 5.46875 10.8516 5.46875 10.9375V13.75C5.46875 13.8359 5.53906 13.9062 5.625 13.9062ZM8.59375 13.9062H9.6875C9.77344 13.9062 9.84375 13.8359 9.84375 13.75V7.5C9.84375 7.41406 9.77344 7.34375 9.6875 7.34375H8.59375C8.50781 7.34375 8.4375 7.41406 8.4375 7.5V13.75C8.4375 13.8359 8.50781 13.9062 8.59375 13.9062ZM11.5625 13.9062H12.6562C12.7422 13.9062 12.8125 13.8359 12.8125 13.75V9.02344C12.8125 8.9375 12.7422 8.86719 12.6562 8.86719H11.5625C11.4766 8.86719 11.4062 8.9375 11.4062 9.02344V13.75C11.4062 13.8359 11.4766 13.9062 11.5625 13.9062ZM14.5312 13.9062H15.625C15.7109 13.9062 15.7812 13.8359 15.7812 13.75V5.9375C15.7812 5.85156 15.7109 5.78125 15.625 5.78125H14.5312C14.4453 5.78125 14.375 5.85156 14.375 5.9375V13.75C14.375 13.8359 14.4453 13.9062 14.5312 13.9062Z" fill="#776F86"/>
</svg>
