<?xml version="1.0" encoding="UTF-8"?>
<svg version="1.1" xmlns="http://www.w3.org/2000/svg" width="512" height="512">
<path d="M0 0 C1.46017166 -0.00761181 1.46017166 -0.00761181 2.94984174 -0.0153774 C4.5501921 -0.01612404 4.5501921 -0.01612404 6.18287277 -0.01688576 C7.31839608 -0.02126801 8.45391939 -0.02565027 9.62385249 -0.03016531 C13.44355606 -0.04356081 17.26323655 -0.04973399 21.08295822 -0.0558567 C23.81617639 -0.0632314 26.54938972 -0.07202139 29.28260422 -0.08063698 C37.49761717 -0.10514993 45.71263614 -0.11978959 53.92767441 -0.13269705 C56.25004784 -0.13641077 58.57242067 -0.14038389 60.89479351 -0.14444971 C75.33037914 -0.16969578 89.76596577 -0.19173922 104.2015686 -0.20417786 C107.54484435 -0.20710736 110.88812005 -0.21006904 114.23139572 -0.21308327 C115.06230888 -0.21382932 115.89322205 -0.21457537 116.7493144 -0.21534403 C130.18869104 -0.22797875 143.62793482 -0.26117635 157.06724945 -0.3028851 C170.88072579 -0.34540157 184.69413432 -0.36888435 198.50767589 -0.37409842 C206.25699447 -0.37750232 214.00610572 -0.38913561 221.75535965 -0.42220116 C228.36004137 -0.45033715 234.96447324 -0.4611423 241.5692102 -0.4500057 C244.93347928 -0.44485248 248.29680658 -0.45026529 251.66106796 -0.47247124 C274.9868326 -0.61797592 292.27747465 2.23237386 309.89838791 18.76592064 C321.89109748 31.23094583 327.49696982 46.604873 327.44706345 63.6414547 C327.45159456 64.7825124 327.45612567 65.9235701 327.46079409 67.09920532 C327.47342993 70.91352622 327.47181821 74.72770419 327.47016525 78.54204369 C327.4750659 81.28072203 327.48290042 84.01939042 327.49052048 86.75806236 C327.50710092 93.42023005 327.5126287 100.08236234 327.51374523 106.74454894 C327.51469721 112.16330221 327.51881495 117.58204386 327.52514648 123.00079346 C327.54275161 138.38218851 327.55198661 153.7635557 327.55048554 169.1449609 C327.55040562 169.97338103 327.55032571 170.80180116 327.55024338 171.65532494 C327.55016162 172.48476302 327.55007986 173.31420111 327.54999562 174.16877369 C327.54918315 187.60343947 327.56831288 201.03799302 327.59652011 214.47262635 C327.6252905 228.28509195 327.63905809 242.09750289 327.63733256 255.90999919 C327.63667004 263.65744348 327.64210132 271.40477014 327.66368866 279.15218735 C327.68195536 285.74989161 327.68620308 292.34742493 327.67266981 298.9451436 C327.66616722 302.306921 327.66812334 305.66810519 327.68337631 309.02989388 C327.7927912 334.8235244 327.7927912 334.8235244 323.17963791 345.13701439 C322.67303635 346.35517845 322.16643478 347.57334251 321.64448166 348.82842064 C313.09858695 364.89295417 300.43014125 375.92962303 283.17963791 382.13701439 C276.3035125 384.11237634 269.74612339 384.42341186 262.62414169 384.3977108 C261.4896911 384.40153635 260.35524051 384.40536189 259.18641263 384.40930337 C255.40049667 384.41958856 251.61473365 384.41564968 247.82880783 384.41167259 C245.10806467 384.41492952 242.38732991 384.42114122 239.66659164 384.42716026 C233.05235045 384.43988292 226.43814989 384.44170397 219.82389852 384.43936 C214.44473012 384.43757382 209.06557402 384.43933292 203.68640709 384.44358444 C202.91954075 384.44417963 202.15267441 384.44477482 201.36256969 384.44538805 C199.80444627 384.44659985 198.24632285 384.44781399 196.68819944 384.44903042 C182.08914015 384.45989676 167.49010399 384.45774787 152.8910434 384.45164558 C139.55278258 384.44647824 126.21459483 384.45772864 112.87634846 384.47674379 C99.16216819 384.49614414 85.44802244 384.50437428 71.73382837 384.50062054 C64.04178704 384.4987117 56.34980788 384.50116502 48.65777779 384.51533508 C42.10876343 384.52727795 35.55984951 384.5286214 29.0108337 384.51654492 C25.67356319 384.51067621 22.33662576 384.51114331 18.99934387 384.52154732 C15.37142258 384.53203916 11.74398918 384.52389388 8.11608505 384.51123619 C7.0754946 384.51861048 6.03490415 384.52598476 4.96278065 384.53358251 C-12.49114753 384.40610796 -27.92841968 377.34572839 -40.16411209 365.04717064 C-49.32867018 355.00658861 -56.92491479 341.27529508 -56.95458317 327.30827236 C-56.95904101 326.33297449 -56.96349886 325.35767662 -56.96809179 324.35282427 C-56.96790742 323.28387767 -56.96772306 322.21493107 -56.96753311 321.11359215 C-56.9712098 319.97595214 -56.97488649 318.83831214 -56.97867459 317.66619819 C-56.98972128 313.83948982 -56.99355699 310.01280859 -56.99736404 306.18608665 C-57.00309599 303.4480014 -57.01026203 300.70992022 -57.01727676 297.971838 C-57.03703114 289.74348865 -57.04710727 281.5151381 -57.05600455 273.28677097 C-57.0603902 269.40876127 -57.06575639 265.53075292 -57.07099342 261.65274429 C-57.08800667 248.75504814 -57.10249892 235.85735283 -57.10974216 222.95964718 C-57.11165197 219.61325199 -57.11357231 216.26685681 -57.11552811 212.92046165 C-57.11601185 212.08876156 -57.11649559 211.25706147 -57.11699399 210.40015834 C-57.12528706 196.93937773 -57.15061131 183.47868621 -57.18310878 170.01794446 C-57.21622546 156.1875315 -57.23419519 142.35716373 -57.23738641 128.52671093 C-57.23954752 120.76578527 -57.24823737 113.0049894 -57.27384758 105.24410248 C-57.29561787 98.63167113 -57.30357416 92.01940109 -57.2938808 85.40693796 C-57.28935384 82.03708051 -57.29333551 78.66782369 -57.31064224 75.29796791 C-57.43617093 49.39887965 -57.43617093 49.39887965 -52.82036209 39.13701439 C-52.4319933 38.2249904 -52.04362452 37.3129664 -51.64348698 36.37330532 C-44.89675208 21.13493457 -32.03513689 10.10869776 -16.81645584 3.91435814 C-11.16126508 1.81342842 -6.06897335 0.01683118 0 0 Z M-17.19536209 43.38701439 C-24.42259365 52.64114658 -24.97205816 63.38032544 -24.95407486 74.62352562 C-24.95634042 75.66713477 -24.95860597 76.71074393 -24.96094018 77.7859776 C-24.96726075 81.27637357 -24.96645206 84.76673052 -24.96562576 88.25713158 C-24.96861847 90.76245232 -24.97202126 93.2677726 -24.97580338 95.77309227 C-24.9837192 101.86856366 -24.98685755 107.9640208 -24.98741575 114.05949685 C-24.98789165 119.01680766 -24.98995005 123.97411529 -24.99311638 128.93142509 C-25.00191919 143.00075465 -25.00653638 157.07007659 -25.0057859 171.13940892 C-25.00574595 171.897232 -25.00570599 172.65505509 -25.00566483 173.43584251 C-25.00562394 174.19459597 -25.00558306 174.95334943 -25.00554094 175.73509541 C-25.00513466 188.02656566 -25.01470085 200.31800526 -25.02880319 212.60946664 C-25.04318468 225.2444122 -25.05007239 237.87934282 -25.04920942 250.51429677 C-25.04887804 257.60213914 -25.05159889 264.68994937 -25.06238747 271.77778435 C-25.07247251 278.44591814 -25.07213901 285.11397296 -25.06487083 291.78211403 C-25.06382653 294.22536251 -25.06617869 296.66861525 -25.07223129 299.11185646 C-25.07997601 302.45550633 -25.07528988 305.79892355 -25.06760025 309.14256859 C-25.07274381 310.10183526 -25.07788738 311.06110193 -25.08318681 312.04943728 C-25.02323264 323.90435684 -23.22902171 333.85088548 -15.22270584 342.95342064 C-6.04303609 351.61225806 5.72131565 352.28983271 17.66614914 352.27072716 C18.70975829 352.27299271 19.75336745 352.27525827 20.82860112 352.27759248 C24.31899709 352.28391305 27.80935404 352.28310436 31.2997551 352.28227806 C33.80507584 352.28527077 36.31039612 352.28867356 38.81571579 352.29245567 C44.91118718 352.3003715 51.00664432 352.30350985 57.10212037 352.30406805 C62.05943118 352.30454394 67.01673881 352.30660235 71.97404861 352.30976868 C86.04337817 352.31857149 100.11270011 352.32318868 114.18203244 352.3224382 C115.31876707 352.32237827 115.31876707 352.32237827 116.47846603 352.32231712 C117.61659622 352.3222558 117.61659622 352.3222558 118.77771893 352.32219324 C131.06918918 352.32178695 143.36062878 352.33135315 155.65209016 352.34545549 C168.28703572 352.35983698 180.92196634 352.36672469 193.55692029 352.36586171 C200.64476266 352.36553034 207.73257289 352.36825119 214.82040787 352.37903976 C221.48854166 352.38912481 228.15659648 352.38879131 234.82473755 352.38152313 C237.26798603 352.38047883 239.71123877 352.38283099 242.15447998 352.38888359 C245.49812985 352.3966283 248.84154707 352.39194218 252.18519211 352.38425255 C253.62409211 352.39196789 253.62409211 352.39196789 255.0920608 352.3998391 C266.94698036 352.33988494 276.893509 350.54567401 285.99604416 342.53935814 C294.65488158 333.35968839 295.33245623 321.59533665 295.31335068 309.65050316 C295.31561623 308.606894 295.31788179 307.56328485 295.320216 306.48805118 C295.32653657 302.9976552 295.32572788 299.50729826 295.32490158 296.0168972 C295.32789429 293.51157646 295.33129708 291.00625618 295.33507919 288.50093651 C295.34299502 282.40546512 295.34613337 276.31000798 295.34669157 270.21453193 C295.34716746 265.25722112 295.34922587 260.29991349 295.3523922 255.34260368 C295.36119501 241.27327413 295.3658122 227.20395219 295.36506172 213.13461986 C295.36502177 212.37679677 295.36498181 211.61897369 295.36494064 210.83818626 C295.36489976 210.07943281 295.36485888 209.32067935 295.36481676 208.53893337 C295.36441047 196.24746312 295.37397667 183.95602352 295.38807901 171.66456214 C295.4024605 159.02961658 295.40934821 146.39468595 295.40848523 133.75973201 C295.40815386 126.67188964 295.41087471 119.58407941 295.42166328 112.49624443 C295.43174833 105.82811064 295.43141483 99.16005582 295.42414665 92.49191475 C295.42310235 90.04866626 295.42545451 87.60541353 295.43150711 85.16217232 C295.43925182 81.81852245 295.4345657 78.47510523 295.42687607 75.13146019 C295.43459141 73.69256019 295.43459141 73.69256019 295.44246262 72.22459149 C295.38250846 60.36967193 293.58829753 50.4231433 285.58198166 41.32060814 C276.40231191 32.66177071 264.63796017 31.98419607 252.69312668 32.00330162 C251.64951752 32.00103606 250.60590837 31.99877051 249.5306747 31.9964363 C246.04027872 31.99011573 242.54992178 31.99092442 239.05952072 31.99175072 C236.55419998 31.98875801 234.0488797 31.98535522 231.54356003 31.9815731 C225.44808864 31.97365728 219.3526315 31.97051893 213.25715545 31.96996073 C208.29984464 31.96948483 203.34253701 31.96742643 198.3852272 31.9642601 C184.31589765 31.95545729 170.24657571 31.9508401 156.17724338 31.95159058 C155.04050875 31.95165051 155.04050875 31.95165051 153.88080978 31.95171165 C152.7426796 31.95177298 152.7426796 31.95177298 151.58155689 31.95183554 C139.29008664 31.95224182 126.99864704 31.94267563 114.70718566 31.92857329 C102.0722401 31.9141918 89.43730947 31.90730409 76.80235553 31.90816706 C69.71451316 31.90849844 62.62670293 31.90577759 55.53886795 31.89498901 C48.87073416 31.88490397 42.20267934 31.88523747 35.53453827 31.89250565 C33.09128978 31.89354995 30.64803705 31.89119779 28.20479584 31.88514519 C24.86114597 31.87740047 21.51772875 31.8820866 18.17408371 31.88977623 C17.21481704 31.88463267 16.25555037 31.8794891 15.26721501 31.87418967 C2.76468274 31.93741903 -8.29932223 33.95587438 -17.19536209 43.38701439 Z " fill="#000000" transform="translate(120.82036209106445,63.862985610961914)"/>
</svg>
