<?xml version="1.0" encoding="UTF-8"?>
<svg version="1.1" xmlns="http://www.w3.org/2000/svg" width="80" height="80">
<path d="M0 0 C1.67542976 0.28604898 3.34385343 0.61781233 5 1 C5 2.98 5 4.96 5 7 C9.79137588 8.6290678 13.05632546 9.20577428 18 8 C18.495 10.475 18.495 10.475 19 13 C17.35 13.66 15.7 14.32 14 15 C14.23413974 20.03478441 14.23413974 20.03478441 17.0625 23.9375 C17.701875 24.288125 18.34125 24.63875 19 25 C18.6875 26.9375 18.6875 26.9375 18 29 C15 30 15 30 12.625 29.5 C9.74911647 28.95221266 7.81089538 29.27719833 5 30 C5 32.31 5 34.62 5 37 C3.33388095 37.042721 1.66617115 37.04063832 0 37 C-1 36 -1 36 -1.0625 32.9375 C-1.0315625 31.4834375 -1.0315625 31.4834375 -1 30 C-5.29196758 28.14658279 -5.29196758 28.14658279 -9.75 28.9375 C-10.4925 29.288125 -11.235 29.63875 -12 30 C-12.66 29.67 -13.32 29.34 -14 29 C-14.1875 26.625 -14.1875 26.625 -14 24 C-13.01 23.34 -12.02 22.68 -11 22 C-10.5 18.5 -10.5 18.5 -11 15 C-11.99 14.34 -12.98 13.68 -14 13 C-14.1875 10.375 -14.1875 10.375 -14 8 C-12.783125 8.20625 -11.56625 8.4125 -10.3125 8.625 C-6.65193227 9.09963844 -4.32388488 8.76581384 -1 7 C-1.020625 6.030625 -1.04125 5.06125 -1.0625 4.0625 C-1 1 -1 1 0 0 Z M-2.9375 14.6875 C-4.18870248 16.96417073 -4.18870248 16.96417073 -3.9375 19.5625 C-2.78452423 22.56023701 -1.8687479 23.56562605 1 25 C4.37036311 24.75925978 5.58798021 24.41201979 8 22 C8.33015665 18.89652746 8.50531294 16.84218824 6.875 14.125 C3.36455562 12.01873337 0.17015252 11.9808349 -2.9375 14.6875 Z " fill="#766E85" transform="translate(58,43)"/>
<path d="M0 0 C4.972208 2.2680247 7.3020298 5.30353336 10 10 C11.70108067 15.10324201 11.56521247 19.31873434 9.3125 24.1875 C6.91396861 28.55384059 4.02248138 30.93553612 -0.375 33.25 C-6.38509649 34.96717043 -10.85705676 34.14843099 -16.20703125 31.19921875 C-20.72139661 28.17980663 -22.89450539 24.22597454 -24 19 C-24.19008704 13.22346613 -22.98794152 9.13314218 -19.546875 4.5078125 C-13.81855342 -1.0758545 -7.583957 -0.8500909 0 0 Z M-16 10 C-17.67059198 12.88556797 -18.00846448 14.60216937 -17.9375 17.9375 C-16.68985132 22.01315234 -15.14807713 24.11984432 -12 27 C-8.01856047 28.44779619 -5.05681656 28.46969625 -1.1875 26.75 C-0.465625 26.1725 0.25625 25.595 1 25 C1.5775 24.5875 2.155 24.175 2.75 23.75 C4.78264469 20.90429744 4.883051 18.44999559 5 15 C3.50929132 10.92016573 1.99381605 7.8918076 -2 6 C-7.80403985 5.11796017 -11.91082067 5.41516257 -16 10 Z " fill="#776F86" transform="translate(40,0)"/>
<path d="M0 0 C0.81276398 0.00565979 1.62552795 0.01131958 2.46292114 0.01715088 C5.04100195 0.03941662 7.61765681 0.08959185 10.1953125 0.140625 C11.95050066 0.1607028 13.70571076 0.17895133 15.4609375 0.1953125 C19.74793939 0.23924888 24.03388477 0.30820589 28.3203125 0.390625 C28.8828125 2.328125 28.8828125 2.328125 29.3203125 4.390625 C27.46528093 6.24565657 24.39093009 5.58746298 21.90625 5.63671875 C20.58753906 5.66958984 19.26882812 5.70246094 17.91015625 5.73632812 C15.81043054 5.78348278 13.71072209 5.82783442 11.61083984 5.86743164 C9.58403981 5.90754489 7.55775688 5.95902726 5.53125 6.01171875 C4.31743652 6.0367749 3.10362305 6.06183105 1.85302734 6.08764648 C-1.97274728 6.41575888 -5.10623018 6.96776475 -8.6796875 8.390625 C-12.63154002 14.14308696 -12.63154002 14.14308696 -12.6796875 25.390625 C-2.7796875 25.390625 7.1203125 25.390625 17.3203125 25.390625 C17.8153125 27.370625 17.8153125 27.370625 18.3203125 29.390625 C16.55958666 31.15135084 14.2413496 30.51897284 11.8963623 30.52957153 C11.13907837 30.5275473 10.38179443 30.52552307 9.6015625 30.5234375 C8.44195007 30.52487259 8.44195007 30.52487259 7.25891113 30.52633667 C5.62133706 30.52701841 3.98376031 30.52516457 2.34619141 30.52099609 C-0.16900671 30.51564771 -2.68402623 30.52094126 -5.19921875 30.52734375 C-6.78645873 30.52668297 -8.3736986 30.5254018 -9.9609375 30.5234375 C-10.71822144 30.52546173 -11.47550537 30.52748596 -12.2557373 30.52957153 C-17.56473618 30.50557632 -17.56473618 30.50557632 -18.6796875 29.390625 C-19.89314847 11.38763841 -19.89314847 11.38763841 -14.6796875 4.390625 C-9.72567989 0.25625178 -6.1632313 -0.16347248 0 0 Z " fill="#776F86" transform="translate(21.6796875,39.609375)"/>
</svg>
