<?xml version="1.0" encoding="UTF-8"?>
<svg version="1.1" xmlns="http://www.w3.org/2000/svg" width="80" height="80">
<path d="M0 0 C1.23073242 0.08894531 1.23073242 0.08894531 2.48632812 0.1796875 C3.76733398 0.29570312 3.76733398 0.29570312 5.07421875 0.4140625 C10.54809338 0.86637961 15.32585485 1.0933954 20.76171875 0.0390625 C21.25671875 0.5340625 21.25671875 0.5340625 21.76171875 1.0390625 C23.13521336 1.00710338 24.50727251 0.90707556 25.875 0.77734375 C26.71095703 0.71095703 27.54691406 0.64457031 28.40820312 0.57617188 C30.1749361 0.42732624 31.9406661 0.26601128 33.70507812 0.09179688 C40.12787923 -0.38633951 40.12787923 -0.38633951 43.375 1.79296875 C44.76171875 4.0390625 44.76171875 4.0390625 44.63671875 7.6640625 C43.76171875 11.0390625 43.76171875 11.0390625 41.76171875 13.0390625 C35.83221241 13.7786838 29.64736941 12.78644671 23.76171875 12.0390625 C23.95329108 16.10347029 23.95329108 16.10347029 24.76171875 20.0390625 C27.11761871 21.91957835 27.11761871 21.91957835 29.76171875 23.0390625 C30.42171875 24.0290625 31.08171875 25.0190625 31.76171875 26.0390625 C34.00038905 26.48218305 34.00038905 26.48218305 36.59375 26.41015625 C37.55732422 26.42755859 38.52089844 26.44496094 39.51367188 26.46289062 C41.54230415 26.4719528 43.57095728 26.47720597 45.59960938 26.47851562 C53.05461566 26.62254972 53.05461566 26.62254972 56.8984375 28.88671875 C59.81455406 32.25523075 59.88939101 35.03749346 59.89453125 39.328125 C59.89582031 40.35164063 59.89710937 41.37515625 59.8984375 42.4296875 C59.89457031 43.49703125 59.89070313 44.564375 59.88671875 45.6640625 C59.89058594 46.73914062 59.89445312 47.81421875 59.8984375 48.921875 C59.89714844 49.9428125 59.89585938 50.96375 59.89453125 52.015625 C59.89340332 52.95486816 59.89227539 53.89411133 59.89111328 54.86181641 C59.76171875 57.0390625 59.76171875 57.0390625 58.76171875 58.0390625 C56.06517021 58.11225871 53.39480417 58.13148787 50.69921875 58.1015625 C49.56129883 58.09479492 49.56129883 58.09479492 48.40039062 58.08789062 C46.52080004 58.0760693 44.64124976 58.05813328 42.76171875 58.0390625 C42.76171875 53.4190625 42.76171875 48.7990625 42.76171875 44.0390625 C35.20258407 43.99500826 35.20258407 43.99500826 28.94921875 47.4765625 C28.22734375 48.3221875 27.50546875 49.1678125 26.76171875 50.0390625 C21.95769479 52.38769643 17.8419121 52.33010337 12.76171875 51.0390625 C10.10436322 49.73991091 8.27828787 48.6230102 6.32421875 46.4140625 C4.03379303 44.39848787 1.72597089 44.36842385 -1.23828125 44.0390625 C-2.22828125 46.5140625 -2.22828125 46.5140625 -3.23828125 49.0390625 C-5.36266464 49.11984891 -7.48791355 49.17815391 -9.61328125 49.2265625 C-10.79664063 49.26136719 -11.98 49.29617187 -13.19921875 49.33203125 C-14.70355469 49.18701172 -14.70355469 49.18701172 -16.23828125 49.0390625 C-18.37704717 45.83091362 -18.49404553 44.9513552 -18.50390625 41.2578125 C-18.50648437 40.33355469 -18.5090625 39.40929688 -18.51171875 38.45703125 C-18.50398438 37.49410156 -18.49625 36.53117187 -18.48828125 35.5390625 C-18.49601562 34.57613281 -18.50375 33.61320312 -18.51171875 32.62109375 C-18.50914063 31.69683594 -18.5065625 30.77257812 -18.50390625 29.8203125 C-18.50052246 28.5528418 -18.50052246 28.5528418 -18.49707031 27.25976562 C-18.23828125 25.0390625 -18.23828125 25.0390625 -16.23828125 22.0390625 C-13.19921875 21.74609375 -13.19921875 21.74609375 -9.61328125 21.8515625 C-8.42476562 21.87863281 -7.23625 21.90570312 -6.01171875 21.93359375 C-5.09648437 21.96839844 -4.18125 22.00320312 -3.23828125 22.0390625 C-2.57828125 23.6890625 -1.91828125 25.3390625 -1.23828125 27.0390625 C3.84432185 25.84315589 6.7317364 24.49333309 10.76171875 21.0390625 C11.42171875 21.0390625 12.08171875 21.0390625 12.76171875 21.0390625 C12.76171875 18.0690625 12.76171875 15.0990625 12.76171875 12.0390625 C11.64796875 12.2040625 10.53421875 12.3690625 9.38671875 12.5390625 C6.05248335 12.94393394 2.74449747 13.19145265 -0.61328125 13.2890625 C-1.86238281 13.32773437 -1.86238281 13.32773437 -3.13671875 13.3671875 C-3.83023437 13.25890625 -4.52375 13.150625 -5.23828125 13.0390625 C-7.70152194 9.34420147 -7.62819813 7.40613158 -7.23828125 3.0390625 C-5.06393948 0.06462728 -3.59520871 -0.3099116 0 0 Z M-4.23828125 4.0390625 C-4.28100225 5.70518155 -4.27891957 7.37289135 -4.23828125 9.0390625 C-3.26290618 10.24726277 -3.26290618 10.24726277 -1.44750977 10.06079102 C-0.67850342 10.01365967 0.09050293 9.96652832 0.8828125 9.91796875 C1.73681641 9.86962891 2.59082031 9.82128906 3.47070312 9.77148438 C4.37111328 9.71541016 5.27152344 9.65933594 6.19921875 9.6015625 C15.64167489 9.03206217 24.94893717 8.79884434 34.38671875 9.5390625 C35.59585938 9.631875 36.805 9.7246875 38.05078125 9.8203125 C38.94539063 9.8925 39.84 9.9646875 40.76171875 10.0390625 C41.53414144 8.20205461 41.53414144 8.20205461 41.76171875 6.0390625 C40.58436351 4.29393018 40.58436351 4.29393018 38.76171875 3.0390625 C36.83284961 2.88983656 36.83284961 2.88983656 34.7578125 3.34375 C29.42158864 4.13582044 24.21184085 4.18649535 18.82421875 4.1640625 C17.89931641 4.16792969 16.97441406 4.17179688 16.02148438 4.17578125 C10.53526781 4.16809209 5.19873486 3.85405846 -0.24438477 3.15576172 C-2.31258137 2.86841698 -2.31258137 2.86841698 -4.23828125 4.0390625 Z M15.76171875 12.0390625 C15.76171875 14.6790625 15.76171875 17.3190625 15.76171875 20.0390625 C17.41171875 20.0390625 19.06171875 20.0390625 20.76171875 20.0390625 C20.76171875 17.3990625 20.76171875 14.7590625 20.76171875 12.0390625 C19.11171875 12.0390625 17.46171875 12.0390625 15.76171875 12.0390625 Z M8.53515625 27.63671875 C5.49717017 30.0390029 2.54870637 29.90618574 -1.23828125 30.0390625 C-1.23828125 33.6690625 -1.23828125 37.2990625 -1.23828125 41.0390625 C-0.02140625 41.1009375 1.19546875 41.1628125 2.44921875 41.2265625 C6.94775123 41.76001679 8.82317184 43.58194849 11.76171875 47.0390625 C15.22867913 48.77254269 18.97120812 48.51605629 22.76171875 48.0390625 C27.03575732 45.81467531 27.03575732 45.81467531 29.76171875 42.0390625 C32.47618854 41.72664795 35.10081236 41.52569658 37.82421875 41.4140625 C38.96213867 41.35605469 38.96213867 41.35605469 40.12304688 41.296875 C42.0021907 41.20232688 43.88192211 41.11959494 45.76171875 41.0390625 C45.76171875 45.6590625 45.76171875 50.2790625 45.76171875 55.0390625 C49.06171875 55.0390625 52.36171875 55.0390625 55.76171875 55.0390625 C55.84248601 51.43444955 55.90210826 47.83163687 55.94921875 44.2265625 C55.97435547 43.20240234 55.99949219 42.17824219 56.02539062 41.12304688 C56.03989258 39.64868164 56.03989258 39.64868164 56.0546875 38.14453125 C56.07825317 36.78557739 56.07825317 36.78557739 56.10229492 35.39916992 C55.93047774 33.01364698 55.93047774 33.01364698 54.56518555 31.2409668 C52.14285291 29.6266249 50.51213617 29.68527805 47.61328125 29.703125 C46.6078125 29.69023437 45.60234375 29.67734375 44.56640625 29.6640625 C42.45441263 29.6640625 40.34240414 29.67181731 38.23046875 29.6875 C30.42377152 29.56770413 30.42377152 29.56770413 26.66015625 26.5625 C26.03367187 25.72976562 25.4071875 24.89703125 24.76171875 24.0390625 C18.3045656 20.81048593 13.2708629 22.91212878 8.53515625 27.63671875 Z M-14.23828125 25.0390625 C-15.79434876 26.59513001 -15.36798894 28.09863621 -15.37109375 30.2578125 C-15.37238281 31.10730469 -15.37367187 31.95679688 -15.375 32.83203125 C-15.37113281 33.72535156 -15.36726562 34.61867188 -15.36328125 35.5390625 C-15.36714844 36.43238281 -15.37101563 37.32570313 -15.375 38.24609375 C-15.37371094 39.09558594 -15.37242188 39.94507813 -15.37109375 40.8203125 C-15.36996582 41.60470703 -15.36883789 42.38910156 -15.36767578 43.19726562 C-15.43935567 45.05659238 -15.43935567 45.05659238 -14.23828125 46.0390625 C-11.26828125 46.0390625 -8.29828125 46.0390625 -5.23828125 46.0390625 C-5.23828125 39.1090625 -5.23828125 32.1790625 -5.23828125 25.0390625 C-8.20828125 25.0390625 -11.17828125 25.0390625 -14.23828125 25.0390625 Z " fill="#163020" transform="translate(19.23828125,-0.0390625)"/>
<path d="M0 0 C1.875 0 1.875 0 4 1 C6.76536113 4.47645399 8.76944689 7.50421435 9 12 C8.24657348 14.94521275 7.65264804 16.48720511 5.25 18.375 C2.12613883 19.24273921 0.09544787 18.9220483 -3 18 C-5.47092759 15.77616517 -5.93751126 14.41064032 -6.4375 11.125 C-5.77248444 6.37488884 -3.33534499 3.33534499 0 0 Z M1 4 C-1.39189062 5.8719144 -2.00772029 7.02646956 -2.875 10 C-3.32087268 12.9962832 -3.32087268 12.9962832 -1.5625 14.875 C-1.046875 15.24625 -0.53125 15.6175 0 16 C1.65 15.34 3.3 14.68 5 14 C5.33448259 11.167832 5.33448259 11.167832 5 8 C3.12498069 5.62280307 3.12498069 5.62280307 1 4 Z " fill="#163220" transform="translate(69,61)"/>
</svg>
