<?xml version="1.0" encoding="UTF-8"?>
<svg version="1.1" xmlns="http://www.w3.org/2000/svg" width="512" height="512">
<path d="M0 0 C4.51665786 3.03728876 8.83659615 6.3530544 12.1875 10.6875 C12.1875 11.3475 12.1875 12.0075 12.1875 12.6875 C13.14248383 12.67639694 14.09746765 12.66529388 15.08139038 12.65385437 C24.1138812 12.55216905 33.14625477 12.47738702 42.17918968 12.42843914 C46.82234059 12.40242768 51.46502669 12.36718574 56.10791016 12.31030273 C60.59482976 12.25567921 65.08130439 12.22601601 69.56853104 12.21311378 C71.27406436 12.20392801 72.97957536 12.18599088 74.68491745 12.15884972 C84.17608803 12.01390367 92.05170395 12.14395917 100.1875 17.6875 C101.095 18.244375 102.0025 18.80125 102.9375 19.375 C110.060239 26.69559286 112.50296377 34.47089098 112.57910156 44.41918945 C112.46122901 50.79796325 110.78638135 55.38885544 107.1875 60.6875 C106.630625 61.595 106.07375 62.5025 105.5 63.4375 C98.88834786 69.87045883 91.78068611 72.84652557 82.68676758 72.80102539 C81.92555099 72.80117142 81.16433441 72.80131744 80.38005066 72.8014679 C77.8640152 72.80077124 75.34805378 72.79299038 72.83203125 72.78515625 C71.08754008 72.78329119 69.3430484 72.7818677 67.59855652 72.78086853 C63.00691278 72.77705026 58.41530067 72.76722584 53.82366943 72.75616455 C49.13831002 72.74593561 44.45294549 72.74136773 39.76757812 72.73632812 C30.57420485 72.72560298 21.38085506 72.70853481 12.1875 72.6875 C11.73697266 73.62480957 11.73697266 73.62480957 11.27734375 74.58105469 C10.14187836 76.77567732 8.93693159 78.20556273 7.1875 79.9375 C6.4140625 80.71867187 6.4140625 80.71867187 5.625 81.515625 C4.1875 82.6875 4.1875 82.6875 2.1875 82.6875 C2.1875 99.5175 2.1875 116.3475 2.1875 133.6875 C6.6425 135.1725 6.6425 135.1725 11.1875 136.6875 C19.32327101 140.35997187 27.85690988 145.4525794 33.60939026 152.40631485 C36.7200796 156.02012665 38.98483558 158.11419846 43.83862305 158.54705811 C45.62527199 158.57570235 47.41279038 158.56647484 49.19921875 158.52636719 C50.18076431 158.53232407 51.16230988 158.53828094 52.17359924 158.54441833 C55.40826473 158.55649629 58.6405398 158.52004919 61.875 158.484375 C64.1383517 158.48614421 66.40170313 158.49142893 68.66503906 158.50006104 C74.62391348 158.51531419 80.58194048 158.49149274 86.54071045 158.45684814 C96.04784649 158.40640777 105.5549379 158.40812831 115.06216431 158.42325592 C118.36290072 158.42190552 121.66299192 158.39965557 124.96362305 158.37469482 C136.10842221 158.33435189 146.37605556 158.83835143 157.1875 161.6875 C157.9348642 161.87432343 158.68222839 162.06114685 159.45223999 162.25363159 C174.7280774 166.34228465 188.49043761 174.15644224 200.1875 184.6875 C201.40953125 185.67943359 201.40953125 185.67943359 202.65625 186.69140625 C218.5941399 199.98138722 230.1231011 219.65189307 235.1875 239.6875 C235.43424973 240.64006683 235.68099945 241.59263367 235.93522644 242.57406616 C238.62001621 254.24451508 238.6610055 265.70052394 238.65625 277.6328125 C238.66336489 279.81900219 238.6710658 282.00519005 238.67932129 284.19137573 C238.69267948 288.74156925 238.69437056 293.29158938 238.68847656 297.84179688 C238.6825409 303.67153629 238.71337147 309.50045425 238.75359344 315.33003426 C238.77941188 319.83045942 238.78235407 324.33068393 238.77870178 328.83117294 C238.78039366 330.98178067 238.7900426 333.13239759 238.80784607 335.28293228 C238.82995525 338.27919782 238.82037987 341.27376041 238.80273438 344.27001953 C238.81599762 345.15420059 238.82926086 346.03838165 238.84292603 346.94935608 C238.78303442 351.32120085 238.59717936 353.14655617 235.8795929 356.73487854 C232.37845017 359.27431781 229.43737739 359.41740539 225.26171875 359.39453125 C224.51412796 359.40965256 223.76653717 359.42477386 222.99629211 359.44035339 C220.62221913 359.48314081 218.24941969 359.4920588 215.875 359.5 C214.25973198 359.52315158 212.64449409 359.54851831 211.02929688 359.57617188 C207.08191914 359.63893457 203.13533246 359.67133984 199.1875 359.6875 C199.50799316 360.16243896 199.82848633 360.63737793 200.15869141 361.12670898 C213.23780336 380.61583495 225.5243378 400.80934462 234.1875 422.6875 C234.86425781 424.31558594 234.86425781 424.31558594 235.5546875 425.9765625 C241.05706813 440.96580628 239.29191069 457.23748454 232.90234375 471.5703125 C225.35605325 486.6628935 212.76261012 496.7479952 197.1875 502.6875 C180.91810694 507.67383072 163.54030146 505.49926142 148.5 498 C133.72492267 489.44034821 123.8935083 476.13000896 119.05078125 459.87109375 C115.63775097 445.22910657 118.37268218 431.23469819 124.1875 417.6875 C124.53603027 416.87200684 124.88456055 416.05651367 125.24365234 415.21630859 C133.82055414 395.55761273 145.08418346 377.34489914 157.1875 359.6875 C155.73512939 359.68133667 155.73512939 359.68133667 154.25341797 359.67504883 C150.6410693 359.65318107 147.02979813 359.59881487 143.41796875 359.53491211 C141.85850395 359.51179815 140.29888452 359.4973519 138.73925781 359.49194336 C136.48926168 359.48260429 134.24167522 359.44151488 131.9921875 359.39453125 C131.3013205 359.3984639 130.61045349 359.40239655 129.89865112 359.40644836 C125.81170172 359.28485415 122.32780029 358.55612874 119.29776001 355.66624451 C116.5656264 350.79693973 117.39111876 344.65808315 117.453125 339.2265625 C117.44694601 337.79314675 117.43784623 336.3597409 117.42596436 334.92636108 C117.40125618 331.15750354 117.41045006 327.38953341 117.42852783 323.6206665 C117.45194398 317.59666284 117.4246133 311.57271758 117.39580536 305.54877853 C117.39072001 303.45321297 117.40049981 301.35813163 117.41265869 299.26260376 C117.41215515 297.97792206 117.41165161 296.69324036 117.41113281 295.36962891 C117.41590637 294.24553619 117.42067993 293.12144348 117.42559814 291.96328735 C117.14822309 288.14712279 116.74734576 285.20201849 115.1875 281.6875 C110.64913787 279.68256305 106.26050947 279.40815229 101.34106445 279.28588867 C100.69607498 279.2679274 100.05108551 279.24996613 99.3865509 279.23146057 C97.27468515 279.17721916 95.16307479 279.1389074 93.05078125 279.10546875 C92.32196432 279.09357325 91.59314739 279.08167774 90.8422451 279.06942177 C86.98351349 279.01034093 83.12489682 278.96645115 79.26586914 278.93237305 C76.09616763 278.9012633 72.9295284 278.83866432 69.76098633 278.74780273 C65.90750582 278.63743493 62.05682233 278.58267846 58.20183372 278.56597328 C56.74610792 278.55084453 55.290436 278.51715442 53.8356266 278.46333885 C46.57368006 278.20956833 40.75867849 278.54867242 35.13036633 283.49551105 C33.66469734 284.92130364 32.26373763 286.41273267 30.86735535 287.90644836 C17.18421889 302.10628533 -5.11217013 308.58276704 -24.19995117 309.08813477 C-47.25417711 309.33627705 -67.88910136 303.85171464 -85.8125 288.6875 C-86.43748383 287.91962662 -87.06246765 287.15175323 -87.70639038 286.36061096 C-91.41469227 282.03455732 -94.81063693 279.57589777 -100.49078369 278.8600769 C-106.40010023 278.43352545 -112.30636546 278.51765807 -118.2265625 278.58984375 C-120.40946793 278.58418518 -122.59236637 278.57456707 -124.77523804 278.56117249 C-130.49344495 278.53663863 -136.21015491 278.56557068 -141.92822266 278.60595703 C-147.77381399 278.63767792 -153.61921816 278.6183971 -159.46484375 278.60351562 C-170.91444817 278.58183051 -182.36312002 278.61667485 -193.8125 278.6875 C-193.78639648 279.91944092 -193.76029297 281.15138184 -193.73339844 282.4206543 C-193.71228523 284.05516807 -193.69181117 285.68969019 -193.671875 287.32421875 C-193.65302246 288.13403198 -193.63416992 288.94384521 -193.61474609 289.77819824 C-193.55363687 296.46456614 -194.92556965 301.16873883 -198.8125 306.6875 C-199.369375 307.595 -199.92625 308.5025 -200.5 309.4375 C-206.15338552 314.93809132 -213.01292686 318.76955079 -220.93896484 318.88037109 C-222.50606705 318.90446548 -222.50606705 318.90446548 -224.10482788 318.92904663 C-228.87261264 318.97352343 -233.64025955 319.01454304 -238.40820312 319.03759766 C-240.92424761 319.05417624 -243.44024464 319.08149082 -245.95605469 319.11962891 C-249.58293091 319.17432216 -253.20870476 319.19625922 -256.8359375 319.2109375 C-258.52207657 319.24494156 -258.52207657 319.24494156 -260.24227905 319.27963257 C-261.29331818 319.27678253 -262.3443573 319.2739325 -263.42724609 319.27099609 C-264.34863373 319.27908295 -265.27002136 319.2871698 -266.21932983 319.29550171 C-270.00158559 318.40870377 -271.39145052 316.68966452 -273.8125 313.6875 C-274.30590943 310.88910265 -274.49059018 308.69867536 -274.44741821 305.90673828 C-274.45521817 305.13011904 -274.46301812 304.35349979 -274.47105443 303.55334663 C-274.49097796 300.95435085 -274.47520941 298.3568188 -274.45947266 295.7578125 C-274.46624865 293.89328151 -274.47515167 292.02875721 -274.48602295 290.16424561 C-274.50882505 285.10221715 -274.49997612 280.04069799 -274.48412752 274.97866058 C-274.4714733 269.68253705 -274.48320731 264.38645727 -274.49105835 259.09033203 C-274.50015629 250.19620938 -274.48816314 241.30229427 -274.46435547 232.40820312 C-274.43714399 222.123715 -274.44595804 211.83972247 -274.4734875 201.55524635 C-274.49617338 192.72707182 -274.49938117 183.89904654 -274.48629415 175.07085228 C-274.4784968 169.79733531 -274.47746592 164.52405134 -274.49397659 159.25054932 C-274.50841444 154.29274534 -274.49841202 149.33558064 -274.46950531 144.37784576 C-274.46289085 142.55776278 -274.46479832 140.73762604 -274.47581863 138.91756439 C-274.48947204 136.43373597 -274.47236316 133.95195916 -274.44741821 131.46826172 C-274.45857182 130.74695635 -274.46972543 130.02565098 -274.48121703 129.28248787 C-274.40561674 125.40518032 -273.90153987 123.79771229 -271.43194675 120.74088478 C-268.4870429 118.43237412 -267.22468575 118.05681594 -263.53833008 118.04052734 C-262.5098848 118.02476654 -261.48143951 118.00900574 -260.42182922 117.99276733 C-259.31969589 118.00288849 -258.21756256 118.01300964 -257.08203125 118.0234375 C-255.93643234 118.01865387 -254.79083344 118.01387024 -253.61051941 118.00894165 C-251.18719103 118.00554173 -248.76381685 118.01475037 -246.34057617 118.03564453 C-242.65502799 118.06228296 -238.97255981 118.03596008 -235.28710938 118.00390625 C-232.92707667 118.00721273 -230.56704587 118.01362386 -228.20703125 118.0234375 C-227.11501907 118.01331635 -226.0230069 118.00319519 -224.89790344 117.99276733 C-215.75145182 118.13081999 -207.32310997 120.99603975 -200.8125 127.6875 C-193.66790303 138.29932785 -193.66790303 138.29932785 -193.71484375 144.91796875 C-193.71967773 146.12163086 -193.71967773 146.12163086 -193.72460938 147.34960938 C-193.73717773 148.59967773 -193.73717773 148.59967773 -193.75 149.875 C-193.75451172 150.71998047 -193.75902344 151.56496094 -193.76367188 152.43554688 C-193.77544597 154.51956155 -193.7933811 156.60353977 -193.8125 158.6875 C-181.07700157 158.7886882 -168.34254723 158.83571246 -155.60663033 158.81447029 C-149.69202526 158.80628848 -143.77865859 158.81643855 -137.86425781 158.86914062 C-132.15135208 158.91936186 -126.44030638 158.92056975 -120.72729111 158.88845444 C-118.5528855 158.88471649 -116.37837537 158.89834491 -114.20419693 158.92999649 C-102.17334645 159.619494 -102.17334645 159.619494 -91.31877136 155.47865295 C-88.84858155 153.00826716 -86.85545354 150.51030914 -84.8125 147.6875 C-82.59631016 145.80921795 -80.35720044 144.41862762 -77.875 142.875 C-77.28944336 142.51027588 -76.70388672 142.14555176 -76.10058594 141.76977539 C-62.85118986 133.6875 -62.85118986 133.6875 -57.8125 133.6875 C-57.8125 116.8575 -57.8125 100.0275 -57.8125 82.6875 C-59.1325 82.0275 -60.4525 81.3675 -61.8125 80.6875 C-63.515625 79.25 -63.515625 79.25 -65.0625 77.6875 C-65.84367187 76.9140625 -65.84367187 76.9140625 -66.640625 76.125 C-67.8125 74.6875 -67.8125 74.6875 -67.8125 72.6875 C-69.24497574 72.70415459 -69.24497574 72.70415459 -70.70639038 72.72114563 C-79.7388812 72.82283095 -88.77125477 72.89761298 -97.80418968 72.94656086 C-102.44734059 72.97257232 -107.09002669 73.00781426 -111.73291016 73.06469727 C-116.21982976 73.11932079 -120.70630439 73.14898399 -125.19353104 73.16188622 C-126.89906436 73.17107199 -128.60457536 73.18900912 -130.30991745 73.21615028 C-139.80108803 73.36109633 -147.67670395 73.23104083 -155.8125 67.6875 C-156.72 67.130625 -157.6275 66.57375 -158.5625 66 C-165.685239 58.67940714 -168.12796377 50.90410902 -168.20410156 40.95581055 C-168.08622901 34.57703675 -166.41138135 29.98614456 -162.8125 24.6875 C-162.255625 23.78 -161.69875 22.8725 -161.125 21.9375 C-154.51334786 15.50454117 -147.40568611 12.52847443 -138.31176758 12.57397461 C-137.55055099 12.57382858 -136.78933441 12.57368256 -136.00505066 12.5735321 C-133.4890152 12.57422876 -130.97305378 12.58200962 -128.45703125 12.58984375 C-126.71254008 12.59170881 -124.9680484 12.5931323 -123.22355652 12.59413147 C-118.63191278 12.59794974 -114.04030067 12.60777416 -109.44866943 12.61883545 C-104.76331002 12.62906439 -100.07794549 12.63363227 -95.39257812 12.63867188 C-86.19920485 12.64939702 -77.00585506 12.66646519 -67.8125 12.6875 C-67.51843262 12.0672998 -67.22436523 11.44709961 -66.92138672 10.80810547 C-62.16694699 1.71584137 -50.74671006 -3.23730319 -41.55078125 -6.453125 C-27.05252569 -9.78605731 -12.67733566 -7.6064014 0 0 Z " fill="#000000" transform="translate(273.8125,7.3125)"/>
<path d="M0 0 C3.21384333 2.58651362 6.18868616 5.38169685 9.1484375 8.25390625 C10.08945312 9.16011719 11.03046875 10.06632812 12 11 C12.71602402 11.77008676 12.71602402 11.77008676 13.44651318 12.55573082 C17.59591192 16.66733687 20.66570973 17.69420181 26.46134949 17.76554871 C27.88197441 17.73779106 27.88197441 17.73779106 29.33129883 17.70947266 C30.85491028 17.7157795 30.85491028 17.7157795 32.40930176 17.72221375 C35.75915463 17.72990642 39.10734664 17.69633774 42.45703125 17.6640625 C44.80287532 17.66515746 47.14871989 17.66947168 49.49455261 17.67684937 C55.67411583 17.69025636 61.85309776 17.67144657 68.03259277 17.64239502 C77.88224583 17.59706721 87.73157167 17.58160917 97.58130455 17.60194016 C100.996655 17.60157171 104.41114828 17.57595447 107.82637024 17.54824829 C132.5107088 17.47577547 153.30762156 22.75171237 173 38 C173.80953125 38.62519531 174.6190625 39.25039062 175.453125 39.89453125 C190.13417409 52.08596188 199.85548959 69.55487693 204 88 C204.16753784 88.62068863 204.33507568 89.24137726 204.50769043 89.88087463 C206.62977397 98.63434693 206.25132805 107.53512035 206.1953125 116.4765625 C206.19236608 118.0549302 206.19032933 119.63329987 206.18920898 121.21166992 C206.17879106 127.01614339 206.15086867 132.82057482 206.125 138.625 C206.08375 151.61875 206.0425 164.6125 206 178 C179.6 178 153.2 178 126 178 C125.625 152.0625 125.625 152.0625 125.52197266 143.92602539 C125.48673534 141.77489022 125.45081066 139.62376614 125.4140625 137.47265625 C125.40270264 136.37433472 125.39134277 135.27601318 125.37963867 134.14440918 C125.18483248 123.70584866 124.12080281 115.04302992 117 107 C109.8940906 101.05086655 103.08103271 98.70934578 93.82666016 98.66186523 C92.6303019 98.64456108 92.6303019 98.64456108 91.40977478 98.62690735 C88.7861835 98.5927559 86.16282658 98.57413264 83.5390625 98.55859375 C82.18873995 98.54823939 82.18873995 98.54823939 80.81113815 98.53767586 C76.04922067 98.5019122 71.28742059 98.47833352 66.52539062 98.46459961 C61.6202019 98.44803867 56.71645144 98.38957512 51.8117466 98.32145596 C48.02662887 98.27659052 44.24185418 98.26309947 40.45649338 98.25798225 C38.64880843 98.25011001 36.84113336 98.23052977 35.03371048 98.19875908 C23.75158378 97.65055521 23.75158378 97.65055521 13.95703125 102.41259766 C12.30417691 104.21853603 12.30417691 104.21853603 11 106 C10.32710937 106.71027344 9.65421875 107.42054688 8.9609375 108.15234375 C8.43757812 108.74144531 7.91421875 109.33054687 7.375 109.9375 C-4.50999633 121.89199923 -22.94148905 128.19499341 -39.5 128.25 C-50.95496639 128.25411568 -60.77263194 126.25978929 -71 121 C-72.35158203 120.34644531 -72.35158203 120.34644531 -73.73046875 119.6796875 C-81.20266813 115.75110712 -86.60309735 110.82159202 -92.36791992 104.71142578 C-92.92842041 104.1182959 -93.4889209 103.52516602 -94.06640625 102.9140625 C-94.56084229 102.3773291 -95.05527832 101.8405957 -95.56469727 101.28759766 C-98.22349233 98.90241562 -100.98957774 98.86990882 -104.38493347 98.84178162 C-105.28095779 98.8319928 -106.17698212 98.82220398 -107.10015869 98.81211853 C-108.08055115 98.80636307 -109.0609436 98.8006076 -110.07104492 98.79467773 C-111.10536148 98.78477814 -112.13967804 98.77487854 -113.20533752 98.76467896 C-116.63035784 98.73304538 -120.05539203 98.70829909 -123.48046875 98.68359375 C-125.85273096 98.66302583 -128.22498949 98.64202941 -130.59724426 98.62062073 C-136.8459882 98.56538332 -143.0947653 98.51598135 -149.34356689 98.46777344 C-156.83843368 98.40874656 -164.33323975 98.34250938 -171.82805634 98.27747345 C-183.2186672 98.17944293 -194.6093167 98.09060114 -206 98 C-206 71.6 -206 45.2 -206 18 C-194.60919922 17.94392578 -194.60919922 17.94392578 -182.98828125 17.88671875 C-178.18031574 17.8564464 -173.37238758 17.82530329 -168.56445312 17.79101562 C-160.93141543 17.73666401 -153.29845163 17.68555502 -145.6652832 17.65356445 C-139.51194817 17.62757434 -133.35886086 17.58720193 -127.20567894 17.53681374 C-124.85695665 17.52011604 -122.50819148 17.50861989 -120.15941811 17.50238609 C-116.87204583 17.49277682 -113.5853115 17.46475452 -110.2980957 17.43237305 C-109.3248938 17.43380814 -108.35169189 17.43524323 -107.34899902 17.4367218 C-100.73068427 17.34439444 -97.31715938 16.26662942 -92.4921875 11.546875 C-91.62851563 10.62390625 -90.76484375 9.7009375 -89.875 8.75 C-66.04499656 -15.83380967 -28.13144028 -19.17238287 0 0 Z " fill="#CCECF9" transform="translate(286,168)"/>
<path d="M0 0 C33 0 33 0 39 5 C40.06238626 8.18715877 40.13626874 10.4752308 40.15390015 13.82514954 C40.16250061 15.04065491 40.17110107 16.25616028 40.17996216 17.50849915 C40.18439722 18.85763507 40.1886956 20.20677145 40.19287109 21.5559082 C40.20077376 22.9751709 40.20904281 24.3944316 40.21765137 25.81369019 C40.24384961 30.47603441 40.2591755 35.13838752 40.2734375 39.80078125 C40.27879784 41.40631809 40.28417535 43.01185486 40.28956985 44.61739159 C40.31119419 51.29574588 40.32993113 57.97409778 40.34119225 64.65247822 C40.35743426 74.22146203 40.39062289 83.79003999 40.44759309 93.3588708 C40.48629301 100.08848112 40.5058249 106.81798287 40.51111281 113.54770154 C40.51476586 117.5666211 40.5267818 121.58510758 40.55921555 125.60390663 C40.58929805 129.38547966 40.59560789 133.16635758 40.58383179 136.94802475 C40.58361107 138.33394525 40.59191486 139.71989803 40.60948563 141.10570717 C40.75057262 152.87628485 40.75057262 152.87628485 37.58853149 156.80900574 C26.5295993 166.16954743 21.62832528 160 0 160 C0 107.2 0 54.4 0 0 Z " fill="#46506D" transform="translate(20,146)"/>
<path d="M0 0 C0.66 0 1.32 0 2 0 C3.18237305 1.42333984 3.18237305 1.42333984 4.51171875 3.4609375 C5.01485596 4.22946045 5.51799316 4.9979834 6.03637695 5.78979492 C6.58124756 6.6429126 7.12611816 7.49603027 7.6875 8.375 C8.25621826 9.25969971 8.82493652 10.14439941 9.41088867 11.0559082 C44.04730134 65.52616521 44.04730134 65.52616521 40 88 C36.68169627 99.82056692 30.0449347 107.73643921 19.4921875 113.80859375 C9.59537595 118.53982811 -2.55041711 119.56598669 -13 116 C-23.52730126 111.46814669 -31.00489521 104.29246115 -36 94 C-41.41842194 79.84341874 -38.16892146 67.97352321 -32.31030273 54.69116211 C-24.51379736 37.66020506 -14.39253179 21.44975477 -4.125 5.8125 C-3.52764038 4.89549316 -3.52764038 4.89549316 -2.91821289 3.95996094 C-2.00139701 2.60053725 -1.00891925 1.29254248 0 0 Z " fill="#00A8DD" transform="translate(451,374)"/>
<path d="M0 0 C7.12597052 5.65749503 10.8673453 12.7121999 11.98828125 21.6796875 C12.96689241 30.2312435 10.60238778 37.73575823 5.23828125 44.4921875 C-0.45643769 50.58956334 -7.80022692 54.63478359 -16.19921875 54.9921875 C-26.04521366 54.69432547 -34.03750078 51.72406862 -41.01171875 44.6796875 C-47.20307948 36.83830643 -48.81680162 29.19812269 -47.76953125 19.41796875 C-46.43210815 11.59813779 -42.40148503 5.35867691 -36.32421875 0.3046875 C-25.06972622 -7.4274066 -11.27443861 -7.39953447 0 0 Z " fill="#46506C" transform="translate(264.01171875,25.3203125)"/>
<path d="M0 0 C17.12142148 9.09649931 28.77450472 24.32500035 34.85839844 42.57495117 C37.07862444 50.6106391 37.52689926 58.39805915 37.50097656 66.67480469 C37.49999163 68.89384995 37.5420346 71.10956505 37.5859375 73.328125 C37.59113772 74.75780541 37.5938328 76.18749763 37.59375 77.6171875 C37.60083984 78.89190918 37.60792969 80.16663086 37.61523438 81.47998047 C36.80052939 86.14125683 35.37289711 87.72352402 32 91 C28.06716823 92.19389536 26.03746128 92.44799464 22.25 90.8125 C18.93017573 88.13819711 17.16713206 86.35276314 16.63110352 82.01416016 C16.63037842 80.86737793 16.62965332 79.7205957 16.62890625 78.5390625 C16.60280273 76.62287109 16.60280273 76.62287109 16.57617188 74.66796875 C16.56299644 72.01167212 16.56186844 69.3555697 16.56054688 66.69921875 C16.34438397 51.77652434 13.07465856 38.56929824 2.640625 27.49609375 C-7.17967516 18.24000338 -16.75556427 14.36764507 -30.1015625 12.5859375 C-38.21245077 11.47096364 -38.21245077 11.47096364 -41.25 8.375 C-43.18216393 4.64868385 -43.45976472 2.85375664 -42.65234375 -1.16796875 C-41.68574022 -3.8825619 -40.29915343 -5.30944601 -38 -7 C-25.71523 -11.09492333 -11.02690872 -5.43182852 0 0 Z " fill="#020202" transform="translate(435,214)"/>
<path d="M0 0 C8.2409523 -0.11313295 16.48129711 -0.20479035 24.72281837 -0.25906086 C28.55004438 -0.28511309 32.37670985 -0.32042891 36.20361328 -0.37719727 C39.89949394 -0.43167656 43.59483678 -0.46145343 47.2910881 -0.47438622 C48.69850503 -0.48359787 50.10589375 -0.50158679 51.5130806 -0.52865028 C63.92476101 -0.75778001 63.92476101 -0.75778001 67.8503418 2.40380859 C70.41912826 5.50619079 71.07574229 7.09349781 71.3125 11 C70.73436389 14.7000711 68.6645237 16.45940763 66 19 C63.23149177 20.38425411 60.99580816 20.11959962 57.89794922 20.11352539 C56.61677216 20.11344986 55.33559509 20.11337433 54.01559448 20.11329651 C52.61195843 20.10818948 51.20832277 20.10297348 49.8046875 20.09765625 C48.37265065 20.09579146 46.94061316 20.09436784 45.50857544 20.09336853 C41.73726646 20.08954819 37.96599593 20.07972202 34.19470215 20.06866455 C30.34725464 20.05844005 26.49980093 20.05386868 22.65234375 20.04882812 C15.10154294 20.03809932 7.55078175 20.02050643 0 20 C0 13.4 0 6.8 0 0 Z " fill="#46506D" transform="translate(295,40)"/>
<path d="M0 0 C1.26108078 0.00007553 2.52216156 0.00015106 3.82145691 0.00022888 C5.19778482 0.0053355 6.57411234 0.0105515 7.95043945 0.01586914 C9.35862681 0.01773453 10.76681481 0.01915786 12.17500305 0.02015686 C15.878894 0.02397251 19.58274566 0.03379467 23.28662109 0.04486084 C27.06713326 0.05509542 30.84765179 0.05965887 34.62817383 0.06469727 C42.04420943 0.0754178 49.46020455 0.09300689 56.8762207 0.11352539 C56.8762207 6.71352539 56.8762207 13.31352539 56.8762207 20.11352539 C48.74838977 20.18136458 40.62077981 20.23637773 32.49274158 20.26896191 C28.71836115 20.2846025 24.94418484 20.305811 21.16992188 20.33984375 C17.52595202 20.37249515 13.88217823 20.3903905 10.23807335 20.39815712 C8.84942222 20.40369031 7.46078154 20.41449542 6.07221413 20.43071556 C4.12393325 20.45256395 2.17545413 20.45375143 0.22705078 20.45410156 C-0.88103439 20.4607634 -1.98911957 20.46742523 -3.13078308 20.47428894 C-7.3331734 19.96774996 -9.90038798 18.21457758 -12.9987793 15.42602539 C-14.71889991 11.89022192 -14.25762044 8.8194357 -13.1237793 5.11352539 C-9.39648914 0.26804818 -5.84914693 -0.01167494 0 0 Z " fill="#46506D" transform="translate(140.123779296875,39.886474609375)"/>
<path d="M0 0 C6.6 0 13.2 0 20 0 C20 12.21 20 24.42 20 37 C13.4 37 6.8 37 0 37 C0 24.79 0 12.58 0 0 Z " fill="#CCECF9" transform="translate(236,99)"/>
<path d="M0 0 C3.23614894 2.12904535 4.29269525 4.18134969 5.0625 7.875 C5.334065 11.41859207 4.9214213 12.13505715 3 15.4375 C-0.54594585 18.46632874 -2.36299711 19.08280362 -7 19 C-10.62036655 17.4366599 -13.2601659 15.57632565 -15 12 C-15.21431243 7.84233882 -14.6796522 4.88354786 -12.125 1.5625 C-7.96492179 -1.49638104 -4.8863851 -1.11443871 0 0 Z " fill="#040505" transform="translate(367,207)"/>
</svg>
